G04 MADE WITH FRITZING*
G04 WWW.FRITZING.ORG*
G04 DOUBLE SIDED*
G04 HOLES PLATED*
G04 CONTOUR ON CENTER OF CONTOUR VECTOR*
%ASAXBY*%
%FSLAX23Y23*%
%MOIN*%
%OFA0B0*%
%SFA1.0B1.0*%
%ADD10C,0.088000*%
%ADD11C,0.049370*%
%ADD12C,0.085000*%
%ADD13C,0.234409*%
%ADD14C,0.092000*%
%ADD15C,0.084000*%
%ADD16R,0.072992X0.084803*%
%ADD17R,0.084803X0.072992*%
%ADD18R,0.085000X0.085000*%
%ADD19R,0.092000X0.092000*%
%ADD20R,0.084000X0.084000*%
%LNMASK1*%
G90*
G70*
G54D10*
X1708Y1171D03*
X1708Y1071D03*
X1708Y971D03*
X1708Y871D03*
X1708Y771D03*
X1708Y3171D03*
X1708Y3071D03*
X1708Y2971D03*
X1708Y2871D03*
X1708Y2771D03*
X1708Y5171D03*
X1708Y5071D03*
X1708Y4971D03*
X1708Y4871D03*
X1708Y4771D03*
X1108Y7371D03*
X1208Y7371D03*
X1308Y7371D03*
X1408Y7371D03*
X1508Y7371D03*
X1708Y7071D03*
X1708Y6971D03*
X1708Y6871D03*
X1708Y6771D03*
X1708Y6671D03*
G54D11*
X1208Y6971D03*
X1508Y6671D03*
X1408Y6771D03*
X1308Y6871D03*
X1508Y4771D03*
X1408Y4871D03*
X1308Y4971D03*
X808Y5071D03*
X1112Y5167D03*
X1108Y7071D03*
X808Y6971D03*
G54D12*
X258Y971D03*
X258Y871D03*
X258Y2971D03*
X258Y2871D03*
X258Y4971D03*
X258Y4871D03*
X258Y6871D03*
X258Y6771D03*
G54D13*
X1773Y7678D03*
X202Y7677D03*
X202Y197D03*
X1773Y197D03*
G54D14*
X508Y871D03*
X508Y971D03*
X508Y1071D03*
X508Y2871D03*
X508Y2971D03*
X508Y3071D03*
X508Y4871D03*
X508Y4971D03*
X508Y5071D03*
X508Y6771D03*
X508Y6871D03*
X508Y6971D03*
G54D15*
X198Y3861D03*
X198Y3961D03*
X198Y4061D03*
G54D10*
X1308Y371D03*
X1208Y371D03*
X1108Y371D03*
G54D11*
X1508Y2771D03*
X1408Y2871D03*
X1308Y2971D03*
X1108Y3171D03*
X797Y3071D03*
X1108Y1171D03*
X1308Y971D03*
X1408Y871D03*
X808Y1071D03*
G54D16*
X1058Y7521D03*
X1180Y7521D03*
G54D17*
X1308Y7621D03*
X1308Y7499D03*
X1858Y6610D03*
X1858Y6732D03*
X1858Y4710D03*
X1858Y4832D03*
G54D16*
X1058Y7671D03*
X1180Y7671D03*
G54D18*
X258Y971D03*
X258Y2971D03*
X258Y4971D03*
X258Y6871D03*
G54D17*
X658Y971D03*
X658Y1093D03*
X658Y2971D03*
X658Y3093D03*
X658Y4971D03*
X658Y5093D03*
X658Y6871D03*
X658Y6993D03*
X1858Y954D03*
X1858Y1076D03*
X1858Y2949D03*
X1858Y3071D03*
X1858Y4949D03*
X1858Y5071D03*
X1858Y6849D03*
X1858Y6971D03*
G54D19*
X508Y871D03*
X508Y2871D03*
X508Y4871D03*
X508Y6771D03*
G54D20*
X198Y3861D03*
G54D17*
X1858Y2710D03*
X1858Y2832D03*
X1858Y716D03*
X1858Y838D03*
G04 End of Mask1*
M02*