G04 MADE WITH FRITZING*
G04 WWW.FRITZING.ORG*
G04 DOUBLE SIDED*
G04 HOLES PLATED*
G04 CONTOUR ON CENTER OF CONTOUR VECTOR*
%ASAXBY*%
%FSLAX23Y23*%
%MOIN*%
%OFA0B0*%
%SFA1.0B1.0*%
%ADD10C,0.075000*%
%ADD11C,0.078000*%
%ADD12C,0.039370*%
%ADD13C,0.224409*%
%ADD14C,0.082000*%
%ADD15C,0.074000*%
%ADD16R,0.075000X0.075000*%
%ADD17R,0.082000X0.082000*%
%ADD18R,0.074000X0.074000*%
%ADD19C,0.024000*%
%LNCOPPER0*%
G90*
G70*
G54D10*
X400Y7739D03*
G54D11*
X1708Y1171D03*
X1708Y1071D03*
X1708Y971D03*
X1708Y871D03*
X1708Y771D03*
X1708Y3171D03*
X1708Y3071D03*
X1708Y2971D03*
X1708Y2871D03*
X1708Y2771D03*
X1708Y5171D03*
X1708Y5071D03*
X1708Y4971D03*
X1708Y4871D03*
X1708Y4771D03*
X1108Y7371D03*
X1208Y7371D03*
X1308Y7371D03*
X1408Y7371D03*
X1508Y7371D03*
X1708Y7071D03*
X1708Y6971D03*
X1708Y6871D03*
X1708Y6771D03*
X1708Y6671D03*
G54D12*
X1208Y6971D03*
X1508Y6671D03*
X1408Y6771D03*
X1308Y6871D03*
X1508Y4771D03*
X1408Y4871D03*
X1308Y4971D03*
X808Y5071D03*
X1112Y5167D03*
X1108Y7071D03*
X808Y6971D03*
G54D10*
X258Y971D03*
X258Y871D03*
X258Y2971D03*
X258Y2871D03*
X258Y4971D03*
X258Y4871D03*
X258Y6871D03*
X258Y6771D03*
G54D13*
X1773Y7678D03*
X202Y7677D03*
X202Y197D03*
X1773Y197D03*
G54D14*
X508Y871D03*
X508Y971D03*
X508Y1071D03*
X508Y2871D03*
X508Y2971D03*
X508Y3071D03*
X508Y4871D03*
X508Y4971D03*
X508Y5071D03*
X508Y6771D03*
X508Y6871D03*
X508Y6971D03*
G54D15*
X198Y3861D03*
X198Y3961D03*
X198Y4061D03*
G54D11*
X1308Y371D03*
X1208Y371D03*
X1108Y371D03*
G54D12*
X1508Y2771D03*
X1408Y2871D03*
X1308Y2971D03*
X1108Y3171D03*
X797Y3071D03*
X1108Y1171D03*
X1308Y971D03*
X1408Y871D03*
X808Y1071D03*
G54D16*
X258Y971D03*
X258Y2971D03*
X258Y4971D03*
X258Y6871D03*
G54D17*
X508Y871D03*
X508Y2871D03*
X508Y4871D03*
X508Y6771D03*
G54D18*
X198Y3861D03*
G54D19*
X1227Y6971D02*
X1678Y6971D01*
D02*
X476Y4871D02*
X287Y4871D01*
D02*
X476Y6771D02*
X287Y6771D01*
D02*
X1678Y6671D02*
X1527Y6671D01*
D02*
X1427Y6771D02*
X1678Y6771D01*
D02*
X1327Y6871D02*
X1678Y6871D01*
D02*
X1527Y4771D02*
X1678Y4771D01*
D02*
X1427Y4871D02*
X1678Y4871D01*
D02*
X1327Y4971D02*
X1678Y4971D01*
D02*
X1678Y5071D02*
X827Y5071D01*
D02*
X1131Y5167D02*
X1678Y5171D01*
D02*
X1678Y7071D02*
X1127Y7071D01*
D02*
X827Y6971D02*
X1189Y6971D01*
D02*
X476Y6871D02*
X287Y6871D01*
D02*
X476Y4971D02*
X287Y4971D01*
D02*
X1127Y3171D02*
X1678Y3171D01*
D02*
X1327Y2971D02*
X1678Y2971D01*
D02*
X1427Y2871D02*
X1678Y2871D01*
D02*
X1527Y2771D02*
X1678Y2771D01*
D02*
X287Y2871D02*
X476Y2871D01*
D02*
X816Y3071D02*
X1678Y3071D01*
D02*
X1127Y1171D02*
X1678Y1171D01*
D02*
X1327Y971D02*
X1678Y971D01*
D02*
X1427Y871D02*
X1678Y871D01*
D02*
X476Y2971D02*
X287Y2971D01*
D02*
X476Y971D02*
X287Y971D01*
D02*
X476Y871D02*
X287Y871D01*
D02*
X760Y871D02*
X1308Y571D01*
D02*
X1308Y571D02*
X1308Y401D01*
D02*
X540Y871D02*
X760Y871D01*
D02*
X827Y1071D02*
X1678Y1071D01*
G36*
X40Y7834D02*
X40Y7810D01*
X1790Y7810D01*
X1790Y7808D01*
X1802Y7808D01*
X1802Y7806D01*
X1810Y7806D01*
X1810Y7804D01*
X1816Y7804D01*
X1816Y7802D01*
X1820Y7802D01*
X1820Y7800D01*
X1826Y7800D01*
X1826Y7798D01*
X1830Y7798D01*
X1830Y7796D01*
X1834Y7796D01*
X1834Y7794D01*
X1838Y7794D01*
X1838Y7792D01*
X1840Y7792D01*
X1840Y7790D01*
X1844Y7790D01*
X1844Y7788D01*
X1848Y7788D01*
X1848Y7786D01*
X1850Y7786D01*
X1850Y7784D01*
X1852Y7784D01*
X1852Y7782D01*
X1856Y7782D01*
X1856Y7780D01*
X1858Y7780D01*
X1858Y7778D01*
X1860Y7778D01*
X1860Y7776D01*
X1862Y7776D01*
X1862Y7774D01*
X1864Y7774D01*
X1864Y7772D01*
X1866Y7772D01*
X1866Y7770D01*
X1868Y7770D01*
X1868Y7768D01*
X1870Y7768D01*
X1870Y7766D01*
X1872Y7766D01*
X1872Y7764D01*
X1874Y7764D01*
X1874Y7762D01*
X1876Y7762D01*
X1876Y7758D01*
X1878Y7758D01*
X1878Y7756D01*
X1880Y7756D01*
X1880Y7754D01*
X1882Y7754D01*
X1882Y7750D01*
X1884Y7750D01*
X1884Y7748D01*
X1886Y7748D01*
X1886Y7744D01*
X1888Y7744D01*
X1888Y7740D01*
X1890Y7740D01*
X1890Y7736D01*
X1892Y7736D01*
X1892Y7732D01*
X1894Y7732D01*
X1894Y7728D01*
X1896Y7728D01*
X1896Y7722D01*
X1898Y7722D01*
X1898Y7718D01*
X1900Y7718D01*
X1900Y7710D01*
X1902Y7710D01*
X1902Y7700D01*
X1904Y7700D01*
X1904Y7656D01*
X1902Y7656D01*
X1902Y7646D01*
X1900Y7646D01*
X1900Y7638D01*
X1898Y7638D01*
X1898Y7634D01*
X1896Y7634D01*
X1896Y7628D01*
X1894Y7628D01*
X1894Y7624D01*
X1892Y7624D01*
X1892Y7620D01*
X1890Y7620D01*
X1890Y7616D01*
X1888Y7616D01*
X1888Y7612D01*
X1886Y7612D01*
X1886Y7608D01*
X1884Y7608D01*
X1884Y7606D01*
X1882Y7606D01*
X1882Y7602D01*
X1880Y7602D01*
X1880Y7600D01*
X1878Y7600D01*
X1878Y7598D01*
X1876Y7598D01*
X1876Y7594D01*
X1874Y7594D01*
X1874Y7592D01*
X1872Y7592D01*
X1872Y7590D01*
X1870Y7590D01*
X1870Y7588D01*
X1868Y7588D01*
X1868Y7586D01*
X1866Y7586D01*
X1866Y7584D01*
X1864Y7584D01*
X1864Y7582D01*
X1862Y7582D01*
X1862Y7580D01*
X1860Y7580D01*
X1860Y7578D01*
X1858Y7578D01*
X1858Y7576D01*
X1856Y7576D01*
X1856Y7574D01*
X1852Y7574D01*
X1852Y7572D01*
X1850Y7572D01*
X1850Y7570D01*
X1848Y7570D01*
X1848Y7568D01*
X1844Y7568D01*
X1844Y7566D01*
X1840Y7566D01*
X1840Y7564D01*
X1838Y7564D01*
X1838Y7562D01*
X1834Y7562D01*
X1834Y7560D01*
X1830Y7560D01*
X1830Y7558D01*
X1826Y7558D01*
X1826Y7556D01*
X1820Y7556D01*
X1820Y7554D01*
X1816Y7554D01*
X1816Y7552D01*
X1810Y7552D01*
X1810Y7550D01*
X1802Y7550D01*
X1802Y7548D01*
X1790Y7548D01*
X1790Y7546D01*
X1928Y7546D01*
X1928Y7834D01*
X40Y7834D01*
G37*
D02*
G36*
X40Y7810D02*
X40Y7546D01*
X180Y7546D01*
X180Y7548D01*
X170Y7548D01*
X170Y7550D01*
X164Y7550D01*
X164Y7552D01*
X158Y7552D01*
X158Y7554D01*
X152Y7554D01*
X152Y7556D01*
X148Y7556D01*
X148Y7558D01*
X144Y7558D01*
X144Y7560D01*
X140Y7560D01*
X140Y7562D01*
X136Y7562D01*
X136Y7564D01*
X132Y7564D01*
X132Y7566D01*
X130Y7566D01*
X130Y7568D01*
X126Y7568D01*
X126Y7570D01*
X124Y7570D01*
X124Y7572D01*
X122Y7572D01*
X122Y7574D01*
X118Y7574D01*
X118Y7576D01*
X116Y7576D01*
X116Y7578D01*
X114Y7578D01*
X114Y7580D01*
X112Y7580D01*
X112Y7582D01*
X110Y7582D01*
X110Y7584D01*
X108Y7584D01*
X108Y7586D01*
X106Y7586D01*
X106Y7588D01*
X104Y7588D01*
X104Y7590D01*
X102Y7590D01*
X102Y7592D01*
X100Y7592D01*
X100Y7594D01*
X98Y7594D01*
X98Y7598D01*
X96Y7598D01*
X96Y7600D01*
X94Y7600D01*
X94Y7602D01*
X92Y7602D01*
X92Y7606D01*
X90Y7606D01*
X90Y7608D01*
X88Y7608D01*
X88Y7612D01*
X86Y7612D01*
X86Y7616D01*
X84Y7616D01*
X84Y7620D01*
X82Y7620D01*
X82Y7624D01*
X80Y7624D01*
X80Y7628D01*
X78Y7628D01*
X78Y7634D01*
X76Y7634D01*
X76Y7640D01*
X74Y7640D01*
X74Y7648D01*
X72Y7648D01*
X72Y7660D01*
X70Y7660D01*
X70Y7696D01*
X72Y7696D01*
X72Y7706D01*
X74Y7706D01*
X74Y7714D01*
X76Y7714D01*
X76Y7720D01*
X78Y7720D01*
X78Y7726D01*
X80Y7726D01*
X80Y7730D01*
X82Y7730D01*
X82Y7736D01*
X84Y7736D01*
X84Y7740D01*
X86Y7740D01*
X86Y7742D01*
X88Y7742D01*
X88Y7746D01*
X90Y7746D01*
X90Y7750D01*
X92Y7750D01*
X92Y7752D01*
X94Y7752D01*
X94Y7754D01*
X96Y7754D01*
X96Y7758D01*
X98Y7758D01*
X98Y7760D01*
X100Y7760D01*
X100Y7762D01*
X102Y7762D01*
X102Y7764D01*
X104Y7764D01*
X104Y7768D01*
X106Y7768D01*
X106Y7770D01*
X108Y7770D01*
X108Y7772D01*
X110Y7772D01*
X110Y7774D01*
X112Y7774D01*
X112Y7776D01*
X116Y7776D01*
X116Y7778D01*
X118Y7778D01*
X118Y7780D01*
X120Y7780D01*
X120Y7782D01*
X122Y7782D01*
X122Y7784D01*
X126Y7784D01*
X126Y7786D01*
X128Y7786D01*
X128Y7788D01*
X132Y7788D01*
X132Y7790D01*
X134Y7790D01*
X134Y7792D01*
X138Y7792D01*
X138Y7794D01*
X142Y7794D01*
X142Y7796D01*
X146Y7796D01*
X146Y7798D01*
X150Y7798D01*
X150Y7800D01*
X156Y7800D01*
X156Y7802D01*
X160Y7802D01*
X160Y7804D01*
X168Y7804D01*
X168Y7806D01*
X176Y7806D01*
X176Y7808D01*
X192Y7808D01*
X192Y7810D01*
X40Y7810D01*
G37*
D02*
G36*
X212Y7810D02*
X212Y7808D01*
X228Y7808D01*
X228Y7806D01*
X236Y7806D01*
X236Y7804D01*
X242Y7804D01*
X242Y7802D01*
X248Y7802D01*
X248Y7800D01*
X254Y7800D01*
X254Y7798D01*
X258Y7798D01*
X258Y7796D01*
X262Y7796D01*
X262Y7794D01*
X266Y7794D01*
X266Y7792D01*
X268Y7792D01*
X268Y7790D01*
X272Y7790D01*
X272Y7788D01*
X276Y7788D01*
X276Y7786D01*
X278Y7786D01*
X278Y7784D01*
X280Y7784D01*
X280Y7782D01*
X284Y7782D01*
X284Y7780D01*
X286Y7780D01*
X286Y7778D01*
X288Y7778D01*
X288Y7776D01*
X290Y7776D01*
X290Y7774D01*
X292Y7774D01*
X292Y7772D01*
X296Y7772D01*
X296Y7768D01*
X298Y7768D01*
X298Y7766D01*
X300Y7766D01*
X300Y7764D01*
X302Y7764D01*
X302Y7762D01*
X304Y7762D01*
X304Y7760D01*
X306Y7760D01*
X306Y7756D01*
X308Y7756D01*
X308Y7754D01*
X310Y7754D01*
X310Y7752D01*
X312Y7752D01*
X312Y7748D01*
X314Y7748D01*
X314Y7746D01*
X316Y7746D01*
X316Y7742D01*
X318Y7742D01*
X318Y7738D01*
X320Y7738D01*
X320Y7734D01*
X322Y7734D01*
X322Y7730D01*
X324Y7730D01*
X324Y7726D01*
X326Y7726D01*
X326Y7720D01*
X328Y7720D01*
X328Y7712D01*
X330Y7712D01*
X330Y7706D01*
X332Y7706D01*
X332Y7692D01*
X334Y7692D01*
X334Y7662D01*
X332Y7662D01*
X332Y7650D01*
X330Y7650D01*
X330Y7642D01*
X328Y7642D01*
X328Y7636D01*
X326Y7636D01*
X326Y7630D01*
X324Y7630D01*
X324Y7624D01*
X322Y7624D01*
X322Y7620D01*
X320Y7620D01*
X320Y7616D01*
X318Y7616D01*
X318Y7612D01*
X316Y7612D01*
X316Y7610D01*
X314Y7610D01*
X314Y7606D01*
X312Y7606D01*
X312Y7604D01*
X310Y7604D01*
X310Y7600D01*
X308Y7600D01*
X308Y7598D01*
X306Y7598D01*
X306Y7596D01*
X304Y7596D01*
X304Y7592D01*
X302Y7592D01*
X302Y7590D01*
X300Y7590D01*
X300Y7588D01*
X298Y7588D01*
X298Y7586D01*
X296Y7586D01*
X296Y7584D01*
X294Y7584D01*
X294Y7582D01*
X292Y7582D01*
X292Y7580D01*
X290Y7580D01*
X290Y7578D01*
X288Y7578D01*
X288Y7576D01*
X286Y7576D01*
X286Y7574D01*
X282Y7574D01*
X282Y7572D01*
X280Y7572D01*
X280Y7570D01*
X278Y7570D01*
X278Y7568D01*
X274Y7568D01*
X274Y7566D01*
X270Y7566D01*
X270Y7564D01*
X268Y7564D01*
X268Y7562D01*
X264Y7562D01*
X264Y7560D01*
X260Y7560D01*
X260Y7558D01*
X256Y7558D01*
X256Y7556D01*
X252Y7556D01*
X252Y7554D01*
X246Y7554D01*
X246Y7552D01*
X240Y7552D01*
X240Y7550D01*
X232Y7550D01*
X232Y7548D01*
X222Y7548D01*
X222Y7546D01*
X1756Y7546D01*
X1756Y7548D01*
X1744Y7548D01*
X1744Y7550D01*
X1736Y7550D01*
X1736Y7552D01*
X1730Y7552D01*
X1730Y7554D01*
X1724Y7554D01*
X1724Y7556D01*
X1720Y7556D01*
X1720Y7558D01*
X1716Y7558D01*
X1716Y7560D01*
X1712Y7560D01*
X1712Y7562D01*
X1708Y7562D01*
X1708Y7564D01*
X1704Y7564D01*
X1704Y7566D01*
X1702Y7566D01*
X1702Y7568D01*
X1698Y7568D01*
X1698Y7570D01*
X1696Y7570D01*
X1696Y7572D01*
X1692Y7572D01*
X1692Y7574D01*
X1690Y7574D01*
X1690Y7576D01*
X1688Y7576D01*
X1688Y7578D01*
X1686Y7578D01*
X1686Y7580D01*
X1684Y7580D01*
X1684Y7582D01*
X1680Y7582D01*
X1680Y7584D01*
X1678Y7584D01*
X1678Y7588D01*
X1676Y7588D01*
X1676Y7590D01*
X1674Y7590D01*
X1674Y7592D01*
X1672Y7592D01*
X1672Y7594D01*
X1670Y7594D01*
X1670Y7596D01*
X1668Y7596D01*
X1668Y7600D01*
X1666Y7600D01*
X1666Y7602D01*
X1664Y7602D01*
X1664Y7604D01*
X1662Y7604D01*
X1662Y7608D01*
X1660Y7608D01*
X1660Y7612D01*
X1658Y7612D01*
X1658Y7614D01*
X1656Y7614D01*
X1656Y7618D01*
X1654Y7618D01*
X1654Y7622D01*
X1652Y7622D01*
X1652Y7626D01*
X1650Y7626D01*
X1650Y7632D01*
X1648Y7632D01*
X1648Y7638D01*
X1646Y7638D01*
X1646Y7644D01*
X1644Y7644D01*
X1644Y7652D01*
X1642Y7652D01*
X1642Y7670D01*
X1640Y7670D01*
X1640Y7686D01*
X1642Y7686D01*
X1642Y7702D01*
X1644Y7702D01*
X1644Y7712D01*
X1646Y7712D01*
X1646Y7718D01*
X1648Y7718D01*
X1648Y7724D01*
X1650Y7724D01*
X1650Y7730D01*
X1652Y7730D01*
X1652Y7734D01*
X1654Y7734D01*
X1654Y7738D01*
X1656Y7738D01*
X1656Y7742D01*
X1658Y7742D01*
X1658Y7744D01*
X1660Y7744D01*
X1660Y7748D01*
X1662Y7748D01*
X1662Y7752D01*
X1664Y7752D01*
X1664Y7754D01*
X1666Y7754D01*
X1666Y7756D01*
X1668Y7756D01*
X1668Y7760D01*
X1670Y7760D01*
X1670Y7762D01*
X1672Y7762D01*
X1672Y7764D01*
X1674Y7764D01*
X1674Y7766D01*
X1676Y7766D01*
X1676Y7768D01*
X1678Y7768D01*
X1678Y7772D01*
X1680Y7772D01*
X1680Y7774D01*
X1684Y7774D01*
X1684Y7776D01*
X1686Y7776D01*
X1686Y7778D01*
X1688Y7778D01*
X1688Y7780D01*
X1690Y7780D01*
X1690Y7782D01*
X1692Y7782D01*
X1692Y7784D01*
X1696Y7784D01*
X1696Y7786D01*
X1698Y7786D01*
X1698Y7788D01*
X1702Y7788D01*
X1702Y7790D01*
X1704Y7790D01*
X1704Y7792D01*
X1708Y7792D01*
X1708Y7794D01*
X1712Y7794D01*
X1712Y7796D01*
X1716Y7796D01*
X1716Y7798D01*
X1720Y7798D01*
X1720Y7800D01*
X1724Y7800D01*
X1724Y7802D01*
X1730Y7802D01*
X1730Y7804D01*
X1736Y7804D01*
X1736Y7806D01*
X1744Y7806D01*
X1744Y7808D01*
X1756Y7808D01*
X1756Y7810D01*
X212Y7810D01*
G37*
D02*
G36*
X40Y7546D02*
X40Y7544D01*
X1928Y7544D01*
X1928Y7546D01*
X40Y7546D01*
G37*
D02*
G36*
X40Y7546D02*
X40Y7544D01*
X1928Y7544D01*
X1928Y7546D01*
X40Y7546D01*
G37*
D02*
G36*
X40Y7546D02*
X40Y7544D01*
X1928Y7544D01*
X1928Y7546D01*
X40Y7546D01*
G37*
D02*
G36*
X40Y7544D02*
X40Y7430D01*
X1518Y7430D01*
X1518Y7428D01*
X1526Y7428D01*
X1526Y7426D01*
X1532Y7426D01*
X1532Y7424D01*
X1536Y7424D01*
X1536Y7422D01*
X1540Y7422D01*
X1540Y7420D01*
X1542Y7420D01*
X1542Y7418D01*
X1544Y7418D01*
X1544Y7416D01*
X1548Y7416D01*
X1548Y7414D01*
X1550Y7414D01*
X1550Y7412D01*
X1552Y7412D01*
X1552Y7408D01*
X1554Y7408D01*
X1554Y7406D01*
X1556Y7406D01*
X1556Y7404D01*
X1558Y7404D01*
X1558Y7400D01*
X1560Y7400D01*
X1560Y7398D01*
X1562Y7398D01*
X1562Y7392D01*
X1564Y7392D01*
X1564Y7386D01*
X1566Y7386D01*
X1566Y7374D01*
X1568Y7374D01*
X1568Y7368D01*
X1566Y7368D01*
X1566Y7356D01*
X1564Y7356D01*
X1564Y7350D01*
X1562Y7350D01*
X1562Y7344D01*
X1560Y7344D01*
X1560Y7342D01*
X1558Y7342D01*
X1558Y7338D01*
X1556Y7338D01*
X1556Y7336D01*
X1554Y7336D01*
X1554Y7334D01*
X1552Y7334D01*
X1552Y7330D01*
X1550Y7330D01*
X1550Y7328D01*
X1548Y7328D01*
X1548Y7326D01*
X1544Y7326D01*
X1544Y7324D01*
X1542Y7324D01*
X1542Y7322D01*
X1540Y7322D01*
X1540Y7320D01*
X1536Y7320D01*
X1536Y7318D01*
X1532Y7318D01*
X1532Y7316D01*
X1526Y7316D01*
X1526Y7314D01*
X1518Y7314D01*
X1518Y7312D01*
X1928Y7312D01*
X1928Y7544D01*
X40Y7544D01*
G37*
D02*
G36*
X40Y7430D02*
X40Y7312D01*
X1098Y7312D01*
X1098Y7314D01*
X1090Y7314D01*
X1090Y7316D01*
X1084Y7316D01*
X1084Y7318D01*
X1080Y7318D01*
X1080Y7320D01*
X1078Y7320D01*
X1078Y7322D01*
X1074Y7322D01*
X1074Y7324D01*
X1072Y7324D01*
X1072Y7326D01*
X1070Y7326D01*
X1070Y7328D01*
X1066Y7328D01*
X1066Y7332D01*
X1064Y7332D01*
X1064Y7334D01*
X1062Y7334D01*
X1062Y7336D01*
X1060Y7336D01*
X1060Y7338D01*
X1058Y7338D01*
X1058Y7342D01*
X1056Y7342D01*
X1056Y7346D01*
X1054Y7346D01*
X1054Y7350D01*
X1052Y7350D01*
X1052Y7358D01*
X1050Y7358D01*
X1050Y7384D01*
X1052Y7384D01*
X1052Y7392D01*
X1054Y7392D01*
X1054Y7396D01*
X1056Y7396D01*
X1056Y7400D01*
X1058Y7400D01*
X1058Y7404D01*
X1060Y7404D01*
X1060Y7406D01*
X1062Y7406D01*
X1062Y7408D01*
X1064Y7408D01*
X1064Y7410D01*
X1066Y7410D01*
X1066Y7414D01*
X1070Y7414D01*
X1070Y7416D01*
X1072Y7416D01*
X1072Y7418D01*
X1074Y7418D01*
X1074Y7420D01*
X1078Y7420D01*
X1078Y7422D01*
X1080Y7422D01*
X1080Y7424D01*
X1084Y7424D01*
X1084Y7426D01*
X1090Y7426D01*
X1090Y7428D01*
X1098Y7428D01*
X1098Y7430D01*
X40Y7430D01*
G37*
D02*
G36*
X1118Y7430D02*
X1118Y7428D01*
X1126Y7428D01*
X1126Y7426D01*
X1132Y7426D01*
X1132Y7424D01*
X1136Y7424D01*
X1136Y7422D01*
X1140Y7422D01*
X1140Y7420D01*
X1142Y7420D01*
X1142Y7418D01*
X1144Y7418D01*
X1144Y7416D01*
X1148Y7416D01*
X1148Y7414D01*
X1170Y7414D01*
X1170Y7416D01*
X1172Y7416D01*
X1172Y7418D01*
X1174Y7418D01*
X1174Y7420D01*
X1178Y7420D01*
X1178Y7422D01*
X1180Y7422D01*
X1180Y7424D01*
X1184Y7424D01*
X1184Y7426D01*
X1190Y7426D01*
X1190Y7428D01*
X1198Y7428D01*
X1198Y7430D01*
X1118Y7430D01*
G37*
D02*
G36*
X1218Y7430D02*
X1218Y7428D01*
X1226Y7428D01*
X1226Y7426D01*
X1232Y7426D01*
X1232Y7424D01*
X1236Y7424D01*
X1236Y7422D01*
X1240Y7422D01*
X1240Y7420D01*
X1242Y7420D01*
X1242Y7418D01*
X1244Y7418D01*
X1244Y7416D01*
X1248Y7416D01*
X1248Y7414D01*
X1270Y7414D01*
X1270Y7416D01*
X1272Y7416D01*
X1272Y7418D01*
X1274Y7418D01*
X1274Y7420D01*
X1278Y7420D01*
X1278Y7422D01*
X1280Y7422D01*
X1280Y7424D01*
X1284Y7424D01*
X1284Y7426D01*
X1290Y7426D01*
X1290Y7428D01*
X1298Y7428D01*
X1298Y7430D01*
X1218Y7430D01*
G37*
D02*
G36*
X1318Y7430D02*
X1318Y7428D01*
X1326Y7428D01*
X1326Y7426D01*
X1332Y7426D01*
X1332Y7424D01*
X1336Y7424D01*
X1336Y7422D01*
X1340Y7422D01*
X1340Y7420D01*
X1342Y7420D01*
X1342Y7418D01*
X1344Y7418D01*
X1344Y7416D01*
X1348Y7416D01*
X1348Y7414D01*
X1370Y7414D01*
X1370Y7416D01*
X1372Y7416D01*
X1372Y7418D01*
X1374Y7418D01*
X1374Y7420D01*
X1378Y7420D01*
X1378Y7422D01*
X1380Y7422D01*
X1380Y7424D01*
X1384Y7424D01*
X1384Y7426D01*
X1390Y7426D01*
X1390Y7428D01*
X1398Y7428D01*
X1398Y7430D01*
X1318Y7430D01*
G37*
D02*
G36*
X1418Y7430D02*
X1418Y7428D01*
X1426Y7428D01*
X1426Y7426D01*
X1432Y7426D01*
X1432Y7424D01*
X1436Y7424D01*
X1436Y7422D01*
X1440Y7422D01*
X1440Y7420D01*
X1442Y7420D01*
X1442Y7418D01*
X1444Y7418D01*
X1444Y7416D01*
X1448Y7416D01*
X1448Y7414D01*
X1470Y7414D01*
X1470Y7416D01*
X1472Y7416D01*
X1472Y7418D01*
X1474Y7418D01*
X1474Y7420D01*
X1478Y7420D01*
X1478Y7422D01*
X1480Y7422D01*
X1480Y7424D01*
X1484Y7424D01*
X1484Y7426D01*
X1490Y7426D01*
X1490Y7428D01*
X1498Y7428D01*
X1498Y7430D01*
X1418Y7430D01*
G37*
D02*
G36*
X1148Y7328D02*
X1148Y7326D01*
X1144Y7326D01*
X1144Y7324D01*
X1142Y7324D01*
X1142Y7322D01*
X1140Y7322D01*
X1140Y7320D01*
X1136Y7320D01*
X1136Y7318D01*
X1132Y7318D01*
X1132Y7316D01*
X1126Y7316D01*
X1126Y7314D01*
X1118Y7314D01*
X1118Y7312D01*
X1198Y7312D01*
X1198Y7314D01*
X1190Y7314D01*
X1190Y7316D01*
X1184Y7316D01*
X1184Y7318D01*
X1180Y7318D01*
X1180Y7320D01*
X1178Y7320D01*
X1178Y7322D01*
X1174Y7322D01*
X1174Y7324D01*
X1172Y7324D01*
X1172Y7326D01*
X1170Y7326D01*
X1170Y7328D01*
X1148Y7328D01*
G37*
D02*
G36*
X1248Y7328D02*
X1248Y7326D01*
X1244Y7326D01*
X1244Y7324D01*
X1242Y7324D01*
X1242Y7322D01*
X1240Y7322D01*
X1240Y7320D01*
X1236Y7320D01*
X1236Y7318D01*
X1232Y7318D01*
X1232Y7316D01*
X1226Y7316D01*
X1226Y7314D01*
X1218Y7314D01*
X1218Y7312D01*
X1298Y7312D01*
X1298Y7314D01*
X1290Y7314D01*
X1290Y7316D01*
X1284Y7316D01*
X1284Y7318D01*
X1280Y7318D01*
X1280Y7320D01*
X1278Y7320D01*
X1278Y7322D01*
X1274Y7322D01*
X1274Y7324D01*
X1272Y7324D01*
X1272Y7326D01*
X1270Y7326D01*
X1270Y7328D01*
X1248Y7328D01*
G37*
D02*
G36*
X1348Y7328D02*
X1348Y7326D01*
X1344Y7326D01*
X1344Y7324D01*
X1342Y7324D01*
X1342Y7322D01*
X1340Y7322D01*
X1340Y7320D01*
X1336Y7320D01*
X1336Y7318D01*
X1332Y7318D01*
X1332Y7316D01*
X1326Y7316D01*
X1326Y7314D01*
X1318Y7314D01*
X1318Y7312D01*
X1398Y7312D01*
X1398Y7314D01*
X1390Y7314D01*
X1390Y7316D01*
X1384Y7316D01*
X1384Y7318D01*
X1380Y7318D01*
X1380Y7320D01*
X1378Y7320D01*
X1378Y7322D01*
X1374Y7322D01*
X1374Y7324D01*
X1372Y7324D01*
X1372Y7326D01*
X1370Y7326D01*
X1370Y7328D01*
X1348Y7328D01*
G37*
D02*
G36*
X1448Y7328D02*
X1448Y7326D01*
X1444Y7326D01*
X1444Y7324D01*
X1442Y7324D01*
X1442Y7322D01*
X1440Y7322D01*
X1440Y7320D01*
X1436Y7320D01*
X1436Y7318D01*
X1432Y7318D01*
X1432Y7316D01*
X1426Y7316D01*
X1426Y7314D01*
X1418Y7314D01*
X1418Y7312D01*
X1498Y7312D01*
X1498Y7314D01*
X1490Y7314D01*
X1490Y7316D01*
X1484Y7316D01*
X1484Y7318D01*
X1480Y7318D01*
X1480Y7320D01*
X1478Y7320D01*
X1478Y7322D01*
X1474Y7322D01*
X1474Y7324D01*
X1472Y7324D01*
X1472Y7326D01*
X1470Y7326D01*
X1470Y7328D01*
X1448Y7328D01*
G37*
D02*
G36*
X40Y7312D02*
X40Y7310D01*
X1928Y7310D01*
X1928Y7312D01*
X40Y7312D01*
G37*
D02*
G36*
X40Y7312D02*
X40Y7310D01*
X1928Y7310D01*
X1928Y7312D01*
X40Y7312D01*
G37*
D02*
G36*
X40Y7312D02*
X40Y7310D01*
X1928Y7310D01*
X1928Y7312D01*
X40Y7312D01*
G37*
D02*
G36*
X40Y7312D02*
X40Y7310D01*
X1928Y7310D01*
X1928Y7312D01*
X40Y7312D01*
G37*
D02*
G36*
X40Y7312D02*
X40Y7310D01*
X1928Y7310D01*
X1928Y7312D01*
X40Y7312D01*
G37*
D02*
G36*
X40Y7312D02*
X40Y7310D01*
X1928Y7310D01*
X1928Y7312D01*
X40Y7312D01*
G37*
D02*
G36*
X40Y7310D02*
X40Y7130D01*
X1718Y7130D01*
X1718Y7128D01*
X1726Y7128D01*
X1726Y7126D01*
X1732Y7126D01*
X1732Y7124D01*
X1736Y7124D01*
X1736Y7122D01*
X1740Y7122D01*
X1740Y7120D01*
X1742Y7120D01*
X1742Y7118D01*
X1744Y7118D01*
X1744Y7116D01*
X1748Y7116D01*
X1748Y7114D01*
X1750Y7114D01*
X1750Y7112D01*
X1752Y7112D01*
X1752Y7108D01*
X1754Y7108D01*
X1754Y7106D01*
X1756Y7106D01*
X1756Y7104D01*
X1758Y7104D01*
X1758Y7100D01*
X1760Y7100D01*
X1760Y7098D01*
X1762Y7098D01*
X1762Y7092D01*
X1764Y7092D01*
X1764Y7086D01*
X1766Y7086D01*
X1766Y7074D01*
X1768Y7074D01*
X1768Y7068D01*
X1766Y7068D01*
X1766Y7056D01*
X1764Y7056D01*
X1764Y7050D01*
X1762Y7050D01*
X1762Y7044D01*
X1760Y7044D01*
X1760Y7042D01*
X1758Y7042D01*
X1758Y7038D01*
X1756Y7038D01*
X1756Y7036D01*
X1754Y7036D01*
X1754Y7034D01*
X1752Y7034D01*
X1752Y7008D01*
X1754Y7008D01*
X1754Y7006D01*
X1756Y7006D01*
X1756Y7004D01*
X1758Y7004D01*
X1758Y7000D01*
X1760Y7000D01*
X1760Y6998D01*
X1762Y6998D01*
X1762Y6992D01*
X1764Y6992D01*
X1764Y6986D01*
X1766Y6986D01*
X1766Y6974D01*
X1768Y6974D01*
X1768Y6968D01*
X1766Y6968D01*
X1766Y6956D01*
X1764Y6956D01*
X1764Y6950D01*
X1762Y6950D01*
X1762Y6944D01*
X1760Y6944D01*
X1760Y6942D01*
X1758Y6942D01*
X1758Y6938D01*
X1756Y6938D01*
X1756Y6936D01*
X1754Y6936D01*
X1754Y6934D01*
X1752Y6934D01*
X1752Y6908D01*
X1754Y6908D01*
X1754Y6906D01*
X1756Y6906D01*
X1756Y6904D01*
X1758Y6904D01*
X1758Y6900D01*
X1760Y6900D01*
X1760Y6898D01*
X1762Y6898D01*
X1762Y6892D01*
X1764Y6892D01*
X1764Y6886D01*
X1766Y6886D01*
X1766Y6874D01*
X1768Y6874D01*
X1768Y6868D01*
X1766Y6868D01*
X1766Y6856D01*
X1764Y6856D01*
X1764Y6850D01*
X1762Y6850D01*
X1762Y6844D01*
X1760Y6844D01*
X1760Y6842D01*
X1758Y6842D01*
X1758Y6838D01*
X1756Y6838D01*
X1756Y6836D01*
X1754Y6836D01*
X1754Y6834D01*
X1752Y6834D01*
X1752Y6808D01*
X1754Y6808D01*
X1754Y6806D01*
X1756Y6806D01*
X1756Y6804D01*
X1758Y6804D01*
X1758Y6800D01*
X1760Y6800D01*
X1760Y6798D01*
X1762Y6798D01*
X1762Y6792D01*
X1764Y6792D01*
X1764Y6786D01*
X1766Y6786D01*
X1766Y6774D01*
X1768Y6774D01*
X1768Y6768D01*
X1766Y6768D01*
X1766Y6756D01*
X1764Y6756D01*
X1764Y6750D01*
X1762Y6750D01*
X1762Y6744D01*
X1760Y6744D01*
X1760Y6742D01*
X1758Y6742D01*
X1758Y6738D01*
X1756Y6738D01*
X1756Y6736D01*
X1754Y6736D01*
X1754Y6734D01*
X1752Y6734D01*
X1752Y6708D01*
X1754Y6708D01*
X1754Y6706D01*
X1756Y6706D01*
X1756Y6704D01*
X1758Y6704D01*
X1758Y6700D01*
X1760Y6700D01*
X1760Y6698D01*
X1762Y6698D01*
X1762Y6692D01*
X1764Y6692D01*
X1764Y6686D01*
X1766Y6686D01*
X1766Y6674D01*
X1768Y6674D01*
X1768Y6668D01*
X1766Y6668D01*
X1766Y6656D01*
X1764Y6656D01*
X1764Y6650D01*
X1762Y6650D01*
X1762Y6644D01*
X1760Y6644D01*
X1760Y6642D01*
X1758Y6642D01*
X1758Y6638D01*
X1756Y6638D01*
X1756Y6636D01*
X1754Y6636D01*
X1754Y6634D01*
X1752Y6634D01*
X1752Y6630D01*
X1750Y6630D01*
X1750Y6628D01*
X1748Y6628D01*
X1748Y6626D01*
X1744Y6626D01*
X1744Y6624D01*
X1742Y6624D01*
X1742Y6622D01*
X1740Y6622D01*
X1740Y6620D01*
X1736Y6620D01*
X1736Y6618D01*
X1732Y6618D01*
X1732Y6616D01*
X1726Y6616D01*
X1726Y6614D01*
X1718Y6614D01*
X1718Y6612D01*
X1928Y6612D01*
X1928Y7310D01*
X40Y7310D01*
G37*
D02*
G36*
X40Y7130D02*
X40Y7110D01*
X1118Y7110D01*
X1118Y7108D01*
X1124Y7108D01*
X1124Y7106D01*
X1128Y7106D01*
X1128Y7104D01*
X1132Y7104D01*
X1132Y7102D01*
X1134Y7102D01*
X1134Y7100D01*
X1136Y7100D01*
X1136Y7098D01*
X1138Y7098D01*
X1138Y7096D01*
X1140Y7096D01*
X1140Y7092D01*
X1142Y7092D01*
X1142Y7090D01*
X1144Y7090D01*
X1144Y7086D01*
X1146Y7086D01*
X1146Y7078D01*
X1148Y7078D01*
X1148Y7064D01*
X1146Y7064D01*
X1146Y7056D01*
X1144Y7056D01*
X1144Y7052D01*
X1142Y7052D01*
X1142Y7050D01*
X1140Y7050D01*
X1140Y7046D01*
X1138Y7046D01*
X1138Y7044D01*
X1136Y7044D01*
X1136Y7042D01*
X1134Y7042D01*
X1134Y7040D01*
X1132Y7040D01*
X1132Y7038D01*
X1128Y7038D01*
X1128Y7036D01*
X1124Y7036D01*
X1124Y7034D01*
X1118Y7034D01*
X1118Y7032D01*
X1664Y7032D01*
X1664Y7034D01*
X1662Y7034D01*
X1662Y7036D01*
X1660Y7036D01*
X1660Y7038D01*
X1658Y7038D01*
X1658Y7042D01*
X1656Y7042D01*
X1656Y7046D01*
X1654Y7046D01*
X1654Y7050D01*
X1652Y7050D01*
X1652Y7058D01*
X1650Y7058D01*
X1650Y7084D01*
X1652Y7084D01*
X1652Y7092D01*
X1654Y7092D01*
X1654Y7096D01*
X1656Y7096D01*
X1656Y7100D01*
X1658Y7100D01*
X1658Y7104D01*
X1660Y7104D01*
X1660Y7106D01*
X1662Y7106D01*
X1662Y7108D01*
X1664Y7108D01*
X1664Y7110D01*
X1666Y7110D01*
X1666Y7114D01*
X1670Y7114D01*
X1670Y7116D01*
X1672Y7116D01*
X1672Y7118D01*
X1674Y7118D01*
X1674Y7120D01*
X1678Y7120D01*
X1678Y7122D01*
X1680Y7122D01*
X1680Y7124D01*
X1684Y7124D01*
X1684Y7126D01*
X1690Y7126D01*
X1690Y7128D01*
X1698Y7128D01*
X1698Y7130D01*
X40Y7130D01*
G37*
D02*
G36*
X40Y7110D02*
X40Y6928D01*
X316Y6928D01*
X316Y6804D01*
X448Y6804D01*
X448Y6832D01*
X450Y6832D01*
X450Y6856D01*
X448Y6856D01*
X448Y6886D01*
X450Y6886D01*
X450Y6892D01*
X452Y6892D01*
X452Y6896D01*
X454Y6896D01*
X454Y6900D01*
X456Y6900D01*
X456Y6904D01*
X458Y6904D01*
X458Y6906D01*
X460Y6906D01*
X460Y6910D01*
X462Y6910D01*
X462Y6932D01*
X460Y6932D01*
X460Y6936D01*
X458Y6936D01*
X458Y6938D01*
X456Y6938D01*
X456Y6942D01*
X454Y6942D01*
X454Y6946D01*
X452Y6946D01*
X452Y6950D01*
X450Y6950D01*
X450Y6956D01*
X448Y6956D01*
X448Y6986D01*
X450Y6986D01*
X450Y6992D01*
X452Y6992D01*
X452Y6996D01*
X454Y6996D01*
X454Y7000D01*
X456Y7000D01*
X456Y7004D01*
X458Y7004D01*
X458Y7006D01*
X460Y7006D01*
X460Y7010D01*
X462Y7010D01*
X462Y7012D01*
X464Y7012D01*
X464Y7014D01*
X466Y7014D01*
X466Y7016D01*
X468Y7016D01*
X468Y7018D01*
X470Y7018D01*
X470Y7020D01*
X474Y7020D01*
X474Y7022D01*
X476Y7022D01*
X476Y7024D01*
X480Y7024D01*
X480Y7026D01*
X484Y7026D01*
X484Y7028D01*
X490Y7028D01*
X490Y7030D01*
X498Y7030D01*
X498Y7032D01*
X1098Y7032D01*
X1098Y7034D01*
X1092Y7034D01*
X1092Y7036D01*
X1088Y7036D01*
X1088Y7038D01*
X1086Y7038D01*
X1086Y7040D01*
X1082Y7040D01*
X1082Y7042D01*
X1080Y7042D01*
X1080Y7044D01*
X1078Y7044D01*
X1078Y7046D01*
X1076Y7046D01*
X1076Y7050D01*
X1074Y7050D01*
X1074Y7054D01*
X1072Y7054D01*
X1072Y7058D01*
X1070Y7058D01*
X1070Y7066D01*
X1068Y7066D01*
X1068Y7076D01*
X1070Y7076D01*
X1070Y7084D01*
X1072Y7084D01*
X1072Y7088D01*
X1074Y7088D01*
X1074Y7092D01*
X1076Y7092D01*
X1076Y7096D01*
X1078Y7096D01*
X1078Y7098D01*
X1080Y7098D01*
X1080Y7100D01*
X1082Y7100D01*
X1082Y7102D01*
X1086Y7102D01*
X1086Y7104D01*
X1088Y7104D01*
X1088Y7106D01*
X1092Y7106D01*
X1092Y7108D01*
X1098Y7108D01*
X1098Y7110D01*
X40Y7110D01*
G37*
D02*
G36*
X518Y7032D02*
X518Y7030D01*
X1666Y7030D01*
X1666Y7032D01*
X518Y7032D01*
G37*
D02*
G36*
X518Y7032D02*
X518Y7030D01*
X1666Y7030D01*
X1666Y7032D01*
X518Y7032D01*
G37*
D02*
G36*
X526Y7030D02*
X526Y7028D01*
X532Y7028D01*
X532Y7026D01*
X536Y7026D01*
X536Y7024D01*
X540Y7024D01*
X540Y7022D01*
X542Y7022D01*
X542Y7020D01*
X546Y7020D01*
X546Y7018D01*
X548Y7018D01*
X548Y7016D01*
X550Y7016D01*
X550Y7014D01*
X552Y7014D01*
X552Y7012D01*
X554Y7012D01*
X554Y7010D01*
X1218Y7010D01*
X1218Y7008D01*
X1224Y7008D01*
X1224Y7006D01*
X1228Y7006D01*
X1228Y7004D01*
X1660Y7004D01*
X1660Y7006D01*
X1662Y7006D01*
X1662Y7008D01*
X1664Y7008D01*
X1664Y7010D01*
X1666Y7010D01*
X1666Y7030D01*
X526Y7030D01*
G37*
D02*
G36*
X556Y7010D02*
X556Y7008D01*
X558Y7008D01*
X558Y7004D01*
X560Y7004D01*
X560Y7002D01*
X562Y7002D01*
X562Y6998D01*
X564Y6998D01*
X564Y6992D01*
X566Y6992D01*
X566Y6986D01*
X568Y6986D01*
X568Y6974D01*
X570Y6974D01*
X570Y6968D01*
X568Y6968D01*
X568Y6956D01*
X566Y6956D01*
X566Y6950D01*
X564Y6950D01*
X564Y6944D01*
X562Y6944D01*
X562Y6940D01*
X560Y6940D01*
X560Y6938D01*
X558Y6938D01*
X558Y6934D01*
X556Y6934D01*
X556Y6932D01*
X798Y6932D01*
X798Y6934D01*
X792Y6934D01*
X792Y6936D01*
X788Y6936D01*
X788Y6938D01*
X786Y6938D01*
X786Y6940D01*
X782Y6940D01*
X782Y6942D01*
X780Y6942D01*
X780Y6944D01*
X778Y6944D01*
X778Y6946D01*
X776Y6946D01*
X776Y6950D01*
X774Y6950D01*
X774Y6954D01*
X772Y6954D01*
X772Y6958D01*
X770Y6958D01*
X770Y6966D01*
X768Y6966D01*
X768Y6976D01*
X770Y6976D01*
X770Y6984D01*
X772Y6984D01*
X772Y6988D01*
X774Y6988D01*
X774Y6992D01*
X776Y6992D01*
X776Y6996D01*
X778Y6996D01*
X778Y6998D01*
X780Y6998D01*
X780Y7000D01*
X782Y7000D01*
X782Y7002D01*
X786Y7002D01*
X786Y7004D01*
X788Y7004D01*
X788Y7006D01*
X792Y7006D01*
X792Y7008D01*
X798Y7008D01*
X798Y7010D01*
X556Y7010D01*
G37*
D02*
G36*
X818Y7010D02*
X818Y7008D01*
X824Y7008D01*
X824Y7006D01*
X828Y7006D01*
X828Y7004D01*
X1188Y7004D01*
X1188Y7006D01*
X1192Y7006D01*
X1192Y7008D01*
X1198Y7008D01*
X1198Y7010D01*
X818Y7010D01*
G37*
D02*
G36*
X828Y6938D02*
X828Y6936D01*
X824Y6936D01*
X824Y6934D01*
X818Y6934D01*
X818Y6932D01*
X1198Y6932D01*
X1198Y6934D01*
X1192Y6934D01*
X1192Y6936D01*
X1188Y6936D01*
X1188Y6938D01*
X828Y6938D01*
G37*
D02*
G36*
X1228Y6938D02*
X1228Y6936D01*
X1224Y6936D01*
X1224Y6934D01*
X1218Y6934D01*
X1218Y6932D01*
X1664Y6932D01*
X1664Y6934D01*
X1662Y6934D01*
X1662Y6936D01*
X1660Y6936D01*
X1660Y6938D01*
X1228Y6938D01*
G37*
D02*
G36*
X554Y6932D02*
X554Y6930D01*
X1666Y6930D01*
X1666Y6932D01*
X554Y6932D01*
G37*
D02*
G36*
X554Y6932D02*
X554Y6930D01*
X1666Y6930D01*
X1666Y6932D01*
X554Y6932D01*
G37*
D02*
G36*
X554Y6932D02*
X554Y6930D01*
X1666Y6930D01*
X1666Y6932D01*
X554Y6932D01*
G37*
D02*
G36*
X554Y6930D02*
X554Y6910D01*
X1318Y6910D01*
X1318Y6908D01*
X1324Y6908D01*
X1324Y6906D01*
X1328Y6906D01*
X1328Y6904D01*
X1660Y6904D01*
X1660Y6906D01*
X1662Y6906D01*
X1662Y6908D01*
X1664Y6908D01*
X1664Y6910D01*
X1666Y6910D01*
X1666Y6930D01*
X554Y6930D01*
G37*
D02*
G36*
X40Y6928D02*
X40Y6714D01*
X246Y6714D01*
X246Y6716D01*
X238Y6716D01*
X238Y6718D01*
X234Y6718D01*
X234Y6720D01*
X230Y6720D01*
X230Y6722D01*
X226Y6722D01*
X226Y6724D01*
X224Y6724D01*
X224Y6726D01*
X222Y6726D01*
X222Y6728D01*
X220Y6728D01*
X220Y6730D01*
X216Y6730D01*
X216Y6734D01*
X214Y6734D01*
X214Y6736D01*
X212Y6736D01*
X212Y6738D01*
X210Y6738D01*
X210Y6742D01*
X208Y6742D01*
X208Y6744D01*
X206Y6744D01*
X206Y6750D01*
X204Y6750D01*
X204Y6756D01*
X202Y6756D01*
X202Y6766D01*
X200Y6766D01*
X200Y6776D01*
X202Y6776D01*
X202Y6786D01*
X204Y6786D01*
X204Y6792D01*
X206Y6792D01*
X206Y6814D01*
X200Y6814D01*
X200Y6928D01*
X40Y6928D01*
G37*
D02*
G36*
X556Y6910D02*
X556Y6908D01*
X558Y6908D01*
X558Y6904D01*
X560Y6904D01*
X560Y6902D01*
X562Y6902D01*
X562Y6898D01*
X564Y6898D01*
X564Y6892D01*
X566Y6892D01*
X566Y6886D01*
X568Y6886D01*
X568Y6874D01*
X570Y6874D01*
X570Y6868D01*
X568Y6868D01*
X568Y6856D01*
X566Y6856D01*
X566Y6832D01*
X1298Y6832D01*
X1298Y6834D01*
X1292Y6834D01*
X1292Y6836D01*
X1288Y6836D01*
X1288Y6838D01*
X1286Y6838D01*
X1286Y6840D01*
X1282Y6840D01*
X1282Y6842D01*
X1280Y6842D01*
X1280Y6844D01*
X1278Y6844D01*
X1278Y6846D01*
X1276Y6846D01*
X1276Y6850D01*
X1274Y6850D01*
X1274Y6854D01*
X1272Y6854D01*
X1272Y6858D01*
X1270Y6858D01*
X1270Y6866D01*
X1268Y6866D01*
X1268Y6876D01*
X1270Y6876D01*
X1270Y6884D01*
X1272Y6884D01*
X1272Y6888D01*
X1274Y6888D01*
X1274Y6892D01*
X1276Y6892D01*
X1276Y6896D01*
X1278Y6896D01*
X1278Y6898D01*
X1280Y6898D01*
X1280Y6900D01*
X1282Y6900D01*
X1282Y6902D01*
X1286Y6902D01*
X1286Y6904D01*
X1288Y6904D01*
X1288Y6906D01*
X1292Y6906D01*
X1292Y6908D01*
X1298Y6908D01*
X1298Y6910D01*
X556Y6910D01*
G37*
D02*
G36*
X1328Y6838D02*
X1328Y6836D01*
X1324Y6836D01*
X1324Y6834D01*
X1318Y6834D01*
X1318Y6832D01*
X1664Y6832D01*
X1664Y6834D01*
X1662Y6834D01*
X1662Y6836D01*
X1660Y6836D01*
X1660Y6838D01*
X1328Y6838D01*
G37*
D02*
G36*
X570Y6832D02*
X570Y6830D01*
X1666Y6830D01*
X1666Y6832D01*
X570Y6832D01*
G37*
D02*
G36*
X570Y6832D02*
X570Y6830D01*
X1666Y6830D01*
X1666Y6832D01*
X570Y6832D01*
G37*
D02*
G36*
X570Y6830D02*
X570Y6810D01*
X1418Y6810D01*
X1418Y6808D01*
X1424Y6808D01*
X1424Y6806D01*
X1428Y6806D01*
X1428Y6804D01*
X1660Y6804D01*
X1660Y6806D01*
X1662Y6806D01*
X1662Y6808D01*
X1664Y6808D01*
X1664Y6810D01*
X1666Y6810D01*
X1666Y6830D01*
X570Y6830D01*
G37*
D02*
G36*
X570Y6810D02*
X570Y6732D01*
X1398Y6732D01*
X1398Y6734D01*
X1392Y6734D01*
X1392Y6736D01*
X1388Y6736D01*
X1388Y6738D01*
X1386Y6738D01*
X1386Y6740D01*
X1382Y6740D01*
X1382Y6742D01*
X1380Y6742D01*
X1380Y6744D01*
X1378Y6744D01*
X1378Y6746D01*
X1376Y6746D01*
X1376Y6750D01*
X1374Y6750D01*
X1374Y6754D01*
X1372Y6754D01*
X1372Y6758D01*
X1370Y6758D01*
X1370Y6766D01*
X1368Y6766D01*
X1368Y6776D01*
X1370Y6776D01*
X1370Y6784D01*
X1372Y6784D01*
X1372Y6788D01*
X1374Y6788D01*
X1374Y6792D01*
X1376Y6792D01*
X1376Y6796D01*
X1378Y6796D01*
X1378Y6798D01*
X1380Y6798D01*
X1380Y6800D01*
X1382Y6800D01*
X1382Y6802D01*
X1386Y6802D01*
X1386Y6804D01*
X1388Y6804D01*
X1388Y6806D01*
X1392Y6806D01*
X1392Y6808D01*
X1398Y6808D01*
X1398Y6810D01*
X570Y6810D01*
G37*
D02*
G36*
X304Y6738D02*
X304Y6736D01*
X302Y6736D01*
X302Y6734D01*
X300Y6734D01*
X300Y6730D01*
X298Y6730D01*
X298Y6728D01*
X294Y6728D01*
X294Y6726D01*
X292Y6726D01*
X292Y6724D01*
X290Y6724D01*
X290Y6722D01*
X286Y6722D01*
X286Y6720D01*
X282Y6720D01*
X282Y6718D01*
X278Y6718D01*
X278Y6716D01*
X270Y6716D01*
X270Y6714D01*
X448Y6714D01*
X448Y6738D01*
X304Y6738D01*
G37*
D02*
G36*
X1428Y6738D02*
X1428Y6736D01*
X1424Y6736D01*
X1424Y6734D01*
X1418Y6734D01*
X1418Y6732D01*
X1664Y6732D01*
X1664Y6734D01*
X1662Y6734D01*
X1662Y6736D01*
X1660Y6736D01*
X1660Y6738D01*
X1428Y6738D01*
G37*
D02*
G36*
X570Y6732D02*
X570Y6730D01*
X1666Y6730D01*
X1666Y6732D01*
X570Y6732D01*
G37*
D02*
G36*
X570Y6732D02*
X570Y6730D01*
X1666Y6730D01*
X1666Y6732D01*
X570Y6732D01*
G37*
D02*
G36*
X570Y6730D02*
X570Y6710D01*
X1518Y6710D01*
X1518Y6708D01*
X1524Y6708D01*
X1524Y6706D01*
X1528Y6706D01*
X1528Y6704D01*
X1660Y6704D01*
X1660Y6706D01*
X1662Y6706D01*
X1662Y6708D01*
X1664Y6708D01*
X1664Y6710D01*
X1666Y6710D01*
X1666Y6730D01*
X570Y6730D01*
G37*
D02*
G36*
X40Y6714D02*
X40Y6712D01*
X448Y6712D01*
X448Y6714D01*
X40Y6714D01*
G37*
D02*
G36*
X40Y6714D02*
X40Y6712D01*
X448Y6712D01*
X448Y6714D01*
X40Y6714D01*
G37*
D02*
G36*
X40Y6712D02*
X40Y6710D01*
X448Y6710D01*
X448Y6712D01*
X40Y6712D01*
G37*
D02*
G36*
X40Y6710D02*
X40Y6708D01*
X1498Y6708D01*
X1498Y6710D01*
X40Y6710D01*
G37*
D02*
G36*
X40Y6710D02*
X40Y6708D01*
X1498Y6708D01*
X1498Y6710D01*
X40Y6710D01*
G37*
D02*
G36*
X40Y6708D02*
X40Y6632D01*
X1498Y6632D01*
X1498Y6634D01*
X1492Y6634D01*
X1492Y6636D01*
X1488Y6636D01*
X1488Y6638D01*
X1486Y6638D01*
X1486Y6640D01*
X1482Y6640D01*
X1482Y6642D01*
X1480Y6642D01*
X1480Y6644D01*
X1478Y6644D01*
X1478Y6646D01*
X1476Y6646D01*
X1476Y6650D01*
X1474Y6650D01*
X1474Y6654D01*
X1472Y6654D01*
X1472Y6658D01*
X1470Y6658D01*
X1470Y6666D01*
X1468Y6666D01*
X1468Y6676D01*
X1470Y6676D01*
X1470Y6684D01*
X1472Y6684D01*
X1472Y6688D01*
X1474Y6688D01*
X1474Y6692D01*
X1476Y6692D01*
X1476Y6696D01*
X1478Y6696D01*
X1478Y6698D01*
X1480Y6698D01*
X1480Y6700D01*
X1482Y6700D01*
X1482Y6702D01*
X1486Y6702D01*
X1486Y6704D01*
X1488Y6704D01*
X1488Y6706D01*
X1492Y6706D01*
X1492Y6708D01*
X40Y6708D01*
G37*
D02*
G36*
X1528Y6638D02*
X1528Y6636D01*
X1524Y6636D01*
X1524Y6634D01*
X1518Y6634D01*
X1518Y6632D01*
X1664Y6632D01*
X1664Y6634D01*
X1662Y6634D01*
X1662Y6636D01*
X1660Y6636D01*
X1660Y6638D01*
X1528Y6638D01*
G37*
D02*
G36*
X40Y6632D02*
X40Y6630D01*
X1666Y6630D01*
X1666Y6632D01*
X40Y6632D01*
G37*
D02*
G36*
X40Y6632D02*
X40Y6630D01*
X1666Y6630D01*
X1666Y6632D01*
X40Y6632D01*
G37*
D02*
G36*
X40Y6630D02*
X40Y6612D01*
X1698Y6612D01*
X1698Y6614D01*
X1690Y6614D01*
X1690Y6616D01*
X1684Y6616D01*
X1684Y6618D01*
X1680Y6618D01*
X1680Y6620D01*
X1678Y6620D01*
X1678Y6622D01*
X1674Y6622D01*
X1674Y6624D01*
X1672Y6624D01*
X1672Y6626D01*
X1670Y6626D01*
X1670Y6628D01*
X1666Y6628D01*
X1666Y6630D01*
X40Y6630D01*
G37*
D02*
G36*
X40Y6612D02*
X40Y6610D01*
X1928Y6610D01*
X1928Y6612D01*
X40Y6612D01*
G37*
D02*
G36*
X40Y6612D02*
X40Y6610D01*
X1928Y6610D01*
X1928Y6612D01*
X40Y6612D01*
G37*
D02*
G36*
X40Y6610D02*
X40Y5230D01*
X1718Y5230D01*
X1718Y5228D01*
X1726Y5228D01*
X1726Y5226D01*
X1732Y5226D01*
X1732Y5224D01*
X1736Y5224D01*
X1736Y5222D01*
X1740Y5222D01*
X1740Y5220D01*
X1742Y5220D01*
X1742Y5218D01*
X1744Y5218D01*
X1744Y5216D01*
X1748Y5216D01*
X1748Y5214D01*
X1750Y5214D01*
X1750Y5212D01*
X1752Y5212D01*
X1752Y5208D01*
X1754Y5208D01*
X1754Y5206D01*
X1756Y5206D01*
X1756Y5204D01*
X1758Y5204D01*
X1758Y5200D01*
X1760Y5200D01*
X1760Y5198D01*
X1762Y5198D01*
X1762Y5192D01*
X1764Y5192D01*
X1764Y5186D01*
X1766Y5186D01*
X1766Y5174D01*
X1768Y5174D01*
X1768Y5168D01*
X1766Y5168D01*
X1766Y5156D01*
X1764Y5156D01*
X1764Y5150D01*
X1762Y5150D01*
X1762Y5144D01*
X1760Y5144D01*
X1760Y5142D01*
X1758Y5142D01*
X1758Y5138D01*
X1756Y5138D01*
X1756Y5136D01*
X1754Y5136D01*
X1754Y5134D01*
X1752Y5134D01*
X1752Y5108D01*
X1754Y5108D01*
X1754Y5106D01*
X1756Y5106D01*
X1756Y5104D01*
X1758Y5104D01*
X1758Y5100D01*
X1760Y5100D01*
X1760Y5098D01*
X1762Y5098D01*
X1762Y5092D01*
X1764Y5092D01*
X1764Y5086D01*
X1766Y5086D01*
X1766Y5074D01*
X1768Y5074D01*
X1768Y5068D01*
X1766Y5068D01*
X1766Y5056D01*
X1764Y5056D01*
X1764Y5050D01*
X1762Y5050D01*
X1762Y5044D01*
X1760Y5044D01*
X1760Y5042D01*
X1758Y5042D01*
X1758Y5038D01*
X1756Y5038D01*
X1756Y5036D01*
X1754Y5036D01*
X1754Y5034D01*
X1752Y5034D01*
X1752Y5008D01*
X1754Y5008D01*
X1754Y5006D01*
X1756Y5006D01*
X1756Y5004D01*
X1758Y5004D01*
X1758Y5000D01*
X1760Y5000D01*
X1760Y4998D01*
X1762Y4998D01*
X1762Y4992D01*
X1764Y4992D01*
X1764Y4986D01*
X1766Y4986D01*
X1766Y4974D01*
X1768Y4974D01*
X1768Y4968D01*
X1766Y4968D01*
X1766Y4956D01*
X1764Y4956D01*
X1764Y4950D01*
X1762Y4950D01*
X1762Y4944D01*
X1760Y4944D01*
X1760Y4942D01*
X1758Y4942D01*
X1758Y4938D01*
X1756Y4938D01*
X1756Y4936D01*
X1754Y4936D01*
X1754Y4934D01*
X1752Y4934D01*
X1752Y4908D01*
X1754Y4908D01*
X1754Y4906D01*
X1756Y4906D01*
X1756Y4904D01*
X1758Y4904D01*
X1758Y4900D01*
X1760Y4900D01*
X1760Y4898D01*
X1762Y4898D01*
X1762Y4892D01*
X1764Y4892D01*
X1764Y4886D01*
X1766Y4886D01*
X1766Y4874D01*
X1768Y4874D01*
X1768Y4868D01*
X1766Y4868D01*
X1766Y4856D01*
X1764Y4856D01*
X1764Y4850D01*
X1762Y4850D01*
X1762Y4844D01*
X1760Y4844D01*
X1760Y4842D01*
X1758Y4842D01*
X1758Y4838D01*
X1756Y4838D01*
X1756Y4836D01*
X1754Y4836D01*
X1754Y4834D01*
X1752Y4834D01*
X1752Y4808D01*
X1754Y4808D01*
X1754Y4806D01*
X1756Y4806D01*
X1756Y4804D01*
X1758Y4804D01*
X1758Y4800D01*
X1760Y4800D01*
X1760Y4798D01*
X1762Y4798D01*
X1762Y4792D01*
X1764Y4792D01*
X1764Y4786D01*
X1766Y4786D01*
X1766Y4774D01*
X1768Y4774D01*
X1768Y4768D01*
X1766Y4768D01*
X1766Y4756D01*
X1764Y4756D01*
X1764Y4750D01*
X1762Y4750D01*
X1762Y4744D01*
X1760Y4744D01*
X1760Y4742D01*
X1758Y4742D01*
X1758Y4738D01*
X1756Y4738D01*
X1756Y4736D01*
X1754Y4736D01*
X1754Y4734D01*
X1752Y4734D01*
X1752Y4730D01*
X1750Y4730D01*
X1750Y4728D01*
X1748Y4728D01*
X1748Y4726D01*
X1744Y4726D01*
X1744Y4724D01*
X1742Y4724D01*
X1742Y4722D01*
X1740Y4722D01*
X1740Y4720D01*
X1736Y4720D01*
X1736Y4718D01*
X1732Y4718D01*
X1732Y4716D01*
X1726Y4716D01*
X1726Y4714D01*
X1718Y4714D01*
X1718Y4712D01*
X1928Y4712D01*
X1928Y6610D01*
X40Y6610D01*
G37*
D02*
G36*
X40Y5230D02*
X40Y5206D01*
X1124Y5206D01*
X1124Y5204D01*
X1128Y5204D01*
X1128Y5202D01*
X1132Y5202D01*
X1132Y5200D01*
X1136Y5200D01*
X1136Y5198D01*
X1138Y5198D01*
X1138Y5196D01*
X1140Y5196D01*
X1140Y5194D01*
X1142Y5194D01*
X1142Y5192D01*
X1144Y5192D01*
X1144Y5188D01*
X1146Y5188D01*
X1146Y5186D01*
X1148Y5186D01*
X1148Y5180D01*
X1150Y5180D01*
X1150Y5172D01*
X1152Y5172D01*
X1152Y5162D01*
X1150Y5162D01*
X1150Y5154D01*
X1148Y5154D01*
X1148Y5150D01*
X1146Y5150D01*
X1146Y5146D01*
X1144Y5146D01*
X1144Y5144D01*
X1142Y5144D01*
X1142Y5140D01*
X1140Y5140D01*
X1140Y5138D01*
X1138Y5138D01*
X1138Y5136D01*
X1134Y5136D01*
X1134Y5134D01*
X1132Y5134D01*
X1132Y5132D01*
X1128Y5132D01*
X1128Y5130D01*
X1122Y5130D01*
X1122Y5128D01*
X1666Y5128D01*
X1666Y5132D01*
X1664Y5132D01*
X1664Y5134D01*
X1662Y5134D01*
X1662Y5136D01*
X1660Y5136D01*
X1660Y5138D01*
X1658Y5138D01*
X1658Y5142D01*
X1656Y5142D01*
X1656Y5146D01*
X1654Y5146D01*
X1654Y5150D01*
X1652Y5150D01*
X1652Y5158D01*
X1650Y5158D01*
X1650Y5184D01*
X1652Y5184D01*
X1652Y5192D01*
X1654Y5192D01*
X1654Y5196D01*
X1656Y5196D01*
X1656Y5200D01*
X1658Y5200D01*
X1658Y5204D01*
X1660Y5204D01*
X1660Y5206D01*
X1662Y5206D01*
X1662Y5208D01*
X1664Y5208D01*
X1664Y5210D01*
X1666Y5210D01*
X1666Y5214D01*
X1670Y5214D01*
X1670Y5216D01*
X1672Y5216D01*
X1672Y5218D01*
X1674Y5218D01*
X1674Y5220D01*
X1678Y5220D01*
X1678Y5222D01*
X1680Y5222D01*
X1680Y5224D01*
X1684Y5224D01*
X1684Y5226D01*
X1690Y5226D01*
X1690Y5228D01*
X1698Y5228D01*
X1698Y5230D01*
X40Y5230D01*
G37*
D02*
G36*
X40Y5206D02*
X40Y5132D01*
X518Y5132D01*
X518Y5130D01*
X526Y5130D01*
X526Y5128D01*
X1102Y5128D01*
X1102Y5130D01*
X1096Y5130D01*
X1096Y5132D01*
X1092Y5132D01*
X1092Y5134D01*
X1090Y5134D01*
X1090Y5136D01*
X1086Y5136D01*
X1086Y5138D01*
X1084Y5138D01*
X1084Y5140D01*
X1082Y5140D01*
X1082Y5142D01*
X1080Y5142D01*
X1080Y5146D01*
X1078Y5146D01*
X1078Y5148D01*
X1076Y5148D01*
X1076Y5152D01*
X1074Y5152D01*
X1074Y5160D01*
X1072Y5160D01*
X1072Y5174D01*
X1074Y5174D01*
X1074Y5182D01*
X1076Y5182D01*
X1076Y5186D01*
X1078Y5186D01*
X1078Y5190D01*
X1080Y5190D01*
X1080Y5192D01*
X1082Y5192D01*
X1082Y5194D01*
X1084Y5194D01*
X1084Y5196D01*
X1086Y5196D01*
X1086Y5198D01*
X1088Y5198D01*
X1088Y5200D01*
X1092Y5200D01*
X1092Y5202D01*
X1094Y5202D01*
X1094Y5204D01*
X1100Y5204D01*
X1100Y5206D01*
X40Y5206D01*
G37*
D02*
G36*
X40Y5132D02*
X40Y5028D01*
X316Y5028D01*
X316Y4904D01*
X448Y4904D01*
X448Y4932D01*
X450Y4932D01*
X450Y4956D01*
X448Y4956D01*
X448Y4986D01*
X450Y4986D01*
X450Y4992D01*
X452Y4992D01*
X452Y4996D01*
X454Y4996D01*
X454Y5000D01*
X456Y5000D01*
X456Y5004D01*
X458Y5004D01*
X458Y5006D01*
X460Y5006D01*
X460Y5010D01*
X462Y5010D01*
X462Y5032D01*
X460Y5032D01*
X460Y5036D01*
X458Y5036D01*
X458Y5038D01*
X456Y5038D01*
X456Y5042D01*
X454Y5042D01*
X454Y5046D01*
X452Y5046D01*
X452Y5050D01*
X450Y5050D01*
X450Y5056D01*
X448Y5056D01*
X448Y5086D01*
X450Y5086D01*
X450Y5092D01*
X452Y5092D01*
X452Y5096D01*
X454Y5096D01*
X454Y5100D01*
X456Y5100D01*
X456Y5104D01*
X458Y5104D01*
X458Y5106D01*
X460Y5106D01*
X460Y5110D01*
X462Y5110D01*
X462Y5112D01*
X464Y5112D01*
X464Y5114D01*
X466Y5114D01*
X466Y5116D01*
X468Y5116D01*
X468Y5118D01*
X470Y5118D01*
X470Y5120D01*
X474Y5120D01*
X474Y5122D01*
X476Y5122D01*
X476Y5124D01*
X480Y5124D01*
X480Y5126D01*
X484Y5126D01*
X484Y5128D01*
X490Y5128D01*
X490Y5130D01*
X498Y5130D01*
X498Y5132D01*
X40Y5132D01*
G37*
D02*
G36*
X532Y5128D02*
X532Y5126D01*
X1666Y5126D01*
X1666Y5128D01*
X532Y5128D01*
G37*
D02*
G36*
X532Y5128D02*
X532Y5126D01*
X1666Y5126D01*
X1666Y5128D01*
X532Y5128D01*
G37*
D02*
G36*
X536Y5126D02*
X536Y5124D01*
X540Y5124D01*
X540Y5122D01*
X542Y5122D01*
X542Y5120D01*
X546Y5120D01*
X546Y5118D01*
X548Y5118D01*
X548Y5116D01*
X550Y5116D01*
X550Y5114D01*
X552Y5114D01*
X552Y5112D01*
X554Y5112D01*
X554Y5110D01*
X818Y5110D01*
X818Y5108D01*
X824Y5108D01*
X824Y5106D01*
X828Y5106D01*
X828Y5104D01*
X1660Y5104D01*
X1660Y5106D01*
X1662Y5106D01*
X1662Y5108D01*
X1664Y5108D01*
X1664Y5110D01*
X1666Y5110D01*
X1666Y5126D01*
X536Y5126D01*
G37*
D02*
G36*
X556Y5110D02*
X556Y5108D01*
X558Y5108D01*
X558Y5104D01*
X560Y5104D01*
X560Y5102D01*
X562Y5102D01*
X562Y5098D01*
X564Y5098D01*
X564Y5092D01*
X566Y5092D01*
X566Y5086D01*
X568Y5086D01*
X568Y5074D01*
X570Y5074D01*
X570Y5068D01*
X568Y5068D01*
X568Y5056D01*
X566Y5056D01*
X566Y5050D01*
X564Y5050D01*
X564Y5044D01*
X562Y5044D01*
X562Y5040D01*
X560Y5040D01*
X560Y5038D01*
X558Y5038D01*
X558Y5034D01*
X556Y5034D01*
X556Y5032D01*
X798Y5032D01*
X798Y5034D01*
X792Y5034D01*
X792Y5036D01*
X788Y5036D01*
X788Y5038D01*
X786Y5038D01*
X786Y5040D01*
X782Y5040D01*
X782Y5042D01*
X780Y5042D01*
X780Y5044D01*
X778Y5044D01*
X778Y5046D01*
X776Y5046D01*
X776Y5050D01*
X774Y5050D01*
X774Y5054D01*
X772Y5054D01*
X772Y5058D01*
X770Y5058D01*
X770Y5066D01*
X768Y5066D01*
X768Y5076D01*
X770Y5076D01*
X770Y5084D01*
X772Y5084D01*
X772Y5088D01*
X774Y5088D01*
X774Y5092D01*
X776Y5092D01*
X776Y5096D01*
X778Y5096D01*
X778Y5098D01*
X780Y5098D01*
X780Y5100D01*
X782Y5100D01*
X782Y5102D01*
X786Y5102D01*
X786Y5104D01*
X788Y5104D01*
X788Y5106D01*
X792Y5106D01*
X792Y5108D01*
X798Y5108D01*
X798Y5110D01*
X556Y5110D01*
G37*
D02*
G36*
X828Y5038D02*
X828Y5036D01*
X824Y5036D01*
X824Y5034D01*
X818Y5034D01*
X818Y5032D01*
X1664Y5032D01*
X1664Y5034D01*
X1662Y5034D01*
X1662Y5036D01*
X1660Y5036D01*
X1660Y5038D01*
X828Y5038D01*
G37*
D02*
G36*
X554Y5032D02*
X554Y5030D01*
X1666Y5030D01*
X1666Y5032D01*
X554Y5032D01*
G37*
D02*
G36*
X554Y5032D02*
X554Y5030D01*
X1666Y5030D01*
X1666Y5032D01*
X554Y5032D01*
G37*
D02*
G36*
X554Y5030D02*
X554Y5010D01*
X1318Y5010D01*
X1318Y5008D01*
X1324Y5008D01*
X1324Y5006D01*
X1328Y5006D01*
X1328Y5004D01*
X1660Y5004D01*
X1660Y5006D01*
X1662Y5006D01*
X1662Y5008D01*
X1664Y5008D01*
X1664Y5010D01*
X1666Y5010D01*
X1666Y5030D01*
X554Y5030D01*
G37*
D02*
G36*
X40Y5028D02*
X40Y4814D01*
X246Y4814D01*
X246Y4816D01*
X238Y4816D01*
X238Y4818D01*
X234Y4818D01*
X234Y4820D01*
X230Y4820D01*
X230Y4822D01*
X226Y4822D01*
X226Y4824D01*
X224Y4824D01*
X224Y4826D01*
X222Y4826D01*
X222Y4828D01*
X220Y4828D01*
X220Y4830D01*
X216Y4830D01*
X216Y4834D01*
X214Y4834D01*
X214Y4836D01*
X212Y4836D01*
X212Y4838D01*
X210Y4838D01*
X210Y4842D01*
X208Y4842D01*
X208Y4844D01*
X206Y4844D01*
X206Y4850D01*
X204Y4850D01*
X204Y4856D01*
X202Y4856D01*
X202Y4866D01*
X200Y4866D01*
X200Y4876D01*
X202Y4876D01*
X202Y4886D01*
X204Y4886D01*
X204Y4892D01*
X206Y4892D01*
X206Y4914D01*
X200Y4914D01*
X200Y5028D01*
X40Y5028D01*
G37*
D02*
G36*
X556Y5010D02*
X556Y5008D01*
X558Y5008D01*
X558Y5004D01*
X560Y5004D01*
X560Y5002D01*
X562Y5002D01*
X562Y4998D01*
X564Y4998D01*
X564Y4992D01*
X566Y4992D01*
X566Y4986D01*
X568Y4986D01*
X568Y4974D01*
X570Y4974D01*
X570Y4968D01*
X568Y4968D01*
X568Y4956D01*
X566Y4956D01*
X566Y4932D01*
X1298Y4932D01*
X1298Y4934D01*
X1292Y4934D01*
X1292Y4936D01*
X1288Y4936D01*
X1288Y4938D01*
X1286Y4938D01*
X1286Y4940D01*
X1282Y4940D01*
X1282Y4942D01*
X1280Y4942D01*
X1280Y4944D01*
X1278Y4944D01*
X1278Y4946D01*
X1276Y4946D01*
X1276Y4950D01*
X1274Y4950D01*
X1274Y4954D01*
X1272Y4954D01*
X1272Y4958D01*
X1270Y4958D01*
X1270Y4966D01*
X1268Y4966D01*
X1268Y4976D01*
X1270Y4976D01*
X1270Y4984D01*
X1272Y4984D01*
X1272Y4988D01*
X1274Y4988D01*
X1274Y4992D01*
X1276Y4992D01*
X1276Y4996D01*
X1278Y4996D01*
X1278Y4998D01*
X1280Y4998D01*
X1280Y5000D01*
X1282Y5000D01*
X1282Y5002D01*
X1286Y5002D01*
X1286Y5004D01*
X1288Y5004D01*
X1288Y5006D01*
X1292Y5006D01*
X1292Y5008D01*
X1298Y5008D01*
X1298Y5010D01*
X556Y5010D01*
G37*
D02*
G36*
X1328Y4938D02*
X1328Y4936D01*
X1324Y4936D01*
X1324Y4934D01*
X1318Y4934D01*
X1318Y4932D01*
X1664Y4932D01*
X1664Y4934D01*
X1662Y4934D01*
X1662Y4936D01*
X1660Y4936D01*
X1660Y4938D01*
X1328Y4938D01*
G37*
D02*
G36*
X570Y4932D02*
X570Y4930D01*
X1666Y4930D01*
X1666Y4932D01*
X570Y4932D01*
G37*
D02*
G36*
X570Y4932D02*
X570Y4930D01*
X1666Y4930D01*
X1666Y4932D01*
X570Y4932D01*
G37*
D02*
G36*
X570Y4930D02*
X570Y4910D01*
X1418Y4910D01*
X1418Y4908D01*
X1424Y4908D01*
X1424Y4906D01*
X1428Y4906D01*
X1428Y4904D01*
X1660Y4904D01*
X1660Y4906D01*
X1662Y4906D01*
X1662Y4908D01*
X1664Y4908D01*
X1664Y4910D01*
X1666Y4910D01*
X1666Y4930D01*
X570Y4930D01*
G37*
D02*
G36*
X570Y4910D02*
X570Y4832D01*
X1398Y4832D01*
X1398Y4834D01*
X1392Y4834D01*
X1392Y4836D01*
X1388Y4836D01*
X1388Y4838D01*
X1386Y4838D01*
X1386Y4840D01*
X1382Y4840D01*
X1382Y4842D01*
X1380Y4842D01*
X1380Y4844D01*
X1378Y4844D01*
X1378Y4846D01*
X1376Y4846D01*
X1376Y4850D01*
X1374Y4850D01*
X1374Y4854D01*
X1372Y4854D01*
X1372Y4858D01*
X1370Y4858D01*
X1370Y4866D01*
X1368Y4866D01*
X1368Y4876D01*
X1370Y4876D01*
X1370Y4884D01*
X1372Y4884D01*
X1372Y4888D01*
X1374Y4888D01*
X1374Y4892D01*
X1376Y4892D01*
X1376Y4896D01*
X1378Y4896D01*
X1378Y4898D01*
X1380Y4898D01*
X1380Y4900D01*
X1382Y4900D01*
X1382Y4902D01*
X1386Y4902D01*
X1386Y4904D01*
X1388Y4904D01*
X1388Y4906D01*
X1392Y4906D01*
X1392Y4908D01*
X1398Y4908D01*
X1398Y4910D01*
X570Y4910D01*
G37*
D02*
G36*
X304Y4838D02*
X304Y4836D01*
X302Y4836D01*
X302Y4834D01*
X300Y4834D01*
X300Y4830D01*
X298Y4830D01*
X298Y4828D01*
X294Y4828D01*
X294Y4826D01*
X292Y4826D01*
X292Y4824D01*
X290Y4824D01*
X290Y4822D01*
X286Y4822D01*
X286Y4820D01*
X282Y4820D01*
X282Y4818D01*
X278Y4818D01*
X278Y4816D01*
X270Y4816D01*
X270Y4814D01*
X448Y4814D01*
X448Y4838D01*
X304Y4838D01*
G37*
D02*
G36*
X1428Y4838D02*
X1428Y4836D01*
X1424Y4836D01*
X1424Y4834D01*
X1418Y4834D01*
X1418Y4832D01*
X1664Y4832D01*
X1664Y4834D01*
X1662Y4834D01*
X1662Y4836D01*
X1660Y4836D01*
X1660Y4838D01*
X1428Y4838D01*
G37*
D02*
G36*
X570Y4832D02*
X570Y4830D01*
X1666Y4830D01*
X1666Y4832D01*
X570Y4832D01*
G37*
D02*
G36*
X570Y4832D02*
X570Y4830D01*
X1666Y4830D01*
X1666Y4832D01*
X570Y4832D01*
G37*
D02*
G36*
X570Y4830D02*
X570Y4810D01*
X1518Y4810D01*
X1518Y4808D01*
X1524Y4808D01*
X1524Y4806D01*
X1528Y4806D01*
X1528Y4804D01*
X1660Y4804D01*
X1660Y4806D01*
X1662Y4806D01*
X1662Y4808D01*
X1664Y4808D01*
X1664Y4810D01*
X1666Y4810D01*
X1666Y4830D01*
X570Y4830D01*
G37*
D02*
G36*
X40Y4814D02*
X40Y4812D01*
X448Y4812D01*
X448Y4814D01*
X40Y4814D01*
G37*
D02*
G36*
X40Y4814D02*
X40Y4812D01*
X448Y4812D01*
X448Y4814D01*
X40Y4814D01*
G37*
D02*
G36*
X40Y4812D02*
X40Y4810D01*
X448Y4810D01*
X448Y4812D01*
X40Y4812D01*
G37*
D02*
G36*
X40Y4810D02*
X40Y4808D01*
X1498Y4808D01*
X1498Y4810D01*
X40Y4810D01*
G37*
D02*
G36*
X40Y4810D02*
X40Y4808D01*
X1498Y4808D01*
X1498Y4810D01*
X40Y4810D01*
G37*
D02*
G36*
X40Y4808D02*
X40Y4732D01*
X1498Y4732D01*
X1498Y4734D01*
X1492Y4734D01*
X1492Y4736D01*
X1488Y4736D01*
X1488Y4738D01*
X1486Y4738D01*
X1486Y4740D01*
X1482Y4740D01*
X1482Y4742D01*
X1480Y4742D01*
X1480Y4744D01*
X1478Y4744D01*
X1478Y4746D01*
X1476Y4746D01*
X1476Y4750D01*
X1474Y4750D01*
X1474Y4754D01*
X1472Y4754D01*
X1472Y4758D01*
X1470Y4758D01*
X1470Y4766D01*
X1468Y4766D01*
X1468Y4776D01*
X1470Y4776D01*
X1470Y4784D01*
X1472Y4784D01*
X1472Y4788D01*
X1474Y4788D01*
X1474Y4792D01*
X1476Y4792D01*
X1476Y4796D01*
X1478Y4796D01*
X1478Y4798D01*
X1480Y4798D01*
X1480Y4800D01*
X1482Y4800D01*
X1482Y4802D01*
X1486Y4802D01*
X1486Y4804D01*
X1488Y4804D01*
X1488Y4806D01*
X1492Y4806D01*
X1492Y4808D01*
X40Y4808D01*
G37*
D02*
G36*
X1528Y4738D02*
X1528Y4736D01*
X1524Y4736D01*
X1524Y4734D01*
X1518Y4734D01*
X1518Y4732D01*
X1664Y4732D01*
X1664Y4734D01*
X1662Y4734D01*
X1662Y4736D01*
X1660Y4736D01*
X1660Y4738D01*
X1528Y4738D01*
G37*
D02*
G36*
X40Y4732D02*
X40Y4730D01*
X1666Y4730D01*
X1666Y4732D01*
X40Y4732D01*
G37*
D02*
G36*
X40Y4732D02*
X40Y4730D01*
X1666Y4730D01*
X1666Y4732D01*
X40Y4732D01*
G37*
D02*
G36*
X40Y4730D02*
X40Y4712D01*
X1698Y4712D01*
X1698Y4714D01*
X1690Y4714D01*
X1690Y4716D01*
X1684Y4716D01*
X1684Y4718D01*
X1680Y4718D01*
X1680Y4720D01*
X1678Y4720D01*
X1678Y4722D01*
X1674Y4722D01*
X1674Y4724D01*
X1672Y4724D01*
X1672Y4726D01*
X1670Y4726D01*
X1670Y4728D01*
X1666Y4728D01*
X1666Y4730D01*
X40Y4730D01*
G37*
D02*
G36*
X40Y4712D02*
X40Y4710D01*
X1928Y4710D01*
X1928Y4712D01*
X40Y4712D01*
G37*
D02*
G36*
X40Y4712D02*
X40Y4710D01*
X1928Y4710D01*
X1928Y4712D01*
X40Y4712D01*
G37*
D02*
G36*
X40Y4710D02*
X40Y4118D01*
X208Y4118D01*
X208Y4116D01*
X216Y4116D01*
X216Y4114D01*
X222Y4114D01*
X222Y4112D01*
X226Y4112D01*
X226Y4110D01*
X228Y4110D01*
X228Y4108D01*
X232Y4108D01*
X232Y4106D01*
X234Y4106D01*
X234Y4104D01*
X236Y4104D01*
X236Y4102D01*
X238Y4102D01*
X238Y4100D01*
X240Y4100D01*
X240Y4098D01*
X242Y4098D01*
X242Y4096D01*
X244Y4096D01*
X244Y4094D01*
X246Y4094D01*
X246Y4090D01*
X248Y4090D01*
X248Y4086D01*
X250Y4086D01*
X250Y4082D01*
X252Y4082D01*
X252Y4076D01*
X254Y4076D01*
X254Y4064D01*
X256Y4064D01*
X256Y4058D01*
X254Y4058D01*
X254Y4046D01*
X252Y4046D01*
X252Y4040D01*
X250Y4040D01*
X250Y4036D01*
X248Y4036D01*
X248Y4032D01*
X246Y4032D01*
X246Y4028D01*
X244Y4028D01*
X244Y4026D01*
X242Y4026D01*
X242Y4024D01*
X240Y4024D01*
X240Y4022D01*
X238Y4022D01*
X238Y4000D01*
X240Y4000D01*
X240Y3998D01*
X242Y3998D01*
X242Y3996D01*
X244Y3996D01*
X244Y3994D01*
X246Y3994D01*
X246Y3990D01*
X248Y3990D01*
X248Y3986D01*
X250Y3986D01*
X250Y3982D01*
X252Y3982D01*
X252Y3976D01*
X254Y3976D01*
X254Y3964D01*
X256Y3964D01*
X256Y3958D01*
X254Y3958D01*
X254Y3946D01*
X252Y3946D01*
X252Y3940D01*
X250Y3940D01*
X250Y3918D01*
X256Y3918D01*
X256Y3804D01*
X1928Y3804D01*
X1928Y4710D01*
X40Y4710D01*
G37*
D02*
G36*
X40Y4118D02*
X40Y3804D01*
X142Y3804D01*
X142Y3918D01*
X146Y3918D01*
X146Y3940D01*
X144Y3940D01*
X144Y3948D01*
X142Y3948D01*
X142Y3974D01*
X144Y3974D01*
X144Y3982D01*
X146Y3982D01*
X146Y3986D01*
X148Y3986D01*
X148Y3990D01*
X150Y3990D01*
X150Y3992D01*
X152Y3992D01*
X152Y3996D01*
X154Y3996D01*
X154Y3998D01*
X156Y3998D01*
X156Y4000D01*
X158Y4000D01*
X158Y4022D01*
X156Y4022D01*
X156Y4024D01*
X154Y4024D01*
X154Y4026D01*
X152Y4026D01*
X152Y4030D01*
X150Y4030D01*
X150Y4032D01*
X148Y4032D01*
X148Y4036D01*
X146Y4036D01*
X146Y4040D01*
X144Y4040D01*
X144Y4048D01*
X142Y4048D01*
X142Y4074D01*
X144Y4074D01*
X144Y4082D01*
X146Y4082D01*
X146Y4086D01*
X148Y4086D01*
X148Y4090D01*
X150Y4090D01*
X150Y4092D01*
X152Y4092D01*
X152Y4096D01*
X154Y4096D01*
X154Y4098D01*
X156Y4098D01*
X156Y4100D01*
X158Y4100D01*
X158Y4102D01*
X160Y4102D01*
X160Y4104D01*
X162Y4104D01*
X162Y4106D01*
X164Y4106D01*
X164Y4108D01*
X168Y4108D01*
X168Y4110D01*
X170Y4110D01*
X170Y4112D01*
X174Y4112D01*
X174Y4114D01*
X180Y4114D01*
X180Y4116D01*
X188Y4116D01*
X188Y4118D01*
X40Y4118D01*
G37*
D02*
G36*
X40Y3804D02*
X40Y3802D01*
X1928Y3802D01*
X1928Y3804D01*
X40Y3804D01*
G37*
D02*
G36*
X40Y3804D02*
X40Y3802D01*
X1928Y3802D01*
X1928Y3804D01*
X40Y3804D01*
G37*
D02*
G36*
X40Y3802D02*
X40Y3230D01*
X1718Y3230D01*
X1718Y3228D01*
X1726Y3228D01*
X1726Y3226D01*
X1732Y3226D01*
X1732Y3224D01*
X1736Y3224D01*
X1736Y3222D01*
X1740Y3222D01*
X1740Y3220D01*
X1742Y3220D01*
X1742Y3218D01*
X1744Y3218D01*
X1744Y3216D01*
X1748Y3216D01*
X1748Y3214D01*
X1750Y3214D01*
X1750Y3212D01*
X1752Y3212D01*
X1752Y3208D01*
X1754Y3208D01*
X1754Y3206D01*
X1756Y3206D01*
X1756Y3204D01*
X1758Y3204D01*
X1758Y3200D01*
X1760Y3200D01*
X1760Y3198D01*
X1762Y3198D01*
X1762Y3192D01*
X1764Y3192D01*
X1764Y3186D01*
X1766Y3186D01*
X1766Y3174D01*
X1768Y3174D01*
X1768Y3168D01*
X1766Y3168D01*
X1766Y3156D01*
X1764Y3156D01*
X1764Y3150D01*
X1762Y3150D01*
X1762Y3144D01*
X1760Y3144D01*
X1760Y3142D01*
X1758Y3142D01*
X1758Y3138D01*
X1756Y3138D01*
X1756Y3136D01*
X1754Y3136D01*
X1754Y3134D01*
X1752Y3134D01*
X1752Y3108D01*
X1754Y3108D01*
X1754Y3106D01*
X1756Y3106D01*
X1756Y3104D01*
X1758Y3104D01*
X1758Y3100D01*
X1760Y3100D01*
X1760Y3098D01*
X1762Y3098D01*
X1762Y3092D01*
X1764Y3092D01*
X1764Y3086D01*
X1766Y3086D01*
X1766Y3074D01*
X1768Y3074D01*
X1768Y3068D01*
X1766Y3068D01*
X1766Y3056D01*
X1764Y3056D01*
X1764Y3050D01*
X1762Y3050D01*
X1762Y3044D01*
X1760Y3044D01*
X1760Y3042D01*
X1758Y3042D01*
X1758Y3038D01*
X1756Y3038D01*
X1756Y3036D01*
X1754Y3036D01*
X1754Y3034D01*
X1752Y3034D01*
X1752Y3008D01*
X1754Y3008D01*
X1754Y3006D01*
X1756Y3006D01*
X1756Y3004D01*
X1758Y3004D01*
X1758Y3000D01*
X1760Y3000D01*
X1760Y2998D01*
X1762Y2998D01*
X1762Y2992D01*
X1764Y2992D01*
X1764Y2986D01*
X1766Y2986D01*
X1766Y2974D01*
X1768Y2974D01*
X1768Y2968D01*
X1766Y2968D01*
X1766Y2956D01*
X1764Y2956D01*
X1764Y2950D01*
X1762Y2950D01*
X1762Y2944D01*
X1760Y2944D01*
X1760Y2942D01*
X1758Y2942D01*
X1758Y2938D01*
X1756Y2938D01*
X1756Y2936D01*
X1754Y2936D01*
X1754Y2934D01*
X1752Y2934D01*
X1752Y2908D01*
X1754Y2908D01*
X1754Y2906D01*
X1756Y2906D01*
X1756Y2904D01*
X1758Y2904D01*
X1758Y2900D01*
X1760Y2900D01*
X1760Y2898D01*
X1762Y2898D01*
X1762Y2892D01*
X1764Y2892D01*
X1764Y2886D01*
X1766Y2886D01*
X1766Y2874D01*
X1768Y2874D01*
X1768Y2868D01*
X1766Y2868D01*
X1766Y2856D01*
X1764Y2856D01*
X1764Y2850D01*
X1762Y2850D01*
X1762Y2844D01*
X1760Y2844D01*
X1760Y2842D01*
X1758Y2842D01*
X1758Y2838D01*
X1756Y2838D01*
X1756Y2836D01*
X1754Y2836D01*
X1754Y2834D01*
X1752Y2834D01*
X1752Y2808D01*
X1754Y2808D01*
X1754Y2806D01*
X1756Y2806D01*
X1756Y2804D01*
X1758Y2804D01*
X1758Y2800D01*
X1760Y2800D01*
X1760Y2798D01*
X1762Y2798D01*
X1762Y2792D01*
X1764Y2792D01*
X1764Y2786D01*
X1766Y2786D01*
X1766Y2774D01*
X1768Y2774D01*
X1768Y2768D01*
X1766Y2768D01*
X1766Y2756D01*
X1764Y2756D01*
X1764Y2750D01*
X1762Y2750D01*
X1762Y2744D01*
X1760Y2744D01*
X1760Y2742D01*
X1758Y2742D01*
X1758Y2738D01*
X1756Y2738D01*
X1756Y2736D01*
X1754Y2736D01*
X1754Y2734D01*
X1752Y2734D01*
X1752Y2730D01*
X1750Y2730D01*
X1750Y2728D01*
X1748Y2728D01*
X1748Y2726D01*
X1744Y2726D01*
X1744Y2724D01*
X1742Y2724D01*
X1742Y2722D01*
X1740Y2722D01*
X1740Y2720D01*
X1736Y2720D01*
X1736Y2718D01*
X1732Y2718D01*
X1732Y2716D01*
X1726Y2716D01*
X1726Y2714D01*
X1718Y2714D01*
X1718Y2712D01*
X1928Y2712D01*
X1928Y3802D01*
X40Y3802D01*
G37*
D02*
G36*
X40Y3230D02*
X40Y3210D01*
X1118Y3210D01*
X1118Y3208D01*
X1124Y3208D01*
X1124Y3206D01*
X1128Y3206D01*
X1128Y3204D01*
X1132Y3204D01*
X1132Y3202D01*
X1134Y3202D01*
X1134Y3200D01*
X1136Y3200D01*
X1136Y3198D01*
X1138Y3198D01*
X1138Y3196D01*
X1140Y3196D01*
X1140Y3192D01*
X1142Y3192D01*
X1142Y3190D01*
X1144Y3190D01*
X1144Y3186D01*
X1146Y3186D01*
X1146Y3178D01*
X1148Y3178D01*
X1148Y3164D01*
X1146Y3164D01*
X1146Y3156D01*
X1144Y3156D01*
X1144Y3152D01*
X1142Y3152D01*
X1142Y3150D01*
X1140Y3150D01*
X1140Y3146D01*
X1138Y3146D01*
X1138Y3144D01*
X1136Y3144D01*
X1136Y3142D01*
X1134Y3142D01*
X1134Y3140D01*
X1132Y3140D01*
X1132Y3138D01*
X1128Y3138D01*
X1128Y3136D01*
X1124Y3136D01*
X1124Y3134D01*
X1118Y3134D01*
X1118Y3132D01*
X1664Y3132D01*
X1664Y3134D01*
X1662Y3134D01*
X1662Y3136D01*
X1660Y3136D01*
X1660Y3138D01*
X1658Y3138D01*
X1658Y3142D01*
X1656Y3142D01*
X1656Y3146D01*
X1654Y3146D01*
X1654Y3150D01*
X1652Y3150D01*
X1652Y3158D01*
X1650Y3158D01*
X1650Y3184D01*
X1652Y3184D01*
X1652Y3192D01*
X1654Y3192D01*
X1654Y3196D01*
X1656Y3196D01*
X1656Y3200D01*
X1658Y3200D01*
X1658Y3204D01*
X1660Y3204D01*
X1660Y3206D01*
X1662Y3206D01*
X1662Y3208D01*
X1664Y3208D01*
X1664Y3210D01*
X1666Y3210D01*
X1666Y3214D01*
X1670Y3214D01*
X1670Y3216D01*
X1672Y3216D01*
X1672Y3218D01*
X1674Y3218D01*
X1674Y3220D01*
X1678Y3220D01*
X1678Y3222D01*
X1680Y3222D01*
X1680Y3224D01*
X1684Y3224D01*
X1684Y3226D01*
X1690Y3226D01*
X1690Y3228D01*
X1698Y3228D01*
X1698Y3230D01*
X40Y3230D01*
G37*
D02*
G36*
X40Y3210D02*
X40Y3028D01*
X316Y3028D01*
X316Y2904D01*
X448Y2904D01*
X448Y2932D01*
X450Y2932D01*
X450Y2956D01*
X448Y2956D01*
X448Y2986D01*
X450Y2986D01*
X450Y2992D01*
X452Y2992D01*
X452Y2996D01*
X454Y2996D01*
X454Y3000D01*
X456Y3000D01*
X456Y3004D01*
X458Y3004D01*
X458Y3006D01*
X460Y3006D01*
X460Y3010D01*
X462Y3010D01*
X462Y3032D01*
X460Y3032D01*
X460Y3036D01*
X458Y3036D01*
X458Y3038D01*
X456Y3038D01*
X456Y3042D01*
X454Y3042D01*
X454Y3046D01*
X452Y3046D01*
X452Y3050D01*
X450Y3050D01*
X450Y3056D01*
X448Y3056D01*
X448Y3086D01*
X450Y3086D01*
X450Y3092D01*
X452Y3092D01*
X452Y3096D01*
X454Y3096D01*
X454Y3100D01*
X456Y3100D01*
X456Y3104D01*
X458Y3104D01*
X458Y3106D01*
X460Y3106D01*
X460Y3110D01*
X462Y3110D01*
X462Y3112D01*
X464Y3112D01*
X464Y3114D01*
X466Y3114D01*
X466Y3116D01*
X468Y3116D01*
X468Y3118D01*
X470Y3118D01*
X470Y3120D01*
X474Y3120D01*
X474Y3122D01*
X476Y3122D01*
X476Y3124D01*
X480Y3124D01*
X480Y3126D01*
X484Y3126D01*
X484Y3128D01*
X490Y3128D01*
X490Y3130D01*
X498Y3130D01*
X498Y3132D01*
X1098Y3132D01*
X1098Y3134D01*
X1092Y3134D01*
X1092Y3136D01*
X1088Y3136D01*
X1088Y3138D01*
X1086Y3138D01*
X1086Y3140D01*
X1082Y3140D01*
X1082Y3142D01*
X1080Y3142D01*
X1080Y3144D01*
X1078Y3144D01*
X1078Y3146D01*
X1076Y3146D01*
X1076Y3150D01*
X1074Y3150D01*
X1074Y3154D01*
X1072Y3154D01*
X1072Y3158D01*
X1070Y3158D01*
X1070Y3166D01*
X1068Y3166D01*
X1068Y3176D01*
X1070Y3176D01*
X1070Y3184D01*
X1072Y3184D01*
X1072Y3188D01*
X1074Y3188D01*
X1074Y3192D01*
X1076Y3192D01*
X1076Y3196D01*
X1078Y3196D01*
X1078Y3198D01*
X1080Y3198D01*
X1080Y3200D01*
X1082Y3200D01*
X1082Y3202D01*
X1086Y3202D01*
X1086Y3204D01*
X1088Y3204D01*
X1088Y3206D01*
X1092Y3206D01*
X1092Y3208D01*
X1098Y3208D01*
X1098Y3210D01*
X40Y3210D01*
G37*
D02*
G36*
X518Y3132D02*
X518Y3130D01*
X1666Y3130D01*
X1666Y3132D01*
X518Y3132D01*
G37*
D02*
G36*
X518Y3132D02*
X518Y3130D01*
X1666Y3130D01*
X1666Y3132D01*
X518Y3132D01*
G37*
D02*
G36*
X526Y3130D02*
X526Y3128D01*
X532Y3128D01*
X532Y3126D01*
X536Y3126D01*
X536Y3124D01*
X540Y3124D01*
X540Y3122D01*
X542Y3122D01*
X542Y3120D01*
X546Y3120D01*
X546Y3118D01*
X548Y3118D01*
X548Y3116D01*
X550Y3116D01*
X550Y3114D01*
X552Y3114D01*
X552Y3112D01*
X554Y3112D01*
X554Y3110D01*
X808Y3110D01*
X808Y3108D01*
X814Y3108D01*
X814Y3106D01*
X818Y3106D01*
X818Y3104D01*
X1660Y3104D01*
X1660Y3106D01*
X1662Y3106D01*
X1662Y3108D01*
X1664Y3108D01*
X1664Y3110D01*
X1666Y3110D01*
X1666Y3130D01*
X526Y3130D01*
G37*
D02*
G36*
X556Y3110D02*
X556Y3108D01*
X558Y3108D01*
X558Y3104D01*
X560Y3104D01*
X560Y3102D01*
X562Y3102D01*
X562Y3098D01*
X564Y3098D01*
X564Y3092D01*
X566Y3092D01*
X566Y3086D01*
X568Y3086D01*
X568Y3074D01*
X570Y3074D01*
X570Y3068D01*
X568Y3068D01*
X568Y3056D01*
X566Y3056D01*
X566Y3050D01*
X564Y3050D01*
X564Y3044D01*
X562Y3044D01*
X562Y3040D01*
X560Y3040D01*
X560Y3038D01*
X558Y3038D01*
X558Y3034D01*
X556Y3034D01*
X556Y3032D01*
X786Y3032D01*
X786Y3034D01*
X780Y3034D01*
X780Y3036D01*
X778Y3036D01*
X778Y3038D01*
X774Y3038D01*
X774Y3040D01*
X772Y3040D01*
X772Y3042D01*
X770Y3042D01*
X770Y3044D01*
X768Y3044D01*
X768Y3046D01*
X766Y3046D01*
X766Y3048D01*
X764Y3048D01*
X764Y3052D01*
X762Y3052D01*
X762Y3054D01*
X760Y3054D01*
X760Y3060D01*
X758Y3060D01*
X758Y3082D01*
X760Y3082D01*
X760Y3088D01*
X762Y3088D01*
X762Y3090D01*
X764Y3090D01*
X764Y3094D01*
X766Y3094D01*
X766Y3096D01*
X768Y3096D01*
X768Y3098D01*
X770Y3098D01*
X770Y3100D01*
X772Y3100D01*
X772Y3102D01*
X774Y3102D01*
X774Y3104D01*
X778Y3104D01*
X778Y3106D01*
X780Y3106D01*
X780Y3108D01*
X786Y3108D01*
X786Y3110D01*
X556Y3110D01*
G37*
D02*
G36*
X818Y3038D02*
X818Y3036D01*
X814Y3036D01*
X814Y3034D01*
X808Y3034D01*
X808Y3032D01*
X1664Y3032D01*
X1664Y3034D01*
X1662Y3034D01*
X1662Y3036D01*
X1660Y3036D01*
X1660Y3038D01*
X818Y3038D01*
G37*
D02*
G36*
X554Y3032D02*
X554Y3030D01*
X1666Y3030D01*
X1666Y3032D01*
X554Y3032D01*
G37*
D02*
G36*
X554Y3032D02*
X554Y3030D01*
X1666Y3030D01*
X1666Y3032D01*
X554Y3032D01*
G37*
D02*
G36*
X554Y3030D02*
X554Y3010D01*
X1318Y3010D01*
X1318Y3008D01*
X1324Y3008D01*
X1324Y3006D01*
X1328Y3006D01*
X1328Y3004D01*
X1660Y3004D01*
X1660Y3006D01*
X1662Y3006D01*
X1662Y3008D01*
X1664Y3008D01*
X1664Y3010D01*
X1666Y3010D01*
X1666Y3030D01*
X554Y3030D01*
G37*
D02*
G36*
X40Y3028D02*
X40Y2814D01*
X246Y2814D01*
X246Y2816D01*
X238Y2816D01*
X238Y2818D01*
X234Y2818D01*
X234Y2820D01*
X230Y2820D01*
X230Y2822D01*
X226Y2822D01*
X226Y2824D01*
X224Y2824D01*
X224Y2826D01*
X222Y2826D01*
X222Y2828D01*
X220Y2828D01*
X220Y2830D01*
X216Y2830D01*
X216Y2834D01*
X214Y2834D01*
X214Y2836D01*
X212Y2836D01*
X212Y2838D01*
X210Y2838D01*
X210Y2842D01*
X208Y2842D01*
X208Y2844D01*
X206Y2844D01*
X206Y2850D01*
X204Y2850D01*
X204Y2856D01*
X202Y2856D01*
X202Y2866D01*
X200Y2866D01*
X200Y2876D01*
X202Y2876D01*
X202Y2886D01*
X204Y2886D01*
X204Y2892D01*
X206Y2892D01*
X206Y2914D01*
X200Y2914D01*
X200Y3028D01*
X40Y3028D01*
G37*
D02*
G36*
X556Y3010D02*
X556Y3008D01*
X558Y3008D01*
X558Y3004D01*
X560Y3004D01*
X560Y3002D01*
X562Y3002D01*
X562Y2998D01*
X564Y2998D01*
X564Y2992D01*
X566Y2992D01*
X566Y2986D01*
X568Y2986D01*
X568Y2974D01*
X570Y2974D01*
X570Y2968D01*
X568Y2968D01*
X568Y2956D01*
X566Y2956D01*
X566Y2932D01*
X1298Y2932D01*
X1298Y2934D01*
X1292Y2934D01*
X1292Y2936D01*
X1288Y2936D01*
X1288Y2938D01*
X1286Y2938D01*
X1286Y2940D01*
X1282Y2940D01*
X1282Y2942D01*
X1280Y2942D01*
X1280Y2944D01*
X1278Y2944D01*
X1278Y2946D01*
X1276Y2946D01*
X1276Y2950D01*
X1274Y2950D01*
X1274Y2954D01*
X1272Y2954D01*
X1272Y2958D01*
X1270Y2958D01*
X1270Y2966D01*
X1268Y2966D01*
X1268Y2976D01*
X1270Y2976D01*
X1270Y2984D01*
X1272Y2984D01*
X1272Y2988D01*
X1274Y2988D01*
X1274Y2992D01*
X1276Y2992D01*
X1276Y2996D01*
X1278Y2996D01*
X1278Y2998D01*
X1280Y2998D01*
X1280Y3000D01*
X1282Y3000D01*
X1282Y3002D01*
X1286Y3002D01*
X1286Y3004D01*
X1288Y3004D01*
X1288Y3006D01*
X1292Y3006D01*
X1292Y3008D01*
X1298Y3008D01*
X1298Y3010D01*
X556Y3010D01*
G37*
D02*
G36*
X1328Y2938D02*
X1328Y2936D01*
X1324Y2936D01*
X1324Y2934D01*
X1318Y2934D01*
X1318Y2932D01*
X1664Y2932D01*
X1664Y2934D01*
X1662Y2934D01*
X1662Y2936D01*
X1660Y2936D01*
X1660Y2938D01*
X1328Y2938D01*
G37*
D02*
G36*
X570Y2932D02*
X570Y2930D01*
X1666Y2930D01*
X1666Y2932D01*
X570Y2932D01*
G37*
D02*
G36*
X570Y2932D02*
X570Y2930D01*
X1666Y2930D01*
X1666Y2932D01*
X570Y2932D01*
G37*
D02*
G36*
X570Y2930D02*
X570Y2910D01*
X1418Y2910D01*
X1418Y2908D01*
X1424Y2908D01*
X1424Y2906D01*
X1428Y2906D01*
X1428Y2904D01*
X1660Y2904D01*
X1660Y2906D01*
X1662Y2906D01*
X1662Y2908D01*
X1664Y2908D01*
X1664Y2910D01*
X1666Y2910D01*
X1666Y2930D01*
X570Y2930D01*
G37*
D02*
G36*
X570Y2910D02*
X570Y2832D01*
X1398Y2832D01*
X1398Y2834D01*
X1392Y2834D01*
X1392Y2836D01*
X1388Y2836D01*
X1388Y2838D01*
X1386Y2838D01*
X1386Y2840D01*
X1382Y2840D01*
X1382Y2842D01*
X1380Y2842D01*
X1380Y2844D01*
X1378Y2844D01*
X1378Y2846D01*
X1376Y2846D01*
X1376Y2850D01*
X1374Y2850D01*
X1374Y2854D01*
X1372Y2854D01*
X1372Y2858D01*
X1370Y2858D01*
X1370Y2866D01*
X1368Y2866D01*
X1368Y2876D01*
X1370Y2876D01*
X1370Y2884D01*
X1372Y2884D01*
X1372Y2888D01*
X1374Y2888D01*
X1374Y2892D01*
X1376Y2892D01*
X1376Y2896D01*
X1378Y2896D01*
X1378Y2898D01*
X1380Y2898D01*
X1380Y2900D01*
X1382Y2900D01*
X1382Y2902D01*
X1386Y2902D01*
X1386Y2904D01*
X1388Y2904D01*
X1388Y2906D01*
X1392Y2906D01*
X1392Y2908D01*
X1398Y2908D01*
X1398Y2910D01*
X570Y2910D01*
G37*
D02*
G36*
X304Y2838D02*
X304Y2836D01*
X302Y2836D01*
X302Y2834D01*
X300Y2834D01*
X300Y2830D01*
X298Y2830D01*
X298Y2828D01*
X294Y2828D01*
X294Y2826D01*
X292Y2826D01*
X292Y2824D01*
X290Y2824D01*
X290Y2822D01*
X286Y2822D01*
X286Y2820D01*
X282Y2820D01*
X282Y2818D01*
X278Y2818D01*
X278Y2816D01*
X270Y2816D01*
X270Y2814D01*
X448Y2814D01*
X448Y2838D01*
X304Y2838D01*
G37*
D02*
G36*
X1428Y2838D02*
X1428Y2836D01*
X1424Y2836D01*
X1424Y2834D01*
X1418Y2834D01*
X1418Y2832D01*
X1664Y2832D01*
X1664Y2834D01*
X1662Y2834D01*
X1662Y2836D01*
X1660Y2836D01*
X1660Y2838D01*
X1428Y2838D01*
G37*
D02*
G36*
X570Y2832D02*
X570Y2830D01*
X1666Y2830D01*
X1666Y2832D01*
X570Y2832D01*
G37*
D02*
G36*
X570Y2832D02*
X570Y2830D01*
X1666Y2830D01*
X1666Y2832D01*
X570Y2832D01*
G37*
D02*
G36*
X570Y2830D02*
X570Y2810D01*
X1518Y2810D01*
X1518Y2808D01*
X1524Y2808D01*
X1524Y2806D01*
X1528Y2806D01*
X1528Y2804D01*
X1660Y2804D01*
X1660Y2806D01*
X1662Y2806D01*
X1662Y2808D01*
X1664Y2808D01*
X1664Y2810D01*
X1666Y2810D01*
X1666Y2830D01*
X570Y2830D01*
G37*
D02*
G36*
X40Y2814D02*
X40Y2812D01*
X448Y2812D01*
X448Y2814D01*
X40Y2814D01*
G37*
D02*
G36*
X40Y2814D02*
X40Y2812D01*
X448Y2812D01*
X448Y2814D01*
X40Y2814D01*
G37*
D02*
G36*
X40Y2812D02*
X40Y2810D01*
X448Y2810D01*
X448Y2812D01*
X40Y2812D01*
G37*
D02*
G36*
X40Y2810D02*
X40Y2808D01*
X1498Y2808D01*
X1498Y2810D01*
X40Y2810D01*
G37*
D02*
G36*
X40Y2810D02*
X40Y2808D01*
X1498Y2808D01*
X1498Y2810D01*
X40Y2810D01*
G37*
D02*
G36*
X40Y2808D02*
X40Y2732D01*
X1498Y2732D01*
X1498Y2734D01*
X1492Y2734D01*
X1492Y2736D01*
X1488Y2736D01*
X1488Y2738D01*
X1486Y2738D01*
X1486Y2740D01*
X1482Y2740D01*
X1482Y2742D01*
X1480Y2742D01*
X1480Y2744D01*
X1478Y2744D01*
X1478Y2746D01*
X1476Y2746D01*
X1476Y2750D01*
X1474Y2750D01*
X1474Y2754D01*
X1472Y2754D01*
X1472Y2758D01*
X1470Y2758D01*
X1470Y2766D01*
X1468Y2766D01*
X1468Y2776D01*
X1470Y2776D01*
X1470Y2784D01*
X1472Y2784D01*
X1472Y2788D01*
X1474Y2788D01*
X1474Y2792D01*
X1476Y2792D01*
X1476Y2796D01*
X1478Y2796D01*
X1478Y2798D01*
X1480Y2798D01*
X1480Y2800D01*
X1482Y2800D01*
X1482Y2802D01*
X1486Y2802D01*
X1486Y2804D01*
X1488Y2804D01*
X1488Y2806D01*
X1492Y2806D01*
X1492Y2808D01*
X40Y2808D01*
G37*
D02*
G36*
X1528Y2738D02*
X1528Y2736D01*
X1524Y2736D01*
X1524Y2734D01*
X1518Y2734D01*
X1518Y2732D01*
X1664Y2732D01*
X1664Y2734D01*
X1662Y2734D01*
X1662Y2736D01*
X1660Y2736D01*
X1660Y2738D01*
X1528Y2738D01*
G37*
D02*
G36*
X40Y2732D02*
X40Y2730D01*
X1666Y2730D01*
X1666Y2732D01*
X40Y2732D01*
G37*
D02*
G36*
X40Y2732D02*
X40Y2730D01*
X1666Y2730D01*
X1666Y2732D01*
X40Y2732D01*
G37*
D02*
G36*
X40Y2730D02*
X40Y2712D01*
X1698Y2712D01*
X1698Y2714D01*
X1690Y2714D01*
X1690Y2716D01*
X1684Y2716D01*
X1684Y2718D01*
X1680Y2718D01*
X1680Y2720D01*
X1678Y2720D01*
X1678Y2722D01*
X1674Y2722D01*
X1674Y2724D01*
X1672Y2724D01*
X1672Y2726D01*
X1670Y2726D01*
X1670Y2728D01*
X1666Y2728D01*
X1666Y2730D01*
X40Y2730D01*
G37*
D02*
G36*
X40Y2712D02*
X40Y2710D01*
X1928Y2710D01*
X1928Y2712D01*
X40Y2712D01*
G37*
D02*
G36*
X40Y2712D02*
X40Y2710D01*
X1928Y2710D01*
X1928Y2712D01*
X40Y2712D01*
G37*
D02*
G36*
X40Y2710D02*
X40Y1230D01*
X1718Y1230D01*
X1718Y1228D01*
X1726Y1228D01*
X1726Y1226D01*
X1732Y1226D01*
X1732Y1224D01*
X1736Y1224D01*
X1736Y1222D01*
X1740Y1222D01*
X1740Y1220D01*
X1742Y1220D01*
X1742Y1218D01*
X1744Y1218D01*
X1744Y1216D01*
X1748Y1216D01*
X1748Y1214D01*
X1750Y1214D01*
X1750Y1212D01*
X1752Y1212D01*
X1752Y1208D01*
X1754Y1208D01*
X1754Y1206D01*
X1756Y1206D01*
X1756Y1204D01*
X1758Y1204D01*
X1758Y1200D01*
X1760Y1200D01*
X1760Y1198D01*
X1762Y1198D01*
X1762Y1192D01*
X1764Y1192D01*
X1764Y1186D01*
X1766Y1186D01*
X1766Y1174D01*
X1768Y1174D01*
X1768Y1168D01*
X1766Y1168D01*
X1766Y1156D01*
X1764Y1156D01*
X1764Y1150D01*
X1762Y1150D01*
X1762Y1144D01*
X1760Y1144D01*
X1760Y1142D01*
X1758Y1142D01*
X1758Y1138D01*
X1756Y1138D01*
X1756Y1136D01*
X1754Y1136D01*
X1754Y1134D01*
X1752Y1134D01*
X1752Y1108D01*
X1754Y1108D01*
X1754Y1106D01*
X1756Y1106D01*
X1756Y1104D01*
X1758Y1104D01*
X1758Y1100D01*
X1760Y1100D01*
X1760Y1098D01*
X1762Y1098D01*
X1762Y1092D01*
X1764Y1092D01*
X1764Y1086D01*
X1766Y1086D01*
X1766Y1074D01*
X1768Y1074D01*
X1768Y1068D01*
X1766Y1068D01*
X1766Y1056D01*
X1764Y1056D01*
X1764Y1050D01*
X1762Y1050D01*
X1762Y1044D01*
X1760Y1044D01*
X1760Y1042D01*
X1758Y1042D01*
X1758Y1038D01*
X1756Y1038D01*
X1756Y1036D01*
X1754Y1036D01*
X1754Y1034D01*
X1752Y1034D01*
X1752Y1008D01*
X1754Y1008D01*
X1754Y1006D01*
X1756Y1006D01*
X1756Y1004D01*
X1758Y1004D01*
X1758Y1000D01*
X1760Y1000D01*
X1760Y998D01*
X1762Y998D01*
X1762Y992D01*
X1764Y992D01*
X1764Y986D01*
X1766Y986D01*
X1766Y974D01*
X1768Y974D01*
X1768Y968D01*
X1766Y968D01*
X1766Y956D01*
X1764Y956D01*
X1764Y950D01*
X1762Y950D01*
X1762Y944D01*
X1760Y944D01*
X1760Y942D01*
X1758Y942D01*
X1758Y938D01*
X1756Y938D01*
X1756Y936D01*
X1754Y936D01*
X1754Y934D01*
X1752Y934D01*
X1752Y908D01*
X1754Y908D01*
X1754Y906D01*
X1756Y906D01*
X1756Y904D01*
X1758Y904D01*
X1758Y900D01*
X1760Y900D01*
X1760Y898D01*
X1762Y898D01*
X1762Y892D01*
X1764Y892D01*
X1764Y886D01*
X1766Y886D01*
X1766Y874D01*
X1768Y874D01*
X1768Y868D01*
X1766Y868D01*
X1766Y856D01*
X1764Y856D01*
X1764Y850D01*
X1762Y850D01*
X1762Y844D01*
X1760Y844D01*
X1760Y842D01*
X1758Y842D01*
X1758Y838D01*
X1756Y838D01*
X1756Y836D01*
X1754Y836D01*
X1754Y834D01*
X1752Y834D01*
X1752Y808D01*
X1754Y808D01*
X1754Y806D01*
X1756Y806D01*
X1756Y804D01*
X1758Y804D01*
X1758Y800D01*
X1760Y800D01*
X1760Y798D01*
X1762Y798D01*
X1762Y792D01*
X1764Y792D01*
X1764Y786D01*
X1766Y786D01*
X1766Y774D01*
X1768Y774D01*
X1768Y768D01*
X1766Y768D01*
X1766Y756D01*
X1764Y756D01*
X1764Y750D01*
X1762Y750D01*
X1762Y744D01*
X1760Y744D01*
X1760Y742D01*
X1758Y742D01*
X1758Y738D01*
X1756Y738D01*
X1756Y736D01*
X1754Y736D01*
X1754Y734D01*
X1752Y734D01*
X1752Y730D01*
X1750Y730D01*
X1750Y728D01*
X1748Y728D01*
X1748Y726D01*
X1744Y726D01*
X1744Y724D01*
X1742Y724D01*
X1742Y722D01*
X1740Y722D01*
X1740Y720D01*
X1736Y720D01*
X1736Y718D01*
X1732Y718D01*
X1732Y716D01*
X1726Y716D01*
X1726Y714D01*
X1718Y714D01*
X1718Y712D01*
X1928Y712D01*
X1928Y2710D01*
X40Y2710D01*
G37*
D02*
G36*
X40Y1230D02*
X40Y1210D01*
X1118Y1210D01*
X1118Y1208D01*
X1124Y1208D01*
X1124Y1206D01*
X1128Y1206D01*
X1128Y1204D01*
X1132Y1204D01*
X1132Y1202D01*
X1134Y1202D01*
X1134Y1200D01*
X1136Y1200D01*
X1136Y1198D01*
X1138Y1198D01*
X1138Y1196D01*
X1140Y1196D01*
X1140Y1192D01*
X1142Y1192D01*
X1142Y1190D01*
X1144Y1190D01*
X1144Y1186D01*
X1146Y1186D01*
X1146Y1178D01*
X1148Y1178D01*
X1148Y1164D01*
X1146Y1164D01*
X1146Y1156D01*
X1144Y1156D01*
X1144Y1152D01*
X1142Y1152D01*
X1142Y1150D01*
X1140Y1150D01*
X1140Y1146D01*
X1138Y1146D01*
X1138Y1144D01*
X1136Y1144D01*
X1136Y1142D01*
X1134Y1142D01*
X1134Y1140D01*
X1132Y1140D01*
X1132Y1138D01*
X1128Y1138D01*
X1128Y1136D01*
X1124Y1136D01*
X1124Y1134D01*
X1118Y1134D01*
X1118Y1132D01*
X1664Y1132D01*
X1664Y1134D01*
X1662Y1134D01*
X1662Y1136D01*
X1660Y1136D01*
X1660Y1138D01*
X1658Y1138D01*
X1658Y1142D01*
X1656Y1142D01*
X1656Y1146D01*
X1654Y1146D01*
X1654Y1150D01*
X1652Y1150D01*
X1652Y1158D01*
X1650Y1158D01*
X1650Y1184D01*
X1652Y1184D01*
X1652Y1192D01*
X1654Y1192D01*
X1654Y1196D01*
X1656Y1196D01*
X1656Y1200D01*
X1658Y1200D01*
X1658Y1204D01*
X1660Y1204D01*
X1660Y1206D01*
X1662Y1206D01*
X1662Y1208D01*
X1664Y1208D01*
X1664Y1210D01*
X1666Y1210D01*
X1666Y1214D01*
X1670Y1214D01*
X1670Y1216D01*
X1672Y1216D01*
X1672Y1218D01*
X1674Y1218D01*
X1674Y1220D01*
X1678Y1220D01*
X1678Y1222D01*
X1680Y1222D01*
X1680Y1224D01*
X1684Y1224D01*
X1684Y1226D01*
X1690Y1226D01*
X1690Y1228D01*
X1698Y1228D01*
X1698Y1230D01*
X40Y1230D01*
G37*
D02*
G36*
X40Y1210D02*
X40Y1028D01*
X316Y1028D01*
X316Y904D01*
X448Y904D01*
X448Y932D01*
X450Y932D01*
X450Y956D01*
X448Y956D01*
X448Y986D01*
X450Y986D01*
X450Y992D01*
X452Y992D01*
X452Y996D01*
X454Y996D01*
X454Y1000D01*
X456Y1000D01*
X456Y1004D01*
X458Y1004D01*
X458Y1006D01*
X460Y1006D01*
X460Y1010D01*
X462Y1010D01*
X462Y1032D01*
X460Y1032D01*
X460Y1036D01*
X458Y1036D01*
X458Y1038D01*
X456Y1038D01*
X456Y1042D01*
X454Y1042D01*
X454Y1046D01*
X452Y1046D01*
X452Y1050D01*
X450Y1050D01*
X450Y1056D01*
X448Y1056D01*
X448Y1086D01*
X450Y1086D01*
X450Y1092D01*
X452Y1092D01*
X452Y1096D01*
X454Y1096D01*
X454Y1100D01*
X456Y1100D01*
X456Y1104D01*
X458Y1104D01*
X458Y1106D01*
X460Y1106D01*
X460Y1110D01*
X462Y1110D01*
X462Y1112D01*
X464Y1112D01*
X464Y1114D01*
X466Y1114D01*
X466Y1116D01*
X468Y1116D01*
X468Y1118D01*
X470Y1118D01*
X470Y1120D01*
X474Y1120D01*
X474Y1122D01*
X476Y1122D01*
X476Y1124D01*
X480Y1124D01*
X480Y1126D01*
X484Y1126D01*
X484Y1128D01*
X490Y1128D01*
X490Y1130D01*
X498Y1130D01*
X498Y1132D01*
X1098Y1132D01*
X1098Y1134D01*
X1092Y1134D01*
X1092Y1136D01*
X1088Y1136D01*
X1088Y1138D01*
X1086Y1138D01*
X1086Y1140D01*
X1082Y1140D01*
X1082Y1142D01*
X1080Y1142D01*
X1080Y1144D01*
X1078Y1144D01*
X1078Y1146D01*
X1076Y1146D01*
X1076Y1150D01*
X1074Y1150D01*
X1074Y1154D01*
X1072Y1154D01*
X1072Y1158D01*
X1070Y1158D01*
X1070Y1166D01*
X1068Y1166D01*
X1068Y1176D01*
X1070Y1176D01*
X1070Y1184D01*
X1072Y1184D01*
X1072Y1188D01*
X1074Y1188D01*
X1074Y1192D01*
X1076Y1192D01*
X1076Y1196D01*
X1078Y1196D01*
X1078Y1198D01*
X1080Y1198D01*
X1080Y1200D01*
X1082Y1200D01*
X1082Y1202D01*
X1086Y1202D01*
X1086Y1204D01*
X1088Y1204D01*
X1088Y1206D01*
X1092Y1206D01*
X1092Y1208D01*
X1098Y1208D01*
X1098Y1210D01*
X40Y1210D01*
G37*
D02*
G36*
X518Y1132D02*
X518Y1130D01*
X1666Y1130D01*
X1666Y1132D01*
X518Y1132D01*
G37*
D02*
G36*
X518Y1132D02*
X518Y1130D01*
X1666Y1130D01*
X1666Y1132D01*
X518Y1132D01*
G37*
D02*
G36*
X526Y1130D02*
X526Y1128D01*
X532Y1128D01*
X532Y1126D01*
X536Y1126D01*
X536Y1124D01*
X540Y1124D01*
X540Y1122D01*
X542Y1122D01*
X542Y1120D01*
X546Y1120D01*
X546Y1118D01*
X548Y1118D01*
X548Y1116D01*
X550Y1116D01*
X550Y1114D01*
X552Y1114D01*
X552Y1112D01*
X554Y1112D01*
X554Y1110D01*
X818Y1110D01*
X818Y1108D01*
X824Y1108D01*
X824Y1106D01*
X828Y1106D01*
X828Y1104D01*
X1660Y1104D01*
X1660Y1106D01*
X1662Y1106D01*
X1662Y1108D01*
X1664Y1108D01*
X1664Y1110D01*
X1666Y1110D01*
X1666Y1130D01*
X526Y1130D01*
G37*
D02*
G36*
X556Y1110D02*
X556Y1108D01*
X558Y1108D01*
X558Y1104D01*
X560Y1104D01*
X560Y1102D01*
X562Y1102D01*
X562Y1098D01*
X564Y1098D01*
X564Y1092D01*
X566Y1092D01*
X566Y1086D01*
X568Y1086D01*
X568Y1074D01*
X570Y1074D01*
X570Y1068D01*
X568Y1068D01*
X568Y1056D01*
X566Y1056D01*
X566Y1050D01*
X564Y1050D01*
X564Y1044D01*
X562Y1044D01*
X562Y1040D01*
X560Y1040D01*
X560Y1038D01*
X558Y1038D01*
X558Y1034D01*
X556Y1034D01*
X556Y1032D01*
X798Y1032D01*
X798Y1034D01*
X792Y1034D01*
X792Y1036D01*
X788Y1036D01*
X788Y1038D01*
X786Y1038D01*
X786Y1040D01*
X782Y1040D01*
X782Y1042D01*
X780Y1042D01*
X780Y1044D01*
X778Y1044D01*
X778Y1046D01*
X776Y1046D01*
X776Y1050D01*
X774Y1050D01*
X774Y1054D01*
X772Y1054D01*
X772Y1058D01*
X770Y1058D01*
X770Y1066D01*
X768Y1066D01*
X768Y1076D01*
X770Y1076D01*
X770Y1084D01*
X772Y1084D01*
X772Y1088D01*
X774Y1088D01*
X774Y1092D01*
X776Y1092D01*
X776Y1096D01*
X778Y1096D01*
X778Y1098D01*
X780Y1098D01*
X780Y1100D01*
X782Y1100D01*
X782Y1102D01*
X786Y1102D01*
X786Y1104D01*
X788Y1104D01*
X788Y1106D01*
X792Y1106D01*
X792Y1108D01*
X798Y1108D01*
X798Y1110D01*
X556Y1110D01*
G37*
D02*
G36*
X828Y1038D02*
X828Y1036D01*
X824Y1036D01*
X824Y1034D01*
X818Y1034D01*
X818Y1032D01*
X1664Y1032D01*
X1664Y1034D01*
X1662Y1034D01*
X1662Y1036D01*
X1660Y1036D01*
X1660Y1038D01*
X828Y1038D01*
G37*
D02*
G36*
X554Y1032D02*
X554Y1030D01*
X1666Y1030D01*
X1666Y1032D01*
X554Y1032D01*
G37*
D02*
G36*
X554Y1032D02*
X554Y1030D01*
X1666Y1030D01*
X1666Y1032D01*
X554Y1032D01*
G37*
D02*
G36*
X554Y1030D02*
X554Y1010D01*
X1318Y1010D01*
X1318Y1008D01*
X1324Y1008D01*
X1324Y1006D01*
X1328Y1006D01*
X1328Y1004D01*
X1660Y1004D01*
X1660Y1006D01*
X1662Y1006D01*
X1662Y1008D01*
X1664Y1008D01*
X1664Y1010D01*
X1666Y1010D01*
X1666Y1030D01*
X554Y1030D01*
G37*
D02*
G36*
X40Y1028D02*
X40Y814D01*
X246Y814D01*
X246Y816D01*
X238Y816D01*
X238Y818D01*
X234Y818D01*
X234Y820D01*
X230Y820D01*
X230Y822D01*
X226Y822D01*
X226Y824D01*
X224Y824D01*
X224Y826D01*
X222Y826D01*
X222Y828D01*
X220Y828D01*
X220Y830D01*
X216Y830D01*
X216Y834D01*
X214Y834D01*
X214Y836D01*
X212Y836D01*
X212Y838D01*
X210Y838D01*
X210Y842D01*
X208Y842D01*
X208Y844D01*
X206Y844D01*
X206Y850D01*
X204Y850D01*
X204Y856D01*
X202Y856D01*
X202Y866D01*
X200Y866D01*
X200Y876D01*
X202Y876D01*
X202Y886D01*
X204Y886D01*
X204Y892D01*
X206Y892D01*
X206Y914D01*
X200Y914D01*
X200Y1028D01*
X40Y1028D01*
G37*
D02*
G36*
X556Y1010D02*
X556Y1008D01*
X558Y1008D01*
X558Y1004D01*
X560Y1004D01*
X560Y1002D01*
X562Y1002D01*
X562Y998D01*
X564Y998D01*
X564Y992D01*
X566Y992D01*
X566Y986D01*
X568Y986D01*
X568Y974D01*
X570Y974D01*
X570Y968D01*
X568Y968D01*
X568Y956D01*
X566Y956D01*
X566Y932D01*
X1298Y932D01*
X1298Y934D01*
X1292Y934D01*
X1292Y936D01*
X1288Y936D01*
X1288Y938D01*
X1286Y938D01*
X1286Y940D01*
X1282Y940D01*
X1282Y942D01*
X1280Y942D01*
X1280Y944D01*
X1278Y944D01*
X1278Y946D01*
X1276Y946D01*
X1276Y950D01*
X1274Y950D01*
X1274Y954D01*
X1272Y954D01*
X1272Y958D01*
X1270Y958D01*
X1270Y966D01*
X1268Y966D01*
X1268Y976D01*
X1270Y976D01*
X1270Y984D01*
X1272Y984D01*
X1272Y988D01*
X1274Y988D01*
X1274Y992D01*
X1276Y992D01*
X1276Y996D01*
X1278Y996D01*
X1278Y998D01*
X1280Y998D01*
X1280Y1000D01*
X1282Y1000D01*
X1282Y1002D01*
X1286Y1002D01*
X1286Y1004D01*
X1288Y1004D01*
X1288Y1006D01*
X1292Y1006D01*
X1292Y1008D01*
X1298Y1008D01*
X1298Y1010D01*
X556Y1010D01*
G37*
D02*
G36*
X1328Y938D02*
X1328Y936D01*
X1324Y936D01*
X1324Y934D01*
X1318Y934D01*
X1318Y932D01*
X1664Y932D01*
X1664Y934D01*
X1662Y934D01*
X1662Y936D01*
X1660Y936D01*
X1660Y938D01*
X1328Y938D01*
G37*
D02*
G36*
X570Y932D02*
X570Y930D01*
X1666Y930D01*
X1666Y932D01*
X570Y932D01*
G37*
D02*
G36*
X570Y932D02*
X570Y930D01*
X1666Y930D01*
X1666Y932D01*
X570Y932D01*
G37*
D02*
G36*
X570Y930D02*
X570Y910D01*
X1418Y910D01*
X1418Y908D01*
X1424Y908D01*
X1424Y906D01*
X1428Y906D01*
X1428Y904D01*
X1660Y904D01*
X1660Y906D01*
X1662Y906D01*
X1662Y908D01*
X1664Y908D01*
X1664Y910D01*
X1666Y910D01*
X1666Y930D01*
X570Y930D01*
G37*
D02*
G36*
X570Y910D02*
X570Y904D01*
X760Y904D01*
X760Y902D01*
X770Y902D01*
X770Y900D01*
X776Y900D01*
X776Y898D01*
X780Y898D01*
X780Y896D01*
X782Y896D01*
X782Y894D01*
X786Y894D01*
X786Y892D01*
X790Y892D01*
X790Y890D01*
X794Y890D01*
X794Y888D01*
X798Y888D01*
X798Y886D01*
X802Y886D01*
X802Y884D01*
X804Y884D01*
X804Y882D01*
X808Y882D01*
X808Y880D01*
X812Y880D01*
X812Y878D01*
X816Y878D01*
X816Y876D01*
X820Y876D01*
X820Y874D01*
X824Y874D01*
X824Y872D01*
X826Y872D01*
X826Y870D01*
X830Y870D01*
X830Y868D01*
X834Y868D01*
X834Y866D01*
X838Y866D01*
X838Y864D01*
X842Y864D01*
X842Y862D01*
X844Y862D01*
X844Y860D01*
X848Y860D01*
X848Y858D01*
X852Y858D01*
X852Y856D01*
X856Y856D01*
X856Y854D01*
X860Y854D01*
X860Y852D01*
X864Y852D01*
X864Y850D01*
X866Y850D01*
X866Y848D01*
X870Y848D01*
X870Y846D01*
X874Y846D01*
X874Y844D01*
X878Y844D01*
X878Y842D01*
X882Y842D01*
X882Y840D01*
X886Y840D01*
X886Y838D01*
X888Y838D01*
X888Y836D01*
X892Y836D01*
X892Y834D01*
X896Y834D01*
X896Y832D01*
X1398Y832D01*
X1398Y834D01*
X1392Y834D01*
X1392Y836D01*
X1388Y836D01*
X1388Y838D01*
X1386Y838D01*
X1386Y840D01*
X1382Y840D01*
X1382Y842D01*
X1380Y842D01*
X1380Y844D01*
X1378Y844D01*
X1378Y846D01*
X1376Y846D01*
X1376Y850D01*
X1374Y850D01*
X1374Y854D01*
X1372Y854D01*
X1372Y858D01*
X1370Y858D01*
X1370Y866D01*
X1368Y866D01*
X1368Y876D01*
X1370Y876D01*
X1370Y884D01*
X1372Y884D01*
X1372Y888D01*
X1374Y888D01*
X1374Y892D01*
X1376Y892D01*
X1376Y896D01*
X1378Y896D01*
X1378Y898D01*
X1380Y898D01*
X1380Y900D01*
X1382Y900D01*
X1382Y902D01*
X1386Y902D01*
X1386Y904D01*
X1388Y904D01*
X1388Y906D01*
X1392Y906D01*
X1392Y908D01*
X1398Y908D01*
X1398Y910D01*
X570Y910D01*
G37*
D02*
G36*
X304Y838D02*
X304Y836D01*
X302Y836D01*
X302Y834D01*
X300Y834D01*
X300Y830D01*
X298Y830D01*
X298Y828D01*
X294Y828D01*
X294Y826D01*
X292Y826D01*
X292Y824D01*
X290Y824D01*
X290Y822D01*
X286Y822D01*
X286Y820D01*
X282Y820D01*
X282Y818D01*
X278Y818D01*
X278Y816D01*
X270Y816D01*
X270Y814D01*
X448Y814D01*
X448Y838D01*
X304Y838D01*
G37*
D02*
G36*
X570Y838D02*
X570Y810D01*
X804Y810D01*
X804Y812D01*
X800Y812D01*
X800Y814D01*
X796Y814D01*
X796Y816D01*
X792Y816D01*
X792Y818D01*
X788Y818D01*
X788Y820D01*
X784Y820D01*
X784Y822D01*
X782Y822D01*
X782Y824D01*
X778Y824D01*
X778Y826D01*
X774Y826D01*
X774Y828D01*
X770Y828D01*
X770Y830D01*
X766Y830D01*
X766Y832D01*
X762Y832D01*
X762Y834D01*
X760Y834D01*
X760Y836D01*
X756Y836D01*
X756Y838D01*
X570Y838D01*
G37*
D02*
G36*
X1428Y838D02*
X1428Y836D01*
X1424Y836D01*
X1424Y834D01*
X1418Y834D01*
X1418Y832D01*
X1664Y832D01*
X1664Y834D01*
X1662Y834D01*
X1662Y836D01*
X1660Y836D01*
X1660Y838D01*
X1428Y838D01*
G37*
D02*
G36*
X900Y832D02*
X900Y830D01*
X1666Y830D01*
X1666Y832D01*
X900Y832D01*
G37*
D02*
G36*
X900Y832D02*
X900Y830D01*
X1666Y830D01*
X1666Y832D01*
X900Y832D01*
G37*
D02*
G36*
X904Y830D02*
X904Y828D01*
X908Y828D01*
X908Y826D01*
X910Y826D01*
X910Y824D01*
X914Y824D01*
X914Y822D01*
X918Y822D01*
X918Y820D01*
X922Y820D01*
X922Y818D01*
X926Y818D01*
X926Y816D01*
X930Y816D01*
X930Y814D01*
X932Y814D01*
X932Y812D01*
X936Y812D01*
X936Y810D01*
X940Y810D01*
X940Y808D01*
X944Y808D01*
X944Y806D01*
X948Y806D01*
X948Y804D01*
X950Y804D01*
X950Y802D01*
X954Y802D01*
X954Y800D01*
X958Y800D01*
X958Y798D01*
X962Y798D01*
X962Y796D01*
X966Y796D01*
X966Y794D01*
X970Y794D01*
X970Y792D01*
X972Y792D01*
X972Y790D01*
X976Y790D01*
X976Y788D01*
X980Y788D01*
X980Y786D01*
X984Y786D01*
X984Y784D01*
X988Y784D01*
X988Y782D01*
X992Y782D01*
X992Y780D01*
X994Y780D01*
X994Y778D01*
X998Y778D01*
X998Y776D01*
X1002Y776D01*
X1002Y774D01*
X1006Y774D01*
X1006Y772D01*
X1010Y772D01*
X1010Y770D01*
X1014Y770D01*
X1014Y768D01*
X1016Y768D01*
X1016Y766D01*
X1020Y766D01*
X1020Y764D01*
X1024Y764D01*
X1024Y762D01*
X1028Y762D01*
X1028Y760D01*
X1032Y760D01*
X1032Y758D01*
X1036Y758D01*
X1036Y756D01*
X1038Y756D01*
X1038Y754D01*
X1042Y754D01*
X1042Y752D01*
X1046Y752D01*
X1046Y750D01*
X1050Y750D01*
X1050Y748D01*
X1054Y748D01*
X1054Y746D01*
X1056Y746D01*
X1056Y744D01*
X1060Y744D01*
X1060Y742D01*
X1064Y742D01*
X1064Y740D01*
X1068Y740D01*
X1068Y738D01*
X1072Y738D01*
X1072Y736D01*
X1076Y736D01*
X1076Y734D01*
X1078Y734D01*
X1078Y732D01*
X1082Y732D01*
X1082Y730D01*
X1086Y730D01*
X1086Y728D01*
X1090Y728D01*
X1090Y726D01*
X1094Y726D01*
X1094Y724D01*
X1098Y724D01*
X1098Y722D01*
X1100Y722D01*
X1100Y720D01*
X1104Y720D01*
X1104Y718D01*
X1108Y718D01*
X1108Y716D01*
X1112Y716D01*
X1112Y714D01*
X1116Y714D01*
X1116Y712D01*
X1698Y712D01*
X1698Y714D01*
X1690Y714D01*
X1690Y716D01*
X1684Y716D01*
X1684Y718D01*
X1680Y718D01*
X1680Y720D01*
X1678Y720D01*
X1678Y722D01*
X1674Y722D01*
X1674Y724D01*
X1672Y724D01*
X1672Y726D01*
X1670Y726D01*
X1670Y728D01*
X1666Y728D01*
X1666Y732D01*
X1664Y732D01*
X1664Y734D01*
X1662Y734D01*
X1662Y736D01*
X1660Y736D01*
X1660Y738D01*
X1658Y738D01*
X1658Y742D01*
X1656Y742D01*
X1656Y746D01*
X1654Y746D01*
X1654Y750D01*
X1652Y750D01*
X1652Y758D01*
X1650Y758D01*
X1650Y784D01*
X1652Y784D01*
X1652Y792D01*
X1654Y792D01*
X1654Y796D01*
X1656Y796D01*
X1656Y800D01*
X1658Y800D01*
X1658Y804D01*
X1660Y804D01*
X1660Y806D01*
X1662Y806D01*
X1662Y808D01*
X1664Y808D01*
X1664Y810D01*
X1666Y810D01*
X1666Y830D01*
X904Y830D01*
G37*
D02*
G36*
X40Y814D02*
X40Y812D01*
X448Y812D01*
X448Y814D01*
X40Y814D01*
G37*
D02*
G36*
X40Y814D02*
X40Y812D01*
X448Y812D01*
X448Y814D01*
X40Y814D01*
G37*
D02*
G36*
X40Y812D02*
X40Y810D01*
X448Y810D01*
X448Y812D01*
X40Y812D01*
G37*
D02*
G36*
X40Y810D02*
X40Y808D01*
X806Y808D01*
X806Y810D01*
X40Y810D01*
G37*
D02*
G36*
X40Y810D02*
X40Y808D01*
X806Y808D01*
X806Y810D01*
X40Y810D01*
G37*
D02*
G36*
X40Y808D02*
X40Y430D01*
X1218Y430D01*
X1218Y428D01*
X1226Y428D01*
X1226Y426D01*
X1232Y426D01*
X1232Y424D01*
X1236Y424D01*
X1236Y422D01*
X1240Y422D01*
X1240Y420D01*
X1242Y420D01*
X1242Y418D01*
X1244Y418D01*
X1244Y416D01*
X1248Y416D01*
X1248Y414D01*
X1270Y414D01*
X1270Y416D01*
X1272Y416D01*
X1272Y418D01*
X1274Y418D01*
X1274Y420D01*
X1276Y420D01*
X1276Y552D01*
X1274Y552D01*
X1274Y554D01*
X1270Y554D01*
X1270Y556D01*
X1268Y556D01*
X1268Y558D01*
X1264Y558D01*
X1264Y560D01*
X1260Y560D01*
X1260Y562D01*
X1256Y562D01*
X1256Y564D01*
X1252Y564D01*
X1252Y566D01*
X1248Y566D01*
X1248Y568D01*
X1246Y568D01*
X1246Y570D01*
X1242Y570D01*
X1242Y572D01*
X1238Y572D01*
X1238Y574D01*
X1234Y574D01*
X1234Y576D01*
X1230Y576D01*
X1230Y578D01*
X1226Y578D01*
X1226Y580D01*
X1224Y580D01*
X1224Y582D01*
X1220Y582D01*
X1220Y584D01*
X1216Y584D01*
X1216Y586D01*
X1212Y586D01*
X1212Y588D01*
X1208Y588D01*
X1208Y590D01*
X1204Y590D01*
X1204Y592D01*
X1202Y592D01*
X1202Y594D01*
X1198Y594D01*
X1198Y596D01*
X1194Y596D01*
X1194Y598D01*
X1190Y598D01*
X1190Y600D01*
X1186Y600D01*
X1186Y602D01*
X1184Y602D01*
X1184Y604D01*
X1180Y604D01*
X1180Y606D01*
X1176Y606D01*
X1176Y608D01*
X1172Y608D01*
X1172Y610D01*
X1168Y610D01*
X1168Y612D01*
X1164Y612D01*
X1164Y614D01*
X1162Y614D01*
X1162Y616D01*
X1158Y616D01*
X1158Y618D01*
X1154Y618D01*
X1154Y620D01*
X1150Y620D01*
X1150Y622D01*
X1146Y622D01*
X1146Y624D01*
X1142Y624D01*
X1142Y626D01*
X1140Y626D01*
X1140Y628D01*
X1136Y628D01*
X1136Y630D01*
X1132Y630D01*
X1132Y632D01*
X1128Y632D01*
X1128Y634D01*
X1124Y634D01*
X1124Y636D01*
X1120Y636D01*
X1120Y638D01*
X1118Y638D01*
X1118Y640D01*
X1114Y640D01*
X1114Y642D01*
X1110Y642D01*
X1110Y644D01*
X1106Y644D01*
X1106Y646D01*
X1102Y646D01*
X1102Y648D01*
X1100Y648D01*
X1100Y650D01*
X1096Y650D01*
X1096Y652D01*
X1092Y652D01*
X1092Y654D01*
X1088Y654D01*
X1088Y656D01*
X1084Y656D01*
X1084Y658D01*
X1080Y658D01*
X1080Y660D01*
X1078Y660D01*
X1078Y662D01*
X1074Y662D01*
X1074Y664D01*
X1070Y664D01*
X1070Y666D01*
X1066Y666D01*
X1066Y668D01*
X1062Y668D01*
X1062Y670D01*
X1058Y670D01*
X1058Y672D01*
X1056Y672D01*
X1056Y674D01*
X1052Y674D01*
X1052Y676D01*
X1048Y676D01*
X1048Y678D01*
X1044Y678D01*
X1044Y680D01*
X1040Y680D01*
X1040Y682D01*
X1036Y682D01*
X1036Y684D01*
X1034Y684D01*
X1034Y686D01*
X1030Y686D01*
X1030Y688D01*
X1026Y688D01*
X1026Y690D01*
X1022Y690D01*
X1022Y692D01*
X1018Y692D01*
X1018Y694D01*
X1014Y694D01*
X1014Y696D01*
X1012Y696D01*
X1012Y698D01*
X1008Y698D01*
X1008Y700D01*
X1004Y700D01*
X1004Y702D01*
X1000Y702D01*
X1000Y704D01*
X996Y704D01*
X996Y706D01*
X994Y706D01*
X994Y708D01*
X990Y708D01*
X990Y710D01*
X986Y710D01*
X986Y712D01*
X982Y712D01*
X982Y714D01*
X978Y714D01*
X978Y716D01*
X974Y716D01*
X974Y718D01*
X972Y718D01*
X972Y720D01*
X968Y720D01*
X968Y722D01*
X964Y722D01*
X964Y724D01*
X960Y724D01*
X960Y726D01*
X956Y726D01*
X956Y728D01*
X952Y728D01*
X952Y730D01*
X950Y730D01*
X950Y732D01*
X946Y732D01*
X946Y734D01*
X942Y734D01*
X942Y736D01*
X938Y736D01*
X938Y738D01*
X934Y738D01*
X934Y740D01*
X930Y740D01*
X930Y742D01*
X928Y742D01*
X928Y744D01*
X924Y744D01*
X924Y746D01*
X920Y746D01*
X920Y748D01*
X916Y748D01*
X916Y750D01*
X912Y750D01*
X912Y752D01*
X908Y752D01*
X908Y754D01*
X906Y754D01*
X906Y756D01*
X902Y756D01*
X902Y758D01*
X898Y758D01*
X898Y760D01*
X894Y760D01*
X894Y762D01*
X890Y762D01*
X890Y764D01*
X888Y764D01*
X888Y766D01*
X884Y766D01*
X884Y768D01*
X880Y768D01*
X880Y770D01*
X876Y770D01*
X876Y772D01*
X872Y772D01*
X872Y774D01*
X868Y774D01*
X868Y776D01*
X866Y776D01*
X866Y778D01*
X862Y778D01*
X862Y780D01*
X858Y780D01*
X858Y782D01*
X854Y782D01*
X854Y784D01*
X850Y784D01*
X850Y786D01*
X846Y786D01*
X846Y788D01*
X844Y788D01*
X844Y790D01*
X840Y790D01*
X840Y792D01*
X836Y792D01*
X836Y794D01*
X832Y794D01*
X832Y796D01*
X828Y796D01*
X828Y798D01*
X824Y798D01*
X824Y800D01*
X822Y800D01*
X822Y802D01*
X818Y802D01*
X818Y804D01*
X814Y804D01*
X814Y806D01*
X810Y806D01*
X810Y808D01*
X40Y808D01*
G37*
D02*
G36*
X1120Y712D02*
X1120Y710D01*
X1928Y710D01*
X1928Y712D01*
X1120Y712D01*
G37*
D02*
G36*
X1120Y712D02*
X1120Y710D01*
X1928Y710D01*
X1928Y712D01*
X1120Y712D01*
G37*
D02*
G36*
X1122Y710D02*
X1122Y708D01*
X1126Y708D01*
X1126Y706D01*
X1130Y706D01*
X1130Y704D01*
X1134Y704D01*
X1134Y702D01*
X1138Y702D01*
X1138Y700D01*
X1140Y700D01*
X1140Y698D01*
X1144Y698D01*
X1144Y696D01*
X1148Y696D01*
X1148Y694D01*
X1152Y694D01*
X1152Y692D01*
X1156Y692D01*
X1156Y690D01*
X1160Y690D01*
X1160Y688D01*
X1162Y688D01*
X1162Y686D01*
X1166Y686D01*
X1166Y684D01*
X1170Y684D01*
X1170Y682D01*
X1174Y682D01*
X1174Y680D01*
X1178Y680D01*
X1178Y678D01*
X1182Y678D01*
X1182Y676D01*
X1184Y676D01*
X1184Y674D01*
X1188Y674D01*
X1188Y672D01*
X1192Y672D01*
X1192Y670D01*
X1196Y670D01*
X1196Y668D01*
X1200Y668D01*
X1200Y666D01*
X1204Y666D01*
X1204Y664D01*
X1206Y664D01*
X1206Y662D01*
X1210Y662D01*
X1210Y660D01*
X1214Y660D01*
X1214Y658D01*
X1218Y658D01*
X1218Y656D01*
X1222Y656D01*
X1222Y654D01*
X1226Y654D01*
X1226Y652D01*
X1228Y652D01*
X1228Y650D01*
X1232Y650D01*
X1232Y648D01*
X1236Y648D01*
X1236Y646D01*
X1240Y646D01*
X1240Y644D01*
X1244Y644D01*
X1244Y642D01*
X1246Y642D01*
X1246Y640D01*
X1250Y640D01*
X1250Y638D01*
X1254Y638D01*
X1254Y636D01*
X1258Y636D01*
X1258Y634D01*
X1262Y634D01*
X1262Y632D01*
X1266Y632D01*
X1266Y630D01*
X1268Y630D01*
X1268Y628D01*
X1272Y628D01*
X1272Y626D01*
X1276Y626D01*
X1276Y624D01*
X1280Y624D01*
X1280Y622D01*
X1284Y622D01*
X1284Y620D01*
X1288Y620D01*
X1288Y618D01*
X1290Y618D01*
X1290Y616D01*
X1294Y616D01*
X1294Y614D01*
X1298Y614D01*
X1298Y612D01*
X1302Y612D01*
X1302Y610D01*
X1306Y610D01*
X1306Y608D01*
X1310Y608D01*
X1310Y606D01*
X1312Y606D01*
X1312Y604D01*
X1316Y604D01*
X1316Y602D01*
X1320Y602D01*
X1320Y600D01*
X1324Y600D01*
X1324Y598D01*
X1326Y598D01*
X1326Y596D01*
X1330Y596D01*
X1330Y594D01*
X1332Y594D01*
X1332Y592D01*
X1334Y592D01*
X1334Y588D01*
X1336Y588D01*
X1336Y584D01*
X1338Y584D01*
X1338Y580D01*
X1340Y580D01*
X1340Y420D01*
X1342Y420D01*
X1342Y418D01*
X1344Y418D01*
X1344Y416D01*
X1348Y416D01*
X1348Y414D01*
X1350Y414D01*
X1350Y412D01*
X1352Y412D01*
X1352Y408D01*
X1354Y408D01*
X1354Y406D01*
X1356Y406D01*
X1356Y404D01*
X1358Y404D01*
X1358Y400D01*
X1360Y400D01*
X1360Y398D01*
X1362Y398D01*
X1362Y392D01*
X1364Y392D01*
X1364Y386D01*
X1366Y386D01*
X1366Y374D01*
X1368Y374D01*
X1368Y368D01*
X1366Y368D01*
X1366Y356D01*
X1364Y356D01*
X1364Y350D01*
X1362Y350D01*
X1362Y344D01*
X1360Y344D01*
X1360Y342D01*
X1358Y342D01*
X1358Y338D01*
X1356Y338D01*
X1356Y336D01*
X1354Y336D01*
X1354Y334D01*
X1352Y334D01*
X1352Y330D01*
X1784Y330D01*
X1784Y328D01*
X1798Y328D01*
X1798Y326D01*
X1806Y326D01*
X1806Y324D01*
X1814Y324D01*
X1814Y322D01*
X1820Y322D01*
X1820Y320D01*
X1824Y320D01*
X1824Y318D01*
X1828Y318D01*
X1828Y316D01*
X1834Y316D01*
X1834Y314D01*
X1836Y314D01*
X1836Y312D01*
X1840Y312D01*
X1840Y310D01*
X1844Y310D01*
X1844Y308D01*
X1846Y308D01*
X1846Y306D01*
X1850Y306D01*
X1850Y304D01*
X1852Y304D01*
X1852Y302D01*
X1854Y302D01*
X1854Y300D01*
X1858Y300D01*
X1858Y298D01*
X1860Y298D01*
X1860Y296D01*
X1862Y296D01*
X1862Y294D01*
X1864Y294D01*
X1864Y292D01*
X1866Y292D01*
X1866Y290D01*
X1868Y290D01*
X1868Y288D01*
X1870Y288D01*
X1870Y286D01*
X1872Y286D01*
X1872Y284D01*
X1874Y284D01*
X1874Y282D01*
X1876Y282D01*
X1876Y278D01*
X1878Y278D01*
X1878Y276D01*
X1880Y276D01*
X1880Y274D01*
X1882Y274D01*
X1882Y270D01*
X1884Y270D01*
X1884Y268D01*
X1886Y268D01*
X1886Y264D01*
X1888Y264D01*
X1888Y260D01*
X1890Y260D01*
X1890Y256D01*
X1892Y256D01*
X1892Y252D01*
X1894Y252D01*
X1894Y248D01*
X1896Y248D01*
X1896Y244D01*
X1898Y244D01*
X1898Y238D01*
X1900Y238D01*
X1900Y230D01*
X1902Y230D01*
X1902Y222D01*
X1904Y222D01*
X1904Y204D01*
X1906Y204D01*
X1906Y190D01*
X1904Y190D01*
X1904Y172D01*
X1902Y172D01*
X1902Y164D01*
X1900Y164D01*
X1900Y156D01*
X1898Y156D01*
X1898Y152D01*
X1896Y152D01*
X1896Y146D01*
X1894Y146D01*
X1894Y142D01*
X1892Y142D01*
X1892Y138D01*
X1890Y138D01*
X1890Y134D01*
X1888Y134D01*
X1888Y130D01*
X1886Y130D01*
X1886Y128D01*
X1884Y128D01*
X1884Y124D01*
X1882Y124D01*
X1882Y122D01*
X1880Y122D01*
X1880Y118D01*
X1878Y118D01*
X1878Y116D01*
X1876Y116D01*
X1876Y114D01*
X1874Y114D01*
X1874Y110D01*
X1872Y110D01*
X1872Y108D01*
X1870Y108D01*
X1870Y106D01*
X1868Y106D01*
X1868Y104D01*
X1866Y104D01*
X1866Y102D01*
X1864Y102D01*
X1864Y100D01*
X1862Y100D01*
X1862Y98D01*
X1858Y98D01*
X1858Y96D01*
X1856Y96D01*
X1856Y94D01*
X1854Y94D01*
X1854Y92D01*
X1852Y92D01*
X1852Y90D01*
X1848Y90D01*
X1848Y88D01*
X1846Y88D01*
X1846Y86D01*
X1842Y86D01*
X1842Y84D01*
X1840Y84D01*
X1840Y82D01*
X1836Y82D01*
X1836Y80D01*
X1832Y80D01*
X1832Y78D01*
X1828Y78D01*
X1828Y76D01*
X1824Y76D01*
X1824Y74D01*
X1818Y74D01*
X1818Y72D01*
X1812Y72D01*
X1812Y70D01*
X1804Y70D01*
X1804Y68D01*
X1794Y68D01*
X1794Y66D01*
X1928Y66D01*
X1928Y710D01*
X1122Y710D01*
G37*
D02*
G36*
X40Y430D02*
X40Y330D01*
X212Y330D01*
X212Y328D01*
X228Y328D01*
X228Y326D01*
X236Y326D01*
X236Y324D01*
X244Y324D01*
X244Y322D01*
X248Y322D01*
X248Y320D01*
X254Y320D01*
X254Y318D01*
X258Y318D01*
X258Y316D01*
X262Y316D01*
X262Y314D01*
X266Y314D01*
X266Y312D01*
X1098Y312D01*
X1098Y314D01*
X1090Y314D01*
X1090Y316D01*
X1084Y316D01*
X1084Y318D01*
X1080Y318D01*
X1080Y320D01*
X1078Y320D01*
X1078Y322D01*
X1074Y322D01*
X1074Y324D01*
X1072Y324D01*
X1072Y326D01*
X1070Y326D01*
X1070Y328D01*
X1066Y328D01*
X1066Y332D01*
X1064Y332D01*
X1064Y334D01*
X1062Y334D01*
X1062Y336D01*
X1060Y336D01*
X1060Y338D01*
X1058Y338D01*
X1058Y342D01*
X1056Y342D01*
X1056Y346D01*
X1054Y346D01*
X1054Y350D01*
X1052Y350D01*
X1052Y358D01*
X1050Y358D01*
X1050Y384D01*
X1052Y384D01*
X1052Y392D01*
X1054Y392D01*
X1054Y396D01*
X1056Y396D01*
X1056Y400D01*
X1058Y400D01*
X1058Y404D01*
X1060Y404D01*
X1060Y406D01*
X1062Y406D01*
X1062Y408D01*
X1064Y408D01*
X1064Y410D01*
X1066Y410D01*
X1066Y414D01*
X1070Y414D01*
X1070Y416D01*
X1072Y416D01*
X1072Y418D01*
X1074Y418D01*
X1074Y420D01*
X1078Y420D01*
X1078Y422D01*
X1080Y422D01*
X1080Y424D01*
X1084Y424D01*
X1084Y426D01*
X1090Y426D01*
X1090Y428D01*
X1098Y428D01*
X1098Y430D01*
X40Y430D01*
G37*
D02*
G36*
X1118Y430D02*
X1118Y428D01*
X1126Y428D01*
X1126Y426D01*
X1132Y426D01*
X1132Y424D01*
X1136Y424D01*
X1136Y422D01*
X1140Y422D01*
X1140Y420D01*
X1142Y420D01*
X1142Y418D01*
X1144Y418D01*
X1144Y416D01*
X1148Y416D01*
X1148Y414D01*
X1170Y414D01*
X1170Y416D01*
X1172Y416D01*
X1172Y418D01*
X1174Y418D01*
X1174Y420D01*
X1178Y420D01*
X1178Y422D01*
X1180Y422D01*
X1180Y424D01*
X1184Y424D01*
X1184Y426D01*
X1190Y426D01*
X1190Y428D01*
X1198Y428D01*
X1198Y430D01*
X1118Y430D01*
G37*
D02*
G36*
X40Y330D02*
X40Y66D01*
X182Y66D01*
X182Y68D01*
X170Y68D01*
X170Y70D01*
X164Y70D01*
X164Y72D01*
X158Y72D01*
X158Y74D01*
X152Y74D01*
X152Y76D01*
X148Y76D01*
X148Y78D01*
X144Y78D01*
X144Y80D01*
X140Y80D01*
X140Y82D01*
X136Y82D01*
X136Y84D01*
X132Y84D01*
X132Y86D01*
X130Y86D01*
X130Y88D01*
X126Y88D01*
X126Y90D01*
X124Y90D01*
X124Y92D01*
X122Y92D01*
X122Y94D01*
X118Y94D01*
X118Y96D01*
X116Y96D01*
X116Y98D01*
X114Y98D01*
X114Y100D01*
X112Y100D01*
X112Y102D01*
X110Y102D01*
X110Y104D01*
X108Y104D01*
X108Y106D01*
X106Y106D01*
X106Y108D01*
X104Y108D01*
X104Y110D01*
X102Y110D01*
X102Y112D01*
X100Y112D01*
X100Y114D01*
X98Y114D01*
X98Y118D01*
X96Y118D01*
X96Y120D01*
X94Y120D01*
X94Y124D01*
X92Y124D01*
X92Y126D01*
X90Y126D01*
X90Y130D01*
X88Y130D01*
X88Y132D01*
X86Y132D01*
X86Y136D01*
X84Y136D01*
X84Y140D01*
X82Y140D01*
X82Y144D01*
X80Y144D01*
X80Y150D01*
X78Y150D01*
X78Y156D01*
X76Y156D01*
X76Y162D01*
X74Y162D01*
X74Y170D01*
X72Y170D01*
X72Y182D01*
X70Y182D01*
X70Y214D01*
X72Y214D01*
X72Y226D01*
X74Y226D01*
X74Y234D01*
X76Y234D01*
X76Y240D01*
X78Y240D01*
X78Y246D01*
X80Y246D01*
X80Y250D01*
X82Y250D01*
X82Y254D01*
X84Y254D01*
X84Y258D01*
X86Y258D01*
X86Y262D01*
X88Y262D01*
X88Y266D01*
X90Y266D01*
X90Y268D01*
X92Y268D01*
X92Y272D01*
X94Y272D01*
X94Y274D01*
X96Y274D01*
X96Y278D01*
X98Y278D01*
X98Y280D01*
X100Y280D01*
X100Y282D01*
X102Y282D01*
X102Y284D01*
X104Y284D01*
X104Y286D01*
X106Y286D01*
X106Y288D01*
X108Y288D01*
X108Y292D01*
X112Y292D01*
X112Y294D01*
X114Y294D01*
X114Y296D01*
X116Y296D01*
X116Y298D01*
X118Y298D01*
X118Y300D01*
X120Y300D01*
X120Y302D01*
X124Y302D01*
X124Y304D01*
X126Y304D01*
X126Y306D01*
X128Y306D01*
X128Y308D01*
X132Y308D01*
X132Y310D01*
X136Y310D01*
X136Y312D01*
X138Y312D01*
X138Y314D01*
X142Y314D01*
X142Y316D01*
X146Y316D01*
X146Y318D01*
X150Y318D01*
X150Y320D01*
X156Y320D01*
X156Y322D01*
X162Y322D01*
X162Y324D01*
X168Y324D01*
X168Y326D01*
X176Y326D01*
X176Y328D01*
X192Y328D01*
X192Y330D01*
X40Y330D01*
G37*
D02*
G36*
X1350Y330D02*
X1350Y328D01*
X1348Y328D01*
X1348Y326D01*
X1344Y326D01*
X1344Y324D01*
X1342Y324D01*
X1342Y322D01*
X1340Y322D01*
X1340Y320D01*
X1336Y320D01*
X1336Y318D01*
X1332Y318D01*
X1332Y316D01*
X1326Y316D01*
X1326Y314D01*
X1318Y314D01*
X1318Y312D01*
X1710Y312D01*
X1710Y314D01*
X1714Y314D01*
X1714Y316D01*
X1718Y316D01*
X1718Y318D01*
X1722Y318D01*
X1722Y320D01*
X1726Y320D01*
X1726Y322D01*
X1732Y322D01*
X1732Y324D01*
X1740Y324D01*
X1740Y326D01*
X1748Y326D01*
X1748Y328D01*
X1764Y328D01*
X1764Y330D01*
X1350Y330D01*
G37*
D02*
G36*
X1148Y328D02*
X1148Y326D01*
X1144Y326D01*
X1144Y324D01*
X1142Y324D01*
X1142Y322D01*
X1140Y322D01*
X1140Y320D01*
X1136Y320D01*
X1136Y318D01*
X1132Y318D01*
X1132Y316D01*
X1126Y316D01*
X1126Y314D01*
X1118Y314D01*
X1118Y312D01*
X1198Y312D01*
X1198Y314D01*
X1190Y314D01*
X1190Y316D01*
X1184Y316D01*
X1184Y318D01*
X1180Y318D01*
X1180Y320D01*
X1178Y320D01*
X1178Y322D01*
X1174Y322D01*
X1174Y324D01*
X1172Y324D01*
X1172Y326D01*
X1170Y326D01*
X1170Y328D01*
X1148Y328D01*
G37*
D02*
G36*
X1248Y328D02*
X1248Y326D01*
X1244Y326D01*
X1244Y324D01*
X1242Y324D01*
X1242Y322D01*
X1240Y322D01*
X1240Y320D01*
X1236Y320D01*
X1236Y318D01*
X1232Y318D01*
X1232Y316D01*
X1226Y316D01*
X1226Y314D01*
X1218Y314D01*
X1218Y312D01*
X1298Y312D01*
X1298Y314D01*
X1290Y314D01*
X1290Y316D01*
X1284Y316D01*
X1284Y318D01*
X1280Y318D01*
X1280Y320D01*
X1278Y320D01*
X1278Y322D01*
X1274Y322D01*
X1274Y324D01*
X1272Y324D01*
X1272Y326D01*
X1270Y326D01*
X1270Y328D01*
X1248Y328D01*
G37*
D02*
G36*
X270Y312D02*
X270Y310D01*
X1706Y310D01*
X1706Y312D01*
X270Y312D01*
G37*
D02*
G36*
X270Y312D02*
X270Y310D01*
X1706Y310D01*
X1706Y312D01*
X270Y312D01*
G37*
D02*
G36*
X270Y312D02*
X270Y310D01*
X1706Y310D01*
X1706Y312D01*
X270Y312D01*
G37*
D02*
G36*
X270Y312D02*
X270Y310D01*
X1706Y310D01*
X1706Y312D01*
X270Y312D01*
G37*
D02*
G36*
X272Y310D02*
X272Y308D01*
X276Y308D01*
X276Y306D01*
X278Y306D01*
X278Y304D01*
X282Y304D01*
X282Y302D01*
X284Y302D01*
X284Y300D01*
X286Y300D01*
X286Y298D01*
X288Y298D01*
X288Y296D01*
X290Y296D01*
X290Y294D01*
X294Y294D01*
X294Y292D01*
X296Y292D01*
X296Y290D01*
X298Y290D01*
X298Y288D01*
X300Y288D01*
X300Y284D01*
X302Y284D01*
X302Y282D01*
X304Y282D01*
X304Y280D01*
X306Y280D01*
X306Y278D01*
X308Y278D01*
X308Y274D01*
X310Y274D01*
X310Y272D01*
X312Y272D01*
X312Y268D01*
X314Y268D01*
X314Y266D01*
X316Y266D01*
X316Y262D01*
X318Y262D01*
X318Y258D01*
X320Y258D01*
X320Y254D01*
X322Y254D01*
X322Y250D01*
X324Y250D01*
X324Y246D01*
X326Y246D01*
X326Y240D01*
X328Y240D01*
X328Y234D01*
X330Y234D01*
X330Y226D01*
X332Y226D01*
X332Y216D01*
X334Y216D01*
X334Y180D01*
X332Y180D01*
X332Y168D01*
X330Y168D01*
X330Y160D01*
X328Y160D01*
X328Y154D01*
X326Y154D01*
X326Y148D01*
X324Y148D01*
X324Y144D01*
X322Y144D01*
X322Y140D01*
X320Y140D01*
X320Y136D01*
X318Y136D01*
X318Y132D01*
X316Y132D01*
X316Y128D01*
X314Y128D01*
X314Y126D01*
X312Y126D01*
X312Y122D01*
X310Y122D01*
X310Y120D01*
X308Y120D01*
X308Y118D01*
X306Y118D01*
X306Y114D01*
X304Y114D01*
X304Y112D01*
X302Y112D01*
X302Y110D01*
X300Y110D01*
X300Y108D01*
X298Y108D01*
X298Y106D01*
X296Y106D01*
X296Y104D01*
X294Y104D01*
X294Y102D01*
X292Y102D01*
X292Y100D01*
X290Y100D01*
X290Y98D01*
X288Y98D01*
X288Y96D01*
X286Y96D01*
X286Y94D01*
X282Y94D01*
X282Y92D01*
X280Y92D01*
X280Y90D01*
X278Y90D01*
X278Y88D01*
X274Y88D01*
X274Y86D01*
X272Y86D01*
X272Y84D01*
X268Y84D01*
X268Y82D01*
X264Y82D01*
X264Y80D01*
X260Y80D01*
X260Y78D01*
X256Y78D01*
X256Y76D01*
X252Y76D01*
X252Y74D01*
X246Y74D01*
X246Y72D01*
X240Y72D01*
X240Y70D01*
X234Y70D01*
X234Y68D01*
X224Y68D01*
X224Y66D01*
X1752Y66D01*
X1752Y68D01*
X1742Y68D01*
X1742Y70D01*
X1734Y70D01*
X1734Y72D01*
X1728Y72D01*
X1728Y74D01*
X1724Y74D01*
X1724Y76D01*
X1718Y76D01*
X1718Y78D01*
X1714Y78D01*
X1714Y80D01*
X1710Y80D01*
X1710Y82D01*
X1708Y82D01*
X1708Y84D01*
X1704Y84D01*
X1704Y86D01*
X1700Y86D01*
X1700Y88D01*
X1698Y88D01*
X1698Y90D01*
X1696Y90D01*
X1696Y92D01*
X1692Y92D01*
X1692Y94D01*
X1690Y94D01*
X1690Y96D01*
X1688Y96D01*
X1688Y98D01*
X1686Y98D01*
X1686Y100D01*
X1682Y100D01*
X1682Y102D01*
X1680Y102D01*
X1680Y104D01*
X1678Y104D01*
X1678Y106D01*
X1676Y106D01*
X1676Y110D01*
X1674Y110D01*
X1674Y112D01*
X1672Y112D01*
X1672Y114D01*
X1670Y114D01*
X1670Y116D01*
X1668Y116D01*
X1668Y118D01*
X1666Y118D01*
X1666Y122D01*
X1664Y122D01*
X1664Y124D01*
X1662Y124D01*
X1662Y128D01*
X1660Y128D01*
X1660Y132D01*
X1658Y132D01*
X1658Y134D01*
X1656Y134D01*
X1656Y138D01*
X1654Y138D01*
X1654Y142D01*
X1652Y142D01*
X1652Y146D01*
X1650Y146D01*
X1650Y152D01*
X1648Y152D01*
X1648Y158D01*
X1646Y158D01*
X1646Y166D01*
X1644Y166D01*
X1644Y174D01*
X1642Y174D01*
X1642Y196D01*
X1640Y196D01*
X1640Y198D01*
X1642Y198D01*
X1642Y220D01*
X1644Y220D01*
X1644Y230D01*
X1646Y230D01*
X1646Y236D01*
X1648Y236D01*
X1648Y242D01*
X1650Y242D01*
X1650Y248D01*
X1652Y248D01*
X1652Y252D01*
X1654Y252D01*
X1654Y256D01*
X1656Y256D01*
X1656Y260D01*
X1658Y260D01*
X1658Y264D01*
X1660Y264D01*
X1660Y266D01*
X1662Y266D01*
X1662Y270D01*
X1664Y270D01*
X1664Y272D01*
X1666Y272D01*
X1666Y276D01*
X1668Y276D01*
X1668Y278D01*
X1670Y278D01*
X1670Y282D01*
X1672Y282D01*
X1672Y284D01*
X1674Y284D01*
X1674Y286D01*
X1676Y286D01*
X1676Y288D01*
X1678Y288D01*
X1678Y290D01*
X1680Y290D01*
X1680Y292D01*
X1682Y292D01*
X1682Y294D01*
X1684Y294D01*
X1684Y296D01*
X1686Y296D01*
X1686Y298D01*
X1688Y298D01*
X1688Y300D01*
X1692Y300D01*
X1692Y302D01*
X1694Y302D01*
X1694Y304D01*
X1696Y304D01*
X1696Y306D01*
X1700Y306D01*
X1700Y308D01*
X1702Y308D01*
X1702Y310D01*
X272Y310D01*
G37*
D02*
G36*
X40Y66D02*
X40Y64D01*
X1928Y64D01*
X1928Y66D01*
X40Y66D01*
G37*
D02*
G36*
X40Y66D02*
X40Y64D01*
X1928Y64D01*
X1928Y66D01*
X40Y66D01*
G37*
D02*
G36*
X40Y66D02*
X40Y64D01*
X1928Y64D01*
X1928Y66D01*
X40Y66D01*
G37*
D02*
G36*
X40Y64D02*
X40Y40D01*
X1928Y40D01*
X1928Y64D01*
X40Y64D01*
G37*
D02*
G36*
X528Y6896D02*
X570Y6896D01*
X570Y6849D01*
X528Y6849D01*
X528Y6896D01*
G37*
D02*
G36*
X236Y6932D02*
X279Y6932D01*
X279Y6890D01*
X236Y6890D01*
X236Y6932D01*
G37*
D02*
G36*
X196Y6894D02*
X240Y6894D01*
X240Y6851D01*
X196Y6851D01*
X196Y6894D01*
G37*
D02*
G36*
X1683Y7134D02*
X1728Y7134D01*
X1728Y7092D01*
X1683Y7092D01*
X1683Y7134D01*
G37*
D02*
G36*
X1724Y7095D02*
X1768Y7095D01*
X1768Y7050D01*
X1724Y7050D01*
X1724Y7095D01*
G37*
D02*
G36*
X1083Y434D02*
X1128Y434D01*
X1128Y392D01*
X1083Y392D01*
X1083Y434D01*
G37*
D02*
G36*
X1083Y354D02*
X1128Y354D01*
X1128Y312D01*
X1083Y312D01*
X1083Y354D01*
G37*
D02*
G36*
X1046Y395D02*
X1086Y395D01*
X1086Y350D01*
X1046Y350D01*
X1046Y395D01*
G37*
D02*
G36*
X1083Y7434D02*
X1128Y7434D01*
X1128Y7392D01*
X1083Y7392D01*
X1083Y7434D01*
G37*
D02*
G36*
X1083Y7354D02*
X1128Y7354D01*
X1128Y7312D01*
X1083Y7312D01*
X1083Y7354D01*
G37*
D02*
G36*
X1046Y7395D02*
X1086Y7395D01*
X1086Y7350D01*
X1046Y7350D01*
X1046Y7395D01*
G37*
D02*
G36*
X1683Y5234D02*
X1728Y5234D01*
X1728Y5192D01*
X1683Y5192D01*
X1683Y5234D01*
G37*
D02*
G36*
X1724Y5195D02*
X1768Y5195D01*
X1768Y5150D01*
X1724Y5150D01*
X1724Y5195D01*
G37*
D02*
G36*
X528Y4996D02*
X570Y4996D01*
X570Y4949D01*
X528Y4949D01*
X528Y4996D01*
G37*
D02*
G36*
X1683Y3234D02*
X1728Y3234D01*
X1728Y3192D01*
X1683Y3192D01*
X1683Y3234D01*
G37*
D02*
G36*
X1724Y3195D02*
X1768Y3195D01*
X1768Y3150D01*
X1724Y3150D01*
X1724Y3195D01*
G37*
D02*
G36*
X528Y2996D02*
X570Y2996D01*
X570Y2949D01*
X528Y2949D01*
X528Y2996D01*
G37*
D02*
G36*
X1683Y1234D02*
X1728Y1234D01*
X1728Y1192D01*
X1683Y1192D01*
X1683Y1234D01*
G37*
D02*
G36*
X1724Y1195D02*
X1768Y1195D01*
X1768Y1150D01*
X1724Y1150D01*
X1724Y1195D01*
G37*
D02*
G36*
X528Y996D02*
X570Y996D01*
X570Y949D01*
X528Y949D01*
X528Y996D01*
G37*
D02*
G36*
X1093Y7114D02*
X1118Y7114D01*
X1118Y7080D01*
X1093Y7080D01*
X1093Y7114D01*
G37*
D02*
G36*
X1093Y7066D02*
X1118Y7066D01*
X1118Y7032D01*
X1093Y7032D01*
X1093Y7066D01*
G37*
D02*
G36*
X1064Y7085D02*
X1098Y7085D01*
X1098Y7060D01*
X1064Y7060D01*
X1064Y7085D01*
G37*
D02*
G36*
X236Y5032D02*
X279Y5032D01*
X279Y4990D01*
X236Y4990D01*
X236Y5032D01*
G37*
D02*
G36*
X196Y4994D02*
X240Y4994D01*
X240Y4951D01*
X196Y4951D01*
X196Y4994D01*
G37*
D02*
G36*
X236Y3032D02*
X279Y3032D01*
X279Y2990D01*
X236Y2990D01*
X236Y3032D01*
G37*
D02*
G36*
X196Y2994D02*
X240Y2994D01*
X240Y2951D01*
X196Y2951D01*
X196Y2994D01*
G37*
D02*
G36*
X236Y1032D02*
X279Y1032D01*
X279Y990D01*
X236Y990D01*
X236Y1032D01*
G37*
D02*
G36*
X196Y994D02*
X240Y994D01*
X240Y951D01*
X196Y951D01*
X196Y994D01*
G37*
D02*
G36*
X176Y4122D02*
X219Y4122D01*
X219Y4082D01*
X176Y4082D01*
X176Y4122D01*
G37*
D02*
G36*
X138Y4084D02*
X178Y4084D01*
X178Y4041D01*
X138Y4041D01*
X138Y4084D01*
G37*
D02*
G36*
X216Y4084D02*
X256Y4084D01*
X256Y4041D01*
X216Y4041D01*
X216Y4084D01*
G37*
D02*
G36*
X176Y3844D02*
X219Y3844D01*
X219Y3804D01*
X176Y3804D01*
X176Y3844D01*
G37*
D02*
G36*
X138Y3884D02*
X178Y3884D01*
X178Y3841D01*
X138Y3841D01*
X138Y3884D01*
G37*
D02*
G36*
X216Y3884D02*
X256Y3884D01*
X256Y3841D01*
X216Y3841D01*
X216Y3884D01*
G37*
D02*
G36*
X1097Y5210D02*
X1122Y5210D01*
X1122Y5176D01*
X1097Y5176D01*
X1097Y5210D01*
G37*
D02*
G36*
X1097Y5162D02*
X1122Y5162D01*
X1122Y5128D01*
X1097Y5128D01*
X1097Y5162D01*
G37*
D02*
G36*
X1068Y5181D02*
X1102Y5181D01*
X1102Y5156D01*
X1068Y5156D01*
X1068Y5181D01*
G37*
D02*
G36*
X1093Y3214D02*
X1118Y3214D01*
X1118Y3180D01*
X1093Y3180D01*
X1093Y3214D01*
G37*
D02*
G36*
X1093Y3166D02*
X1118Y3166D01*
X1118Y3132D01*
X1093Y3132D01*
X1093Y3166D01*
G37*
D02*
G36*
X1064Y3185D02*
X1098Y3185D01*
X1098Y3160D01*
X1064Y3160D01*
X1064Y3185D01*
G37*
D02*
G36*
X1093Y1214D02*
X1118Y1214D01*
X1118Y1180D01*
X1093Y1180D01*
X1093Y1214D01*
G37*
D02*
G36*
X1093Y1166D02*
X1118Y1166D01*
X1118Y1132D01*
X1093Y1132D01*
X1093Y1166D01*
G37*
D02*
G36*
X1064Y1185D02*
X1098Y1185D01*
X1098Y1160D01*
X1064Y1160D01*
X1064Y1185D01*
G37*
D02*
G04 End of Copper0*
M02*