; NON-PLATED HOLES START AT T1
; THROUGH (PLATED) HOLES START AT T100
M48
INCH
T100C0.165354
T101C0.042000
T102C0.015748
T103C0.038000
T104C0.040000
T105C0.035000
%
T100
X002018Y076773
X017727Y076780
X002021Y001973
X017731Y001973
T101
X005081Y067710
X005081Y008710
X005081Y028710
X005081Y048710
X005081Y068710
X005081Y009710
X005081Y029710
X005081Y049710
X005081Y069710
X005081Y010710
X005081Y030710
X005081Y050710
T102
X011081Y031710
X015081Y047710
X007970Y030710
X008081Y050710
X011081Y011710
X015081Y066710
X014081Y048710
X012081Y069710
X015081Y027710
X014081Y067710
X013081Y049710
X014081Y028710
X008081Y010710
X013081Y068710
X013081Y029710
X014081Y008710
X011118Y051673
X008081Y069710
X013081Y009710
X011081Y070710
T103
X017081Y029710
X013081Y003710
X012081Y003710
X017081Y030710
X017081Y048710
X015081Y073710
X017081Y009710
X013081Y073710
X017081Y067710
X012081Y073710
X017081Y010710
X017081Y028710
X017081Y047710
X017081Y051710
X017081Y008710
X017081Y069710
X011081Y003710
X017081Y066710
X017081Y070710
X017081Y027710
X014081Y073710
X017081Y031710
X017081Y049710
X011081Y073710
X017081Y050710
X017081Y007710
X017081Y068710
X017081Y011710
T104
X001981Y039610
X001981Y040610
X001981Y038610
T105
X002581Y009710
X002581Y049710
X002581Y028710
X002581Y068710
X002581Y029710
X002581Y008710
X002581Y048710
X002581Y067710
T00
M30
