G04 MADE WITH FRITZING*
G04 WWW.FRITZING.ORG*
G04 DOUBLE SIDED*
G04 HOLES PLATED*
G04 CONTOUR ON CENTER OF CONTOUR VECTOR*
%ASAXBY*%
%FSLAX23Y23*%
%MOIN*%
%OFA0B0*%
%SFA1.0B1.0*%
%ADD10C,0.052000*%
%ADD11C,0.075000*%
%ADD12C,0.082677*%
%ADD13C,0.255905*%
%ADD14C,0.145669*%
%ADD15C,0.070000*%
%ADD16C,0.078000*%
%ADD17R,0.069958X0.070000*%
%ADD18R,0.075000X0.075000*%
%ADD19C,0.024000*%
%ADD20C,0.032000*%
%ADD21R,0.001000X0.001000*%
%LNCOPPER0*%
G90*
G70*
G54D10*
X431Y415D03*
X531Y415D03*
X531Y715D03*
X431Y715D03*
X230Y415D03*
X330Y415D03*
X330Y715D03*
X230Y715D03*
G54D11*
X744Y1072D03*
X444Y1072D03*
G54D12*
X1322Y2020D03*
X1322Y1717D03*
X2222Y1717D03*
X2222Y2020D03*
X2222Y491D03*
X2222Y802D03*
X1322Y802D03*
X1322Y499D03*
G54D13*
X1772Y1633D03*
G54D14*
X2126Y2244D03*
X1299Y1259D03*
X2126Y275D03*
G54D12*
X1322Y2020D03*
X1322Y1717D03*
X2222Y1717D03*
X2222Y2020D03*
X2222Y491D03*
X2222Y802D03*
X1322Y802D03*
X1322Y499D03*
G54D13*
X1772Y1633D03*
G54D14*
X2126Y2244D03*
X1299Y1259D03*
X2126Y275D03*
G54D15*
X2772Y2027D03*
X2772Y1927D03*
X2772Y1827D03*
X2772Y1727D03*
X2772Y1627D03*
X2772Y1527D03*
X2772Y1427D03*
X2772Y1327D03*
X2772Y1227D03*
X2772Y1127D03*
X2772Y1027D03*
X2772Y927D03*
X2772Y827D03*
X2772Y727D03*
X2772Y627D03*
X3372Y2027D03*
X3372Y1927D03*
X3372Y1827D03*
X3372Y1727D03*
X3372Y1627D03*
X3372Y1527D03*
X3372Y1427D03*
X3372Y1327D03*
X3372Y1227D03*
X3372Y1127D03*
X3372Y1027D03*
X3372Y927D03*
X3372Y827D03*
X3372Y727D03*
X3372Y627D03*
X2972Y2122D03*
X2972Y2022D03*
X3072Y2122D03*
X3072Y2022D03*
X3172Y2122D03*
X3172Y2022D03*
G54D16*
X791Y2895D03*
X791Y2795D03*
X791Y2695D03*
X791Y2595D03*
X791Y2495D03*
X791Y2395D03*
X2689Y2895D03*
X2689Y2795D03*
X2689Y2695D03*
X2689Y2595D03*
X2689Y2495D03*
X2689Y2395D03*
X939Y617D03*
X939Y717D03*
X2559Y771D03*
X2559Y671D03*
X2552Y1919D03*
X2552Y1819D03*
X956Y1870D03*
X956Y1970D03*
X351Y1931D03*
X451Y1931D03*
X551Y1931D03*
X651Y1931D03*
X449Y1245D03*
X549Y1245D03*
X649Y1245D03*
G54D11*
X640Y1610D03*
X440Y1610D03*
X590Y2796D03*
X390Y2796D03*
G54D17*
X2772Y2027D03*
G54D18*
X640Y1610D03*
X590Y2796D03*
G54D19*
X544Y2700D02*
X390Y2796D01*
D02*
X761Y2696D02*
X544Y2700D01*
G54D20*
D02*
X651Y2595D02*
X755Y2595D01*
D02*
X651Y1967D02*
X651Y2595D01*
D02*
X2984Y2702D02*
X2724Y2696D01*
D02*
X3370Y2452D02*
X2984Y2702D01*
D02*
X3372Y2061D02*
X3370Y2452D01*
G54D19*
D02*
X3343Y2026D02*
X3202Y2023D01*
G54D20*
D02*
X2653Y2595D02*
X826Y2595D01*
D02*
X650Y1895D02*
X641Y1644D01*
D02*
X641Y1576D02*
X648Y1280D01*
D02*
X2902Y2596D02*
X2724Y2595D01*
D02*
X2902Y1727D02*
X2902Y2595D01*
D02*
X2807Y1727D02*
X2902Y1727D01*
D02*
X649Y415D02*
X564Y415D01*
D02*
X649Y1209D02*
X649Y415D01*
G54D19*
D02*
X257Y415D02*
X303Y415D01*
D02*
X357Y415D02*
X404Y415D01*
D02*
X458Y415D02*
X504Y415D01*
G54D20*
D02*
X450Y1578D02*
X539Y1279D01*
D02*
X539Y1897D02*
X451Y1643D01*
D02*
X2653Y2695D02*
X826Y2695D01*
D02*
X551Y1967D02*
X551Y2695D01*
D02*
X551Y2695D02*
X755Y2695D01*
G54D19*
D02*
X2533Y657D02*
X2251Y506D01*
D02*
X2529Y774D02*
X2254Y799D01*
D02*
X969Y723D02*
X1290Y795D01*
D02*
X2253Y1727D02*
X2523Y1810D01*
D02*
X2552Y1789D02*
X2552Y1127D01*
D02*
X2523Y1928D02*
X2253Y2010D01*
D02*
X543Y2692D02*
X761Y2695D01*
D02*
X414Y2780D02*
X543Y2692D01*
D02*
X986Y1974D02*
X1290Y2016D01*
D02*
X984Y1858D02*
X1292Y1730D01*
D02*
X1291Y508D02*
X968Y608D01*
D02*
X2743Y1027D02*
X2082Y1027D01*
D02*
X2082Y1027D02*
X2082Y2020D01*
D02*
X2082Y2020D02*
X2189Y2020D01*
D02*
X2552Y1127D02*
X2743Y1127D01*
D02*
X2588Y779D02*
X2744Y819D01*
D02*
X2082Y927D02*
X2743Y927D01*
D02*
X2082Y491D02*
X2082Y927D01*
D02*
X2189Y491D02*
X2082Y491D01*
G54D21*
X225Y768D02*
X234Y768D01*
X325Y768D02*
X334Y768D01*
X426Y768D02*
X435Y768D01*
X526Y768D02*
X535Y768D01*
X221Y767D02*
X237Y767D01*
X321Y767D02*
X337Y767D01*
X422Y767D02*
X439Y767D01*
X522Y767D02*
X539Y767D01*
X219Y766D02*
X240Y766D01*
X319Y766D02*
X340Y766D01*
X420Y766D02*
X441Y766D01*
X520Y766D02*
X541Y766D01*
X217Y765D02*
X241Y765D01*
X317Y765D02*
X341Y765D01*
X418Y765D02*
X443Y765D01*
X518Y765D02*
X543Y765D01*
X215Y764D02*
X243Y764D01*
X315Y764D02*
X343Y764D01*
X416Y764D02*
X445Y764D01*
X516Y764D02*
X545Y764D01*
X214Y763D02*
X244Y763D01*
X314Y763D02*
X344Y763D01*
X415Y763D02*
X446Y763D01*
X515Y763D02*
X546Y763D01*
X213Y762D02*
X246Y762D01*
X313Y762D02*
X346Y762D01*
X414Y762D02*
X447Y762D01*
X514Y762D02*
X547Y762D01*
X211Y761D02*
X247Y761D01*
X311Y761D02*
X347Y761D01*
X413Y761D02*
X448Y761D01*
X513Y761D02*
X548Y761D01*
X211Y760D02*
X248Y760D01*
X311Y760D02*
X348Y760D01*
X412Y760D02*
X449Y760D01*
X512Y760D02*
X549Y760D01*
X210Y759D02*
X249Y759D01*
X310Y759D02*
X349Y759D01*
X411Y759D02*
X450Y759D01*
X511Y759D02*
X550Y759D01*
X209Y758D02*
X249Y758D01*
X309Y758D02*
X349Y758D01*
X410Y758D02*
X451Y758D01*
X510Y758D02*
X551Y758D01*
X208Y757D02*
X250Y757D01*
X308Y757D02*
X350Y757D01*
X409Y757D02*
X451Y757D01*
X509Y757D02*
X551Y757D01*
X208Y756D02*
X251Y756D01*
X308Y756D02*
X351Y756D01*
X409Y756D02*
X452Y756D01*
X509Y756D02*
X552Y756D01*
X207Y755D02*
X251Y755D01*
X307Y755D02*
X351Y755D01*
X408Y755D02*
X453Y755D01*
X508Y755D02*
X553Y755D01*
X206Y754D02*
X252Y754D01*
X306Y754D02*
X352Y754D01*
X408Y754D02*
X453Y754D01*
X508Y754D02*
X553Y754D01*
X206Y753D02*
X252Y753D01*
X306Y753D02*
X352Y753D01*
X407Y753D02*
X454Y753D01*
X507Y753D02*
X554Y753D01*
X205Y752D02*
X253Y752D01*
X305Y752D02*
X353Y752D01*
X407Y752D02*
X454Y752D01*
X507Y752D02*
X554Y752D01*
X205Y751D02*
X253Y751D01*
X305Y751D02*
X353Y751D01*
X406Y751D02*
X454Y751D01*
X506Y751D02*
X554Y751D01*
X205Y750D02*
X254Y750D01*
X305Y750D02*
X354Y750D01*
X406Y750D02*
X455Y750D01*
X506Y750D02*
X555Y750D01*
X204Y749D02*
X254Y749D01*
X304Y749D02*
X354Y749D01*
X406Y749D02*
X455Y749D01*
X506Y749D02*
X555Y749D01*
X204Y748D02*
X254Y748D01*
X304Y748D02*
X354Y748D01*
X406Y748D02*
X455Y748D01*
X506Y748D02*
X555Y748D01*
X204Y747D02*
X254Y747D01*
X304Y747D02*
X354Y747D01*
X405Y747D02*
X456Y747D01*
X505Y747D02*
X556Y747D01*
X204Y746D02*
X254Y746D01*
X304Y746D02*
X354Y746D01*
X405Y746D02*
X456Y746D01*
X505Y746D02*
X556Y746D01*
X204Y745D02*
X255Y745D01*
X304Y745D02*
X355Y745D01*
X405Y745D02*
X456Y745D01*
X505Y745D02*
X556Y745D01*
X204Y744D02*
X255Y744D01*
X304Y744D02*
X355Y744D01*
X405Y744D02*
X456Y744D01*
X505Y744D02*
X556Y744D01*
X204Y743D02*
X255Y743D01*
X304Y743D02*
X355Y743D01*
X405Y743D02*
X456Y743D01*
X505Y743D02*
X556Y743D01*
X204Y742D02*
X255Y742D01*
X304Y742D02*
X355Y742D01*
X405Y742D02*
X456Y742D01*
X505Y742D02*
X556Y742D01*
X204Y741D02*
X255Y741D01*
X304Y741D02*
X355Y741D01*
X405Y741D02*
X456Y741D01*
X505Y741D02*
X556Y741D01*
X204Y740D02*
X255Y740D01*
X304Y740D02*
X355Y740D01*
X405Y740D02*
X456Y740D01*
X505Y740D02*
X556Y740D01*
X204Y739D02*
X255Y739D01*
X304Y739D02*
X355Y739D01*
X405Y739D02*
X456Y739D01*
X505Y739D02*
X556Y739D01*
X204Y738D02*
X255Y738D01*
X304Y738D02*
X355Y738D01*
X405Y738D02*
X456Y738D01*
X505Y738D02*
X556Y738D01*
X204Y737D02*
X255Y737D01*
X304Y737D02*
X355Y737D01*
X405Y737D02*
X456Y737D01*
X505Y737D02*
X556Y737D01*
X204Y736D02*
X255Y736D01*
X304Y736D02*
X355Y736D01*
X405Y736D02*
X456Y736D01*
X505Y736D02*
X556Y736D01*
X204Y735D02*
X255Y735D01*
X304Y735D02*
X355Y735D01*
X405Y735D02*
X456Y735D01*
X505Y735D02*
X556Y735D01*
X204Y734D02*
X255Y734D01*
X304Y734D02*
X355Y734D01*
X405Y734D02*
X456Y734D01*
X505Y734D02*
X556Y734D01*
X204Y733D02*
X255Y733D01*
X304Y733D02*
X355Y733D01*
X405Y733D02*
X456Y733D01*
X505Y733D02*
X556Y733D01*
X204Y732D02*
X225Y732D01*
X233Y732D02*
X255Y732D01*
X304Y732D02*
X325Y732D01*
X333Y732D02*
X355Y732D01*
X405Y732D02*
X426Y732D01*
X435Y732D02*
X456Y732D01*
X505Y732D02*
X526Y732D01*
X535Y732D02*
X556Y732D01*
X204Y731D02*
X222Y731D01*
X236Y731D02*
X255Y731D01*
X304Y731D02*
X322Y731D01*
X336Y731D02*
X355Y731D01*
X405Y731D02*
X423Y731D01*
X438Y731D02*
X456Y731D01*
X505Y731D02*
X523Y731D01*
X538Y731D02*
X556Y731D01*
X204Y730D02*
X220Y730D01*
X238Y730D02*
X255Y730D01*
X304Y730D02*
X320Y730D01*
X338Y730D02*
X355Y730D01*
X405Y730D02*
X421Y730D01*
X439Y730D02*
X456Y730D01*
X505Y730D02*
X521Y730D01*
X539Y730D02*
X556Y730D01*
X204Y729D02*
X219Y729D01*
X240Y729D02*
X255Y729D01*
X304Y729D02*
X319Y729D01*
X340Y729D02*
X355Y729D01*
X405Y729D02*
X420Y729D01*
X441Y729D02*
X456Y729D01*
X505Y729D02*
X520Y729D01*
X541Y729D02*
X556Y729D01*
X204Y728D02*
X218Y728D01*
X241Y728D02*
X255Y728D01*
X304Y728D02*
X318Y728D01*
X341Y728D02*
X355Y728D01*
X405Y728D02*
X419Y728D01*
X442Y728D02*
X456Y728D01*
X505Y728D02*
X519Y728D01*
X542Y728D02*
X556Y728D01*
X204Y727D02*
X217Y727D01*
X242Y727D02*
X255Y727D01*
X304Y727D02*
X317Y727D01*
X342Y727D02*
X355Y727D01*
X405Y727D02*
X418Y727D01*
X443Y727D02*
X456Y727D01*
X505Y727D02*
X518Y727D01*
X543Y727D02*
X556Y727D01*
X204Y726D02*
X216Y726D01*
X242Y726D02*
X255Y726D01*
X304Y726D02*
X316Y726D01*
X342Y726D02*
X355Y726D01*
X405Y726D02*
X417Y726D01*
X444Y726D02*
X456Y726D01*
X505Y726D02*
X517Y726D01*
X544Y726D02*
X556Y726D01*
X204Y725D02*
X215Y725D01*
X243Y725D02*
X255Y725D01*
X304Y725D02*
X315Y725D01*
X343Y725D02*
X355Y725D01*
X405Y725D02*
X416Y725D01*
X444Y725D02*
X456Y725D01*
X505Y725D02*
X516Y725D01*
X544Y725D02*
X556Y725D01*
X204Y724D02*
X215Y724D01*
X244Y724D02*
X255Y724D01*
X304Y724D02*
X315Y724D01*
X344Y724D02*
X355Y724D01*
X405Y724D02*
X416Y724D01*
X445Y724D02*
X456Y724D01*
X505Y724D02*
X516Y724D01*
X545Y724D02*
X556Y724D01*
X204Y723D02*
X214Y723D01*
X244Y723D02*
X255Y723D01*
X304Y723D02*
X314Y723D01*
X344Y723D02*
X355Y723D01*
X405Y723D02*
X415Y723D01*
X446Y723D02*
X456Y723D01*
X505Y723D02*
X515Y723D01*
X546Y723D02*
X556Y723D01*
X204Y722D02*
X214Y722D01*
X245Y722D02*
X255Y722D01*
X304Y722D02*
X314Y722D01*
X345Y722D02*
X355Y722D01*
X405Y722D02*
X415Y722D01*
X446Y722D02*
X456Y722D01*
X505Y722D02*
X515Y722D01*
X546Y722D02*
X556Y722D01*
X204Y721D02*
X213Y721D01*
X245Y721D02*
X255Y721D01*
X304Y721D02*
X313Y721D01*
X345Y721D02*
X355Y721D01*
X405Y721D02*
X415Y721D01*
X446Y721D02*
X456Y721D01*
X505Y721D02*
X515Y721D01*
X546Y721D02*
X556Y721D01*
X204Y720D02*
X213Y720D01*
X245Y720D02*
X255Y720D01*
X304Y720D02*
X313Y720D01*
X345Y720D02*
X355Y720D01*
X405Y720D02*
X414Y720D01*
X447Y720D02*
X456Y720D01*
X505Y720D02*
X514Y720D01*
X547Y720D02*
X556Y720D01*
X204Y719D02*
X213Y719D01*
X245Y719D02*
X255Y719D01*
X304Y719D02*
X313Y719D01*
X345Y719D02*
X355Y719D01*
X405Y719D02*
X414Y719D01*
X447Y719D02*
X456Y719D01*
X505Y719D02*
X514Y719D01*
X547Y719D02*
X556Y719D01*
X204Y718D02*
X213Y718D01*
X245Y718D02*
X255Y718D01*
X304Y718D02*
X313Y718D01*
X345Y718D02*
X355Y718D01*
X405Y718D02*
X414Y718D01*
X447Y718D02*
X456Y718D01*
X505Y718D02*
X514Y718D01*
X547Y718D02*
X556Y718D01*
X204Y717D02*
X213Y717D01*
X246Y717D02*
X255Y717D01*
X304Y717D02*
X313Y717D01*
X346Y717D02*
X355Y717D01*
X405Y717D02*
X414Y717D01*
X447Y717D02*
X456Y717D01*
X505Y717D02*
X514Y717D01*
X547Y717D02*
X556Y717D01*
X204Y716D02*
X213Y716D01*
X246Y716D02*
X255Y716D01*
X304Y716D02*
X313Y716D01*
X346Y716D02*
X355Y716D01*
X405Y716D02*
X414Y716D01*
X447Y716D02*
X456Y716D01*
X505Y716D02*
X514Y716D01*
X547Y716D02*
X556Y716D01*
X204Y715D02*
X213Y715D01*
X245Y715D02*
X255Y715D01*
X304Y715D02*
X313Y715D01*
X345Y715D02*
X355Y715D01*
X405Y715D02*
X414Y715D01*
X447Y715D02*
X456Y715D01*
X505Y715D02*
X514Y715D01*
X547Y715D02*
X556Y715D01*
X204Y714D02*
X213Y714D01*
X245Y714D02*
X255Y714D01*
X304Y714D02*
X313Y714D01*
X345Y714D02*
X355Y714D01*
X405Y714D02*
X414Y714D01*
X447Y714D02*
X456Y714D01*
X505Y714D02*
X514Y714D01*
X547Y714D02*
X556Y714D01*
X204Y713D02*
X213Y713D01*
X245Y713D02*
X255Y713D01*
X304Y713D02*
X313Y713D01*
X345Y713D02*
X355Y713D01*
X405Y713D02*
X414Y713D01*
X447Y713D02*
X456Y713D01*
X505Y713D02*
X514Y713D01*
X547Y713D02*
X556Y713D01*
X204Y712D02*
X213Y712D01*
X245Y712D02*
X255Y712D01*
X304Y712D02*
X313Y712D01*
X345Y712D02*
X355Y712D01*
X405Y712D02*
X415Y712D01*
X446Y712D02*
X456Y712D01*
X505Y712D02*
X515Y712D01*
X546Y712D02*
X556Y712D01*
X204Y711D02*
X214Y711D01*
X245Y711D02*
X255Y711D01*
X304Y711D02*
X314Y711D01*
X345Y711D02*
X355Y711D01*
X405Y711D02*
X415Y711D01*
X446Y711D02*
X456Y711D01*
X505Y711D02*
X515Y711D01*
X546Y711D02*
X556Y711D01*
X204Y710D02*
X214Y710D01*
X244Y710D02*
X255Y710D01*
X304Y710D02*
X314Y710D01*
X344Y710D02*
X355Y710D01*
X405Y710D02*
X415Y710D01*
X446Y710D02*
X456Y710D01*
X505Y710D02*
X515Y710D01*
X546Y710D02*
X556Y710D01*
X204Y709D02*
X215Y709D01*
X244Y709D02*
X255Y709D01*
X304Y709D02*
X315Y709D01*
X344Y709D02*
X355Y709D01*
X405Y709D02*
X416Y709D01*
X445Y709D02*
X456Y709D01*
X505Y709D02*
X516Y709D01*
X545Y709D02*
X556Y709D01*
X204Y708D02*
X215Y708D01*
X243Y708D02*
X255Y708D01*
X304Y708D02*
X315Y708D01*
X343Y708D02*
X355Y708D01*
X405Y708D02*
X416Y708D01*
X444Y708D02*
X456Y708D01*
X505Y708D02*
X516Y708D01*
X544Y708D02*
X556Y708D01*
X204Y707D02*
X216Y707D01*
X242Y707D02*
X255Y707D01*
X304Y707D02*
X316Y707D01*
X342Y707D02*
X355Y707D01*
X405Y707D02*
X417Y707D01*
X444Y707D02*
X456Y707D01*
X505Y707D02*
X517Y707D01*
X544Y707D02*
X556Y707D01*
X204Y706D02*
X217Y706D01*
X242Y706D02*
X255Y706D01*
X304Y706D02*
X317Y706D01*
X342Y706D02*
X355Y706D01*
X405Y706D02*
X418Y706D01*
X443Y706D02*
X456Y706D01*
X505Y706D02*
X518Y706D01*
X543Y706D02*
X556Y706D01*
X204Y705D02*
X218Y705D01*
X241Y705D02*
X255Y705D01*
X304Y705D02*
X318Y705D01*
X341Y705D02*
X355Y705D01*
X405Y705D02*
X419Y705D01*
X442Y705D02*
X456Y705D01*
X505Y705D02*
X519Y705D01*
X542Y705D02*
X556Y705D01*
X204Y704D02*
X219Y704D01*
X239Y704D02*
X255Y704D01*
X304Y704D02*
X319Y704D01*
X339Y704D02*
X355Y704D01*
X405Y704D02*
X420Y704D01*
X441Y704D02*
X456Y704D01*
X505Y704D02*
X520Y704D01*
X541Y704D02*
X556Y704D01*
X204Y703D02*
X220Y703D01*
X238Y703D02*
X255Y703D01*
X304Y703D02*
X320Y703D01*
X338Y703D02*
X355Y703D01*
X405Y703D02*
X421Y703D01*
X439Y703D02*
X456Y703D01*
X505Y703D02*
X521Y703D01*
X539Y703D02*
X556Y703D01*
X204Y702D02*
X222Y702D01*
X236Y702D02*
X255Y702D01*
X304Y702D02*
X322Y702D01*
X336Y702D02*
X355Y702D01*
X405Y702D02*
X423Y702D01*
X438Y702D02*
X456Y702D01*
X505Y702D02*
X523Y702D01*
X538Y702D02*
X556Y702D01*
X204Y701D02*
X225Y701D01*
X233Y701D02*
X255Y701D01*
X304Y701D02*
X325Y701D01*
X333Y701D02*
X355Y701D01*
X405Y701D02*
X426Y701D01*
X435Y701D02*
X456Y701D01*
X505Y701D02*
X526Y701D01*
X535Y701D02*
X556Y701D01*
X204Y700D02*
X255Y700D01*
X304Y700D02*
X355Y700D01*
X405Y700D02*
X456Y700D01*
X505Y700D02*
X556Y700D01*
X204Y699D02*
X255Y699D01*
X304Y699D02*
X355Y699D01*
X405Y699D02*
X456Y699D01*
X505Y699D02*
X556Y699D01*
X204Y698D02*
X255Y698D01*
X304Y698D02*
X355Y698D01*
X405Y698D02*
X456Y698D01*
X505Y698D02*
X556Y698D01*
X204Y697D02*
X255Y697D01*
X304Y697D02*
X355Y697D01*
X405Y697D02*
X456Y697D01*
X505Y697D02*
X556Y697D01*
X204Y696D02*
X255Y696D01*
X304Y696D02*
X355Y696D01*
X405Y696D02*
X456Y696D01*
X505Y696D02*
X556Y696D01*
X204Y695D02*
X255Y695D01*
X304Y695D02*
X355Y695D01*
X405Y695D02*
X456Y695D01*
X505Y695D02*
X556Y695D01*
X204Y694D02*
X255Y694D01*
X304Y694D02*
X355Y694D01*
X405Y694D02*
X456Y694D01*
X505Y694D02*
X556Y694D01*
X204Y693D02*
X255Y693D01*
X304Y693D02*
X355Y693D01*
X405Y693D02*
X456Y693D01*
X505Y693D02*
X556Y693D01*
X204Y692D02*
X255Y692D01*
X304Y692D02*
X355Y692D01*
X405Y692D02*
X456Y692D01*
X505Y692D02*
X556Y692D01*
X204Y691D02*
X255Y691D01*
X304Y691D02*
X355Y691D01*
X405Y691D02*
X456Y691D01*
X505Y691D02*
X556Y691D01*
X204Y690D02*
X255Y690D01*
X304Y690D02*
X355Y690D01*
X405Y690D02*
X456Y690D01*
X505Y690D02*
X556Y690D01*
X204Y689D02*
X255Y689D01*
X304Y689D02*
X355Y689D01*
X405Y689D02*
X456Y689D01*
X505Y689D02*
X556Y689D01*
X204Y688D02*
X255Y688D01*
X304Y688D02*
X355Y688D01*
X405Y688D02*
X456Y688D01*
X505Y688D02*
X556Y688D01*
X204Y687D02*
X254Y687D01*
X304Y687D02*
X354Y687D01*
X405Y687D02*
X456Y687D01*
X505Y687D02*
X556Y687D01*
X204Y686D02*
X254Y686D01*
X304Y686D02*
X354Y686D01*
X405Y686D02*
X456Y686D01*
X505Y686D02*
X556Y686D01*
X204Y685D02*
X254Y685D01*
X304Y685D02*
X354Y685D01*
X406Y685D02*
X455Y685D01*
X506Y685D02*
X555Y685D01*
X204Y684D02*
X254Y684D01*
X304Y684D02*
X354Y684D01*
X406Y684D02*
X455Y684D01*
X506Y684D02*
X555Y684D01*
X205Y683D02*
X254Y683D01*
X305Y683D02*
X354Y683D01*
X406Y683D02*
X455Y683D01*
X506Y683D02*
X555Y683D01*
X205Y682D02*
X253Y682D01*
X305Y682D02*
X353Y682D01*
X406Y682D02*
X454Y682D01*
X506Y682D02*
X554Y682D01*
X205Y681D02*
X253Y681D01*
X305Y681D02*
X353Y681D01*
X407Y681D02*
X454Y681D01*
X507Y681D02*
X554Y681D01*
X206Y680D02*
X252Y680D01*
X306Y680D02*
X352Y680D01*
X407Y680D02*
X454Y680D01*
X507Y680D02*
X554Y680D01*
X206Y679D02*
X252Y679D01*
X306Y679D02*
X352Y679D01*
X408Y679D02*
X453Y679D01*
X508Y679D02*
X553Y679D01*
X207Y678D02*
X251Y678D01*
X307Y678D02*
X351Y678D01*
X408Y678D02*
X453Y678D01*
X508Y678D02*
X553Y678D01*
X208Y677D02*
X251Y677D01*
X308Y677D02*
X351Y677D01*
X409Y677D02*
X452Y677D01*
X509Y677D02*
X552Y677D01*
X208Y676D02*
X250Y676D01*
X308Y676D02*
X350Y676D01*
X409Y676D02*
X451Y676D01*
X509Y676D02*
X551Y676D01*
X209Y675D02*
X249Y675D01*
X309Y675D02*
X349Y675D01*
X410Y675D02*
X451Y675D01*
X510Y675D02*
X551Y675D01*
X210Y674D02*
X249Y674D01*
X310Y674D02*
X349Y674D01*
X411Y674D02*
X450Y674D01*
X511Y674D02*
X550Y674D01*
X211Y673D02*
X248Y673D01*
X311Y673D02*
X348Y673D01*
X412Y673D02*
X449Y673D01*
X512Y673D02*
X549Y673D01*
X211Y672D02*
X247Y672D01*
X311Y672D02*
X347Y672D01*
X413Y672D02*
X448Y672D01*
X513Y672D02*
X548Y672D01*
X213Y671D02*
X246Y671D01*
X313Y671D02*
X346Y671D01*
X414Y671D02*
X447Y671D01*
X514Y671D02*
X547Y671D01*
X214Y670D02*
X244Y670D01*
X314Y670D02*
X344Y670D01*
X415Y670D02*
X446Y670D01*
X515Y670D02*
X546Y670D01*
X215Y669D02*
X243Y669D01*
X315Y669D02*
X343Y669D01*
X416Y669D02*
X444Y669D01*
X516Y669D02*
X544Y669D01*
X217Y668D02*
X241Y668D01*
X317Y668D02*
X341Y668D01*
X418Y668D02*
X443Y668D01*
X518Y668D02*
X543Y668D01*
X219Y667D02*
X240Y667D01*
X319Y667D02*
X340Y667D01*
X420Y667D02*
X441Y667D01*
X520Y667D02*
X541Y667D01*
X221Y666D02*
X237Y666D01*
X321Y666D02*
X337Y666D01*
X422Y666D02*
X438Y666D01*
X522Y666D02*
X538Y666D01*
X225Y665D02*
X233Y665D01*
X325Y665D02*
X333Y665D01*
X426Y665D02*
X435Y665D01*
X526Y665D02*
X535Y665D01*
X224Y468D02*
X234Y468D01*
X324Y468D02*
X334Y468D01*
X426Y468D02*
X435Y468D01*
X526Y468D02*
X535Y468D01*
X221Y467D02*
X237Y467D01*
X321Y467D02*
X337Y467D01*
X422Y467D02*
X439Y467D01*
X522Y467D02*
X539Y467D01*
X219Y466D02*
X240Y466D01*
X319Y466D02*
X340Y466D01*
X420Y466D02*
X441Y466D01*
X520Y466D02*
X541Y466D01*
X217Y465D02*
X242Y465D01*
X317Y465D02*
X342Y465D01*
X418Y465D02*
X443Y465D01*
X518Y465D02*
X543Y465D01*
X215Y464D02*
X243Y464D01*
X315Y464D02*
X343Y464D01*
X416Y464D02*
X445Y464D01*
X516Y464D02*
X545Y464D01*
X214Y463D02*
X245Y463D01*
X314Y463D02*
X345Y463D01*
X415Y463D02*
X446Y463D01*
X515Y463D02*
X546Y463D01*
X213Y462D02*
X246Y462D01*
X312Y462D02*
X346Y462D01*
X414Y462D02*
X447Y462D01*
X514Y462D02*
X547Y462D01*
X211Y461D02*
X247Y461D01*
X311Y461D02*
X347Y461D01*
X413Y461D02*
X448Y461D01*
X513Y461D02*
X548Y461D01*
X210Y460D02*
X248Y460D01*
X310Y460D02*
X348Y460D01*
X412Y460D02*
X449Y460D01*
X512Y460D02*
X549Y460D01*
X210Y459D02*
X249Y459D01*
X310Y459D02*
X349Y459D01*
X411Y459D02*
X450Y459D01*
X511Y459D02*
X550Y459D01*
X209Y458D02*
X249Y458D01*
X309Y458D02*
X349Y458D01*
X410Y458D02*
X451Y458D01*
X510Y458D02*
X551Y458D01*
X208Y457D02*
X250Y457D01*
X308Y457D02*
X350Y457D01*
X409Y457D02*
X452Y457D01*
X509Y457D02*
X552Y457D01*
X207Y456D02*
X251Y456D01*
X307Y456D02*
X351Y456D01*
X409Y456D02*
X452Y456D01*
X509Y456D02*
X552Y456D01*
X207Y455D02*
X251Y455D01*
X307Y455D02*
X351Y455D01*
X408Y455D02*
X453Y455D01*
X508Y455D02*
X553Y455D01*
X206Y454D02*
X252Y454D01*
X306Y454D02*
X352Y454D01*
X408Y454D02*
X453Y454D01*
X508Y454D02*
X553Y454D01*
X206Y453D02*
X252Y453D01*
X306Y453D02*
X352Y453D01*
X407Y453D02*
X454Y453D01*
X507Y453D02*
X554Y453D01*
X205Y452D02*
X253Y452D01*
X305Y452D02*
X353Y452D01*
X407Y452D02*
X454Y452D01*
X507Y452D02*
X554Y452D01*
X205Y451D02*
X253Y451D01*
X305Y451D02*
X353Y451D01*
X406Y451D02*
X455Y451D01*
X506Y451D02*
X555Y451D01*
X205Y450D02*
X254Y450D01*
X305Y450D02*
X354Y450D01*
X406Y450D02*
X455Y450D01*
X506Y450D02*
X555Y450D01*
X204Y449D02*
X254Y449D01*
X304Y449D02*
X354Y449D01*
X406Y449D02*
X455Y449D01*
X506Y449D02*
X555Y449D01*
X204Y448D02*
X254Y448D01*
X304Y448D02*
X354Y448D01*
X406Y448D02*
X455Y448D01*
X506Y448D02*
X555Y448D01*
X204Y447D02*
X254Y447D01*
X304Y447D02*
X354Y447D01*
X405Y447D02*
X456Y447D01*
X505Y447D02*
X556Y447D01*
X204Y446D02*
X254Y446D01*
X304Y446D02*
X354Y446D01*
X405Y446D02*
X456Y446D01*
X505Y446D02*
X556Y446D01*
X204Y445D02*
X255Y445D01*
X304Y445D02*
X355Y445D01*
X405Y445D02*
X456Y445D01*
X505Y445D02*
X556Y445D01*
X204Y444D02*
X255Y444D01*
X304Y444D02*
X355Y444D01*
X405Y444D02*
X456Y444D01*
X505Y444D02*
X556Y444D01*
X204Y443D02*
X255Y443D01*
X304Y443D02*
X355Y443D01*
X405Y443D02*
X456Y443D01*
X505Y443D02*
X556Y443D01*
X204Y442D02*
X255Y442D01*
X304Y442D02*
X355Y442D01*
X405Y442D02*
X456Y442D01*
X505Y442D02*
X556Y442D01*
X204Y441D02*
X255Y441D01*
X304Y441D02*
X355Y441D01*
X405Y441D02*
X456Y441D01*
X505Y441D02*
X556Y441D01*
X204Y440D02*
X255Y440D01*
X304Y440D02*
X355Y440D01*
X405Y440D02*
X456Y440D01*
X505Y440D02*
X556Y440D01*
X204Y439D02*
X255Y439D01*
X304Y439D02*
X355Y439D01*
X405Y439D02*
X456Y439D01*
X505Y439D02*
X556Y439D01*
X204Y438D02*
X255Y438D01*
X304Y438D02*
X355Y438D01*
X405Y438D02*
X456Y438D01*
X505Y438D02*
X556Y438D01*
X204Y437D02*
X255Y437D01*
X304Y437D02*
X355Y437D01*
X405Y437D02*
X456Y437D01*
X505Y437D02*
X556Y437D01*
X204Y436D02*
X255Y436D01*
X304Y436D02*
X355Y436D01*
X405Y436D02*
X456Y436D01*
X505Y436D02*
X556Y436D01*
X204Y435D02*
X255Y435D01*
X304Y435D02*
X355Y435D01*
X405Y435D02*
X456Y435D01*
X505Y435D02*
X556Y435D01*
X204Y434D02*
X255Y434D01*
X304Y434D02*
X355Y434D01*
X405Y434D02*
X456Y434D01*
X505Y434D02*
X556Y434D01*
X204Y433D02*
X255Y433D01*
X304Y433D02*
X355Y433D01*
X405Y433D02*
X456Y433D01*
X505Y433D02*
X556Y433D01*
X204Y432D02*
X225Y432D01*
X234Y432D02*
X255Y432D01*
X304Y432D02*
X325Y432D01*
X334Y432D02*
X355Y432D01*
X405Y432D02*
X426Y432D01*
X435Y432D02*
X456Y432D01*
X505Y432D02*
X526Y432D01*
X535Y432D02*
X556Y432D01*
X204Y431D02*
X222Y431D01*
X236Y431D02*
X255Y431D01*
X304Y431D02*
X322Y431D01*
X336Y431D02*
X355Y431D01*
X405Y431D02*
X423Y431D01*
X438Y431D02*
X456Y431D01*
X505Y431D02*
X523Y431D01*
X538Y431D02*
X556Y431D01*
X204Y430D02*
X220Y430D01*
X238Y430D02*
X255Y430D01*
X304Y430D02*
X320Y430D01*
X338Y430D02*
X355Y430D01*
X405Y430D02*
X421Y430D01*
X440Y430D02*
X456Y430D01*
X505Y430D02*
X521Y430D01*
X540Y430D02*
X556Y430D01*
X204Y429D02*
X219Y429D01*
X240Y429D02*
X255Y429D01*
X304Y429D02*
X319Y429D01*
X340Y429D02*
X355Y429D01*
X405Y429D02*
X420Y429D01*
X441Y429D02*
X456Y429D01*
X505Y429D02*
X520Y429D01*
X541Y429D02*
X556Y429D01*
X204Y428D02*
X217Y428D01*
X241Y428D02*
X255Y428D01*
X304Y428D02*
X317Y428D01*
X341Y428D02*
X355Y428D01*
X405Y428D02*
X419Y428D01*
X442Y428D02*
X456Y428D01*
X505Y428D02*
X519Y428D01*
X542Y428D02*
X556Y428D01*
X204Y427D02*
X217Y427D01*
X242Y427D02*
X255Y427D01*
X304Y427D02*
X317Y427D01*
X342Y427D02*
X355Y427D01*
X405Y427D02*
X418Y427D01*
X443Y427D02*
X456Y427D01*
X505Y427D02*
X518Y427D01*
X543Y427D02*
X556Y427D01*
X204Y426D02*
X216Y426D01*
X243Y426D02*
X255Y426D01*
X304Y426D02*
X316Y426D01*
X343Y426D02*
X355Y426D01*
X405Y426D02*
X417Y426D01*
X444Y426D02*
X456Y426D01*
X505Y426D02*
X517Y426D01*
X544Y426D02*
X556Y426D01*
X204Y425D02*
X215Y425D01*
X243Y425D02*
X255Y425D01*
X304Y425D02*
X315Y425D01*
X343Y425D02*
X355Y425D01*
X405Y425D02*
X416Y425D01*
X444Y425D02*
X456Y425D01*
X505Y425D02*
X516Y425D01*
X544Y425D02*
X556Y425D01*
X204Y424D02*
X215Y424D01*
X244Y424D02*
X255Y424D01*
X304Y424D02*
X315Y424D01*
X344Y424D02*
X355Y424D01*
X405Y424D02*
X416Y424D01*
X445Y424D02*
X456Y424D01*
X505Y424D02*
X516Y424D01*
X545Y424D02*
X556Y424D01*
X204Y423D02*
X214Y423D01*
X244Y423D02*
X255Y423D01*
X304Y423D02*
X314Y423D01*
X344Y423D02*
X355Y423D01*
X405Y423D02*
X415Y423D01*
X446Y423D02*
X456Y423D01*
X505Y423D02*
X515Y423D01*
X546Y423D02*
X556Y423D01*
X204Y422D02*
X214Y422D01*
X245Y422D02*
X255Y422D01*
X304Y422D02*
X314Y422D01*
X345Y422D02*
X355Y422D01*
X405Y422D02*
X415Y422D01*
X446Y422D02*
X456Y422D01*
X505Y422D02*
X515Y422D01*
X546Y422D02*
X556Y422D01*
X204Y421D02*
X213Y421D01*
X245Y421D02*
X255Y421D01*
X304Y421D02*
X313Y421D01*
X345Y421D02*
X355Y421D01*
X405Y421D02*
X415Y421D01*
X446Y421D02*
X456Y421D01*
X505Y421D02*
X515Y421D01*
X546Y421D02*
X556Y421D01*
X204Y420D02*
X213Y420D01*
X245Y420D02*
X255Y420D01*
X304Y420D02*
X313Y420D01*
X345Y420D02*
X355Y420D01*
X405Y420D02*
X414Y420D01*
X447Y420D02*
X456Y420D01*
X505Y420D02*
X514Y420D01*
X547Y420D02*
X556Y420D01*
X204Y419D02*
X213Y419D01*
X245Y419D02*
X255Y419D01*
X304Y419D02*
X313Y419D01*
X345Y419D02*
X355Y419D01*
X405Y419D02*
X414Y419D01*
X447Y419D02*
X456Y419D01*
X505Y419D02*
X514Y419D01*
X547Y419D02*
X556Y419D01*
X204Y418D02*
X213Y418D01*
X245Y418D02*
X255Y418D01*
X304Y418D02*
X313Y418D01*
X345Y418D02*
X355Y418D01*
X405Y418D02*
X414Y418D01*
X447Y418D02*
X456Y418D01*
X505Y418D02*
X514Y418D01*
X547Y418D02*
X556Y418D01*
X204Y417D02*
X213Y417D01*
X246Y417D02*
X255Y417D01*
X304Y417D02*
X313Y417D01*
X346Y417D02*
X355Y417D01*
X405Y417D02*
X414Y417D01*
X447Y417D02*
X456Y417D01*
X505Y417D02*
X514Y417D01*
X547Y417D02*
X556Y417D01*
X204Y416D02*
X213Y416D01*
X246Y416D02*
X255Y416D01*
X304Y416D02*
X313Y416D01*
X346Y416D02*
X355Y416D01*
X405Y416D02*
X414Y416D01*
X447Y416D02*
X456Y416D01*
X505Y416D02*
X514Y416D01*
X547Y416D02*
X556Y416D01*
X204Y415D02*
X213Y415D01*
X245Y415D02*
X255Y415D01*
X304Y415D02*
X313Y415D01*
X345Y415D02*
X355Y415D01*
X405Y415D02*
X414Y415D01*
X447Y415D02*
X456Y415D01*
X505Y415D02*
X514Y415D01*
X547Y415D02*
X556Y415D01*
X204Y414D02*
X213Y414D01*
X245Y414D02*
X255Y414D01*
X304Y414D02*
X313Y414D01*
X345Y414D02*
X355Y414D01*
X405Y414D02*
X414Y414D01*
X447Y414D02*
X456Y414D01*
X505Y414D02*
X514Y414D01*
X547Y414D02*
X556Y414D01*
X204Y413D02*
X213Y413D01*
X245Y413D02*
X255Y413D01*
X304Y413D02*
X313Y413D01*
X345Y413D02*
X355Y413D01*
X405Y413D02*
X414Y413D01*
X446Y413D02*
X456Y413D01*
X505Y413D02*
X514Y413D01*
X546Y413D02*
X556Y413D01*
X204Y412D02*
X213Y412D01*
X245Y412D02*
X255Y412D01*
X304Y412D02*
X313Y412D01*
X345Y412D02*
X355Y412D01*
X405Y412D02*
X415Y412D01*
X446Y412D02*
X456Y412D01*
X505Y412D02*
X515Y412D01*
X546Y412D02*
X556Y412D01*
X204Y411D02*
X214Y411D01*
X245Y411D02*
X255Y411D01*
X304Y411D02*
X314Y411D01*
X345Y411D02*
X355Y411D01*
X405Y411D02*
X415Y411D01*
X446Y411D02*
X456Y411D01*
X505Y411D02*
X515Y411D01*
X546Y411D02*
X556Y411D01*
X204Y410D02*
X214Y410D01*
X244Y410D02*
X255Y410D01*
X304Y410D02*
X314Y410D01*
X344Y410D02*
X355Y410D01*
X405Y410D02*
X415Y410D01*
X445Y410D02*
X456Y410D01*
X505Y410D02*
X515Y410D01*
X545Y410D02*
X556Y410D01*
X204Y409D02*
X215Y409D01*
X244Y409D02*
X255Y409D01*
X304Y409D02*
X315Y409D01*
X344Y409D02*
X355Y409D01*
X405Y409D02*
X416Y409D01*
X445Y409D02*
X456Y409D01*
X505Y409D02*
X516Y409D01*
X545Y409D02*
X556Y409D01*
X204Y408D02*
X215Y408D01*
X243Y408D02*
X255Y408D01*
X304Y408D02*
X315Y408D01*
X343Y408D02*
X355Y408D01*
X405Y408D02*
X416Y408D01*
X444Y408D02*
X456Y408D01*
X505Y408D02*
X516Y408D01*
X544Y408D02*
X556Y408D01*
X204Y407D02*
X216Y407D01*
X242Y407D02*
X255Y407D01*
X304Y407D02*
X316Y407D01*
X342Y407D02*
X355Y407D01*
X405Y407D02*
X417Y407D01*
X444Y407D02*
X456Y407D01*
X505Y407D02*
X517Y407D01*
X544Y407D02*
X556Y407D01*
X204Y406D02*
X217Y406D01*
X242Y406D02*
X255Y406D01*
X304Y406D02*
X317Y406D01*
X342Y406D02*
X355Y406D01*
X405Y406D02*
X418Y406D01*
X443Y406D02*
X456Y406D01*
X505Y406D02*
X518Y406D01*
X543Y406D02*
X556Y406D01*
X204Y405D02*
X218Y405D01*
X241Y405D02*
X255Y405D01*
X304Y405D02*
X318Y405D01*
X341Y405D02*
X355Y405D01*
X405Y405D02*
X419Y405D01*
X442Y405D02*
X456Y405D01*
X505Y405D02*
X519Y405D01*
X542Y405D02*
X556Y405D01*
X204Y404D02*
X219Y404D01*
X239Y404D02*
X255Y404D01*
X304Y404D02*
X319Y404D01*
X339Y404D02*
X355Y404D01*
X405Y404D02*
X420Y404D01*
X441Y404D02*
X456Y404D01*
X505Y404D02*
X520Y404D01*
X541Y404D02*
X556Y404D01*
X204Y403D02*
X220Y403D01*
X238Y403D02*
X255Y403D01*
X304Y403D02*
X320Y403D01*
X338Y403D02*
X355Y403D01*
X405Y403D02*
X422Y403D01*
X439Y403D02*
X456Y403D01*
X505Y403D02*
X522Y403D01*
X539Y403D02*
X556Y403D01*
X204Y402D02*
X222Y402D01*
X236Y402D02*
X255Y402D01*
X304Y402D02*
X322Y402D01*
X336Y402D02*
X355Y402D01*
X405Y402D02*
X423Y402D01*
X437Y402D02*
X456Y402D01*
X505Y402D02*
X523Y402D01*
X537Y402D02*
X556Y402D01*
X204Y401D02*
X225Y401D01*
X233Y401D02*
X255Y401D01*
X304Y401D02*
X325Y401D01*
X333Y401D02*
X355Y401D01*
X405Y401D02*
X427Y401D01*
X434Y401D02*
X456Y401D01*
X505Y401D02*
X526Y401D01*
X534Y401D02*
X556Y401D01*
X204Y400D02*
X255Y400D01*
X304Y400D02*
X355Y400D01*
X405Y400D02*
X456Y400D01*
X505Y400D02*
X556Y400D01*
X204Y399D02*
X255Y399D01*
X304Y399D02*
X355Y399D01*
X405Y399D02*
X456Y399D01*
X505Y399D02*
X556Y399D01*
X204Y398D02*
X255Y398D01*
X304Y398D02*
X355Y398D01*
X405Y398D02*
X456Y398D01*
X505Y398D02*
X556Y398D01*
X204Y397D02*
X255Y397D01*
X304Y397D02*
X355Y397D01*
X405Y397D02*
X456Y397D01*
X505Y397D02*
X556Y397D01*
X204Y396D02*
X255Y396D01*
X304Y396D02*
X355Y396D01*
X405Y396D02*
X456Y396D01*
X505Y396D02*
X556Y396D01*
X204Y395D02*
X255Y395D01*
X304Y395D02*
X355Y395D01*
X405Y395D02*
X456Y395D01*
X505Y395D02*
X556Y395D01*
X204Y394D02*
X255Y394D01*
X304Y394D02*
X355Y394D01*
X405Y394D02*
X456Y394D01*
X505Y394D02*
X556Y394D01*
X204Y393D02*
X255Y393D01*
X304Y393D02*
X355Y393D01*
X405Y393D02*
X456Y393D01*
X505Y393D02*
X556Y393D01*
X204Y392D02*
X255Y392D01*
X304Y392D02*
X355Y392D01*
X405Y392D02*
X456Y392D01*
X505Y392D02*
X556Y392D01*
X204Y391D02*
X255Y391D01*
X304Y391D02*
X355Y391D01*
X405Y391D02*
X456Y391D01*
X505Y391D02*
X556Y391D01*
X204Y390D02*
X255Y390D01*
X304Y390D02*
X355Y390D01*
X405Y390D02*
X456Y390D01*
X505Y390D02*
X556Y390D01*
X204Y389D02*
X255Y389D01*
X304Y389D02*
X355Y389D01*
X405Y389D02*
X456Y389D01*
X505Y389D02*
X556Y389D01*
X204Y388D02*
X255Y388D01*
X304Y388D02*
X354Y388D01*
X405Y388D02*
X456Y388D01*
X505Y388D02*
X556Y388D01*
X204Y387D02*
X254Y387D01*
X304Y387D02*
X354Y387D01*
X405Y387D02*
X456Y387D01*
X505Y387D02*
X556Y387D01*
X204Y386D02*
X254Y386D01*
X304Y386D02*
X354Y386D01*
X405Y386D02*
X456Y386D01*
X505Y386D02*
X556Y386D01*
X204Y385D02*
X254Y385D01*
X304Y385D02*
X354Y385D01*
X406Y385D02*
X455Y385D01*
X506Y385D02*
X555Y385D01*
X205Y384D02*
X254Y384D01*
X305Y384D02*
X354Y384D01*
X406Y384D02*
X455Y384D01*
X506Y384D02*
X555Y384D01*
X205Y383D02*
X254Y383D01*
X305Y383D02*
X354Y383D01*
X406Y383D02*
X455Y383D01*
X506Y383D02*
X555Y383D01*
X205Y382D02*
X253Y382D01*
X305Y382D02*
X353Y382D01*
X406Y382D02*
X454Y382D01*
X506Y382D02*
X554Y382D01*
X205Y381D02*
X253Y381D01*
X305Y381D02*
X353Y381D01*
X407Y381D02*
X454Y381D01*
X507Y381D02*
X554Y381D01*
X206Y380D02*
X252Y380D01*
X306Y380D02*
X352Y380D01*
X407Y380D02*
X454Y380D01*
X507Y380D02*
X554Y380D01*
X206Y379D02*
X252Y379D01*
X306Y379D02*
X352Y379D01*
X408Y379D02*
X453Y379D01*
X508Y379D02*
X553Y379D01*
X207Y378D02*
X251Y378D01*
X307Y378D02*
X351Y378D01*
X408Y378D02*
X453Y378D01*
X508Y378D02*
X553Y378D01*
X208Y377D02*
X251Y377D01*
X308Y377D02*
X351Y377D01*
X409Y377D02*
X452Y377D01*
X509Y377D02*
X552Y377D01*
X208Y376D02*
X250Y376D01*
X308Y376D02*
X350Y376D01*
X409Y376D02*
X451Y376D01*
X509Y376D02*
X551Y376D01*
X209Y375D02*
X249Y375D01*
X309Y375D02*
X349Y375D01*
X410Y375D02*
X451Y375D01*
X510Y375D02*
X551Y375D01*
X210Y374D02*
X249Y374D01*
X310Y374D02*
X348Y374D01*
X411Y374D02*
X450Y374D01*
X511Y374D02*
X550Y374D01*
X211Y373D02*
X248Y373D01*
X311Y373D02*
X348Y373D01*
X412Y373D02*
X449Y373D01*
X512Y373D02*
X549Y373D01*
X212Y372D02*
X247Y372D01*
X312Y372D02*
X347Y372D01*
X413Y372D02*
X448Y372D01*
X513Y372D02*
X548Y372D01*
X213Y371D02*
X246Y371D01*
X313Y371D02*
X346Y371D01*
X414Y371D02*
X447Y371D01*
X514Y371D02*
X547Y371D01*
X214Y370D02*
X244Y370D01*
X314Y370D02*
X344Y370D01*
X415Y370D02*
X446Y370D01*
X515Y370D02*
X546Y370D01*
X215Y369D02*
X243Y369D01*
X315Y369D02*
X343Y369D01*
X417Y369D02*
X444Y369D01*
X517Y369D02*
X544Y369D01*
X217Y368D02*
X241Y368D01*
X317Y368D02*
X341Y368D01*
X418Y368D02*
X443Y368D01*
X518Y368D02*
X543Y368D01*
X219Y367D02*
X239Y367D01*
X319Y367D02*
X339Y367D01*
X420Y367D02*
X441Y367D01*
X520Y367D02*
X541Y367D01*
X221Y366D02*
X237Y366D01*
X321Y366D02*
X337Y366D01*
X423Y366D02*
X438Y366D01*
X523Y366D02*
X538Y366D01*
X225Y365D02*
X233Y365D01*
X325Y365D02*
X333Y365D01*
X427Y365D02*
X434Y365D01*
X527Y365D02*
X534Y365D01*
D02*
G04 End of Copper0*
M02*