; NON-PLATED HOLES START AT T1
; THROUGH (PLATED) HOLES START AT T100
M48
INCH
T1C0.204724
T2C0.118110
T3C0.157480
T100C0.129921
T101C0.038000
T102C0.043307
T103C0.036000
T104C0.035000
T105C0.216535
T106C0.032000
%
T1
X017723Y016343
T2
X013005Y012619
X021273Y022439
X021273Y002763
T3
X033428Y001986
X001979Y030726
X001979Y001986
X033428Y030726
T100
X021262Y022437
X021262Y002752
X012994Y012594
T101
X026885Y023954
X007906Y028954
X025515Y019190
X026885Y028954
X007906Y025954
X009392Y006165
X005507Y019309
X026885Y025954
X004507Y019309
X009563Y019698
X025591Y007712
X005491Y012447
X007906Y027954
X025515Y018190
X026885Y027954
X007906Y024954
X026885Y024954
X009563Y018698
X006507Y019309
X025591Y006712
X003507Y019309
X007906Y026954
X006491Y012447
X009392Y007165
X026885Y026954
X007906Y023954
X004491Y012447
T102
X022216Y004909
X013220Y020200
X022216Y020200
X013220Y004988
X013220Y008019
X013220Y017169
X022216Y008019
X022216Y017169
T103
X033719Y017267
X027719Y015267
X033719Y009267
X027719Y007267
X033719Y010267
X033719Y015267
X027719Y013267
X033719Y007267
X027719Y018267
X029722Y020223
X033719Y013267
X031724Y021223
X027719Y011267
X033719Y018267
X030722Y020223
X027719Y016267
X027719Y008267
X033719Y011267
X033719Y016267
X027719Y014267
X033719Y008267
X027719Y006267
X027719Y019267
X029722Y021223
X027719Y020267
X033719Y014267
X027719Y012267
X033719Y006267
X033719Y019267
X030722Y021223
X027719Y017267
X027719Y009267
X033719Y020267
X033719Y012267
X031724Y020223
X027719Y010267
T104
X004402Y016102
X004444Y010720
X005900Y027962
X003900Y027962
X006402Y016102
X007444Y010720
T105
X017718Y016334
T106
X005309Y004151
X002296Y007151
X004309Y007151
X003296Y007151
X005309Y007151
X002296Y004151
X004309Y004151
X003296Y004151
T00
M30
