G04 MADE WITH FRITZING*
G04 WWW.FRITZING.ORG*
G04 DOUBLE SIDED*
G04 HOLES PLATED*
G04 CONTOUR ON CENTER OF CONTOUR VECTOR*
%ASAXBY*%
%FSLAX23Y23*%
%MOIN*%
%OFA0B0*%
%SFA1.0B1.0*%
%ADD10C,0.255905*%
%ADD11C,0.145669*%
%ADD12R,0.074803X0.062992*%
%ADD13R,0.062992X0.074803*%
%LNPASTEMASK0*%
G90*
G70*
G54D10*
X1965Y1971D03*
G54D11*
X2319Y2582D03*
X1492Y1597D03*
X2319Y613D03*
G54D12*
X1973Y3879D03*
X1973Y3757D03*
G54D13*
X75Y1961D03*
X197Y1961D03*
G54D12*
X1969Y77D03*
X1969Y199D03*
G54D13*
X3859Y1967D03*
X3737Y1967D03*
G36*
X292Y2897D02*
X330Y2962D01*
X384Y2930D01*
X347Y2865D01*
X292Y2897D01*
G37*
D02*
G36*
X398Y2836D02*
X435Y2901D01*
X490Y2869D01*
X453Y2804D01*
X398Y2836D01*
G37*
D02*
G36*
X2933Y3665D02*
X2998Y3628D01*
X2967Y3573D01*
X2902Y3611D01*
X2933Y3665D01*
G37*
D02*
G36*
X2872Y3560D02*
X2937Y3522D01*
X2906Y3468D01*
X2841Y3505D01*
X2872Y3560D01*
G37*
D02*
G36*
X3592Y2960D02*
X3629Y2895D01*
X3575Y2864D01*
X3537Y2928D01*
X3592Y2960D01*
G37*
D02*
G36*
X3486Y2899D02*
X3523Y2834D01*
X3469Y2803D01*
X3432Y2867D01*
X3486Y2899D01*
G37*
D02*
G36*
X322Y955D02*
X285Y1019D01*
X339Y1051D01*
X377Y986D01*
X322Y955D01*
G37*
D02*
G36*
X428Y1016D02*
X390Y1080D01*
X445Y1112D01*
X482Y1047D01*
X428Y1016D01*
G37*
D02*
G36*
X1045Y253D02*
X980Y291D01*
X1012Y345D01*
X1076Y308D01*
X1045Y253D01*
G37*
D02*
G36*
X1106Y359D02*
X1041Y396D01*
X1073Y451D01*
X1137Y414D01*
X1106Y359D01*
G37*
D02*
G36*
X2988Y287D02*
X2923Y250D01*
X2892Y304D01*
X2956Y342D01*
X2988Y287D01*
G37*
D02*
G36*
X2927Y393D02*
X2862Y355D01*
X2831Y410D01*
X2895Y447D01*
X2927Y393D01*
G37*
D02*
G36*
X984Y3618D02*
X1049Y3655D01*
X1080Y3601D01*
X1016Y3563D01*
X984Y3618D01*
G37*
D02*
G36*
X1045Y3512D02*
X1110Y3550D01*
X1141Y3495D01*
X1077Y3458D01*
X1045Y3512D01*
G37*
D02*
G36*
X3689Y1015D02*
X3651Y950D01*
X3597Y981D01*
X3634Y1046D01*
X3689Y1015D01*
G37*
D02*
G36*
X3583Y1076D02*
X3546Y1011D01*
X3491Y1042D01*
X3528Y1107D01*
X3583Y1076D01*
G37*
D02*
G04 End of PasteMask0*
M02*