G04 MADE WITH FRITZING*
G04 WWW.FRITZING.ORG*
G04 DOUBLE SIDED*
G04 HOLES PLATED*
G04 CONTOUR ON CENTER OF CONTOUR VECTOR*
%ASAXBY*%
%FSLAX23Y23*%
%MOIN*%
%OFA0B0*%
%SFA1.0B1.0*%
%ADD10C,0.049370*%
%ADD11C,0.085000*%
%ADD12C,0.068189*%
%ADD13C,0.069055*%
%ADD14C,0.080000*%
%ADD15C,0.092677*%
%ADD16C,0.265905*%
%ADD17C,0.155669*%
%ADD18C,0.226535*%
%ADD19C,0.077559*%
%ADD20R,0.085000X0.085000*%
%ADD21R,0.080000X0.079972*%
%ADD22R,0.084803X0.072992*%
%ADD23R,0.077559X0.077559*%
%ADD24R,0.072992X0.084803*%
%ADD25C,0.010000*%
%ADD26R,0.001000X0.001000*%
%LNMASK0*%
G90*
G70*
G54D10*
X3682Y1888D03*
X3726Y1169D03*
G54D11*
X3780Y2892D03*
X3780Y2992D03*
G54D12*
X3147Y250D03*
X3247Y250D03*
X3347Y250D03*
X3447Y250D03*
X3447Y550D03*
X3347Y550D03*
X3247Y550D03*
X3147Y550D03*
G54D10*
X1654Y3660D03*
X1373Y3752D03*
G54D13*
X1851Y3739D03*
X1851Y3605D03*
X1851Y3739D03*
X1851Y3605D03*
X2087Y3739D03*
X2087Y3605D03*
X2087Y3739D03*
X2087Y3605D03*
G54D14*
X1273Y2914D03*
X1373Y2914D03*
X1473Y2914D03*
X1573Y2914D03*
X1673Y2914D03*
X1773Y2914D03*
X1873Y2914D03*
X1973Y2914D03*
X2073Y2914D03*
X2173Y2914D03*
X2273Y2914D03*
X2373Y2914D03*
X2473Y2914D03*
X2573Y2914D03*
X2673Y2914D03*
X1273Y3514D03*
X1373Y3514D03*
X1473Y3514D03*
X1573Y3514D03*
X1673Y3514D03*
X1773Y3514D03*
X1873Y3514D03*
X1973Y3514D03*
X2073Y3514D03*
X2173Y3514D03*
X2273Y3514D03*
X2373Y3514D03*
X2473Y3514D03*
X2573Y3514D03*
X2673Y3514D03*
G54D10*
X1772Y195D03*
X945Y510D03*
X355Y1179D03*
X394Y2754D03*
X512Y2754D03*
X276Y2046D03*
X1123Y2616D03*
X1182Y2676D03*
X1182Y3168D03*
X1123Y3109D03*
X2269Y3110D03*
X2675Y3169D03*
X2974Y1604D03*
X2370Y3008D03*
X3426Y2754D03*
X3544Y2754D03*
X3623Y1219D03*
X3426Y1337D03*
X3308Y2754D03*
X2796Y1927D03*
X1670Y3305D03*
X1969Y3365D03*
X1567Y3230D03*
X1871Y3424D03*
G54D15*
X2415Y2358D03*
X2415Y2055D03*
X1515Y2055D03*
X1515Y2358D03*
X1515Y829D03*
X1515Y1140D03*
X2415Y1140D03*
X2415Y837D03*
G54D16*
X1965Y1971D03*
G54D17*
X2319Y2582D03*
X1492Y1597D03*
X2319Y613D03*
G54D18*
X184Y181D03*
X3751Y3749D03*
X183Y3741D03*
X3776Y167D03*
G54D19*
X269Y3117D03*
X269Y3217D03*
X269Y3317D03*
X269Y3417D03*
X269Y3517D03*
X3569Y3117D03*
X3569Y3217D03*
X3569Y3317D03*
X3569Y3417D03*
X3569Y3517D03*
G54D10*
X1064Y2813D03*
X1064Y2557D03*
G54D20*
X3780Y2892D03*
G54D21*
X1273Y2914D03*
G54D22*
X1973Y3879D03*
X1973Y3757D03*
G54D23*
X269Y3117D03*
X3569Y3117D03*
G54D24*
X75Y1961D03*
X197Y1961D03*
G54D22*
X1969Y77D03*
X1969Y199D03*
G54D24*
X3859Y1967D03*
X3737Y1967D03*
G54D25*
G36*
X292Y2897D02*
X330Y2962D01*
X384Y2930D01*
X347Y2865D01*
X292Y2897D01*
G37*
D02*
G36*
X398Y2836D02*
X435Y2901D01*
X490Y2869D01*
X453Y2804D01*
X398Y2836D01*
G37*
D02*
G36*
X2933Y3665D02*
X2998Y3628D01*
X2967Y3573D01*
X2902Y3611D01*
X2933Y3665D01*
G37*
D02*
G36*
X2872Y3560D02*
X2937Y3522D01*
X2906Y3468D01*
X2841Y3505D01*
X2872Y3560D01*
G37*
D02*
G36*
X3592Y2960D02*
X3629Y2895D01*
X3575Y2864D01*
X3537Y2928D01*
X3592Y2960D01*
G37*
D02*
G36*
X3486Y2899D02*
X3523Y2834D01*
X3469Y2803D01*
X3432Y2867D01*
X3486Y2899D01*
G37*
D02*
G36*
X322Y955D02*
X285Y1019D01*
X339Y1051D01*
X377Y986D01*
X322Y955D01*
G37*
D02*
G36*
X428Y1016D02*
X390Y1080D01*
X445Y1112D01*
X482Y1047D01*
X428Y1016D01*
G37*
D02*
G36*
X1045Y253D02*
X980Y291D01*
X1012Y345D01*
X1076Y308D01*
X1045Y253D01*
G37*
D02*
G36*
X1106Y359D02*
X1041Y396D01*
X1073Y451D01*
X1137Y414D01*
X1106Y359D01*
G37*
D02*
G36*
X2988Y287D02*
X2923Y250D01*
X2892Y304D01*
X2956Y342D01*
X2988Y287D01*
G37*
D02*
G36*
X2927Y393D02*
X2862Y355D01*
X2831Y410D01*
X2895Y447D01*
X2927Y393D01*
G37*
D02*
G36*
X984Y3618D02*
X1049Y3655D01*
X1080Y3601D01*
X1016Y3563D01*
X984Y3618D01*
G37*
D02*
G36*
X1045Y3512D02*
X1110Y3550D01*
X1141Y3495D01*
X1077Y3458D01*
X1045Y3512D01*
G37*
D02*
G36*
X3689Y1015D02*
X3651Y950D01*
X3597Y981D01*
X3634Y1046D01*
X3689Y1015D01*
G37*
D02*
G36*
X3583Y1076D02*
X3546Y1011D01*
X3491Y1042D01*
X3528Y1107D01*
X3583Y1076D01*
G37*
D02*
G54D26*
X3143Y613D02*
X3150Y613D01*
X3243Y613D02*
X3250Y613D01*
X3343Y613D02*
X3350Y613D01*
X3443Y613D02*
X3450Y613D01*
X3138Y612D02*
X3155Y612D01*
X3238Y612D02*
X3255Y612D01*
X3338Y612D02*
X3355Y612D01*
X3438Y612D02*
X3455Y612D01*
X3135Y611D02*
X3158Y611D01*
X3235Y611D02*
X3258Y611D01*
X3335Y611D02*
X3358Y611D01*
X3435Y611D02*
X3458Y611D01*
X3133Y610D02*
X3160Y610D01*
X3233Y610D02*
X3260Y610D01*
X3333Y610D02*
X3360Y610D01*
X3433Y610D02*
X3460Y610D01*
X3131Y609D02*
X3162Y609D01*
X3231Y609D02*
X3262Y609D01*
X3331Y609D02*
X3362Y609D01*
X3431Y609D02*
X3462Y609D01*
X3129Y608D02*
X3164Y608D01*
X3229Y608D02*
X3264Y608D01*
X3329Y608D02*
X3364Y608D01*
X3429Y608D02*
X3464Y608D01*
X3127Y607D02*
X3166Y607D01*
X3227Y607D02*
X3266Y607D01*
X3327Y607D02*
X3366Y607D01*
X3427Y607D02*
X3466Y607D01*
X3126Y606D02*
X3167Y606D01*
X3226Y606D02*
X3267Y606D01*
X3326Y606D02*
X3367Y606D01*
X3426Y606D02*
X3467Y606D01*
X3125Y605D02*
X3168Y605D01*
X3225Y605D02*
X3268Y605D01*
X3325Y605D02*
X3368Y605D01*
X3425Y605D02*
X3468Y605D01*
X3124Y604D02*
X3169Y604D01*
X3224Y604D02*
X3269Y604D01*
X3324Y604D02*
X3369Y604D01*
X3424Y604D02*
X3469Y604D01*
X3123Y603D02*
X3170Y603D01*
X3223Y603D02*
X3270Y603D01*
X3323Y603D02*
X3370Y603D01*
X3423Y603D02*
X3470Y603D01*
X3122Y602D02*
X3171Y602D01*
X3222Y602D02*
X3271Y602D01*
X3322Y602D02*
X3371Y602D01*
X3422Y602D02*
X3471Y602D01*
X3121Y601D02*
X3172Y601D01*
X3221Y601D02*
X3272Y601D01*
X3321Y601D02*
X3372Y601D01*
X3421Y601D02*
X3472Y601D01*
X3120Y600D02*
X3173Y600D01*
X3220Y600D02*
X3273Y600D01*
X3320Y600D02*
X3373Y600D01*
X3420Y600D02*
X3473Y600D01*
X3119Y599D02*
X3174Y599D01*
X3219Y599D02*
X3274Y599D01*
X3319Y599D02*
X3374Y599D01*
X3419Y599D02*
X3474Y599D01*
X3119Y598D02*
X3174Y598D01*
X3219Y598D02*
X3274Y598D01*
X3319Y598D02*
X3374Y598D01*
X3419Y598D02*
X3474Y598D01*
X3118Y597D02*
X3175Y597D01*
X3218Y597D02*
X3275Y597D01*
X3318Y597D02*
X3375Y597D01*
X3418Y597D02*
X3475Y597D01*
X3117Y596D02*
X3175Y596D01*
X3217Y596D02*
X3275Y596D01*
X3317Y596D02*
X3375Y596D01*
X3417Y596D02*
X3475Y596D01*
X3117Y595D02*
X3176Y595D01*
X3217Y595D02*
X3276Y595D01*
X3317Y595D02*
X3376Y595D01*
X3417Y595D02*
X3476Y595D01*
X3116Y594D02*
X3177Y594D01*
X3216Y594D02*
X3277Y594D01*
X3316Y594D02*
X3377Y594D01*
X3416Y594D02*
X3477Y594D01*
X3116Y593D02*
X3177Y593D01*
X3216Y593D02*
X3277Y593D01*
X3316Y593D02*
X3377Y593D01*
X3416Y593D02*
X3477Y593D01*
X3115Y592D02*
X3177Y592D01*
X3215Y592D02*
X3277Y592D01*
X3315Y592D02*
X3377Y592D01*
X3415Y592D02*
X3477Y592D01*
X3115Y591D02*
X3178Y591D01*
X3215Y591D02*
X3278Y591D01*
X3315Y591D02*
X3378Y591D01*
X3415Y591D02*
X3478Y591D01*
X3115Y590D02*
X3178Y590D01*
X3215Y590D02*
X3278Y590D01*
X3315Y590D02*
X3378Y590D01*
X3415Y590D02*
X3478Y590D01*
X3114Y589D02*
X3179Y589D01*
X3214Y589D02*
X3279Y589D01*
X3314Y589D02*
X3379Y589D01*
X3414Y589D02*
X3479Y589D01*
X3114Y588D02*
X3179Y588D01*
X3214Y588D02*
X3279Y588D01*
X3314Y588D02*
X3379Y588D01*
X3414Y588D02*
X3479Y588D01*
X3114Y587D02*
X3179Y587D01*
X3214Y587D02*
X3279Y587D01*
X3314Y587D02*
X3379Y587D01*
X3414Y587D02*
X3479Y587D01*
X3114Y586D02*
X3179Y586D01*
X3214Y586D02*
X3279Y586D01*
X3314Y586D02*
X3379Y586D01*
X3414Y586D02*
X3479Y586D01*
X3113Y585D02*
X3179Y585D01*
X3213Y585D02*
X3279Y585D01*
X3313Y585D02*
X3379Y585D01*
X3413Y585D02*
X3479Y585D01*
X3113Y584D02*
X3180Y584D01*
X3213Y584D02*
X3280Y584D01*
X3313Y584D02*
X3380Y584D01*
X3413Y584D02*
X3480Y584D01*
X3113Y583D02*
X3180Y583D01*
X3213Y583D02*
X3280Y583D01*
X3313Y583D02*
X3380Y583D01*
X3413Y583D02*
X3480Y583D01*
X3113Y582D02*
X3180Y582D01*
X3213Y582D02*
X3280Y582D01*
X3313Y582D02*
X3380Y582D01*
X3413Y582D02*
X3480Y582D01*
X3113Y581D02*
X3180Y581D01*
X3213Y581D02*
X3280Y581D01*
X3313Y581D02*
X3380Y581D01*
X3413Y581D02*
X3480Y581D01*
X3113Y580D02*
X3180Y580D01*
X3213Y580D02*
X3280Y580D01*
X3313Y580D02*
X3380Y580D01*
X3413Y580D02*
X3480Y580D01*
X3113Y579D02*
X3180Y579D01*
X3213Y579D02*
X3280Y579D01*
X3313Y579D02*
X3380Y579D01*
X3413Y579D02*
X3480Y579D01*
X3113Y578D02*
X3180Y578D01*
X3213Y578D02*
X3280Y578D01*
X3313Y578D02*
X3380Y578D01*
X3413Y578D02*
X3480Y578D01*
X3113Y577D02*
X3180Y577D01*
X3213Y577D02*
X3280Y577D01*
X3313Y577D02*
X3380Y577D01*
X3413Y577D02*
X3480Y577D01*
X3113Y576D02*
X3180Y576D01*
X3213Y576D02*
X3280Y576D01*
X3313Y576D02*
X3380Y576D01*
X3413Y576D02*
X3480Y576D01*
X3113Y575D02*
X3180Y575D01*
X3213Y575D02*
X3280Y575D01*
X3313Y575D02*
X3380Y575D01*
X3413Y575D02*
X3480Y575D01*
X3113Y574D02*
X3180Y574D01*
X3213Y574D02*
X3280Y574D01*
X3313Y574D02*
X3380Y574D01*
X3413Y574D02*
X3480Y574D01*
X3113Y573D02*
X3180Y573D01*
X3213Y573D02*
X3280Y573D01*
X3313Y573D02*
X3380Y573D01*
X3413Y573D02*
X3480Y573D01*
X3113Y572D02*
X3180Y572D01*
X3213Y572D02*
X3280Y572D01*
X3313Y572D02*
X3380Y572D01*
X3413Y572D02*
X3480Y572D01*
X3113Y571D02*
X3180Y571D01*
X3213Y571D02*
X3280Y571D01*
X3313Y571D02*
X3380Y571D01*
X3413Y571D02*
X3480Y571D01*
X3113Y570D02*
X3180Y570D01*
X3213Y570D02*
X3280Y570D01*
X3313Y570D02*
X3380Y570D01*
X3413Y570D02*
X3480Y570D01*
X3113Y569D02*
X3180Y569D01*
X3213Y569D02*
X3280Y569D01*
X3313Y569D02*
X3380Y569D01*
X3413Y569D02*
X3480Y569D01*
X3113Y568D02*
X3180Y568D01*
X3213Y568D02*
X3280Y568D01*
X3313Y568D02*
X3380Y568D01*
X3413Y568D02*
X3480Y568D01*
X3113Y567D02*
X3180Y567D01*
X3213Y567D02*
X3280Y567D01*
X3313Y567D02*
X3380Y567D01*
X3413Y567D02*
X3480Y567D01*
X3113Y566D02*
X3180Y566D01*
X3213Y566D02*
X3280Y566D01*
X3313Y566D02*
X3380Y566D01*
X3413Y566D02*
X3480Y566D01*
X3113Y565D02*
X3180Y565D01*
X3213Y565D02*
X3280Y565D01*
X3313Y565D02*
X3380Y565D01*
X3413Y565D02*
X3480Y565D01*
X3113Y564D02*
X3144Y564D01*
X3149Y564D02*
X3180Y564D01*
X3213Y564D02*
X3244Y564D01*
X3249Y564D02*
X3280Y564D01*
X3313Y564D02*
X3344Y564D01*
X3349Y564D02*
X3380Y564D01*
X3413Y564D02*
X3444Y564D01*
X3449Y564D02*
X3480Y564D01*
X3113Y563D02*
X3140Y563D01*
X3153Y563D02*
X3180Y563D01*
X3213Y563D02*
X3240Y563D01*
X3253Y563D02*
X3280Y563D01*
X3313Y563D02*
X3340Y563D01*
X3353Y563D02*
X3380Y563D01*
X3413Y563D02*
X3440Y563D01*
X3453Y563D02*
X3480Y563D01*
X3113Y562D02*
X3138Y562D01*
X3154Y562D02*
X3180Y562D01*
X3213Y562D02*
X3238Y562D01*
X3254Y562D02*
X3280Y562D01*
X3313Y562D02*
X3338Y562D01*
X3354Y562D02*
X3380Y562D01*
X3413Y562D02*
X3438Y562D01*
X3454Y562D02*
X3480Y562D01*
X3113Y561D02*
X3137Y561D01*
X3156Y561D02*
X3180Y561D01*
X3213Y561D02*
X3237Y561D01*
X3256Y561D02*
X3280Y561D01*
X3313Y561D02*
X3337Y561D01*
X3356Y561D02*
X3380Y561D01*
X3413Y561D02*
X3437Y561D01*
X3456Y561D02*
X3480Y561D01*
X3113Y560D02*
X3136Y560D01*
X3157Y560D02*
X3180Y560D01*
X3213Y560D02*
X3236Y560D01*
X3257Y560D02*
X3280Y560D01*
X3313Y560D02*
X3336Y560D01*
X3357Y560D02*
X3380Y560D01*
X3413Y560D02*
X3436Y560D01*
X3457Y560D02*
X3480Y560D01*
X3113Y559D02*
X3135Y559D01*
X3158Y559D02*
X3180Y559D01*
X3213Y559D02*
X3235Y559D01*
X3258Y559D02*
X3280Y559D01*
X3313Y559D02*
X3335Y559D01*
X3358Y559D02*
X3380Y559D01*
X3413Y559D02*
X3435Y559D01*
X3458Y559D02*
X3480Y559D01*
X3113Y558D02*
X3134Y558D01*
X3159Y558D02*
X3180Y558D01*
X3213Y558D02*
X3234Y558D01*
X3259Y558D02*
X3280Y558D01*
X3313Y558D02*
X3334Y558D01*
X3359Y558D02*
X3380Y558D01*
X3413Y558D02*
X3434Y558D01*
X3459Y558D02*
X3480Y558D01*
X3113Y557D02*
X3134Y557D01*
X3159Y557D02*
X3180Y557D01*
X3213Y557D02*
X3234Y557D01*
X3259Y557D02*
X3280Y557D01*
X3313Y557D02*
X3334Y557D01*
X3359Y557D02*
X3380Y557D01*
X3413Y557D02*
X3434Y557D01*
X3459Y557D02*
X3480Y557D01*
X3113Y556D02*
X3133Y556D01*
X3160Y556D02*
X3180Y556D01*
X3213Y556D02*
X3233Y556D01*
X3260Y556D02*
X3280Y556D01*
X3313Y556D02*
X3333Y556D01*
X3360Y556D02*
X3380Y556D01*
X3413Y556D02*
X3433Y556D01*
X3460Y556D02*
X3480Y556D01*
X3113Y555D02*
X3133Y555D01*
X3160Y555D02*
X3180Y555D01*
X3213Y555D02*
X3233Y555D01*
X3260Y555D02*
X3280Y555D01*
X3313Y555D02*
X3333Y555D01*
X3360Y555D02*
X3380Y555D01*
X3413Y555D02*
X3433Y555D01*
X3460Y555D02*
X3480Y555D01*
X3113Y554D02*
X3132Y554D01*
X3161Y554D02*
X3180Y554D01*
X3213Y554D02*
X3232Y554D01*
X3261Y554D02*
X3280Y554D01*
X3313Y554D02*
X3332Y554D01*
X3361Y554D02*
X3380Y554D01*
X3413Y554D02*
X3432Y554D01*
X3461Y554D02*
X3480Y554D01*
X3113Y553D02*
X3132Y553D01*
X3161Y553D02*
X3180Y553D01*
X3213Y553D02*
X3232Y553D01*
X3261Y553D02*
X3280Y553D01*
X3313Y553D02*
X3332Y553D01*
X3361Y553D02*
X3380Y553D01*
X3413Y553D02*
X3432Y553D01*
X3461Y553D02*
X3480Y553D01*
X3113Y552D02*
X3132Y552D01*
X3161Y552D02*
X3180Y552D01*
X3213Y552D02*
X3232Y552D01*
X3261Y552D02*
X3280Y552D01*
X3313Y552D02*
X3332Y552D01*
X3361Y552D02*
X3380Y552D01*
X3413Y552D02*
X3432Y552D01*
X3461Y552D02*
X3480Y552D01*
X3113Y551D02*
X3132Y551D01*
X3161Y551D02*
X3180Y551D01*
X3213Y551D02*
X3232Y551D01*
X3261Y551D02*
X3280Y551D01*
X3313Y551D02*
X3332Y551D01*
X3361Y551D02*
X3380Y551D01*
X3413Y551D02*
X3432Y551D01*
X3461Y551D02*
X3480Y551D01*
X3113Y550D02*
X3132Y550D01*
X3161Y550D02*
X3180Y550D01*
X3213Y550D02*
X3232Y550D01*
X3261Y550D02*
X3280Y550D01*
X3313Y550D02*
X3332Y550D01*
X3361Y550D02*
X3380Y550D01*
X3413Y550D02*
X3432Y550D01*
X3461Y550D02*
X3480Y550D01*
X3113Y549D02*
X3132Y549D01*
X3161Y549D02*
X3180Y549D01*
X3213Y549D02*
X3232Y549D01*
X3261Y549D02*
X3280Y549D01*
X3313Y549D02*
X3332Y549D01*
X3361Y549D02*
X3380Y549D01*
X3413Y549D02*
X3432Y549D01*
X3461Y549D02*
X3480Y549D01*
X3113Y548D02*
X3132Y548D01*
X3161Y548D02*
X3180Y548D01*
X3213Y548D02*
X3232Y548D01*
X3261Y548D02*
X3280Y548D01*
X3313Y548D02*
X3332Y548D01*
X3361Y548D02*
X3380Y548D01*
X3413Y548D02*
X3432Y548D01*
X3461Y548D02*
X3480Y548D01*
X3113Y547D02*
X3132Y547D01*
X3161Y547D02*
X3180Y547D01*
X3213Y547D02*
X3232Y547D01*
X3261Y547D02*
X3280Y547D01*
X3313Y547D02*
X3332Y547D01*
X3361Y547D02*
X3380Y547D01*
X3413Y547D02*
X3432Y547D01*
X3461Y547D02*
X3480Y547D01*
X3113Y546D02*
X3132Y546D01*
X3160Y546D02*
X3180Y546D01*
X3213Y546D02*
X3232Y546D01*
X3260Y546D02*
X3280Y546D01*
X3313Y546D02*
X3332Y546D01*
X3360Y546D02*
X3380Y546D01*
X3413Y546D02*
X3432Y546D01*
X3460Y546D02*
X3480Y546D01*
X3113Y545D02*
X3133Y545D01*
X3160Y545D02*
X3180Y545D01*
X3213Y545D02*
X3233Y545D01*
X3260Y545D02*
X3280Y545D01*
X3313Y545D02*
X3333Y545D01*
X3360Y545D02*
X3380Y545D01*
X3413Y545D02*
X3433Y545D01*
X3460Y545D02*
X3480Y545D01*
X3113Y544D02*
X3133Y544D01*
X3160Y544D02*
X3180Y544D01*
X3213Y544D02*
X3233Y544D01*
X3260Y544D02*
X3280Y544D01*
X3313Y544D02*
X3333Y544D01*
X3360Y544D02*
X3380Y544D01*
X3413Y544D02*
X3433Y544D01*
X3460Y544D02*
X3480Y544D01*
X3113Y543D02*
X3134Y543D01*
X3159Y543D02*
X3180Y543D01*
X3213Y543D02*
X3234Y543D01*
X3259Y543D02*
X3280Y543D01*
X3313Y543D02*
X3334Y543D01*
X3359Y543D02*
X3380Y543D01*
X3413Y543D02*
X3434Y543D01*
X3459Y543D02*
X3480Y543D01*
X3113Y542D02*
X3134Y542D01*
X3159Y542D02*
X3180Y542D01*
X3213Y542D02*
X3234Y542D01*
X3259Y542D02*
X3280Y542D01*
X3313Y542D02*
X3334Y542D01*
X3359Y542D02*
X3380Y542D01*
X3413Y542D02*
X3434Y542D01*
X3459Y542D02*
X3480Y542D01*
X3113Y541D02*
X3135Y541D01*
X3158Y541D02*
X3180Y541D01*
X3213Y541D02*
X3235Y541D01*
X3258Y541D02*
X3280Y541D01*
X3313Y541D02*
X3335Y541D01*
X3358Y541D02*
X3380Y541D01*
X3413Y541D02*
X3435Y541D01*
X3458Y541D02*
X3480Y541D01*
X3113Y540D02*
X3136Y540D01*
X3157Y540D02*
X3180Y540D01*
X3213Y540D02*
X3236Y540D01*
X3257Y540D02*
X3280Y540D01*
X3313Y540D02*
X3336Y540D01*
X3357Y540D02*
X3380Y540D01*
X3413Y540D02*
X3436Y540D01*
X3457Y540D02*
X3480Y540D01*
X3113Y539D02*
X3137Y539D01*
X3156Y539D02*
X3180Y539D01*
X3213Y539D02*
X3237Y539D01*
X3256Y539D02*
X3280Y539D01*
X3313Y539D02*
X3337Y539D01*
X3356Y539D02*
X3380Y539D01*
X3413Y539D02*
X3437Y539D01*
X3456Y539D02*
X3480Y539D01*
X3113Y538D02*
X3139Y538D01*
X3154Y538D02*
X3180Y538D01*
X3213Y538D02*
X3239Y538D01*
X3254Y538D02*
X3280Y538D01*
X3313Y538D02*
X3339Y538D01*
X3354Y538D02*
X3380Y538D01*
X3413Y538D02*
X3439Y538D01*
X3454Y538D02*
X3480Y538D01*
X3113Y537D02*
X3140Y537D01*
X3152Y537D02*
X3180Y537D01*
X3213Y537D02*
X3240Y537D01*
X3252Y537D02*
X3280Y537D01*
X3313Y537D02*
X3340Y537D01*
X3352Y537D02*
X3380Y537D01*
X3413Y537D02*
X3440Y537D01*
X3452Y537D02*
X3480Y537D01*
X3113Y536D02*
X3145Y536D01*
X3147Y536D02*
X3180Y536D01*
X3213Y536D02*
X3245Y536D01*
X3247Y536D02*
X3280Y536D01*
X3313Y536D02*
X3345Y536D01*
X3347Y536D02*
X3380Y536D01*
X3413Y536D02*
X3445Y536D01*
X3447Y536D02*
X3480Y536D01*
X3113Y535D02*
X3180Y535D01*
X3213Y535D02*
X3280Y535D01*
X3313Y535D02*
X3380Y535D01*
X3413Y535D02*
X3480Y535D01*
X3113Y534D02*
X3180Y534D01*
X3213Y534D02*
X3280Y534D01*
X3313Y534D02*
X3380Y534D01*
X3413Y534D02*
X3480Y534D01*
X3113Y533D02*
X3180Y533D01*
X3213Y533D02*
X3280Y533D01*
X3313Y533D02*
X3380Y533D01*
X3413Y533D02*
X3480Y533D01*
X3113Y532D02*
X3180Y532D01*
X3213Y532D02*
X3280Y532D01*
X3313Y532D02*
X3380Y532D01*
X3413Y532D02*
X3480Y532D01*
X3113Y531D02*
X3180Y531D01*
X3213Y531D02*
X3280Y531D01*
X3313Y531D02*
X3380Y531D01*
X3413Y531D02*
X3480Y531D01*
X3113Y530D02*
X3180Y530D01*
X3213Y530D02*
X3280Y530D01*
X3313Y530D02*
X3380Y530D01*
X3413Y530D02*
X3480Y530D01*
X3113Y529D02*
X3180Y529D01*
X3213Y529D02*
X3280Y529D01*
X3313Y529D02*
X3380Y529D01*
X3413Y529D02*
X3480Y529D01*
X3113Y528D02*
X3180Y528D01*
X3213Y528D02*
X3280Y528D01*
X3313Y528D02*
X3380Y528D01*
X3413Y528D02*
X3480Y528D01*
X3113Y527D02*
X3180Y527D01*
X3213Y527D02*
X3280Y527D01*
X3313Y527D02*
X3380Y527D01*
X3413Y527D02*
X3480Y527D01*
X3113Y526D02*
X3180Y526D01*
X3213Y526D02*
X3280Y526D01*
X3313Y526D02*
X3380Y526D01*
X3413Y526D02*
X3480Y526D01*
X3113Y525D02*
X3180Y525D01*
X3213Y525D02*
X3280Y525D01*
X3313Y525D02*
X3380Y525D01*
X3413Y525D02*
X3480Y525D01*
X3113Y524D02*
X3180Y524D01*
X3213Y524D02*
X3280Y524D01*
X3313Y524D02*
X3380Y524D01*
X3413Y524D02*
X3480Y524D01*
X3113Y523D02*
X3180Y523D01*
X3213Y523D02*
X3280Y523D01*
X3313Y523D02*
X3380Y523D01*
X3413Y523D02*
X3480Y523D01*
X3113Y522D02*
X3180Y522D01*
X3213Y522D02*
X3280Y522D01*
X3313Y522D02*
X3380Y522D01*
X3413Y522D02*
X3480Y522D01*
X3113Y521D02*
X3180Y521D01*
X3213Y521D02*
X3280Y521D01*
X3313Y521D02*
X3380Y521D01*
X3413Y521D02*
X3480Y521D01*
X3113Y520D02*
X3180Y520D01*
X3213Y520D02*
X3280Y520D01*
X3313Y520D02*
X3380Y520D01*
X3413Y520D02*
X3480Y520D01*
X3113Y519D02*
X3180Y519D01*
X3213Y519D02*
X3280Y519D01*
X3313Y519D02*
X3380Y519D01*
X3413Y519D02*
X3480Y519D01*
X3113Y518D02*
X3180Y518D01*
X3213Y518D02*
X3280Y518D01*
X3313Y518D02*
X3380Y518D01*
X3413Y518D02*
X3480Y518D01*
X3113Y517D02*
X3180Y517D01*
X3213Y517D02*
X3280Y517D01*
X3313Y517D02*
X3380Y517D01*
X3413Y517D02*
X3480Y517D01*
X3113Y516D02*
X3180Y516D01*
X3213Y516D02*
X3280Y516D01*
X3313Y516D02*
X3380Y516D01*
X3413Y516D02*
X3480Y516D01*
X3113Y515D02*
X3179Y515D01*
X3213Y515D02*
X3279Y515D01*
X3313Y515D02*
X3379Y515D01*
X3413Y515D02*
X3479Y515D01*
X3114Y514D02*
X3179Y514D01*
X3214Y514D02*
X3279Y514D01*
X3314Y514D02*
X3379Y514D01*
X3414Y514D02*
X3479Y514D01*
X3114Y513D02*
X3179Y513D01*
X3214Y513D02*
X3279Y513D01*
X3314Y513D02*
X3379Y513D01*
X3414Y513D02*
X3479Y513D01*
X3114Y512D02*
X3179Y512D01*
X3214Y512D02*
X3279Y512D01*
X3314Y512D02*
X3379Y512D01*
X3414Y512D02*
X3479Y512D01*
X3114Y511D02*
X3178Y511D01*
X3214Y511D02*
X3278Y511D01*
X3314Y511D02*
X3378Y511D01*
X3414Y511D02*
X3478Y511D01*
X3115Y510D02*
X3178Y510D01*
X3215Y510D02*
X3278Y510D01*
X3315Y510D02*
X3378Y510D01*
X3415Y510D02*
X3478Y510D01*
X3115Y509D02*
X3178Y509D01*
X3215Y509D02*
X3278Y509D01*
X3315Y509D02*
X3378Y509D01*
X3415Y509D02*
X3478Y509D01*
X3116Y508D02*
X3177Y508D01*
X3216Y508D02*
X3277Y508D01*
X3316Y508D02*
X3377Y508D01*
X3416Y508D02*
X3477Y508D01*
X3116Y507D02*
X3177Y507D01*
X3216Y507D02*
X3277Y507D01*
X3316Y507D02*
X3377Y507D01*
X3416Y507D02*
X3477Y507D01*
X3116Y506D02*
X3176Y506D01*
X3216Y506D02*
X3276Y506D01*
X3316Y506D02*
X3376Y506D01*
X3416Y506D02*
X3476Y506D01*
X3117Y505D02*
X3176Y505D01*
X3217Y505D02*
X3276Y505D01*
X3317Y505D02*
X3376Y505D01*
X3417Y505D02*
X3476Y505D01*
X3117Y504D02*
X3175Y504D01*
X3217Y504D02*
X3275Y504D01*
X3317Y504D02*
X3375Y504D01*
X3417Y504D02*
X3475Y504D01*
X3118Y503D02*
X3175Y503D01*
X3218Y503D02*
X3275Y503D01*
X3318Y503D02*
X3375Y503D01*
X3418Y503D02*
X3475Y503D01*
X3119Y502D02*
X3174Y502D01*
X3219Y502D02*
X3274Y502D01*
X3319Y502D02*
X3374Y502D01*
X3419Y502D02*
X3474Y502D01*
X3119Y501D02*
X3174Y501D01*
X3219Y501D02*
X3274Y501D01*
X3319Y501D02*
X3374Y501D01*
X3419Y501D02*
X3474Y501D01*
X3120Y500D02*
X3173Y500D01*
X3220Y500D02*
X3273Y500D01*
X3320Y500D02*
X3373Y500D01*
X3420Y500D02*
X3473Y500D01*
X3121Y499D02*
X3172Y499D01*
X3221Y499D02*
X3272Y499D01*
X3321Y499D02*
X3372Y499D01*
X3421Y499D02*
X3472Y499D01*
X3122Y498D02*
X3171Y498D01*
X3222Y498D02*
X3271Y498D01*
X3322Y498D02*
X3371Y498D01*
X3422Y498D02*
X3471Y498D01*
X3123Y497D02*
X3170Y497D01*
X3223Y497D02*
X3270Y497D01*
X3323Y497D02*
X3370Y497D01*
X3423Y497D02*
X3470Y497D01*
X3124Y496D02*
X3169Y496D01*
X3224Y496D02*
X3269Y496D01*
X3324Y496D02*
X3369Y496D01*
X3424Y496D02*
X3469Y496D01*
X3125Y495D02*
X3168Y495D01*
X3225Y495D02*
X3268Y495D01*
X3325Y495D02*
X3368Y495D01*
X3425Y495D02*
X3468Y495D01*
X3126Y494D02*
X3167Y494D01*
X3226Y494D02*
X3267Y494D01*
X3326Y494D02*
X3367Y494D01*
X3426Y494D02*
X3467Y494D01*
X3128Y493D02*
X3165Y493D01*
X3228Y493D02*
X3265Y493D01*
X3328Y493D02*
X3365Y493D01*
X3428Y493D02*
X3465Y493D01*
X3129Y492D02*
X3164Y492D01*
X3229Y492D02*
X3264Y492D01*
X3329Y492D02*
X3364Y492D01*
X3429Y492D02*
X3464Y492D01*
X3131Y491D02*
X3162Y491D01*
X3231Y491D02*
X3262Y491D01*
X3331Y491D02*
X3362Y491D01*
X3431Y491D02*
X3462Y491D01*
X3133Y490D02*
X3160Y490D01*
X3233Y490D02*
X3260Y490D01*
X3333Y490D02*
X3360Y490D01*
X3433Y490D02*
X3460Y490D01*
X3135Y489D02*
X3157Y489D01*
X3235Y489D02*
X3257Y489D01*
X3335Y489D02*
X3357Y489D01*
X3435Y489D02*
X3457Y489D01*
X3139Y488D02*
X3154Y488D01*
X3239Y488D02*
X3254Y488D01*
X3339Y488D02*
X3354Y488D01*
X3439Y488D02*
X3454Y488D01*
X3144Y487D02*
X3149Y487D01*
X3244Y487D02*
X3249Y487D01*
X3344Y487D02*
X3349Y487D01*
X3444Y487D02*
X3449Y487D01*
X3143Y313D02*
X3150Y313D01*
X3243Y313D02*
X3250Y313D01*
X3343Y313D02*
X3350Y313D01*
X3443Y313D02*
X3450Y313D01*
X3138Y312D02*
X3155Y312D01*
X3238Y312D02*
X3255Y312D01*
X3338Y312D02*
X3355Y312D01*
X3438Y312D02*
X3455Y312D01*
X3135Y311D02*
X3158Y311D01*
X3235Y311D02*
X3258Y311D01*
X3335Y311D02*
X3358Y311D01*
X3435Y311D02*
X3458Y311D01*
X3133Y310D02*
X3160Y310D01*
X3233Y310D02*
X3260Y310D01*
X3333Y310D02*
X3360Y310D01*
X3433Y310D02*
X3460Y310D01*
X3131Y309D02*
X3162Y309D01*
X3231Y309D02*
X3262Y309D01*
X3331Y309D02*
X3362Y309D01*
X3431Y309D02*
X3462Y309D01*
X3129Y308D02*
X3164Y308D01*
X3229Y308D02*
X3264Y308D01*
X3329Y308D02*
X3364Y308D01*
X3429Y308D02*
X3464Y308D01*
X3127Y307D02*
X3166Y307D01*
X3227Y307D02*
X3266Y307D01*
X3327Y307D02*
X3366Y307D01*
X3427Y307D02*
X3466Y307D01*
X3126Y306D02*
X3167Y306D01*
X3226Y306D02*
X3267Y306D01*
X3326Y306D02*
X3367Y306D01*
X3426Y306D02*
X3467Y306D01*
X3125Y305D02*
X3168Y305D01*
X3225Y305D02*
X3268Y305D01*
X3325Y305D02*
X3368Y305D01*
X3425Y305D02*
X3468Y305D01*
X3124Y304D02*
X3169Y304D01*
X3224Y304D02*
X3269Y304D01*
X3324Y304D02*
X3369Y304D01*
X3424Y304D02*
X3469Y304D01*
X3123Y303D02*
X3170Y303D01*
X3223Y303D02*
X3270Y303D01*
X3323Y303D02*
X3370Y303D01*
X3423Y303D02*
X3470Y303D01*
X3122Y302D02*
X3171Y302D01*
X3222Y302D02*
X3271Y302D01*
X3322Y302D02*
X3371Y302D01*
X3422Y302D02*
X3471Y302D01*
X3121Y301D02*
X3172Y301D01*
X3221Y301D02*
X3272Y301D01*
X3321Y301D02*
X3372Y301D01*
X3421Y301D02*
X3472Y301D01*
X3120Y300D02*
X3173Y300D01*
X3220Y300D02*
X3273Y300D01*
X3320Y300D02*
X3373Y300D01*
X3420Y300D02*
X3473Y300D01*
X3119Y299D02*
X3174Y299D01*
X3219Y299D02*
X3274Y299D01*
X3319Y299D02*
X3374Y299D01*
X3419Y299D02*
X3474Y299D01*
X3119Y298D02*
X3174Y298D01*
X3219Y298D02*
X3274Y298D01*
X3319Y298D02*
X3374Y298D01*
X3419Y298D02*
X3474Y298D01*
X3118Y297D02*
X3175Y297D01*
X3218Y297D02*
X3275Y297D01*
X3318Y297D02*
X3375Y297D01*
X3418Y297D02*
X3475Y297D01*
X3117Y296D02*
X3175Y296D01*
X3217Y296D02*
X3275Y296D01*
X3317Y296D02*
X3375Y296D01*
X3417Y296D02*
X3475Y296D01*
X3117Y295D02*
X3176Y295D01*
X3217Y295D02*
X3276Y295D01*
X3317Y295D02*
X3376Y295D01*
X3417Y295D02*
X3476Y295D01*
X3116Y294D02*
X3177Y294D01*
X3216Y294D02*
X3277Y294D01*
X3316Y294D02*
X3377Y294D01*
X3416Y294D02*
X3477Y294D01*
X3116Y293D02*
X3177Y293D01*
X3216Y293D02*
X3277Y293D01*
X3316Y293D02*
X3377Y293D01*
X3416Y293D02*
X3477Y293D01*
X3115Y292D02*
X3177Y292D01*
X3215Y292D02*
X3277Y292D01*
X3315Y292D02*
X3377Y292D01*
X3415Y292D02*
X3477Y292D01*
X3115Y291D02*
X3178Y291D01*
X3215Y291D02*
X3278Y291D01*
X3315Y291D02*
X3378Y291D01*
X3415Y291D02*
X3478Y291D01*
X3115Y290D02*
X3178Y290D01*
X3215Y290D02*
X3278Y290D01*
X3315Y290D02*
X3378Y290D01*
X3415Y290D02*
X3478Y290D01*
X3114Y289D02*
X3179Y289D01*
X3214Y289D02*
X3279Y289D01*
X3314Y289D02*
X3379Y289D01*
X3414Y289D02*
X3479Y289D01*
X3114Y288D02*
X3179Y288D01*
X3214Y288D02*
X3279Y288D01*
X3314Y288D02*
X3379Y288D01*
X3414Y288D02*
X3479Y288D01*
X3114Y287D02*
X3179Y287D01*
X3214Y287D02*
X3279Y287D01*
X3314Y287D02*
X3379Y287D01*
X3414Y287D02*
X3479Y287D01*
X3114Y286D02*
X3179Y286D01*
X3214Y286D02*
X3279Y286D01*
X3314Y286D02*
X3379Y286D01*
X3414Y286D02*
X3479Y286D01*
X3113Y285D02*
X3179Y285D01*
X3213Y285D02*
X3279Y285D01*
X3313Y285D02*
X3379Y285D01*
X3413Y285D02*
X3479Y285D01*
X3113Y284D02*
X3180Y284D01*
X3213Y284D02*
X3280Y284D01*
X3313Y284D02*
X3380Y284D01*
X3413Y284D02*
X3480Y284D01*
X3113Y283D02*
X3180Y283D01*
X3213Y283D02*
X3280Y283D01*
X3313Y283D02*
X3380Y283D01*
X3413Y283D02*
X3480Y283D01*
X3113Y282D02*
X3180Y282D01*
X3213Y282D02*
X3280Y282D01*
X3313Y282D02*
X3380Y282D01*
X3413Y282D02*
X3480Y282D01*
X3113Y281D02*
X3180Y281D01*
X3213Y281D02*
X3280Y281D01*
X3313Y281D02*
X3380Y281D01*
X3413Y281D02*
X3480Y281D01*
X3113Y280D02*
X3180Y280D01*
X3213Y280D02*
X3280Y280D01*
X3313Y280D02*
X3380Y280D01*
X3413Y280D02*
X3480Y280D01*
X3113Y279D02*
X3180Y279D01*
X3213Y279D02*
X3280Y279D01*
X3313Y279D02*
X3380Y279D01*
X3413Y279D02*
X3480Y279D01*
X3113Y278D02*
X3180Y278D01*
X3213Y278D02*
X3280Y278D01*
X3313Y278D02*
X3380Y278D01*
X3413Y278D02*
X3480Y278D01*
X3113Y277D02*
X3180Y277D01*
X3213Y277D02*
X3280Y277D01*
X3313Y277D02*
X3380Y277D01*
X3413Y277D02*
X3480Y277D01*
X3113Y276D02*
X3180Y276D01*
X3213Y276D02*
X3280Y276D01*
X3313Y276D02*
X3380Y276D01*
X3413Y276D02*
X3480Y276D01*
X3113Y275D02*
X3180Y275D01*
X3213Y275D02*
X3280Y275D01*
X3313Y275D02*
X3380Y275D01*
X3413Y275D02*
X3480Y275D01*
X3113Y274D02*
X3180Y274D01*
X3213Y274D02*
X3280Y274D01*
X3313Y274D02*
X3380Y274D01*
X3413Y274D02*
X3480Y274D01*
X3113Y273D02*
X3180Y273D01*
X3213Y273D02*
X3280Y273D01*
X3313Y273D02*
X3380Y273D01*
X3413Y273D02*
X3480Y273D01*
X3113Y272D02*
X3180Y272D01*
X3213Y272D02*
X3280Y272D01*
X3313Y272D02*
X3380Y272D01*
X3413Y272D02*
X3480Y272D01*
X3113Y271D02*
X3180Y271D01*
X3213Y271D02*
X3280Y271D01*
X3313Y271D02*
X3380Y271D01*
X3413Y271D02*
X3480Y271D01*
X3113Y270D02*
X3180Y270D01*
X3213Y270D02*
X3280Y270D01*
X3313Y270D02*
X3380Y270D01*
X3413Y270D02*
X3480Y270D01*
X3113Y269D02*
X3180Y269D01*
X3213Y269D02*
X3280Y269D01*
X3313Y269D02*
X3380Y269D01*
X3413Y269D02*
X3480Y269D01*
X3113Y268D02*
X3180Y268D01*
X3213Y268D02*
X3280Y268D01*
X3313Y268D02*
X3380Y268D01*
X3413Y268D02*
X3480Y268D01*
X3113Y267D02*
X3180Y267D01*
X3213Y267D02*
X3280Y267D01*
X3313Y267D02*
X3380Y267D01*
X3413Y267D02*
X3480Y267D01*
X3113Y266D02*
X3180Y266D01*
X3213Y266D02*
X3280Y266D01*
X3313Y266D02*
X3380Y266D01*
X3413Y266D02*
X3480Y266D01*
X3113Y265D02*
X3180Y265D01*
X3213Y265D02*
X3280Y265D01*
X3313Y265D02*
X3380Y265D01*
X3413Y265D02*
X3480Y265D01*
X3113Y264D02*
X3144Y264D01*
X3149Y264D02*
X3180Y264D01*
X3213Y264D02*
X3244Y264D01*
X3249Y264D02*
X3280Y264D01*
X3313Y264D02*
X3344Y264D01*
X3349Y264D02*
X3380Y264D01*
X3413Y264D02*
X3444Y264D01*
X3449Y264D02*
X3480Y264D01*
X3113Y263D02*
X3140Y263D01*
X3153Y263D02*
X3180Y263D01*
X3213Y263D02*
X3240Y263D01*
X3253Y263D02*
X3280Y263D01*
X3313Y263D02*
X3340Y263D01*
X3353Y263D02*
X3380Y263D01*
X3413Y263D02*
X3440Y263D01*
X3453Y263D02*
X3480Y263D01*
X3113Y262D02*
X3138Y262D01*
X3154Y262D02*
X3180Y262D01*
X3213Y262D02*
X3238Y262D01*
X3254Y262D02*
X3280Y262D01*
X3313Y262D02*
X3338Y262D01*
X3354Y262D02*
X3380Y262D01*
X3413Y262D02*
X3438Y262D01*
X3454Y262D02*
X3480Y262D01*
X3113Y261D02*
X3137Y261D01*
X3156Y261D02*
X3180Y261D01*
X3213Y261D02*
X3237Y261D01*
X3256Y261D02*
X3280Y261D01*
X3313Y261D02*
X3337Y261D01*
X3356Y261D02*
X3380Y261D01*
X3413Y261D02*
X3437Y261D01*
X3456Y261D02*
X3480Y261D01*
X3113Y260D02*
X3136Y260D01*
X3157Y260D02*
X3180Y260D01*
X3213Y260D02*
X3236Y260D01*
X3257Y260D02*
X3280Y260D01*
X3313Y260D02*
X3336Y260D01*
X3357Y260D02*
X3380Y260D01*
X3413Y260D02*
X3436Y260D01*
X3457Y260D02*
X3480Y260D01*
X3113Y259D02*
X3135Y259D01*
X3158Y259D02*
X3180Y259D01*
X3213Y259D02*
X3235Y259D01*
X3258Y259D02*
X3280Y259D01*
X3313Y259D02*
X3335Y259D01*
X3358Y259D02*
X3380Y259D01*
X3413Y259D02*
X3435Y259D01*
X3458Y259D02*
X3480Y259D01*
X3113Y258D02*
X3134Y258D01*
X3159Y258D02*
X3180Y258D01*
X3213Y258D02*
X3234Y258D01*
X3259Y258D02*
X3280Y258D01*
X3313Y258D02*
X3334Y258D01*
X3359Y258D02*
X3380Y258D01*
X3413Y258D02*
X3434Y258D01*
X3459Y258D02*
X3480Y258D01*
X3113Y257D02*
X3134Y257D01*
X3159Y257D02*
X3180Y257D01*
X3213Y257D02*
X3234Y257D01*
X3259Y257D02*
X3280Y257D01*
X3313Y257D02*
X3334Y257D01*
X3359Y257D02*
X3380Y257D01*
X3413Y257D02*
X3434Y257D01*
X3459Y257D02*
X3480Y257D01*
X3113Y256D02*
X3133Y256D01*
X3160Y256D02*
X3180Y256D01*
X3213Y256D02*
X3233Y256D01*
X3260Y256D02*
X3280Y256D01*
X3313Y256D02*
X3333Y256D01*
X3360Y256D02*
X3380Y256D01*
X3413Y256D02*
X3433Y256D01*
X3460Y256D02*
X3480Y256D01*
X3113Y255D02*
X3133Y255D01*
X3160Y255D02*
X3180Y255D01*
X3213Y255D02*
X3233Y255D01*
X3260Y255D02*
X3280Y255D01*
X3313Y255D02*
X3333Y255D01*
X3360Y255D02*
X3380Y255D01*
X3413Y255D02*
X3433Y255D01*
X3460Y255D02*
X3480Y255D01*
X3113Y254D02*
X3132Y254D01*
X3161Y254D02*
X3180Y254D01*
X3213Y254D02*
X3232Y254D01*
X3261Y254D02*
X3280Y254D01*
X3313Y254D02*
X3332Y254D01*
X3361Y254D02*
X3380Y254D01*
X3413Y254D02*
X3432Y254D01*
X3461Y254D02*
X3480Y254D01*
X3113Y253D02*
X3132Y253D01*
X3161Y253D02*
X3180Y253D01*
X3213Y253D02*
X3232Y253D01*
X3261Y253D02*
X3280Y253D01*
X3313Y253D02*
X3332Y253D01*
X3361Y253D02*
X3380Y253D01*
X3413Y253D02*
X3432Y253D01*
X3461Y253D02*
X3480Y253D01*
X3113Y252D02*
X3132Y252D01*
X3161Y252D02*
X3180Y252D01*
X3213Y252D02*
X3232Y252D01*
X3261Y252D02*
X3280Y252D01*
X3313Y252D02*
X3332Y252D01*
X3361Y252D02*
X3380Y252D01*
X3413Y252D02*
X3432Y252D01*
X3461Y252D02*
X3480Y252D01*
X3113Y251D02*
X3132Y251D01*
X3161Y251D02*
X3180Y251D01*
X3213Y251D02*
X3232Y251D01*
X3261Y251D02*
X3280Y251D01*
X3313Y251D02*
X3332Y251D01*
X3361Y251D02*
X3380Y251D01*
X3413Y251D02*
X3432Y251D01*
X3461Y251D02*
X3480Y251D01*
X3113Y250D02*
X3132Y250D01*
X3161Y250D02*
X3180Y250D01*
X3213Y250D02*
X3232Y250D01*
X3261Y250D02*
X3280Y250D01*
X3313Y250D02*
X3332Y250D01*
X3361Y250D02*
X3380Y250D01*
X3413Y250D02*
X3432Y250D01*
X3461Y250D02*
X3480Y250D01*
X3113Y249D02*
X3132Y249D01*
X3161Y249D02*
X3180Y249D01*
X3213Y249D02*
X3232Y249D01*
X3261Y249D02*
X3280Y249D01*
X3313Y249D02*
X3332Y249D01*
X3361Y249D02*
X3380Y249D01*
X3413Y249D02*
X3432Y249D01*
X3461Y249D02*
X3480Y249D01*
X3113Y248D02*
X3132Y248D01*
X3161Y248D02*
X3180Y248D01*
X3213Y248D02*
X3232Y248D01*
X3261Y248D02*
X3280Y248D01*
X3313Y248D02*
X3332Y248D01*
X3361Y248D02*
X3380Y248D01*
X3413Y248D02*
X3432Y248D01*
X3461Y248D02*
X3480Y248D01*
X3113Y247D02*
X3132Y247D01*
X3161Y247D02*
X3180Y247D01*
X3213Y247D02*
X3232Y247D01*
X3261Y247D02*
X3280Y247D01*
X3313Y247D02*
X3332Y247D01*
X3361Y247D02*
X3380Y247D01*
X3413Y247D02*
X3432Y247D01*
X3461Y247D02*
X3480Y247D01*
X3113Y246D02*
X3132Y246D01*
X3160Y246D02*
X3180Y246D01*
X3213Y246D02*
X3232Y246D01*
X3260Y246D02*
X3280Y246D01*
X3313Y246D02*
X3332Y246D01*
X3360Y246D02*
X3380Y246D01*
X3413Y246D02*
X3432Y246D01*
X3460Y246D02*
X3480Y246D01*
X3113Y245D02*
X3133Y245D01*
X3160Y245D02*
X3180Y245D01*
X3213Y245D02*
X3233Y245D01*
X3260Y245D02*
X3280Y245D01*
X3313Y245D02*
X3333Y245D01*
X3360Y245D02*
X3380Y245D01*
X3413Y245D02*
X3433Y245D01*
X3460Y245D02*
X3480Y245D01*
X3113Y244D02*
X3133Y244D01*
X3160Y244D02*
X3180Y244D01*
X3213Y244D02*
X3233Y244D01*
X3260Y244D02*
X3280Y244D01*
X3313Y244D02*
X3333Y244D01*
X3360Y244D02*
X3380Y244D01*
X3413Y244D02*
X3433Y244D01*
X3460Y244D02*
X3480Y244D01*
X3113Y243D02*
X3134Y243D01*
X3159Y243D02*
X3180Y243D01*
X3213Y243D02*
X3234Y243D01*
X3259Y243D02*
X3280Y243D01*
X3313Y243D02*
X3334Y243D01*
X3359Y243D02*
X3380Y243D01*
X3413Y243D02*
X3434Y243D01*
X3459Y243D02*
X3480Y243D01*
X3113Y242D02*
X3134Y242D01*
X3159Y242D02*
X3180Y242D01*
X3213Y242D02*
X3234Y242D01*
X3259Y242D02*
X3280Y242D01*
X3313Y242D02*
X3334Y242D01*
X3359Y242D02*
X3380Y242D01*
X3413Y242D02*
X3434Y242D01*
X3459Y242D02*
X3480Y242D01*
X3113Y241D02*
X3135Y241D01*
X3158Y241D02*
X3180Y241D01*
X3213Y241D02*
X3235Y241D01*
X3258Y241D02*
X3280Y241D01*
X3313Y241D02*
X3335Y241D01*
X3358Y241D02*
X3380Y241D01*
X3413Y241D02*
X3435Y241D01*
X3458Y241D02*
X3480Y241D01*
X3113Y240D02*
X3136Y240D01*
X3157Y240D02*
X3180Y240D01*
X3213Y240D02*
X3236Y240D01*
X3257Y240D02*
X3280Y240D01*
X3313Y240D02*
X3336Y240D01*
X3357Y240D02*
X3380Y240D01*
X3413Y240D02*
X3436Y240D01*
X3457Y240D02*
X3480Y240D01*
X3113Y239D02*
X3137Y239D01*
X3156Y239D02*
X3180Y239D01*
X3213Y239D02*
X3237Y239D01*
X3256Y239D02*
X3280Y239D01*
X3313Y239D02*
X3337Y239D01*
X3356Y239D02*
X3380Y239D01*
X3413Y239D02*
X3437Y239D01*
X3456Y239D02*
X3480Y239D01*
X3113Y238D02*
X3139Y238D01*
X3154Y238D02*
X3180Y238D01*
X3213Y238D02*
X3239Y238D01*
X3254Y238D02*
X3280Y238D01*
X3313Y238D02*
X3339Y238D01*
X3354Y238D02*
X3380Y238D01*
X3413Y238D02*
X3439Y238D01*
X3454Y238D02*
X3480Y238D01*
X3113Y237D02*
X3140Y237D01*
X3152Y237D02*
X3180Y237D01*
X3213Y237D02*
X3240Y237D01*
X3252Y237D02*
X3280Y237D01*
X3313Y237D02*
X3340Y237D01*
X3352Y237D02*
X3380Y237D01*
X3413Y237D02*
X3440Y237D01*
X3452Y237D02*
X3480Y237D01*
X3113Y236D02*
X3145Y236D01*
X3147Y236D02*
X3180Y236D01*
X3213Y236D02*
X3245Y236D01*
X3247Y236D02*
X3280Y236D01*
X3313Y236D02*
X3345Y236D01*
X3347Y236D02*
X3380Y236D01*
X3413Y236D02*
X3445Y236D01*
X3447Y236D02*
X3480Y236D01*
X3113Y235D02*
X3180Y235D01*
X3213Y235D02*
X3280Y235D01*
X3313Y235D02*
X3380Y235D01*
X3413Y235D02*
X3480Y235D01*
X3113Y234D02*
X3180Y234D01*
X3213Y234D02*
X3280Y234D01*
X3313Y234D02*
X3380Y234D01*
X3413Y234D02*
X3480Y234D01*
X3113Y233D02*
X3180Y233D01*
X3213Y233D02*
X3280Y233D01*
X3313Y233D02*
X3380Y233D01*
X3413Y233D02*
X3480Y233D01*
X3113Y232D02*
X3180Y232D01*
X3213Y232D02*
X3280Y232D01*
X3313Y232D02*
X3380Y232D01*
X3413Y232D02*
X3480Y232D01*
X3113Y231D02*
X3180Y231D01*
X3213Y231D02*
X3280Y231D01*
X3313Y231D02*
X3380Y231D01*
X3413Y231D02*
X3480Y231D01*
X3113Y230D02*
X3180Y230D01*
X3213Y230D02*
X3280Y230D01*
X3313Y230D02*
X3380Y230D01*
X3413Y230D02*
X3480Y230D01*
X3113Y229D02*
X3180Y229D01*
X3213Y229D02*
X3280Y229D01*
X3313Y229D02*
X3380Y229D01*
X3413Y229D02*
X3480Y229D01*
X3113Y228D02*
X3180Y228D01*
X3213Y228D02*
X3280Y228D01*
X3313Y228D02*
X3380Y228D01*
X3413Y228D02*
X3480Y228D01*
X3113Y227D02*
X3180Y227D01*
X3213Y227D02*
X3280Y227D01*
X3313Y227D02*
X3380Y227D01*
X3413Y227D02*
X3480Y227D01*
X3113Y226D02*
X3180Y226D01*
X3213Y226D02*
X3280Y226D01*
X3313Y226D02*
X3380Y226D01*
X3413Y226D02*
X3480Y226D01*
X3113Y225D02*
X3180Y225D01*
X3213Y225D02*
X3280Y225D01*
X3313Y225D02*
X3380Y225D01*
X3413Y225D02*
X3480Y225D01*
X3113Y224D02*
X3180Y224D01*
X3213Y224D02*
X3280Y224D01*
X3313Y224D02*
X3380Y224D01*
X3413Y224D02*
X3480Y224D01*
X3113Y223D02*
X3180Y223D01*
X3213Y223D02*
X3280Y223D01*
X3313Y223D02*
X3380Y223D01*
X3413Y223D02*
X3480Y223D01*
X3113Y222D02*
X3180Y222D01*
X3213Y222D02*
X3280Y222D01*
X3313Y222D02*
X3380Y222D01*
X3413Y222D02*
X3480Y222D01*
X3113Y221D02*
X3180Y221D01*
X3213Y221D02*
X3280Y221D01*
X3313Y221D02*
X3380Y221D01*
X3413Y221D02*
X3480Y221D01*
X3113Y220D02*
X3180Y220D01*
X3213Y220D02*
X3280Y220D01*
X3313Y220D02*
X3380Y220D01*
X3413Y220D02*
X3480Y220D01*
X3113Y219D02*
X3180Y219D01*
X3213Y219D02*
X3280Y219D01*
X3313Y219D02*
X3380Y219D01*
X3413Y219D02*
X3480Y219D01*
X3113Y218D02*
X3180Y218D01*
X3213Y218D02*
X3280Y218D01*
X3313Y218D02*
X3380Y218D01*
X3413Y218D02*
X3480Y218D01*
X3113Y217D02*
X3180Y217D01*
X3213Y217D02*
X3280Y217D01*
X3313Y217D02*
X3380Y217D01*
X3413Y217D02*
X3480Y217D01*
X3113Y216D02*
X3180Y216D01*
X3213Y216D02*
X3280Y216D01*
X3313Y216D02*
X3380Y216D01*
X3413Y216D02*
X3480Y216D01*
X3113Y215D02*
X3179Y215D01*
X3213Y215D02*
X3279Y215D01*
X3313Y215D02*
X3379Y215D01*
X3413Y215D02*
X3479Y215D01*
X3114Y214D02*
X3179Y214D01*
X3214Y214D02*
X3279Y214D01*
X3314Y214D02*
X3379Y214D01*
X3414Y214D02*
X3479Y214D01*
X3114Y213D02*
X3179Y213D01*
X3214Y213D02*
X3279Y213D01*
X3314Y213D02*
X3379Y213D01*
X3414Y213D02*
X3479Y213D01*
X3114Y212D02*
X3179Y212D01*
X3214Y212D02*
X3279Y212D01*
X3314Y212D02*
X3379Y212D01*
X3414Y212D02*
X3479Y212D01*
X3114Y211D02*
X3178Y211D01*
X3214Y211D02*
X3278Y211D01*
X3314Y211D02*
X3378Y211D01*
X3414Y211D02*
X3478Y211D01*
X3115Y210D02*
X3178Y210D01*
X3215Y210D02*
X3278Y210D01*
X3315Y210D02*
X3378Y210D01*
X3415Y210D02*
X3478Y210D01*
X3115Y209D02*
X3178Y209D01*
X3215Y209D02*
X3278Y209D01*
X3315Y209D02*
X3378Y209D01*
X3415Y209D02*
X3478Y209D01*
X3116Y208D02*
X3177Y208D01*
X3216Y208D02*
X3277Y208D01*
X3316Y208D02*
X3377Y208D01*
X3416Y208D02*
X3477Y208D01*
X3116Y207D02*
X3177Y207D01*
X3216Y207D02*
X3277Y207D01*
X3316Y207D02*
X3377Y207D01*
X3416Y207D02*
X3477Y207D01*
X3116Y206D02*
X3176Y206D01*
X3216Y206D02*
X3276Y206D01*
X3316Y206D02*
X3376Y206D01*
X3416Y206D02*
X3476Y206D01*
X3117Y205D02*
X3176Y205D01*
X3217Y205D02*
X3276Y205D01*
X3317Y205D02*
X3376Y205D01*
X3417Y205D02*
X3476Y205D01*
X3117Y204D02*
X3175Y204D01*
X3217Y204D02*
X3275Y204D01*
X3317Y204D02*
X3375Y204D01*
X3417Y204D02*
X3475Y204D01*
X3118Y203D02*
X3175Y203D01*
X3218Y203D02*
X3275Y203D01*
X3318Y203D02*
X3375Y203D01*
X3418Y203D02*
X3475Y203D01*
X3119Y202D02*
X3174Y202D01*
X3219Y202D02*
X3274Y202D01*
X3319Y202D02*
X3374Y202D01*
X3419Y202D02*
X3474Y202D01*
X3119Y201D02*
X3174Y201D01*
X3219Y201D02*
X3274Y201D01*
X3319Y201D02*
X3374Y201D01*
X3419Y201D02*
X3474Y201D01*
X3120Y200D02*
X3173Y200D01*
X3220Y200D02*
X3273Y200D01*
X3320Y200D02*
X3373Y200D01*
X3420Y200D02*
X3473Y200D01*
X3121Y199D02*
X3172Y199D01*
X3221Y199D02*
X3272Y199D01*
X3321Y199D02*
X3372Y199D01*
X3421Y199D02*
X3472Y199D01*
X3122Y198D02*
X3171Y198D01*
X3222Y198D02*
X3271Y198D01*
X3322Y198D02*
X3371Y198D01*
X3422Y198D02*
X3471Y198D01*
X3123Y197D02*
X3170Y197D01*
X3223Y197D02*
X3270Y197D01*
X3323Y197D02*
X3370Y197D01*
X3423Y197D02*
X3470Y197D01*
X3124Y196D02*
X3169Y196D01*
X3224Y196D02*
X3269Y196D01*
X3324Y196D02*
X3369Y196D01*
X3424Y196D02*
X3469Y196D01*
X3125Y195D02*
X3168Y195D01*
X3225Y195D02*
X3268Y195D01*
X3325Y195D02*
X3368Y195D01*
X3425Y195D02*
X3468Y195D01*
X3126Y194D02*
X3167Y194D01*
X3226Y194D02*
X3267Y194D01*
X3326Y194D02*
X3367Y194D01*
X3426Y194D02*
X3467Y194D01*
X3128Y193D02*
X3165Y193D01*
X3228Y193D02*
X3265Y193D01*
X3328Y193D02*
X3365Y193D01*
X3428Y193D02*
X3465Y193D01*
X3129Y192D02*
X3164Y192D01*
X3229Y192D02*
X3264Y192D01*
X3329Y192D02*
X3364Y192D01*
X3429Y192D02*
X3464Y192D01*
X3131Y191D02*
X3162Y191D01*
X3231Y191D02*
X3262Y191D01*
X3331Y191D02*
X3362Y191D01*
X3431Y191D02*
X3462Y191D01*
X3133Y190D02*
X3160Y190D01*
X3233Y190D02*
X3260Y190D01*
X3333Y190D02*
X3360Y190D01*
X3433Y190D02*
X3460Y190D01*
X3135Y189D02*
X3157Y189D01*
X3235Y189D02*
X3257Y189D01*
X3335Y189D02*
X3357Y189D01*
X3435Y189D02*
X3457Y189D01*
X3139Y188D02*
X3154Y188D01*
X3239Y188D02*
X3254Y188D01*
X3339Y188D02*
X3354Y188D01*
X3439Y188D02*
X3454Y188D01*
X3144Y187D02*
X3149Y187D01*
X3244Y187D02*
X3249Y187D01*
X3344Y187D02*
X3349Y187D01*
X3444Y187D02*
X3449Y187D01*
D02*
G04 End of Mask0*
M02*