; NON-PLATED HOLES START AT T1
; THROUGH (PLATED) HOLES START AT T100
M48
INCH
T100C0.019685
T101C0.157480
T102C0.038189
T103C0.129921
T104C0.027559
T105C0.015748
T106C0.043307
T107C0.036000
T108C0.035000
T109C0.216535
%
T100
X018509Y036046
X020871Y036046
X018509Y037385
X020871Y037385
T101
X001826Y037411
X037761Y001670
X001837Y001808
X037512Y037485
T102
X033469Y005495
X032469Y005495
X031469Y005495
X034469Y002495
X033469Y002495
X032469Y002495
X034469Y005495
X031469Y002495
T103
X023192Y006131
X014924Y015974
X023192Y025816
T104
X035690Y031168
X002690Y031168
X035690Y032168
X002690Y032168
X035690Y033168
X002690Y033168
X035690Y034168
X002690Y034168
X035690Y035168
X002690Y035168
T105
X034257Y027542
X003942Y027542
X017721Y001952
X010635Y025574
X011816Y031676
X027958Y019274
X018706Y034235
X009454Y005101
X016540Y036597
X011225Y026164
X013727Y037520
X019690Y033645
X002761Y020456
X022690Y031099
X015671Y032298
X023701Y030076
X011225Y031086
X036225Y012188
X037261Y011691
X033076Y027542
X005123Y027542
X003548Y011794
X036816Y018881
X035438Y027542
X029742Y016042
X026748Y031686
X016698Y033054
X034257Y013369
X010635Y028133
X011816Y026755
T106
X015151Y011399
X024147Y020548
X024147Y023580
X015151Y020548
X015151Y023580
X024147Y008367
X015151Y008288
X024147Y011399
T107
X018730Y029140
X013730Y035140
X021730Y029140
X016730Y029140
X015730Y029140
X025730Y035140
X012730Y029140
X019730Y035140
X022730Y035140
X018730Y035140
X026730Y029140
X021730Y035140
X016730Y035140
X024730Y029140
X015730Y035140
X023730Y029140
X017730Y029140
X012730Y035140
X020730Y029140
X026730Y035140
X014730Y029140
X013730Y029140
X024730Y035140
X023730Y035140
X017730Y035140
X025730Y029140
X020730Y035140
X019730Y029140
X014730Y035140
X022730Y029140
T108
X037800Y029920
X037800Y028920
T109
X019649Y019714
T00
M30
