; NON-PLATED HOLES START AT T1
; THROUGH (PLATED) HOLES START AT T100
M48
INCH
T1C0.118110
T2C0.157480
T3C0.204724
T100C0.035000
T101C0.216535
T102C0.032000
T103C0.129921
T104C0.038000
T105C0.015748
T106C0.043307
T107C0.036000
%
T1
X014166Y002742
X022425Y012581
X014184Y022420
T2
X001979Y030726
X001979Y001986
X033428Y030726
X033428Y001986
T3
X017723Y016343
T100
X006413Y028772
X005413Y028772
X007444Y011632
X004444Y011632
X006460Y016267
X005460Y016267
T101
X017718Y016334
T102
X004309Y004151
X005309Y004151
X002296Y007151
X003296Y007151
X004309Y007151
X005309Y007151
X002296Y004151
X003296Y004151
T103
X022443Y012594
X014175Y002752
X014175Y022437
T104
X007906Y028954
X026885Y028954
X007906Y025954
X009523Y017734
X009523Y006104
X026885Y025954
X004507Y019309
X003507Y019309
X025554Y019128
X007906Y027954
X004491Y013206
X026885Y027954
X007906Y024954
X025726Y007317
X026885Y024954
X006507Y019309
X025554Y018128
X005507Y019309
X007906Y026954
X009523Y018734
X009523Y007104
X026885Y026954
X007906Y023954
X006491Y013206
X025726Y006317
X026885Y023954
X005491Y013206
T105
X017680Y010050
X017866Y018512
T106
X013220Y020200
X013220Y008019
X013220Y017169
X013220Y004909
X022216Y004988
X022216Y020200
X022216Y008019
X022216Y017169
T107
X027719Y014267
X033719Y011267
X027719Y006267
X027719Y019267
X033719Y016267
X029722Y021223
X027719Y020267
X033719Y008267
X027719Y012267
X027719Y017267
X033719Y014267
X027719Y009267
X033719Y006267
X033719Y019267
X030722Y021223
X031724Y020223
X027719Y010267
X033719Y020267
X027719Y015267
X033719Y012267
X027719Y007267
X033719Y017267
X033719Y009267
X027719Y013267
X033719Y010267
X027719Y018267
X033719Y015267
X029722Y020223
X033719Y007267
X031724Y021223
X027719Y011267
X027719Y016267
X033719Y013267
X027719Y008267
X033719Y018267
X030722Y020223
T00
M30
