G04 MADE WITH FRITZING*
G04 WWW.FRITZING.ORG*
G04 DOUBLE SIDED*
G04 HOLES PLATED*
G04 CONTOUR ON CENTER OF CONTOUR VECTOR*
%ASAXBY*%
%FSLAX23Y23*%
%MOIN*%
%OFA0B0*%
%SFA1.0B1.0*%
%ADD10C,0.049370*%
%ADD11C,0.068189*%
%ADD12C,0.080000*%
%ADD13C,0.092677*%
%ADD14C,0.265905*%
%ADD15C,0.155669*%
%ADD16C,0.175354*%
%ADD17C,0.089370*%
%ADD18C,0.072992*%
%ADD19R,0.072992X0.147795*%
%ADD20R,0.084803X0.072992*%
%ADD21R,0.072992X0.084803*%
%ADD22R,0.065118X0.069055*%
%ADD23R,0.090000X0.036000*%
%ADD24R,0.080000X0.079972*%
%ADD25R,0.089370X0.089370*%
%ADD26R,0.069055X0.065118*%
%ADD27R,0.001000X0.001000*%
%LNMASK1*%
G90*
G70*
G54D10*
X1754Y71D03*
X2173Y3867D03*
X1039Y1722D03*
X1047Y3119D03*
X1617Y3122D03*
X2769Y3067D03*
X3588Y2775D03*
X3669Y1917D03*
X1370Y3752D03*
X3586Y1172D03*
X1583Y193D03*
X1102Y470D03*
X358Y1147D03*
X255Y2003D03*
X358Y2797D03*
X2769Y1542D03*
X1919Y3117D03*
G54D11*
X2994Y742D03*
X3094Y742D03*
X3194Y742D03*
X3294Y742D03*
X3294Y1042D03*
X3194Y1042D03*
X3094Y1042D03*
X2994Y1042D03*
G54D12*
X1273Y2914D03*
X1373Y2914D03*
X1473Y2914D03*
X1573Y2914D03*
X1673Y2914D03*
X1773Y2914D03*
X1873Y2914D03*
X1973Y2914D03*
X2073Y2914D03*
X2173Y2914D03*
X2273Y2914D03*
X2373Y2914D03*
X2473Y2914D03*
X2573Y2914D03*
X2673Y2914D03*
X1273Y3514D03*
X1373Y3514D03*
X1473Y3514D03*
X1573Y3514D03*
X1673Y3514D03*
X1773Y3514D03*
X1873Y3514D03*
X1973Y3514D03*
X2073Y3514D03*
X2173Y3514D03*
X2273Y3514D03*
X2373Y3514D03*
X2473Y3514D03*
X2573Y3514D03*
X2673Y3514D03*
G54D10*
X544Y2842D03*
X1119Y2667D03*
X1169Y2717D03*
X1169Y3217D03*
X1119Y3167D03*
X2269Y3167D03*
X2669Y3217D03*
X2944Y1542D03*
X3444Y2867D03*
X2944Y892D03*
X3344Y2867D03*
X1713Y3317D03*
X1969Y3367D03*
X1569Y3267D03*
X1869Y3417D03*
G54D13*
X2415Y2358D03*
X2415Y2055D03*
X1515Y2055D03*
X1515Y2358D03*
X1515Y829D03*
X1515Y1140D03*
X2415Y1140D03*
X2415Y837D03*
G54D14*
X1965Y1971D03*
G54D15*
X2319Y2582D03*
X1492Y1597D03*
X2319Y613D03*
G54D16*
X3741Y198D03*
X197Y196D03*
X3740Y3730D03*
X200Y3731D03*
G54D17*
X497Y3016D03*
X497Y3116D03*
X497Y3216D03*
X497Y3316D03*
X497Y3416D03*
X3433Y3017D03*
X3433Y3117D03*
X3433Y3217D03*
X3433Y3317D03*
X3433Y3417D03*
G54D18*
X1914Y255D03*
X2012Y255D03*
X1914Y255D03*
X2012Y255D03*
X2021Y3655D03*
X1922Y3655D03*
X2021Y3655D03*
X1922Y3655D03*
G54D19*
X3069Y2829D03*
X3069Y2617D03*
G54D20*
X3357Y1170D03*
X3357Y1292D03*
X3219Y1170D03*
X3219Y1292D03*
X3081Y1170D03*
X3081Y1292D03*
X2943Y1170D03*
X2943Y1292D03*
G54D21*
X3044Y1542D03*
X3166Y1542D03*
G54D22*
X850Y2267D03*
X769Y2267D03*
X3088Y1717D03*
X3169Y1717D03*
G54D23*
X670Y2167D03*
X670Y2117D03*
X670Y2067D03*
X670Y2017D03*
X670Y1967D03*
X670Y1917D03*
X670Y1867D03*
X670Y1817D03*
X912Y1817D03*
X912Y1867D03*
X912Y1917D03*
X912Y1967D03*
X912Y2017D03*
X912Y2067D03*
X912Y2117D03*
X912Y2167D03*
G54D24*
X1273Y2914D03*
G54D21*
X3445Y2361D03*
X3567Y2361D03*
X473Y1573D03*
X351Y1573D03*
X3445Y2203D03*
X3567Y2203D03*
X473Y1731D03*
X351Y1731D03*
X3445Y2046D03*
X3567Y2046D03*
X473Y1888D03*
X351Y1888D03*
X473Y2046D03*
X351Y2046D03*
X3445Y1888D03*
X3567Y1888D03*
X3445Y1731D03*
X3567Y1731D03*
X473Y2203D03*
X351Y2203D03*
X3445Y1573D03*
X3567Y1573D03*
G54D25*
X497Y3016D03*
G54D21*
X473Y2361D03*
X351Y2361D03*
G54D25*
X3433Y3017D03*
G54D23*
X3249Y1806D03*
X3249Y1856D03*
X3249Y1906D03*
X3249Y1956D03*
X3249Y2006D03*
X3249Y2056D03*
X3249Y2106D03*
X3249Y2156D03*
X3007Y2156D03*
X3007Y2106D03*
X3007Y2056D03*
X3007Y2006D03*
X3007Y1956D03*
X3007Y1906D03*
X3007Y1856D03*
X3007Y1806D03*
G54D26*
X656Y3036D03*
X656Y3116D03*
X3272Y3036D03*
X3272Y3117D03*
G54D20*
X1757Y287D03*
X1757Y165D03*
X2167Y3637D03*
X2167Y3759D03*
G54D27*
X2988Y1105D02*
X2999Y1105D01*
X3088Y1105D02*
X3099Y1105D01*
X3188Y1105D02*
X3199Y1105D01*
X3288Y1105D02*
X3299Y1105D01*
X2984Y1104D02*
X3003Y1104D01*
X3084Y1104D02*
X3103Y1104D01*
X3184Y1104D02*
X3203Y1104D01*
X3284Y1104D02*
X3303Y1104D01*
X2981Y1103D02*
X3006Y1103D01*
X3081Y1103D02*
X3106Y1103D01*
X3181Y1103D02*
X3206Y1103D01*
X3281Y1103D02*
X3306Y1103D01*
X2979Y1102D02*
X3008Y1102D01*
X3079Y1102D02*
X3108Y1102D01*
X3179Y1102D02*
X3208Y1102D01*
X3279Y1102D02*
X3308Y1102D01*
X2977Y1101D02*
X3010Y1101D01*
X3077Y1101D02*
X3110Y1101D01*
X3177Y1101D02*
X3210Y1101D01*
X3277Y1101D02*
X3310Y1101D01*
X2975Y1100D02*
X3012Y1100D01*
X3075Y1100D02*
X3112Y1100D01*
X3175Y1100D02*
X3212Y1100D01*
X3275Y1100D02*
X3312Y1100D01*
X2974Y1099D02*
X3013Y1099D01*
X3074Y1099D02*
X3113Y1099D01*
X3174Y1099D02*
X3213Y1099D01*
X3274Y1099D02*
X3313Y1099D01*
X2973Y1098D02*
X3014Y1098D01*
X3073Y1098D02*
X3114Y1098D01*
X3173Y1098D02*
X3214Y1098D01*
X3273Y1098D02*
X3314Y1098D01*
X2971Y1097D02*
X3016Y1097D01*
X3071Y1097D02*
X3116Y1097D01*
X3171Y1097D02*
X3216Y1097D01*
X3271Y1097D02*
X3316Y1097D01*
X2970Y1096D02*
X3017Y1096D01*
X3070Y1096D02*
X3117Y1096D01*
X3170Y1096D02*
X3217Y1096D01*
X3270Y1096D02*
X3317Y1096D01*
X2969Y1095D02*
X3018Y1095D01*
X3069Y1095D02*
X3118Y1095D01*
X3169Y1095D02*
X3218Y1095D01*
X3269Y1095D02*
X3318Y1095D01*
X2968Y1094D02*
X3019Y1094D01*
X3068Y1094D02*
X3119Y1094D01*
X3168Y1094D02*
X3219Y1094D01*
X3268Y1094D02*
X3319Y1094D01*
X2968Y1093D02*
X3019Y1093D01*
X3068Y1093D02*
X3119Y1093D01*
X3168Y1093D02*
X3219Y1093D01*
X3268Y1093D02*
X3319Y1093D01*
X2967Y1092D02*
X3020Y1092D01*
X3067Y1092D02*
X3120Y1092D01*
X3167Y1092D02*
X3220Y1092D01*
X3267Y1092D02*
X3320Y1092D01*
X2966Y1091D02*
X3021Y1091D01*
X3066Y1091D02*
X3121Y1091D01*
X3166Y1091D02*
X3221Y1091D01*
X3266Y1091D02*
X3321Y1091D01*
X2965Y1090D02*
X3022Y1090D01*
X3065Y1090D02*
X3122Y1090D01*
X3165Y1090D02*
X3222Y1090D01*
X3265Y1090D02*
X3322Y1090D01*
X2965Y1089D02*
X3022Y1089D01*
X3065Y1089D02*
X3122Y1089D01*
X3165Y1089D02*
X3222Y1089D01*
X3265Y1089D02*
X3322Y1089D01*
X2964Y1088D02*
X3023Y1088D01*
X3064Y1088D02*
X3123Y1088D01*
X3164Y1088D02*
X3223Y1088D01*
X3264Y1088D02*
X3323Y1088D01*
X2964Y1087D02*
X3023Y1087D01*
X3064Y1087D02*
X3123Y1087D01*
X3164Y1087D02*
X3223Y1087D01*
X3264Y1087D02*
X3323Y1087D01*
X2963Y1086D02*
X3024Y1086D01*
X3063Y1086D02*
X3124Y1086D01*
X3163Y1086D02*
X3224Y1086D01*
X3263Y1086D02*
X3324Y1086D01*
X2963Y1085D02*
X3024Y1085D01*
X3063Y1085D02*
X3124Y1085D01*
X3163Y1085D02*
X3224Y1085D01*
X3263Y1085D02*
X3324Y1085D01*
X2962Y1084D02*
X3025Y1084D01*
X3062Y1084D02*
X3125Y1084D01*
X3162Y1084D02*
X3225Y1084D01*
X3262Y1084D02*
X3325Y1084D01*
X2962Y1083D02*
X3025Y1083D01*
X3062Y1083D02*
X3125Y1083D01*
X3162Y1083D02*
X3225Y1083D01*
X3262Y1083D02*
X3325Y1083D01*
X2962Y1082D02*
X3025Y1082D01*
X3062Y1082D02*
X3125Y1082D01*
X3162Y1082D02*
X3225Y1082D01*
X3262Y1082D02*
X3325Y1082D01*
X2961Y1081D02*
X3026Y1081D01*
X3061Y1081D02*
X3126Y1081D01*
X3161Y1081D02*
X3226Y1081D01*
X3261Y1081D02*
X3326Y1081D01*
X2961Y1080D02*
X3026Y1080D01*
X3061Y1080D02*
X3126Y1080D01*
X3161Y1080D02*
X3226Y1080D01*
X3261Y1080D02*
X3326Y1080D01*
X2961Y1079D02*
X3026Y1079D01*
X3061Y1079D02*
X3126Y1079D01*
X3161Y1079D02*
X3226Y1079D01*
X3261Y1079D02*
X3326Y1079D01*
X2961Y1078D02*
X3026Y1078D01*
X3061Y1078D02*
X3126Y1078D01*
X3161Y1078D02*
X3226Y1078D01*
X3261Y1078D02*
X3326Y1078D01*
X2960Y1077D02*
X3027Y1077D01*
X3060Y1077D02*
X3127Y1077D01*
X3160Y1077D02*
X3227Y1077D01*
X3260Y1077D02*
X3327Y1077D01*
X2960Y1076D02*
X3027Y1076D01*
X3060Y1076D02*
X3127Y1076D01*
X3160Y1076D02*
X3227Y1076D01*
X3260Y1076D02*
X3327Y1076D01*
X2960Y1075D02*
X3027Y1075D01*
X3060Y1075D02*
X3127Y1075D01*
X3160Y1075D02*
X3227Y1075D01*
X3260Y1075D02*
X3327Y1075D01*
X2960Y1074D02*
X3027Y1074D01*
X3060Y1074D02*
X3127Y1074D01*
X3160Y1074D02*
X3227Y1074D01*
X3260Y1074D02*
X3327Y1074D01*
X2960Y1073D02*
X3027Y1073D01*
X3060Y1073D02*
X3127Y1073D01*
X3160Y1073D02*
X3227Y1073D01*
X3260Y1073D02*
X3327Y1073D01*
X2960Y1072D02*
X3027Y1072D01*
X3060Y1072D02*
X3127Y1072D01*
X3160Y1072D02*
X3227Y1072D01*
X3260Y1072D02*
X3327Y1072D01*
X2960Y1071D02*
X3027Y1071D01*
X3060Y1071D02*
X3127Y1071D01*
X3160Y1071D02*
X3227Y1071D01*
X3260Y1071D02*
X3327Y1071D01*
X2960Y1070D02*
X3027Y1070D01*
X3060Y1070D02*
X3127Y1070D01*
X3160Y1070D02*
X3227Y1070D01*
X3260Y1070D02*
X3327Y1070D01*
X2960Y1069D02*
X3027Y1069D01*
X3060Y1069D02*
X3127Y1069D01*
X3160Y1069D02*
X3227Y1069D01*
X3260Y1069D02*
X3327Y1069D01*
X2960Y1068D02*
X3027Y1068D01*
X3060Y1068D02*
X3127Y1068D01*
X3160Y1068D02*
X3227Y1068D01*
X3260Y1068D02*
X3327Y1068D01*
X2960Y1067D02*
X3027Y1067D01*
X3060Y1067D02*
X3127Y1067D01*
X3160Y1067D02*
X3227Y1067D01*
X3260Y1067D02*
X3327Y1067D01*
X2960Y1066D02*
X3027Y1066D01*
X3060Y1066D02*
X3127Y1066D01*
X3160Y1066D02*
X3227Y1066D01*
X3260Y1066D02*
X3327Y1066D01*
X2960Y1065D02*
X3027Y1065D01*
X3060Y1065D02*
X3127Y1065D01*
X3160Y1065D02*
X3227Y1065D01*
X3260Y1065D02*
X3327Y1065D01*
X2960Y1064D02*
X3027Y1064D01*
X3060Y1064D02*
X3127Y1064D01*
X3160Y1064D02*
X3227Y1064D01*
X3260Y1064D02*
X3327Y1064D01*
X2960Y1063D02*
X3027Y1063D01*
X3060Y1063D02*
X3127Y1063D01*
X3160Y1063D02*
X3227Y1063D01*
X3260Y1063D02*
X3327Y1063D01*
X2960Y1062D02*
X3027Y1062D01*
X3060Y1062D02*
X3127Y1062D01*
X3160Y1062D02*
X3227Y1062D01*
X3260Y1062D02*
X3327Y1062D01*
X2960Y1061D02*
X3027Y1061D01*
X3060Y1061D02*
X3127Y1061D01*
X3160Y1061D02*
X3227Y1061D01*
X3260Y1061D02*
X3327Y1061D01*
X2960Y1060D02*
X3027Y1060D01*
X3060Y1060D02*
X3127Y1060D01*
X3160Y1060D02*
X3227Y1060D01*
X3260Y1060D02*
X3327Y1060D01*
X2960Y1059D02*
X3027Y1059D01*
X3060Y1059D02*
X3127Y1059D01*
X3160Y1059D02*
X3227Y1059D01*
X3260Y1059D02*
X3327Y1059D01*
X2960Y1058D02*
X3027Y1058D01*
X3060Y1058D02*
X3127Y1058D01*
X3160Y1058D02*
X3227Y1058D01*
X3260Y1058D02*
X3327Y1058D01*
X2960Y1057D02*
X3027Y1057D01*
X3060Y1057D02*
X3127Y1057D01*
X3160Y1057D02*
X3227Y1057D01*
X3260Y1057D02*
X3327Y1057D01*
X2960Y1056D02*
X2989Y1056D01*
X2998Y1056D02*
X3027Y1056D01*
X3060Y1056D02*
X3089Y1056D01*
X3098Y1056D02*
X3127Y1056D01*
X3160Y1056D02*
X3189Y1056D01*
X3198Y1056D02*
X3227Y1056D01*
X3260Y1056D02*
X3289Y1056D01*
X3298Y1056D02*
X3327Y1056D01*
X2960Y1055D02*
X2987Y1055D01*
X3000Y1055D02*
X3027Y1055D01*
X3060Y1055D02*
X3087Y1055D01*
X3100Y1055D02*
X3127Y1055D01*
X3160Y1055D02*
X3187Y1055D01*
X3200Y1055D02*
X3227Y1055D01*
X3260Y1055D02*
X3287Y1055D01*
X3300Y1055D02*
X3327Y1055D01*
X2960Y1054D02*
X2985Y1054D01*
X3002Y1054D02*
X3027Y1054D01*
X3060Y1054D02*
X3085Y1054D01*
X3102Y1054D02*
X3127Y1054D01*
X3160Y1054D02*
X3185Y1054D01*
X3202Y1054D02*
X3227Y1054D01*
X3260Y1054D02*
X3285Y1054D01*
X3302Y1054D02*
X3327Y1054D01*
X2960Y1053D02*
X2984Y1053D01*
X3003Y1053D02*
X3027Y1053D01*
X3060Y1053D02*
X3084Y1053D01*
X3103Y1053D02*
X3127Y1053D01*
X3160Y1053D02*
X3184Y1053D01*
X3203Y1053D02*
X3227Y1053D01*
X3260Y1053D02*
X3284Y1053D01*
X3303Y1053D02*
X3327Y1053D01*
X2960Y1052D02*
X2983Y1052D01*
X3004Y1052D02*
X3027Y1052D01*
X3060Y1052D02*
X3083Y1052D01*
X3104Y1052D02*
X3127Y1052D01*
X3160Y1052D02*
X3183Y1052D01*
X3204Y1052D02*
X3227Y1052D01*
X3260Y1052D02*
X3283Y1052D01*
X3304Y1052D02*
X3327Y1052D01*
X2960Y1051D02*
X2982Y1051D01*
X3005Y1051D02*
X3027Y1051D01*
X3060Y1051D02*
X3082Y1051D01*
X3105Y1051D02*
X3127Y1051D01*
X3160Y1051D02*
X3182Y1051D01*
X3205Y1051D02*
X3227Y1051D01*
X3260Y1051D02*
X3282Y1051D01*
X3305Y1051D02*
X3327Y1051D01*
X2960Y1050D02*
X2981Y1050D01*
X3006Y1050D02*
X3027Y1050D01*
X3060Y1050D02*
X3081Y1050D01*
X3106Y1050D02*
X3127Y1050D01*
X3160Y1050D02*
X3181Y1050D01*
X3206Y1050D02*
X3227Y1050D01*
X3260Y1050D02*
X3281Y1050D01*
X3306Y1050D02*
X3327Y1050D01*
X2960Y1049D02*
X2981Y1049D01*
X3006Y1049D02*
X3027Y1049D01*
X3060Y1049D02*
X3081Y1049D01*
X3106Y1049D02*
X3127Y1049D01*
X3160Y1049D02*
X3181Y1049D01*
X3206Y1049D02*
X3227Y1049D01*
X3260Y1049D02*
X3281Y1049D01*
X3306Y1049D02*
X3327Y1049D01*
X2960Y1048D02*
X2980Y1048D01*
X3007Y1048D02*
X3027Y1048D01*
X3060Y1048D02*
X3080Y1048D01*
X3107Y1048D02*
X3127Y1048D01*
X3160Y1048D02*
X3180Y1048D01*
X3207Y1048D02*
X3227Y1048D01*
X3260Y1048D02*
X3280Y1048D01*
X3307Y1048D02*
X3327Y1048D01*
X2960Y1047D02*
X2980Y1047D01*
X3007Y1047D02*
X3027Y1047D01*
X3060Y1047D02*
X3080Y1047D01*
X3107Y1047D02*
X3127Y1047D01*
X3160Y1047D02*
X3180Y1047D01*
X3207Y1047D02*
X3227Y1047D01*
X3260Y1047D02*
X3280Y1047D01*
X3307Y1047D02*
X3327Y1047D01*
X2960Y1046D02*
X2979Y1046D01*
X3008Y1046D02*
X3027Y1046D01*
X3060Y1046D02*
X3079Y1046D01*
X3108Y1046D02*
X3127Y1046D01*
X3160Y1046D02*
X3179Y1046D01*
X3208Y1046D02*
X3227Y1046D01*
X3260Y1046D02*
X3279Y1046D01*
X3308Y1046D02*
X3327Y1046D01*
X2960Y1045D02*
X2979Y1045D01*
X3008Y1045D02*
X3027Y1045D01*
X3060Y1045D02*
X3079Y1045D01*
X3108Y1045D02*
X3127Y1045D01*
X3160Y1045D02*
X3179Y1045D01*
X3208Y1045D02*
X3227Y1045D01*
X3260Y1045D02*
X3279Y1045D01*
X3308Y1045D02*
X3327Y1045D01*
X2960Y1044D02*
X2979Y1044D01*
X3008Y1044D02*
X3027Y1044D01*
X3060Y1044D02*
X3079Y1044D01*
X3108Y1044D02*
X3127Y1044D01*
X3160Y1044D02*
X3179Y1044D01*
X3208Y1044D02*
X3227Y1044D01*
X3260Y1044D02*
X3279Y1044D01*
X3308Y1044D02*
X3327Y1044D01*
X2960Y1043D02*
X2979Y1043D01*
X3008Y1043D02*
X3027Y1043D01*
X3060Y1043D02*
X3079Y1043D01*
X3108Y1043D02*
X3127Y1043D01*
X3160Y1043D02*
X3179Y1043D01*
X3208Y1043D02*
X3227Y1043D01*
X3260Y1043D02*
X3279Y1043D01*
X3308Y1043D02*
X3327Y1043D01*
X2960Y1042D02*
X2979Y1042D01*
X3008Y1042D02*
X3027Y1042D01*
X3060Y1042D02*
X3079Y1042D01*
X3108Y1042D02*
X3127Y1042D01*
X3160Y1042D02*
X3179Y1042D01*
X3208Y1042D02*
X3227Y1042D01*
X3260Y1042D02*
X3279Y1042D01*
X3308Y1042D02*
X3327Y1042D01*
X2960Y1041D02*
X2979Y1041D01*
X3008Y1041D02*
X3027Y1041D01*
X3060Y1041D02*
X3079Y1041D01*
X3108Y1041D02*
X3127Y1041D01*
X3160Y1041D02*
X3179Y1041D01*
X3208Y1041D02*
X3227Y1041D01*
X3260Y1041D02*
X3279Y1041D01*
X3308Y1041D02*
X3327Y1041D01*
X2960Y1040D02*
X2979Y1040D01*
X3008Y1040D02*
X3027Y1040D01*
X3060Y1040D02*
X3079Y1040D01*
X3108Y1040D02*
X3127Y1040D01*
X3160Y1040D02*
X3179Y1040D01*
X3208Y1040D02*
X3227Y1040D01*
X3260Y1040D02*
X3279Y1040D01*
X3308Y1040D02*
X3327Y1040D01*
X2960Y1039D02*
X2979Y1039D01*
X3008Y1039D02*
X3027Y1039D01*
X3060Y1039D02*
X3079Y1039D01*
X3108Y1039D02*
X3127Y1039D01*
X3160Y1039D02*
X3179Y1039D01*
X3208Y1039D02*
X3227Y1039D01*
X3260Y1039D02*
X3279Y1039D01*
X3308Y1039D02*
X3327Y1039D01*
X2960Y1038D02*
X2980Y1038D01*
X3007Y1038D02*
X3027Y1038D01*
X3060Y1038D02*
X3080Y1038D01*
X3107Y1038D02*
X3127Y1038D01*
X3160Y1038D02*
X3180Y1038D01*
X3207Y1038D02*
X3227Y1038D01*
X3260Y1038D02*
X3280Y1038D01*
X3307Y1038D02*
X3327Y1038D01*
X2960Y1037D02*
X2980Y1037D01*
X3007Y1037D02*
X3027Y1037D01*
X3060Y1037D02*
X3080Y1037D01*
X3107Y1037D02*
X3127Y1037D01*
X3160Y1037D02*
X3180Y1037D01*
X3207Y1037D02*
X3227Y1037D01*
X3260Y1037D02*
X3280Y1037D01*
X3307Y1037D02*
X3327Y1037D01*
X2960Y1036D02*
X2980Y1036D01*
X3007Y1036D02*
X3027Y1036D01*
X3060Y1036D02*
X3080Y1036D01*
X3107Y1036D02*
X3127Y1036D01*
X3160Y1036D02*
X3180Y1036D01*
X3207Y1036D02*
X3227Y1036D01*
X3260Y1036D02*
X3280Y1036D01*
X3307Y1036D02*
X3327Y1036D01*
X2960Y1035D02*
X2981Y1035D01*
X3006Y1035D02*
X3027Y1035D01*
X3060Y1035D02*
X3081Y1035D01*
X3106Y1035D02*
X3127Y1035D01*
X3160Y1035D02*
X3181Y1035D01*
X3206Y1035D02*
X3227Y1035D01*
X3260Y1035D02*
X3281Y1035D01*
X3306Y1035D02*
X3327Y1035D01*
X2960Y1034D02*
X2982Y1034D01*
X3005Y1034D02*
X3027Y1034D01*
X3060Y1034D02*
X3082Y1034D01*
X3105Y1034D02*
X3127Y1034D01*
X3160Y1034D02*
X3182Y1034D01*
X3205Y1034D02*
X3227Y1034D01*
X3260Y1034D02*
X3282Y1034D01*
X3305Y1034D02*
X3327Y1034D01*
X2960Y1033D02*
X2983Y1033D01*
X3004Y1033D02*
X3027Y1033D01*
X3060Y1033D02*
X3083Y1033D01*
X3104Y1033D02*
X3127Y1033D01*
X3160Y1033D02*
X3183Y1033D01*
X3204Y1033D02*
X3227Y1033D01*
X3260Y1033D02*
X3283Y1033D01*
X3304Y1033D02*
X3327Y1033D01*
X2960Y1032D02*
X2984Y1032D01*
X3003Y1032D02*
X3027Y1032D01*
X3060Y1032D02*
X3084Y1032D01*
X3103Y1032D02*
X3127Y1032D01*
X3160Y1032D02*
X3184Y1032D01*
X3203Y1032D02*
X3227Y1032D01*
X3260Y1032D02*
X3284Y1032D01*
X3303Y1032D02*
X3327Y1032D01*
X2960Y1031D02*
X2985Y1031D01*
X3002Y1031D02*
X3027Y1031D01*
X3060Y1031D02*
X3085Y1031D01*
X3102Y1031D02*
X3127Y1031D01*
X3160Y1031D02*
X3185Y1031D01*
X3202Y1031D02*
X3227Y1031D01*
X3260Y1031D02*
X3285Y1031D01*
X3302Y1031D02*
X3327Y1031D01*
X2960Y1030D02*
X2986Y1030D01*
X3001Y1030D02*
X3027Y1030D01*
X3060Y1030D02*
X3086Y1030D01*
X3101Y1030D02*
X3127Y1030D01*
X3160Y1030D02*
X3186Y1030D01*
X3201Y1030D02*
X3227Y1030D01*
X3260Y1030D02*
X3286Y1030D01*
X3301Y1030D02*
X3327Y1030D01*
X2960Y1029D02*
X2989Y1029D01*
X2999Y1029D02*
X3027Y1029D01*
X3060Y1029D02*
X3089Y1029D01*
X3099Y1029D02*
X3127Y1029D01*
X3160Y1029D02*
X3189Y1029D01*
X3199Y1029D02*
X3227Y1029D01*
X3260Y1029D02*
X3289Y1029D01*
X3299Y1029D02*
X3327Y1029D01*
X2960Y1028D02*
X3027Y1028D01*
X3060Y1028D02*
X3127Y1028D01*
X3160Y1028D02*
X3227Y1028D01*
X3260Y1028D02*
X3327Y1028D01*
X2960Y1027D02*
X3027Y1027D01*
X3060Y1027D02*
X3127Y1027D01*
X3160Y1027D02*
X3227Y1027D01*
X3260Y1027D02*
X3327Y1027D01*
X2960Y1026D02*
X3027Y1026D01*
X3060Y1026D02*
X3127Y1026D01*
X3160Y1026D02*
X3227Y1026D01*
X3260Y1026D02*
X3327Y1026D01*
X2960Y1025D02*
X3027Y1025D01*
X3060Y1025D02*
X3127Y1025D01*
X3160Y1025D02*
X3227Y1025D01*
X3260Y1025D02*
X3327Y1025D01*
X2960Y1024D02*
X3027Y1024D01*
X3060Y1024D02*
X3127Y1024D01*
X3160Y1024D02*
X3227Y1024D01*
X3260Y1024D02*
X3327Y1024D01*
X2960Y1023D02*
X3027Y1023D01*
X3060Y1023D02*
X3127Y1023D01*
X3160Y1023D02*
X3227Y1023D01*
X3260Y1023D02*
X3327Y1023D01*
X2960Y1022D02*
X3027Y1022D01*
X3060Y1022D02*
X3127Y1022D01*
X3160Y1022D02*
X3227Y1022D01*
X3260Y1022D02*
X3327Y1022D01*
X2960Y1021D02*
X3027Y1021D01*
X3060Y1021D02*
X3127Y1021D01*
X3160Y1021D02*
X3227Y1021D01*
X3260Y1021D02*
X3327Y1021D01*
X2960Y1020D02*
X3027Y1020D01*
X3060Y1020D02*
X3127Y1020D01*
X3160Y1020D02*
X3227Y1020D01*
X3260Y1020D02*
X3327Y1020D01*
X2960Y1019D02*
X3027Y1019D01*
X3060Y1019D02*
X3127Y1019D01*
X3160Y1019D02*
X3227Y1019D01*
X3260Y1019D02*
X3327Y1019D01*
X2960Y1018D02*
X3027Y1018D01*
X3060Y1018D02*
X3127Y1018D01*
X3160Y1018D02*
X3227Y1018D01*
X3260Y1018D02*
X3327Y1018D01*
X2960Y1017D02*
X3027Y1017D01*
X3060Y1017D02*
X3127Y1017D01*
X3160Y1017D02*
X3227Y1017D01*
X3260Y1017D02*
X3327Y1017D01*
X2960Y1016D02*
X3027Y1016D01*
X3060Y1016D02*
X3127Y1016D01*
X3160Y1016D02*
X3227Y1016D01*
X3260Y1016D02*
X3327Y1016D01*
X2960Y1015D02*
X3027Y1015D01*
X3060Y1015D02*
X3127Y1015D01*
X3160Y1015D02*
X3227Y1015D01*
X3260Y1015D02*
X3327Y1015D01*
X2960Y1014D02*
X3027Y1014D01*
X3060Y1014D02*
X3127Y1014D01*
X3160Y1014D02*
X3227Y1014D01*
X3260Y1014D02*
X3327Y1014D01*
X2960Y1013D02*
X3027Y1013D01*
X3060Y1013D02*
X3127Y1013D01*
X3160Y1013D02*
X3227Y1013D01*
X3260Y1013D02*
X3327Y1013D01*
X2960Y1012D02*
X3027Y1012D01*
X3060Y1012D02*
X3127Y1012D01*
X3160Y1012D02*
X3227Y1012D01*
X3260Y1012D02*
X3327Y1012D01*
X2960Y1011D02*
X3027Y1011D01*
X3060Y1011D02*
X3127Y1011D01*
X3160Y1011D02*
X3227Y1011D01*
X3260Y1011D02*
X3327Y1011D01*
X2960Y1010D02*
X3027Y1010D01*
X3060Y1010D02*
X3127Y1010D01*
X3160Y1010D02*
X3227Y1010D01*
X3260Y1010D02*
X3327Y1010D01*
X2960Y1009D02*
X3027Y1009D01*
X3060Y1009D02*
X3127Y1009D01*
X3160Y1009D02*
X3227Y1009D01*
X3260Y1009D02*
X3327Y1009D01*
X2960Y1008D02*
X3027Y1008D01*
X3060Y1008D02*
X3127Y1008D01*
X3160Y1008D02*
X3227Y1008D01*
X3260Y1008D02*
X3327Y1008D01*
X2961Y1007D02*
X3026Y1007D01*
X3061Y1007D02*
X3126Y1007D01*
X3161Y1007D02*
X3226Y1007D01*
X3261Y1007D02*
X3326Y1007D01*
X2961Y1006D02*
X3026Y1006D01*
X3061Y1006D02*
X3126Y1006D01*
X3161Y1006D02*
X3226Y1006D01*
X3261Y1006D02*
X3326Y1006D01*
X2961Y1005D02*
X3026Y1005D01*
X3061Y1005D02*
X3126Y1005D01*
X3161Y1005D02*
X3226Y1005D01*
X3261Y1005D02*
X3326Y1005D01*
X2961Y1004D02*
X3026Y1004D01*
X3061Y1004D02*
X3126Y1004D01*
X3161Y1004D02*
X3226Y1004D01*
X3261Y1004D02*
X3326Y1004D01*
X2962Y1003D02*
X3025Y1003D01*
X3062Y1003D02*
X3125Y1003D01*
X3162Y1003D02*
X3225Y1003D01*
X3262Y1003D02*
X3325Y1003D01*
X2962Y1002D02*
X3025Y1002D01*
X3062Y1002D02*
X3125Y1002D01*
X3162Y1002D02*
X3225Y1002D01*
X3262Y1002D02*
X3325Y1002D01*
X2962Y1001D02*
X3025Y1001D01*
X3062Y1001D02*
X3125Y1001D01*
X3162Y1001D02*
X3225Y1001D01*
X3262Y1001D02*
X3325Y1001D01*
X2963Y1000D02*
X3024Y1000D01*
X3063Y1000D02*
X3124Y1000D01*
X3163Y1000D02*
X3224Y1000D01*
X3263Y1000D02*
X3324Y1000D01*
X2963Y999D02*
X3024Y999D01*
X3063Y999D02*
X3124Y999D01*
X3163Y999D02*
X3224Y999D01*
X3263Y999D02*
X3324Y999D01*
X2964Y998D02*
X3023Y998D01*
X3064Y998D02*
X3123Y998D01*
X3164Y998D02*
X3223Y998D01*
X3264Y998D02*
X3323Y998D01*
X2964Y997D02*
X3023Y997D01*
X3064Y997D02*
X3123Y997D01*
X3164Y997D02*
X3223Y997D01*
X3264Y997D02*
X3323Y997D01*
X2965Y996D02*
X3022Y996D01*
X3065Y996D02*
X3122Y996D01*
X3165Y996D02*
X3222Y996D01*
X3265Y996D02*
X3322Y996D01*
X2965Y995D02*
X3022Y995D01*
X3065Y995D02*
X3122Y995D01*
X3165Y995D02*
X3222Y995D01*
X3265Y995D02*
X3322Y995D01*
X2966Y994D02*
X3021Y994D01*
X3066Y994D02*
X3121Y994D01*
X3166Y994D02*
X3221Y994D01*
X3266Y994D02*
X3321Y994D01*
X2967Y993D02*
X3020Y993D01*
X3067Y993D02*
X3120Y993D01*
X3167Y993D02*
X3220Y993D01*
X3267Y993D02*
X3320Y993D01*
X2967Y992D02*
X3020Y992D01*
X3067Y992D02*
X3120Y992D01*
X3167Y992D02*
X3220Y992D01*
X3267Y992D02*
X3320Y992D01*
X2968Y991D02*
X3019Y991D01*
X3068Y991D02*
X3119Y991D01*
X3168Y991D02*
X3219Y991D01*
X3268Y991D02*
X3319Y991D01*
X2969Y990D02*
X3018Y990D01*
X3069Y990D02*
X3118Y990D01*
X3169Y990D02*
X3218Y990D01*
X3269Y990D02*
X3318Y990D01*
X2970Y989D02*
X3017Y989D01*
X3070Y989D02*
X3117Y989D01*
X3170Y989D02*
X3217Y989D01*
X3270Y989D02*
X3317Y989D01*
X2971Y988D02*
X3016Y988D01*
X3071Y988D02*
X3116Y988D01*
X3171Y988D02*
X3216Y988D01*
X3271Y988D02*
X3316Y988D01*
X2972Y987D02*
X3015Y987D01*
X3072Y987D02*
X3115Y987D01*
X3172Y987D02*
X3215Y987D01*
X3272Y987D02*
X3315Y987D01*
X2974Y986D02*
X3013Y986D01*
X3074Y986D02*
X3113Y986D01*
X3174Y986D02*
X3213Y986D01*
X3274Y986D02*
X3313Y986D01*
X2975Y985D02*
X3012Y985D01*
X3075Y985D02*
X3112Y985D01*
X3175Y985D02*
X3212Y985D01*
X3275Y985D02*
X3312Y985D01*
X2977Y984D02*
X3010Y984D01*
X3077Y984D02*
X3110Y984D01*
X3177Y984D02*
X3210Y984D01*
X3277Y984D02*
X3310Y984D01*
X2979Y983D02*
X3008Y983D01*
X3079Y983D02*
X3108Y983D01*
X3179Y983D02*
X3208Y983D01*
X3279Y983D02*
X3308Y983D01*
X2981Y982D02*
X3006Y982D01*
X3081Y982D02*
X3106Y982D01*
X3181Y982D02*
X3206Y982D01*
X3281Y982D02*
X3306Y982D01*
X2983Y981D02*
X3004Y981D01*
X3083Y981D02*
X3104Y981D01*
X3183Y981D02*
X3204Y981D01*
X3283Y981D02*
X3304Y981D01*
X2987Y980D02*
X3000Y980D01*
X3087Y980D02*
X3100Y980D01*
X3187Y980D02*
X3200Y980D01*
X3287Y980D02*
X3300Y980D01*
X2988Y805D02*
X2999Y805D01*
X3088Y805D02*
X3099Y805D01*
X3188Y805D02*
X3199Y805D01*
X3288Y805D02*
X3299Y805D01*
X2984Y804D02*
X3003Y804D01*
X3084Y804D02*
X3103Y804D01*
X3184Y804D02*
X3203Y804D01*
X3284Y804D02*
X3303Y804D01*
X2981Y803D02*
X3006Y803D01*
X3081Y803D02*
X3106Y803D01*
X3181Y803D02*
X3206Y803D01*
X3281Y803D02*
X3306Y803D01*
X2979Y802D02*
X3008Y802D01*
X3079Y802D02*
X3108Y802D01*
X3179Y802D02*
X3208Y802D01*
X3279Y802D02*
X3308Y802D01*
X2977Y801D02*
X3010Y801D01*
X3077Y801D02*
X3110Y801D01*
X3177Y801D02*
X3210Y801D01*
X3277Y801D02*
X3310Y801D01*
X2975Y800D02*
X3012Y800D01*
X3075Y800D02*
X3112Y800D01*
X3175Y800D02*
X3212Y800D01*
X3275Y800D02*
X3312Y800D01*
X2974Y799D02*
X3013Y799D01*
X3074Y799D02*
X3113Y799D01*
X3174Y799D02*
X3213Y799D01*
X3274Y799D02*
X3313Y799D01*
X2973Y798D02*
X3014Y798D01*
X3073Y798D02*
X3114Y798D01*
X3173Y798D02*
X3214Y798D01*
X3273Y798D02*
X3314Y798D01*
X2971Y797D02*
X3016Y797D01*
X3071Y797D02*
X3116Y797D01*
X3171Y797D02*
X3216Y797D01*
X3271Y797D02*
X3316Y797D01*
X2970Y796D02*
X3017Y796D01*
X3070Y796D02*
X3117Y796D01*
X3170Y796D02*
X3217Y796D01*
X3270Y796D02*
X3317Y796D01*
X2969Y795D02*
X3018Y795D01*
X3069Y795D02*
X3118Y795D01*
X3169Y795D02*
X3218Y795D01*
X3269Y795D02*
X3318Y795D01*
X2968Y794D02*
X3019Y794D01*
X3068Y794D02*
X3119Y794D01*
X3168Y794D02*
X3219Y794D01*
X3268Y794D02*
X3319Y794D01*
X2968Y793D02*
X3019Y793D01*
X3068Y793D02*
X3119Y793D01*
X3168Y793D02*
X3219Y793D01*
X3268Y793D02*
X3319Y793D01*
X2967Y792D02*
X3020Y792D01*
X3067Y792D02*
X3120Y792D01*
X3167Y792D02*
X3220Y792D01*
X3267Y792D02*
X3320Y792D01*
X2966Y791D02*
X3021Y791D01*
X3066Y791D02*
X3121Y791D01*
X3166Y791D02*
X3221Y791D01*
X3266Y791D02*
X3321Y791D01*
X2965Y790D02*
X3022Y790D01*
X3065Y790D02*
X3122Y790D01*
X3165Y790D02*
X3222Y790D01*
X3265Y790D02*
X3322Y790D01*
X2965Y789D02*
X3022Y789D01*
X3065Y789D02*
X3122Y789D01*
X3165Y789D02*
X3222Y789D01*
X3265Y789D02*
X3322Y789D01*
X2964Y788D02*
X3023Y788D01*
X3064Y788D02*
X3123Y788D01*
X3164Y788D02*
X3223Y788D01*
X3264Y788D02*
X3323Y788D01*
X2964Y787D02*
X3023Y787D01*
X3064Y787D02*
X3123Y787D01*
X3164Y787D02*
X3223Y787D01*
X3264Y787D02*
X3323Y787D01*
X2963Y786D02*
X3024Y786D01*
X3063Y786D02*
X3124Y786D01*
X3163Y786D02*
X3224Y786D01*
X3263Y786D02*
X3324Y786D01*
X2963Y785D02*
X3024Y785D01*
X3063Y785D02*
X3124Y785D01*
X3163Y785D02*
X3224Y785D01*
X3263Y785D02*
X3324Y785D01*
X2962Y784D02*
X3025Y784D01*
X3062Y784D02*
X3125Y784D01*
X3162Y784D02*
X3225Y784D01*
X3262Y784D02*
X3325Y784D01*
X2962Y783D02*
X3025Y783D01*
X3062Y783D02*
X3125Y783D01*
X3162Y783D02*
X3225Y783D01*
X3262Y783D02*
X3325Y783D01*
X2962Y782D02*
X3025Y782D01*
X3062Y782D02*
X3125Y782D01*
X3162Y782D02*
X3225Y782D01*
X3262Y782D02*
X3325Y782D01*
X2961Y781D02*
X3026Y781D01*
X3061Y781D02*
X3126Y781D01*
X3161Y781D02*
X3226Y781D01*
X3261Y781D02*
X3326Y781D01*
X2961Y780D02*
X3026Y780D01*
X3061Y780D02*
X3126Y780D01*
X3161Y780D02*
X3226Y780D01*
X3261Y780D02*
X3326Y780D01*
X2961Y779D02*
X3026Y779D01*
X3061Y779D02*
X3126Y779D01*
X3161Y779D02*
X3226Y779D01*
X3261Y779D02*
X3326Y779D01*
X2961Y778D02*
X3026Y778D01*
X3061Y778D02*
X3126Y778D01*
X3161Y778D02*
X3226Y778D01*
X3261Y778D02*
X3326Y778D01*
X2960Y777D02*
X3027Y777D01*
X3060Y777D02*
X3127Y777D01*
X3160Y777D02*
X3227Y777D01*
X3260Y777D02*
X3327Y777D01*
X2960Y776D02*
X3027Y776D01*
X3060Y776D02*
X3127Y776D01*
X3160Y776D02*
X3227Y776D01*
X3260Y776D02*
X3327Y776D01*
X2960Y775D02*
X3027Y775D01*
X3060Y775D02*
X3127Y775D01*
X3160Y775D02*
X3227Y775D01*
X3260Y775D02*
X3327Y775D01*
X2960Y774D02*
X3027Y774D01*
X3060Y774D02*
X3127Y774D01*
X3160Y774D02*
X3227Y774D01*
X3260Y774D02*
X3327Y774D01*
X2960Y773D02*
X3027Y773D01*
X3060Y773D02*
X3127Y773D01*
X3160Y773D02*
X3227Y773D01*
X3260Y773D02*
X3327Y773D01*
X2960Y772D02*
X3027Y772D01*
X3060Y772D02*
X3127Y772D01*
X3160Y772D02*
X3227Y772D01*
X3260Y772D02*
X3327Y772D01*
X2960Y771D02*
X3027Y771D01*
X3060Y771D02*
X3127Y771D01*
X3160Y771D02*
X3227Y771D01*
X3260Y771D02*
X3327Y771D01*
X2960Y770D02*
X3027Y770D01*
X3060Y770D02*
X3127Y770D01*
X3160Y770D02*
X3227Y770D01*
X3260Y770D02*
X3327Y770D01*
X2960Y769D02*
X3027Y769D01*
X3060Y769D02*
X3127Y769D01*
X3160Y769D02*
X3227Y769D01*
X3260Y769D02*
X3327Y769D01*
X2960Y768D02*
X3027Y768D01*
X3060Y768D02*
X3127Y768D01*
X3160Y768D02*
X3227Y768D01*
X3260Y768D02*
X3327Y768D01*
X2960Y767D02*
X3027Y767D01*
X3060Y767D02*
X3127Y767D01*
X3160Y767D02*
X3227Y767D01*
X3260Y767D02*
X3327Y767D01*
X2960Y766D02*
X3027Y766D01*
X3060Y766D02*
X3127Y766D01*
X3160Y766D02*
X3227Y766D01*
X3260Y766D02*
X3327Y766D01*
X2960Y765D02*
X3027Y765D01*
X3060Y765D02*
X3127Y765D01*
X3160Y765D02*
X3227Y765D01*
X3260Y765D02*
X3327Y765D01*
X2960Y764D02*
X3027Y764D01*
X3060Y764D02*
X3127Y764D01*
X3160Y764D02*
X3227Y764D01*
X3260Y764D02*
X3327Y764D01*
X2960Y763D02*
X3027Y763D01*
X3060Y763D02*
X3127Y763D01*
X3160Y763D02*
X3227Y763D01*
X3260Y763D02*
X3327Y763D01*
X2960Y762D02*
X3027Y762D01*
X3060Y762D02*
X3127Y762D01*
X3160Y762D02*
X3227Y762D01*
X3260Y762D02*
X3327Y762D01*
X2960Y761D02*
X3027Y761D01*
X3060Y761D02*
X3127Y761D01*
X3160Y761D02*
X3227Y761D01*
X3260Y761D02*
X3327Y761D01*
X2960Y760D02*
X3027Y760D01*
X3060Y760D02*
X3127Y760D01*
X3160Y760D02*
X3227Y760D01*
X3260Y760D02*
X3327Y760D01*
X2960Y759D02*
X3027Y759D01*
X3060Y759D02*
X3127Y759D01*
X3160Y759D02*
X3227Y759D01*
X3260Y759D02*
X3327Y759D01*
X2960Y758D02*
X3027Y758D01*
X3060Y758D02*
X3127Y758D01*
X3160Y758D02*
X3227Y758D01*
X3260Y758D02*
X3327Y758D01*
X2960Y757D02*
X3027Y757D01*
X3060Y757D02*
X3127Y757D01*
X3160Y757D02*
X3227Y757D01*
X3260Y757D02*
X3327Y757D01*
X2960Y756D02*
X2989Y756D01*
X2998Y756D02*
X3027Y756D01*
X3060Y756D02*
X3089Y756D01*
X3098Y756D02*
X3127Y756D01*
X3160Y756D02*
X3189Y756D01*
X3198Y756D02*
X3227Y756D01*
X3260Y756D02*
X3289Y756D01*
X3298Y756D02*
X3327Y756D01*
X2960Y755D02*
X2987Y755D01*
X3000Y755D02*
X3027Y755D01*
X3060Y755D02*
X3087Y755D01*
X3100Y755D02*
X3127Y755D01*
X3160Y755D02*
X3187Y755D01*
X3200Y755D02*
X3227Y755D01*
X3260Y755D02*
X3287Y755D01*
X3300Y755D02*
X3327Y755D01*
X2960Y754D02*
X2985Y754D01*
X3002Y754D02*
X3027Y754D01*
X3060Y754D02*
X3085Y754D01*
X3102Y754D02*
X3127Y754D01*
X3160Y754D02*
X3185Y754D01*
X3202Y754D02*
X3227Y754D01*
X3260Y754D02*
X3285Y754D01*
X3302Y754D02*
X3327Y754D01*
X2960Y753D02*
X2984Y753D01*
X3003Y753D02*
X3027Y753D01*
X3060Y753D02*
X3084Y753D01*
X3103Y753D02*
X3127Y753D01*
X3160Y753D02*
X3184Y753D01*
X3203Y753D02*
X3227Y753D01*
X3260Y753D02*
X3284Y753D01*
X3303Y753D02*
X3327Y753D01*
X2960Y752D02*
X2983Y752D01*
X3004Y752D02*
X3027Y752D01*
X3060Y752D02*
X3083Y752D01*
X3104Y752D02*
X3127Y752D01*
X3160Y752D02*
X3183Y752D01*
X3204Y752D02*
X3227Y752D01*
X3260Y752D02*
X3283Y752D01*
X3304Y752D02*
X3327Y752D01*
X2960Y751D02*
X2982Y751D01*
X3005Y751D02*
X3027Y751D01*
X3060Y751D02*
X3082Y751D01*
X3105Y751D02*
X3127Y751D01*
X3160Y751D02*
X3182Y751D01*
X3205Y751D02*
X3227Y751D01*
X3260Y751D02*
X3282Y751D01*
X3305Y751D02*
X3327Y751D01*
X2960Y750D02*
X2981Y750D01*
X3006Y750D02*
X3027Y750D01*
X3060Y750D02*
X3081Y750D01*
X3106Y750D02*
X3127Y750D01*
X3160Y750D02*
X3181Y750D01*
X3206Y750D02*
X3227Y750D01*
X3260Y750D02*
X3281Y750D01*
X3306Y750D02*
X3327Y750D01*
X2960Y749D02*
X2981Y749D01*
X3006Y749D02*
X3027Y749D01*
X3060Y749D02*
X3081Y749D01*
X3106Y749D02*
X3127Y749D01*
X3160Y749D02*
X3181Y749D01*
X3206Y749D02*
X3227Y749D01*
X3260Y749D02*
X3281Y749D01*
X3306Y749D02*
X3327Y749D01*
X2960Y748D02*
X2980Y748D01*
X3007Y748D02*
X3027Y748D01*
X3060Y748D02*
X3080Y748D01*
X3107Y748D02*
X3127Y748D01*
X3160Y748D02*
X3180Y748D01*
X3207Y748D02*
X3227Y748D01*
X3260Y748D02*
X3280Y748D01*
X3307Y748D02*
X3327Y748D01*
X2960Y747D02*
X2980Y747D01*
X3007Y747D02*
X3027Y747D01*
X3060Y747D02*
X3080Y747D01*
X3107Y747D02*
X3127Y747D01*
X3160Y747D02*
X3180Y747D01*
X3207Y747D02*
X3227Y747D01*
X3260Y747D02*
X3280Y747D01*
X3307Y747D02*
X3327Y747D01*
X2960Y746D02*
X2979Y746D01*
X3008Y746D02*
X3027Y746D01*
X3060Y746D02*
X3079Y746D01*
X3108Y746D02*
X3127Y746D01*
X3160Y746D02*
X3179Y746D01*
X3208Y746D02*
X3227Y746D01*
X3260Y746D02*
X3279Y746D01*
X3308Y746D02*
X3327Y746D01*
X2960Y745D02*
X2979Y745D01*
X3008Y745D02*
X3027Y745D01*
X3060Y745D02*
X3079Y745D01*
X3108Y745D02*
X3127Y745D01*
X3160Y745D02*
X3179Y745D01*
X3208Y745D02*
X3227Y745D01*
X3260Y745D02*
X3279Y745D01*
X3308Y745D02*
X3327Y745D01*
X2960Y744D02*
X2979Y744D01*
X3008Y744D02*
X3027Y744D01*
X3060Y744D02*
X3079Y744D01*
X3108Y744D02*
X3127Y744D01*
X3160Y744D02*
X3179Y744D01*
X3208Y744D02*
X3227Y744D01*
X3260Y744D02*
X3279Y744D01*
X3308Y744D02*
X3327Y744D01*
X2960Y743D02*
X2979Y743D01*
X3008Y743D02*
X3027Y743D01*
X3060Y743D02*
X3079Y743D01*
X3108Y743D02*
X3127Y743D01*
X3160Y743D02*
X3179Y743D01*
X3208Y743D02*
X3227Y743D01*
X3260Y743D02*
X3279Y743D01*
X3308Y743D02*
X3327Y743D01*
X2960Y742D02*
X2979Y742D01*
X3008Y742D02*
X3027Y742D01*
X3060Y742D02*
X3079Y742D01*
X3108Y742D02*
X3127Y742D01*
X3160Y742D02*
X3179Y742D01*
X3208Y742D02*
X3227Y742D01*
X3260Y742D02*
X3279Y742D01*
X3308Y742D02*
X3327Y742D01*
X2960Y741D02*
X2979Y741D01*
X3008Y741D02*
X3027Y741D01*
X3060Y741D02*
X3079Y741D01*
X3108Y741D02*
X3127Y741D01*
X3160Y741D02*
X3179Y741D01*
X3208Y741D02*
X3227Y741D01*
X3260Y741D02*
X3279Y741D01*
X3308Y741D02*
X3327Y741D01*
X2960Y740D02*
X2979Y740D01*
X3008Y740D02*
X3027Y740D01*
X3060Y740D02*
X3079Y740D01*
X3108Y740D02*
X3127Y740D01*
X3160Y740D02*
X3179Y740D01*
X3208Y740D02*
X3227Y740D01*
X3260Y740D02*
X3279Y740D01*
X3308Y740D02*
X3327Y740D01*
X2960Y739D02*
X2979Y739D01*
X3008Y739D02*
X3027Y739D01*
X3060Y739D02*
X3079Y739D01*
X3108Y739D02*
X3127Y739D01*
X3160Y739D02*
X3179Y739D01*
X3208Y739D02*
X3227Y739D01*
X3260Y739D02*
X3279Y739D01*
X3308Y739D02*
X3327Y739D01*
X2960Y738D02*
X2980Y738D01*
X3007Y738D02*
X3027Y738D01*
X3060Y738D02*
X3080Y738D01*
X3107Y738D02*
X3127Y738D01*
X3160Y738D02*
X3180Y738D01*
X3207Y738D02*
X3227Y738D01*
X3260Y738D02*
X3280Y738D01*
X3307Y738D02*
X3327Y738D01*
X2960Y737D02*
X2980Y737D01*
X3007Y737D02*
X3027Y737D01*
X3060Y737D02*
X3080Y737D01*
X3107Y737D02*
X3127Y737D01*
X3160Y737D02*
X3180Y737D01*
X3207Y737D02*
X3227Y737D01*
X3260Y737D02*
X3280Y737D01*
X3307Y737D02*
X3327Y737D01*
X2960Y736D02*
X2980Y736D01*
X3007Y736D02*
X3027Y736D01*
X3060Y736D02*
X3080Y736D01*
X3107Y736D02*
X3127Y736D01*
X3160Y736D02*
X3180Y736D01*
X3207Y736D02*
X3227Y736D01*
X3260Y736D02*
X3280Y736D01*
X3307Y736D02*
X3327Y736D01*
X2960Y735D02*
X2981Y735D01*
X3006Y735D02*
X3027Y735D01*
X3060Y735D02*
X3081Y735D01*
X3106Y735D02*
X3127Y735D01*
X3160Y735D02*
X3181Y735D01*
X3206Y735D02*
X3227Y735D01*
X3260Y735D02*
X3281Y735D01*
X3306Y735D02*
X3327Y735D01*
X2960Y734D02*
X2982Y734D01*
X3005Y734D02*
X3027Y734D01*
X3060Y734D02*
X3082Y734D01*
X3105Y734D02*
X3127Y734D01*
X3160Y734D02*
X3182Y734D01*
X3205Y734D02*
X3227Y734D01*
X3260Y734D02*
X3282Y734D01*
X3305Y734D02*
X3327Y734D01*
X2960Y733D02*
X2983Y733D01*
X3004Y733D02*
X3027Y733D01*
X3060Y733D02*
X3083Y733D01*
X3104Y733D02*
X3127Y733D01*
X3160Y733D02*
X3183Y733D01*
X3204Y733D02*
X3227Y733D01*
X3260Y733D02*
X3283Y733D01*
X3304Y733D02*
X3327Y733D01*
X2960Y732D02*
X2984Y732D01*
X3003Y732D02*
X3027Y732D01*
X3060Y732D02*
X3084Y732D01*
X3103Y732D02*
X3127Y732D01*
X3160Y732D02*
X3184Y732D01*
X3203Y732D02*
X3227Y732D01*
X3260Y732D02*
X3284Y732D01*
X3303Y732D02*
X3327Y732D01*
X2960Y731D02*
X2985Y731D01*
X3002Y731D02*
X3027Y731D01*
X3060Y731D02*
X3085Y731D01*
X3102Y731D02*
X3127Y731D01*
X3160Y731D02*
X3185Y731D01*
X3202Y731D02*
X3227Y731D01*
X3260Y731D02*
X3285Y731D01*
X3302Y731D02*
X3327Y731D01*
X2960Y730D02*
X2986Y730D01*
X3001Y730D02*
X3027Y730D01*
X3060Y730D02*
X3086Y730D01*
X3101Y730D02*
X3127Y730D01*
X3160Y730D02*
X3186Y730D01*
X3201Y730D02*
X3227Y730D01*
X3260Y730D02*
X3286Y730D01*
X3301Y730D02*
X3327Y730D01*
X2960Y729D02*
X2989Y729D01*
X2999Y729D02*
X3027Y729D01*
X3060Y729D02*
X3089Y729D01*
X3099Y729D02*
X3127Y729D01*
X3160Y729D02*
X3189Y729D01*
X3199Y729D02*
X3227Y729D01*
X3260Y729D02*
X3289Y729D01*
X3299Y729D02*
X3327Y729D01*
X2960Y728D02*
X3027Y728D01*
X3060Y728D02*
X3127Y728D01*
X3160Y728D02*
X3227Y728D01*
X3260Y728D02*
X3327Y728D01*
X2960Y727D02*
X3027Y727D01*
X3060Y727D02*
X3127Y727D01*
X3160Y727D02*
X3227Y727D01*
X3260Y727D02*
X3327Y727D01*
X2960Y726D02*
X3027Y726D01*
X3060Y726D02*
X3127Y726D01*
X3160Y726D02*
X3227Y726D01*
X3260Y726D02*
X3327Y726D01*
X2960Y725D02*
X3027Y725D01*
X3060Y725D02*
X3127Y725D01*
X3160Y725D02*
X3227Y725D01*
X3260Y725D02*
X3327Y725D01*
X2960Y724D02*
X3027Y724D01*
X3060Y724D02*
X3127Y724D01*
X3160Y724D02*
X3227Y724D01*
X3260Y724D02*
X3327Y724D01*
X2960Y723D02*
X3027Y723D01*
X3060Y723D02*
X3127Y723D01*
X3160Y723D02*
X3227Y723D01*
X3260Y723D02*
X3327Y723D01*
X2960Y722D02*
X3027Y722D01*
X3060Y722D02*
X3127Y722D01*
X3160Y722D02*
X3227Y722D01*
X3260Y722D02*
X3327Y722D01*
X2960Y721D02*
X3027Y721D01*
X3060Y721D02*
X3127Y721D01*
X3160Y721D02*
X3227Y721D01*
X3260Y721D02*
X3327Y721D01*
X2960Y720D02*
X3027Y720D01*
X3060Y720D02*
X3127Y720D01*
X3160Y720D02*
X3227Y720D01*
X3260Y720D02*
X3327Y720D01*
X2960Y719D02*
X3027Y719D01*
X3060Y719D02*
X3127Y719D01*
X3160Y719D02*
X3227Y719D01*
X3260Y719D02*
X3327Y719D01*
X2960Y718D02*
X3027Y718D01*
X3060Y718D02*
X3127Y718D01*
X3160Y718D02*
X3227Y718D01*
X3260Y718D02*
X3327Y718D01*
X2960Y717D02*
X3027Y717D01*
X3060Y717D02*
X3127Y717D01*
X3160Y717D02*
X3227Y717D01*
X3260Y717D02*
X3327Y717D01*
X2960Y716D02*
X3027Y716D01*
X3060Y716D02*
X3127Y716D01*
X3160Y716D02*
X3227Y716D01*
X3260Y716D02*
X3327Y716D01*
X2960Y715D02*
X3027Y715D01*
X3060Y715D02*
X3127Y715D01*
X3160Y715D02*
X3227Y715D01*
X3260Y715D02*
X3327Y715D01*
X2960Y714D02*
X3027Y714D01*
X3060Y714D02*
X3127Y714D01*
X3160Y714D02*
X3227Y714D01*
X3260Y714D02*
X3327Y714D01*
X2960Y713D02*
X3027Y713D01*
X3060Y713D02*
X3127Y713D01*
X3160Y713D02*
X3227Y713D01*
X3260Y713D02*
X3327Y713D01*
X2960Y712D02*
X3027Y712D01*
X3060Y712D02*
X3127Y712D01*
X3160Y712D02*
X3227Y712D01*
X3260Y712D02*
X3327Y712D01*
X2960Y711D02*
X3027Y711D01*
X3060Y711D02*
X3127Y711D01*
X3160Y711D02*
X3227Y711D01*
X3260Y711D02*
X3327Y711D01*
X2960Y710D02*
X3027Y710D01*
X3060Y710D02*
X3127Y710D01*
X3160Y710D02*
X3227Y710D01*
X3260Y710D02*
X3327Y710D01*
X2960Y709D02*
X3027Y709D01*
X3060Y709D02*
X3127Y709D01*
X3160Y709D02*
X3227Y709D01*
X3260Y709D02*
X3327Y709D01*
X2960Y708D02*
X3027Y708D01*
X3060Y708D02*
X3127Y708D01*
X3160Y708D02*
X3227Y708D01*
X3260Y708D02*
X3327Y708D01*
X2961Y707D02*
X3026Y707D01*
X3061Y707D02*
X3126Y707D01*
X3161Y707D02*
X3226Y707D01*
X3261Y707D02*
X3326Y707D01*
X2961Y706D02*
X3026Y706D01*
X3061Y706D02*
X3126Y706D01*
X3161Y706D02*
X3226Y706D01*
X3261Y706D02*
X3326Y706D01*
X2961Y705D02*
X3026Y705D01*
X3061Y705D02*
X3126Y705D01*
X3161Y705D02*
X3226Y705D01*
X3261Y705D02*
X3326Y705D01*
X2961Y704D02*
X3026Y704D01*
X3061Y704D02*
X3126Y704D01*
X3161Y704D02*
X3226Y704D01*
X3261Y704D02*
X3326Y704D01*
X2962Y703D02*
X3025Y703D01*
X3062Y703D02*
X3125Y703D01*
X3162Y703D02*
X3225Y703D01*
X3262Y703D02*
X3325Y703D01*
X2962Y702D02*
X3025Y702D01*
X3062Y702D02*
X3125Y702D01*
X3162Y702D02*
X3225Y702D01*
X3262Y702D02*
X3325Y702D01*
X2962Y701D02*
X3025Y701D01*
X3062Y701D02*
X3125Y701D01*
X3162Y701D02*
X3225Y701D01*
X3262Y701D02*
X3325Y701D01*
X2963Y700D02*
X3024Y700D01*
X3063Y700D02*
X3124Y700D01*
X3163Y700D02*
X3224Y700D01*
X3263Y700D02*
X3324Y700D01*
X2963Y699D02*
X3024Y699D01*
X3063Y699D02*
X3124Y699D01*
X3163Y699D02*
X3224Y699D01*
X3263Y699D02*
X3324Y699D01*
X2964Y698D02*
X3023Y698D01*
X3064Y698D02*
X3123Y698D01*
X3164Y698D02*
X3223Y698D01*
X3264Y698D02*
X3323Y698D01*
X2964Y697D02*
X3023Y697D01*
X3064Y697D02*
X3123Y697D01*
X3164Y697D02*
X3223Y697D01*
X3264Y697D02*
X3323Y697D01*
X2965Y696D02*
X3022Y696D01*
X3065Y696D02*
X3122Y696D01*
X3165Y696D02*
X3222Y696D01*
X3265Y696D02*
X3322Y696D01*
X2965Y695D02*
X3022Y695D01*
X3065Y695D02*
X3122Y695D01*
X3165Y695D02*
X3222Y695D01*
X3265Y695D02*
X3322Y695D01*
X2966Y694D02*
X3021Y694D01*
X3066Y694D02*
X3121Y694D01*
X3166Y694D02*
X3221Y694D01*
X3266Y694D02*
X3321Y694D01*
X2967Y693D02*
X3020Y693D01*
X3067Y693D02*
X3120Y693D01*
X3167Y693D02*
X3220Y693D01*
X3267Y693D02*
X3320Y693D01*
X2967Y692D02*
X3020Y692D01*
X3067Y692D02*
X3120Y692D01*
X3167Y692D02*
X3220Y692D01*
X3267Y692D02*
X3320Y692D01*
X2968Y691D02*
X3019Y691D01*
X3068Y691D02*
X3119Y691D01*
X3168Y691D02*
X3219Y691D01*
X3268Y691D02*
X3319Y691D01*
X2969Y690D02*
X3018Y690D01*
X3069Y690D02*
X3118Y690D01*
X3169Y690D02*
X3218Y690D01*
X3269Y690D02*
X3318Y690D01*
X2970Y689D02*
X3017Y689D01*
X3070Y689D02*
X3117Y689D01*
X3170Y689D02*
X3217Y689D01*
X3270Y689D02*
X3317Y689D01*
X2971Y688D02*
X3016Y688D01*
X3071Y688D02*
X3116Y688D01*
X3171Y688D02*
X3216Y688D01*
X3271Y688D02*
X3316Y688D01*
X2972Y687D02*
X3015Y687D01*
X3072Y687D02*
X3115Y687D01*
X3172Y687D02*
X3215Y687D01*
X3272Y687D02*
X3315Y687D01*
X2974Y686D02*
X3013Y686D01*
X3074Y686D02*
X3113Y686D01*
X3174Y686D02*
X3213Y686D01*
X3274Y686D02*
X3313Y686D01*
X2975Y685D02*
X3012Y685D01*
X3075Y685D02*
X3112Y685D01*
X3175Y685D02*
X3212Y685D01*
X3275Y685D02*
X3312Y685D01*
X2977Y684D02*
X3010Y684D01*
X3077Y684D02*
X3110Y684D01*
X3177Y684D02*
X3210Y684D01*
X3277Y684D02*
X3310Y684D01*
X2979Y683D02*
X3008Y683D01*
X3079Y683D02*
X3108Y683D01*
X3179Y683D02*
X3208Y683D01*
X3279Y683D02*
X3308Y683D01*
X2981Y682D02*
X3006Y682D01*
X3081Y682D02*
X3106Y682D01*
X3181Y682D02*
X3206Y682D01*
X3281Y682D02*
X3306Y682D01*
X2983Y681D02*
X3004Y681D01*
X3083Y681D02*
X3104Y681D01*
X3183Y681D02*
X3204Y681D01*
X3283Y681D02*
X3304Y681D01*
X2987Y680D02*
X3000Y680D01*
X3087Y680D02*
X3100Y680D01*
X3187Y680D02*
X3200Y680D01*
X3287Y680D02*
X3300Y680D01*
D02*
G04 End of Mask1*
M02*