G04 MADE WITH FRITZING*
G04 WWW.FRITZING.ORG*
G04 DOUBLE SIDED*
G04 HOLES PLATED*
G04 CONTOUR ON CENTER OF CONTOUR VECTOR*
%ASAXBY*%
%FSLAX23Y23*%
%MOIN*%
%OFA0B0*%
%SFA1.0B1.0*%
%ADD10C,0.255905*%
%ADD11C,0.145669*%
%ADD12R,0.059055X0.055118*%
%ADD13R,0.055118X0.059055*%
%LNPASTEMASK0*%
G90*
G70*
G54D10*
X1965Y1971D03*
G54D11*
X2319Y2582D03*
X1492Y1597D03*
X2319Y613D03*
G54D12*
X1970Y3859D03*
X1970Y3778D03*
G54D13*
X79Y1969D03*
X160Y1969D03*
G54D12*
X1967Y73D03*
X1967Y154D03*
G54D13*
X3861Y1966D03*
X3780Y1966D03*
G36*
X298Y2904D02*
X328Y2955D01*
X376Y2928D01*
X346Y2877D01*
X298Y2904D01*
G37*
D02*
G36*
X368Y2864D02*
X398Y2915D01*
X445Y2887D01*
X416Y2836D01*
X368Y2864D01*
G37*
D02*
G36*
X2900Y3645D02*
X2951Y3616D01*
X2924Y3568D01*
X2873Y3598D01*
X2900Y3645D01*
G37*
D02*
G36*
X2860Y3576D02*
X2911Y3546D01*
X2884Y3498D01*
X2832Y3528D01*
X2860Y3576D01*
G37*
D02*
G36*
X3616Y2957D02*
X3646Y2906D01*
X3598Y2878D01*
X3569Y2929D01*
X3616Y2957D01*
G37*
D02*
G36*
X3547Y2917D02*
X3576Y2865D01*
X3528Y2838D01*
X3499Y2889D01*
X3547Y2917D01*
G37*
D02*
G36*
X323Y982D02*
X294Y1033D01*
X342Y1060D01*
X371Y1009D01*
X323Y982D01*
G37*
D02*
G36*
X393Y1022D02*
X364Y1073D01*
X411Y1101D01*
X441Y1050D01*
X393Y1022D01*
G37*
D02*
G36*
X1031Y289D02*
X980Y319D01*
X1008Y366D01*
X1059Y337D01*
X1031Y289D01*
G37*
D02*
G36*
X1072Y359D02*
X1021Y389D01*
X1048Y436D01*
X1099Y407D01*
X1072Y359D01*
G37*
D02*
G36*
X2955Y321D02*
X2904Y291D01*
X2877Y339D01*
X2928Y368D01*
X2955Y321D01*
G37*
D02*
G36*
X2915Y391D02*
X2864Y361D01*
X2836Y409D01*
X2887Y438D01*
X2915Y391D01*
G37*
D02*
G36*
X987Y3617D02*
X1038Y3646D01*
X1066Y3598D01*
X1014Y3569D01*
X987Y3617D01*
G37*
D02*
G36*
X1027Y3547D02*
X1078Y3576D01*
X1106Y3529D01*
X1055Y3499D01*
X1027Y3547D01*
G37*
D02*
G36*
X3650Y1034D02*
X3620Y982D01*
X3573Y1010D01*
X3602Y1061D01*
X3650Y1034D01*
G37*
D02*
G36*
X3580Y1074D02*
X3551Y1023D01*
X3503Y1050D01*
X3532Y1101D01*
X3580Y1074D01*
G37*
D02*
G04 End of PasteMask0*
M02*