G04 MADE WITH FRITZING*
G04 WWW.FRITZING.ORG*
G04 DOUBLE SIDED*
G04 HOLES PLATED*
G04 CONTOUR ON CENTER OF CONTOUR VECTOR*
%ASAXBY*%
%FSLAX23Y23*%
%MOIN*%
%OFA0B0*%
%SFA1.0B1.0*%
%ADD10C,0.049370*%
%ADD11C,0.085000*%
%ADD12C,0.068189*%
%ADD13C,0.069055*%
%ADD14C,0.080000*%
%ADD15C,0.092677*%
%ADD16C,0.265905*%
%ADD17C,0.155669*%
%ADD18C,0.072992*%
%ADD19C,0.226535*%
%ADD20C,0.077559*%
%ADD21R,0.084803X0.072992*%
%ADD22R,0.085000X0.085000*%
%ADD23R,0.065118X0.069055*%
%ADD24R,0.090000X0.036000*%
%ADD25R,0.080000X0.079972*%
%ADD26R,0.072992X0.084803*%
%ADD27R,0.072992X0.072992*%
%ADD28R,0.077559X0.077559*%
%ADD29C,0.025748*%
%ADD30R,0.001000X0.001000*%
%LNMASK1*%
G90*
G70*
G54D10*
X1838Y3050D03*
G54D11*
X3741Y2912D03*
X3841Y2912D03*
G54D12*
X3036Y527D03*
X3136Y527D03*
X3236Y527D03*
X3336Y527D03*
X3336Y827D03*
X3236Y827D03*
X3136Y827D03*
X3036Y827D03*
G54D13*
X1829Y3739D03*
X1829Y3605D03*
X1829Y3739D03*
X1829Y3605D03*
X2120Y3739D03*
X2120Y3605D03*
X2120Y3739D03*
X2120Y3605D03*
G54D14*
X1273Y2914D03*
X1373Y2914D03*
X1473Y2914D03*
X1573Y2914D03*
X1673Y2914D03*
X1773Y2914D03*
X1873Y2914D03*
X1973Y2914D03*
X2073Y2914D03*
X2173Y2914D03*
X2273Y2914D03*
X2373Y2914D03*
X2473Y2914D03*
X2573Y2914D03*
X2673Y2914D03*
X1273Y3514D03*
X1373Y3514D03*
X1473Y3514D03*
X1573Y3514D03*
X1673Y3514D03*
X1773Y3514D03*
X1873Y3514D03*
X1973Y3514D03*
X2073Y3514D03*
X2173Y3514D03*
X2273Y3514D03*
X2373Y3514D03*
X2473Y3514D03*
X2573Y3514D03*
X2673Y3514D03*
G54D10*
X591Y2990D03*
X1123Y2661D03*
X1182Y2720D03*
X1182Y3168D03*
X1123Y3109D03*
X2269Y3110D03*
X2675Y3169D03*
X2976Y1351D03*
X3308Y3069D03*
X3445Y1253D03*
X3229Y3030D03*
X1670Y3305D03*
X1969Y3365D03*
X1567Y3230D03*
X1871Y3424D03*
G54D15*
X2415Y2358D03*
X2415Y2055D03*
X1515Y2055D03*
X1515Y2358D03*
X1515Y829D03*
X1515Y1140D03*
X2415Y1140D03*
X2415Y837D03*
G54D16*
X1965Y1971D03*
G54D17*
X2319Y2582D03*
X1492Y1597D03*
X2319Y613D03*
G54D18*
X424Y2848D03*
X338Y2897D03*
X424Y2848D03*
X338Y2897D03*
X1975Y3755D03*
X1975Y3853D03*
X1975Y3755D03*
X1975Y3853D03*
G54D19*
X184Y181D03*
X3751Y3749D03*
X183Y3741D03*
X3776Y167D03*
G54D20*
X269Y3117D03*
X269Y3217D03*
X269Y3317D03*
X269Y3417D03*
X269Y3517D03*
X3569Y3117D03*
X3569Y3217D03*
X3569Y3317D03*
X3569Y3417D03*
X3569Y3517D03*
G54D18*
X186Y1967D03*
X87Y1967D03*
X186Y1967D03*
X87Y1967D03*
X2870Y3509D03*
X2919Y3595D03*
X2870Y3509D03*
X2919Y3595D03*
X3519Y2853D03*
X3604Y2902D03*
X3519Y2853D03*
X3604Y2902D03*
X425Y1067D03*
X339Y1017D03*
X425Y1067D03*
X339Y1017D03*
X1077Y411D03*
X1027Y326D03*
X1077Y411D03*
X1027Y326D03*
X2868Y408D03*
X2917Y323D03*
X2868Y408D03*
X2917Y323D03*
X1969Y174D03*
X1969Y75D03*
X1969Y174D03*
X1969Y75D03*
X1080Y3510D03*
X1031Y3595D03*
X1080Y3510D03*
X1031Y3595D03*
X3763Y1960D03*
X3862Y1960D03*
X3763Y1960D03*
X3862Y1960D03*
X3523Y1062D03*
X3608Y1013D03*
X3523Y1062D03*
X3608Y1013D03*
G54D21*
X3394Y981D03*
X3394Y1103D03*
G54D22*
X3741Y2912D03*
G54D21*
X3256Y981D03*
X3256Y1103D03*
X3118Y981D03*
X3118Y1103D03*
X2980Y981D03*
X2980Y1103D03*
X3168Y1346D03*
X3168Y1468D03*
G54D23*
X841Y2290D03*
X760Y2290D03*
X3087Y1699D03*
X3168Y1699D03*
G54D24*
X670Y2167D03*
X670Y2117D03*
X670Y2067D03*
X670Y2017D03*
X670Y1967D03*
X670Y1917D03*
X670Y1867D03*
X670Y1817D03*
X912Y1817D03*
X912Y1867D03*
X912Y1917D03*
X912Y1967D03*
X912Y2017D03*
X912Y2067D03*
X912Y2117D03*
X912Y2167D03*
G54D25*
X1273Y2914D03*
G54D26*
X3445Y2361D03*
X3567Y2361D03*
X473Y1573D03*
X351Y1573D03*
X3445Y2203D03*
X3567Y2203D03*
X473Y1731D03*
X351Y1731D03*
X3445Y2046D03*
X3567Y2046D03*
X473Y1888D03*
X351Y1888D03*
X473Y2046D03*
X351Y2046D03*
X3445Y1888D03*
X3567Y1888D03*
X3445Y1731D03*
X3567Y1731D03*
G54D27*
X1975Y3755D03*
X1975Y3755D03*
G54D26*
X473Y2203D03*
X351Y2203D03*
X3445Y1573D03*
X3567Y1573D03*
G54D28*
X269Y3117D03*
G54D26*
X473Y2361D03*
X351Y2361D03*
G54D28*
X3569Y3117D03*
G54D27*
X186Y1967D03*
X186Y1967D03*
X1969Y174D03*
X1969Y174D03*
G54D24*
X3249Y1806D03*
X3249Y1856D03*
X3249Y1906D03*
X3249Y1956D03*
X3249Y2006D03*
X3249Y2056D03*
X3249Y2106D03*
X3249Y2156D03*
X3007Y2156D03*
X3007Y2106D03*
X3007Y2056D03*
X3007Y2006D03*
X3007Y1956D03*
X3007Y1906D03*
X3007Y1856D03*
X3007Y1806D03*
G54D27*
X3763Y1960D03*
X3763Y1960D03*
G54D23*
X3758Y2715D03*
X3839Y2715D03*
G54D26*
X1654Y3739D03*
X1532Y3739D03*
X2284Y3739D03*
X2406Y3739D03*
G54D29*
G36*
X415Y2881D02*
X456Y2857D01*
X432Y2816D01*
X391Y2840D01*
X415Y2881D01*
G37*
D02*
G36*
X415Y2881D02*
X456Y2857D01*
X432Y2816D01*
X391Y2840D01*
X415Y2881D01*
G37*
D02*
G36*
X2902Y3518D02*
X2878Y3477D01*
X2838Y3501D01*
X2861Y3542D01*
X2902Y3518D01*
G37*
D02*
G36*
X2902Y3518D02*
X2878Y3477D01*
X2838Y3501D01*
X2861Y3542D01*
X2902Y3518D01*
G37*
D02*
G36*
X3551Y2844D02*
X3510Y2820D01*
X3486Y2861D01*
X3527Y2885D01*
X3551Y2844D01*
G37*
D02*
G36*
X3551Y2844D02*
X3510Y2820D01*
X3486Y2861D01*
X3527Y2885D01*
X3551Y2844D01*
G37*
D02*
G36*
X392Y1075D02*
X433Y1099D01*
X457Y1058D01*
X416Y1034D01*
X392Y1075D01*
G37*
D02*
G36*
X392Y1075D02*
X433Y1099D01*
X457Y1058D01*
X416Y1034D01*
X392Y1075D01*
G37*
D02*
G36*
X1044Y403D02*
X1068Y444D01*
X1109Y420D01*
X1085Y379D01*
X1044Y403D01*
G37*
D02*
G36*
X1044Y403D02*
X1068Y444D01*
X1109Y420D01*
X1085Y379D01*
X1044Y403D01*
G37*
D02*
G36*
X2859Y376D02*
X2836Y416D01*
X2877Y440D01*
X2900Y399D01*
X2859Y376D01*
G37*
D02*
G36*
X2859Y376D02*
X2836Y416D01*
X2877Y440D01*
X2900Y399D01*
X2859Y376D01*
G37*
D02*
G36*
X1089Y3542D02*
X1113Y3502D01*
X1072Y3478D01*
X1048Y3519D01*
X1089Y3542D01*
G37*
D02*
G36*
X1089Y3542D02*
X1113Y3502D01*
X1072Y3478D01*
X1048Y3519D01*
X1089Y3542D01*
G37*
D02*
G36*
X3531Y1029D02*
X3490Y1053D01*
X3514Y1094D01*
X3555Y1070D01*
X3531Y1029D01*
G37*
D02*
G36*
X3531Y1029D02*
X3490Y1053D01*
X3514Y1094D01*
X3555Y1070D01*
X3531Y1029D01*
G37*
D02*
G54D30*
X3335Y891D02*
X3335Y891D01*
X3028Y890D02*
X3043Y890D01*
X3128Y890D02*
X3143Y890D01*
X3228Y890D02*
X3243Y890D01*
X3328Y890D02*
X3343Y890D01*
X3025Y889D02*
X3046Y889D01*
X3125Y889D02*
X3146Y889D01*
X3225Y889D02*
X3246Y889D01*
X3325Y889D02*
X3346Y889D01*
X3022Y888D02*
X3049Y888D01*
X3122Y888D02*
X3149Y888D01*
X3222Y888D02*
X3249Y888D01*
X3322Y888D02*
X3349Y888D01*
X3020Y887D02*
X3051Y887D01*
X3120Y887D02*
X3151Y887D01*
X3220Y887D02*
X3251Y887D01*
X3320Y887D02*
X3351Y887D01*
X3018Y886D02*
X3052Y886D01*
X3118Y886D02*
X3152Y886D01*
X3218Y886D02*
X3252Y886D01*
X3318Y886D02*
X3352Y886D01*
X3017Y885D02*
X3054Y885D01*
X3117Y885D02*
X3154Y885D01*
X3217Y885D02*
X3254Y885D01*
X3317Y885D02*
X3354Y885D01*
X3015Y884D02*
X3055Y884D01*
X3115Y884D02*
X3155Y884D01*
X3215Y884D02*
X3255Y884D01*
X3315Y884D02*
X3355Y884D01*
X3014Y883D02*
X3057Y883D01*
X3114Y883D02*
X3157Y883D01*
X3214Y883D02*
X3257Y883D01*
X3314Y883D02*
X3357Y883D01*
X3013Y882D02*
X3058Y882D01*
X3113Y882D02*
X3158Y882D01*
X3213Y882D02*
X3258Y882D01*
X3313Y882D02*
X3358Y882D01*
X3012Y881D02*
X3059Y881D01*
X3112Y881D02*
X3159Y881D01*
X3212Y881D02*
X3259Y881D01*
X3312Y881D02*
X3359Y881D01*
X3011Y880D02*
X3060Y880D01*
X3111Y880D02*
X3160Y880D01*
X3211Y880D02*
X3260Y880D01*
X3311Y880D02*
X3360Y880D01*
X3010Y879D02*
X3061Y879D01*
X3110Y879D02*
X3161Y879D01*
X3210Y879D02*
X3261Y879D01*
X3310Y879D02*
X3361Y879D01*
X3009Y878D02*
X3062Y878D01*
X3109Y878D02*
X3162Y878D01*
X3209Y878D02*
X3262Y878D01*
X3309Y878D02*
X3362Y878D01*
X3008Y877D02*
X3062Y877D01*
X3108Y877D02*
X3162Y877D01*
X3208Y877D02*
X3262Y877D01*
X3308Y877D02*
X3362Y877D01*
X3008Y876D02*
X3063Y876D01*
X3108Y876D02*
X3163Y876D01*
X3208Y876D02*
X3263Y876D01*
X3308Y876D02*
X3363Y876D01*
X3007Y875D02*
X3064Y875D01*
X3107Y875D02*
X3164Y875D01*
X3207Y875D02*
X3264Y875D01*
X3307Y875D02*
X3364Y875D01*
X3006Y874D02*
X3064Y874D01*
X3106Y874D02*
X3164Y874D01*
X3206Y874D02*
X3264Y874D01*
X3306Y874D02*
X3364Y874D01*
X3006Y873D02*
X3065Y873D01*
X3106Y873D02*
X3165Y873D01*
X3206Y873D02*
X3265Y873D01*
X3306Y873D02*
X3365Y873D01*
X3005Y872D02*
X3065Y872D01*
X3105Y872D02*
X3165Y872D01*
X3205Y872D02*
X3265Y872D01*
X3305Y872D02*
X3365Y872D01*
X3005Y871D02*
X3066Y871D01*
X3105Y871D02*
X3166Y871D01*
X3205Y871D02*
X3266Y871D01*
X3305Y871D02*
X3366Y871D01*
X3004Y870D02*
X3066Y870D01*
X3104Y870D02*
X3166Y870D01*
X3204Y870D02*
X3266Y870D01*
X3304Y870D02*
X3366Y870D01*
X3004Y869D02*
X3067Y869D01*
X3104Y869D02*
X3167Y869D01*
X3204Y869D02*
X3267Y869D01*
X3304Y869D02*
X3367Y869D01*
X3004Y868D02*
X3067Y868D01*
X3104Y868D02*
X3167Y868D01*
X3204Y868D02*
X3267Y868D01*
X3304Y868D02*
X3367Y868D01*
X3003Y867D02*
X3067Y867D01*
X3103Y867D02*
X3167Y867D01*
X3203Y867D02*
X3267Y867D01*
X3303Y867D02*
X3367Y867D01*
X3003Y866D02*
X3068Y866D01*
X3103Y866D02*
X3168Y866D01*
X3203Y866D02*
X3268Y866D01*
X3303Y866D02*
X3368Y866D01*
X3003Y865D02*
X3068Y865D01*
X3103Y865D02*
X3168Y865D01*
X3203Y865D02*
X3268Y865D01*
X3303Y865D02*
X3368Y865D01*
X3003Y864D02*
X3068Y864D01*
X3103Y864D02*
X3168Y864D01*
X3203Y864D02*
X3268Y864D01*
X3303Y864D02*
X3368Y864D01*
X3002Y863D02*
X3068Y863D01*
X3102Y863D02*
X3168Y863D01*
X3202Y863D02*
X3268Y863D01*
X3302Y863D02*
X3368Y863D01*
X3002Y862D02*
X3068Y862D01*
X3102Y862D02*
X3168Y862D01*
X3202Y862D02*
X3268Y862D01*
X3302Y862D02*
X3368Y862D01*
X3002Y861D02*
X3069Y861D01*
X3102Y861D02*
X3169Y861D01*
X3202Y861D02*
X3269Y861D01*
X3302Y861D02*
X3369Y861D01*
X3002Y860D02*
X3069Y860D01*
X3102Y860D02*
X3169Y860D01*
X3202Y860D02*
X3269Y860D01*
X3302Y860D02*
X3369Y860D01*
X3002Y859D02*
X3069Y859D01*
X3102Y859D02*
X3169Y859D01*
X3202Y859D02*
X3269Y859D01*
X3302Y859D02*
X3369Y859D01*
X3002Y858D02*
X3069Y858D01*
X3102Y858D02*
X3169Y858D01*
X3202Y858D02*
X3269Y858D01*
X3302Y858D02*
X3369Y858D01*
X3002Y857D02*
X3069Y857D01*
X3102Y857D02*
X3169Y857D01*
X3202Y857D02*
X3269Y857D01*
X3302Y857D02*
X3369Y857D01*
X3002Y856D02*
X3069Y856D01*
X3102Y856D02*
X3169Y856D01*
X3202Y856D02*
X3269Y856D01*
X3302Y856D02*
X3369Y856D01*
X3002Y855D02*
X3069Y855D01*
X3102Y855D02*
X3169Y855D01*
X3202Y855D02*
X3269Y855D01*
X3302Y855D02*
X3369Y855D01*
X3002Y854D02*
X3069Y854D01*
X3102Y854D02*
X3169Y854D01*
X3202Y854D02*
X3269Y854D01*
X3302Y854D02*
X3369Y854D01*
X3002Y853D02*
X3069Y853D01*
X3102Y853D02*
X3169Y853D01*
X3202Y853D02*
X3269Y853D01*
X3302Y853D02*
X3369Y853D01*
X3002Y852D02*
X3069Y852D01*
X3102Y852D02*
X3169Y852D01*
X3202Y852D02*
X3269Y852D01*
X3302Y852D02*
X3369Y852D01*
X3002Y851D02*
X3069Y851D01*
X3102Y851D02*
X3169Y851D01*
X3202Y851D02*
X3269Y851D01*
X3302Y851D02*
X3369Y851D01*
X3002Y850D02*
X3069Y850D01*
X3102Y850D02*
X3169Y850D01*
X3202Y850D02*
X3269Y850D01*
X3302Y850D02*
X3369Y850D01*
X3002Y849D02*
X3069Y849D01*
X3102Y849D02*
X3169Y849D01*
X3202Y849D02*
X3269Y849D01*
X3302Y849D02*
X3369Y849D01*
X3002Y848D02*
X3069Y848D01*
X3102Y848D02*
X3169Y848D01*
X3202Y848D02*
X3269Y848D01*
X3302Y848D02*
X3369Y848D01*
X3002Y847D02*
X3069Y847D01*
X3102Y847D02*
X3169Y847D01*
X3202Y847D02*
X3269Y847D01*
X3302Y847D02*
X3369Y847D01*
X3002Y846D02*
X3069Y846D01*
X3102Y846D02*
X3169Y846D01*
X3202Y846D02*
X3269Y846D01*
X3302Y846D02*
X3369Y846D01*
X3002Y845D02*
X3069Y845D01*
X3102Y845D02*
X3169Y845D01*
X3202Y845D02*
X3269Y845D01*
X3302Y845D02*
X3369Y845D01*
X3002Y844D02*
X3069Y844D01*
X3102Y844D02*
X3169Y844D01*
X3202Y844D02*
X3269Y844D01*
X3302Y844D02*
X3369Y844D01*
X3002Y843D02*
X3069Y843D01*
X3102Y843D02*
X3169Y843D01*
X3202Y843D02*
X3269Y843D01*
X3302Y843D02*
X3369Y843D01*
X3002Y842D02*
X3069Y842D01*
X3102Y842D02*
X3169Y842D01*
X3202Y842D02*
X3269Y842D01*
X3302Y842D02*
X3369Y842D01*
X3002Y841D02*
X3030Y841D01*
X3041Y841D02*
X3069Y841D01*
X3102Y841D02*
X3130Y841D01*
X3141Y841D02*
X3169Y841D01*
X3202Y841D02*
X3230Y841D01*
X3241Y841D02*
X3269Y841D01*
X3302Y841D02*
X3330Y841D01*
X3341Y841D02*
X3369Y841D01*
X3002Y840D02*
X3028Y840D01*
X3043Y840D02*
X3069Y840D01*
X3102Y840D02*
X3128Y840D01*
X3143Y840D02*
X3169Y840D01*
X3202Y840D02*
X3228Y840D01*
X3243Y840D02*
X3269Y840D01*
X3302Y840D02*
X3328Y840D01*
X3343Y840D02*
X3369Y840D01*
X3002Y839D02*
X3026Y839D01*
X3044Y839D02*
X3069Y839D01*
X3102Y839D02*
X3126Y839D01*
X3144Y839D02*
X3169Y839D01*
X3202Y839D02*
X3226Y839D01*
X3244Y839D02*
X3269Y839D01*
X3302Y839D02*
X3326Y839D01*
X3344Y839D02*
X3369Y839D01*
X3002Y838D02*
X3025Y838D01*
X3046Y838D02*
X3069Y838D01*
X3102Y838D02*
X3125Y838D01*
X3146Y838D02*
X3169Y838D01*
X3202Y838D02*
X3225Y838D01*
X3246Y838D02*
X3269Y838D01*
X3302Y838D02*
X3325Y838D01*
X3346Y838D02*
X3369Y838D01*
X3002Y837D02*
X3024Y837D01*
X3046Y837D02*
X3069Y837D01*
X3102Y837D02*
X3124Y837D01*
X3146Y837D02*
X3169Y837D01*
X3202Y837D02*
X3224Y837D01*
X3246Y837D02*
X3269Y837D01*
X3302Y837D02*
X3324Y837D01*
X3346Y837D02*
X3369Y837D01*
X3002Y836D02*
X3023Y836D01*
X3047Y836D02*
X3069Y836D01*
X3102Y836D02*
X3123Y836D01*
X3147Y836D02*
X3169Y836D01*
X3202Y836D02*
X3223Y836D01*
X3247Y836D02*
X3269Y836D01*
X3302Y836D02*
X3323Y836D01*
X3347Y836D02*
X3369Y836D01*
X3002Y835D02*
X3023Y835D01*
X3048Y835D02*
X3069Y835D01*
X3102Y835D02*
X3123Y835D01*
X3148Y835D02*
X3169Y835D01*
X3202Y835D02*
X3223Y835D01*
X3248Y835D02*
X3269Y835D01*
X3302Y835D02*
X3323Y835D01*
X3348Y835D02*
X3369Y835D01*
X3002Y834D02*
X3022Y834D01*
X3049Y834D02*
X3069Y834D01*
X3102Y834D02*
X3122Y834D01*
X3149Y834D02*
X3169Y834D01*
X3202Y834D02*
X3222Y834D01*
X3249Y834D02*
X3269Y834D01*
X3302Y834D02*
X3322Y834D01*
X3349Y834D02*
X3369Y834D01*
X3002Y833D02*
X3022Y833D01*
X3049Y833D02*
X3069Y833D01*
X3102Y833D02*
X3122Y833D01*
X3149Y833D02*
X3169Y833D01*
X3202Y833D02*
X3222Y833D01*
X3249Y833D02*
X3269Y833D01*
X3302Y833D02*
X3322Y833D01*
X3349Y833D02*
X3369Y833D01*
X3002Y832D02*
X3021Y832D01*
X3049Y832D02*
X3069Y832D01*
X3102Y832D02*
X3121Y832D01*
X3149Y832D02*
X3169Y832D01*
X3202Y832D02*
X3221Y832D01*
X3249Y832D02*
X3269Y832D01*
X3302Y832D02*
X3321Y832D01*
X3349Y832D02*
X3369Y832D01*
X3002Y831D02*
X3021Y831D01*
X3050Y831D02*
X3069Y831D01*
X3102Y831D02*
X3121Y831D01*
X3150Y831D02*
X3169Y831D01*
X3202Y831D02*
X3221Y831D01*
X3250Y831D02*
X3269Y831D01*
X3302Y831D02*
X3321Y831D01*
X3350Y831D02*
X3369Y831D01*
X3002Y830D02*
X3021Y830D01*
X3050Y830D02*
X3069Y830D01*
X3102Y830D02*
X3121Y830D01*
X3150Y830D02*
X3169Y830D01*
X3202Y830D02*
X3221Y830D01*
X3250Y830D02*
X3269Y830D01*
X3302Y830D02*
X3321Y830D01*
X3350Y830D02*
X3369Y830D01*
X3002Y829D02*
X3021Y829D01*
X3050Y829D02*
X3069Y829D01*
X3102Y829D02*
X3121Y829D01*
X3150Y829D02*
X3169Y829D01*
X3202Y829D02*
X3221Y829D01*
X3250Y829D02*
X3269Y829D01*
X3302Y829D02*
X3321Y829D01*
X3350Y829D02*
X3369Y829D01*
X3002Y828D02*
X3021Y828D01*
X3050Y828D02*
X3069Y828D01*
X3102Y828D02*
X3121Y828D01*
X3150Y828D02*
X3169Y828D01*
X3202Y828D02*
X3221Y828D01*
X3250Y828D02*
X3269Y828D01*
X3302Y828D02*
X3321Y828D01*
X3350Y828D02*
X3369Y828D01*
X3002Y827D02*
X3021Y827D01*
X3050Y827D02*
X3069Y827D01*
X3102Y827D02*
X3121Y827D01*
X3150Y827D02*
X3169Y827D01*
X3202Y827D02*
X3221Y827D01*
X3250Y827D02*
X3269Y827D01*
X3302Y827D02*
X3321Y827D01*
X3350Y827D02*
X3369Y827D01*
X3002Y826D02*
X3021Y826D01*
X3050Y826D02*
X3069Y826D01*
X3102Y826D02*
X3121Y826D01*
X3150Y826D02*
X3169Y826D01*
X3202Y826D02*
X3221Y826D01*
X3250Y826D02*
X3269Y826D01*
X3302Y826D02*
X3321Y826D01*
X3350Y826D02*
X3369Y826D01*
X3002Y825D02*
X3021Y825D01*
X3050Y825D02*
X3069Y825D01*
X3102Y825D02*
X3121Y825D01*
X3150Y825D02*
X3169Y825D01*
X3202Y825D02*
X3221Y825D01*
X3250Y825D02*
X3269Y825D01*
X3302Y825D02*
X3321Y825D01*
X3350Y825D02*
X3369Y825D01*
X3002Y824D02*
X3021Y824D01*
X3049Y824D02*
X3069Y824D01*
X3102Y824D02*
X3121Y824D01*
X3149Y824D02*
X3169Y824D01*
X3202Y824D02*
X3221Y824D01*
X3249Y824D02*
X3269Y824D01*
X3302Y824D02*
X3321Y824D01*
X3349Y824D02*
X3369Y824D01*
X3002Y823D02*
X3022Y823D01*
X3049Y823D02*
X3069Y823D01*
X3102Y823D02*
X3122Y823D01*
X3149Y823D02*
X3169Y823D01*
X3202Y823D02*
X3222Y823D01*
X3249Y823D02*
X3269Y823D01*
X3302Y823D02*
X3322Y823D01*
X3349Y823D02*
X3369Y823D01*
X3002Y822D02*
X3022Y822D01*
X3049Y822D02*
X3069Y822D01*
X3102Y822D02*
X3122Y822D01*
X3149Y822D02*
X3169Y822D01*
X3202Y822D02*
X3222Y822D01*
X3249Y822D02*
X3269Y822D01*
X3302Y822D02*
X3322Y822D01*
X3349Y822D02*
X3369Y822D01*
X3002Y821D02*
X3023Y821D01*
X3048Y821D02*
X3069Y821D01*
X3102Y821D02*
X3123Y821D01*
X3148Y821D02*
X3169Y821D01*
X3202Y821D02*
X3223Y821D01*
X3248Y821D02*
X3269Y821D01*
X3302Y821D02*
X3323Y821D01*
X3348Y821D02*
X3369Y821D01*
X3002Y820D02*
X3023Y820D01*
X3048Y820D02*
X3069Y820D01*
X3102Y820D02*
X3123Y820D01*
X3148Y820D02*
X3169Y820D01*
X3202Y820D02*
X3223Y820D01*
X3248Y820D02*
X3269Y820D01*
X3302Y820D02*
X3323Y820D01*
X3348Y820D02*
X3369Y820D01*
X3002Y819D02*
X3024Y819D01*
X3047Y819D02*
X3069Y819D01*
X3102Y819D02*
X3124Y819D01*
X3147Y819D02*
X3169Y819D01*
X3202Y819D02*
X3224Y819D01*
X3247Y819D02*
X3269Y819D01*
X3302Y819D02*
X3324Y819D01*
X3347Y819D02*
X3369Y819D01*
X3002Y818D02*
X3025Y818D01*
X3046Y818D02*
X3069Y818D01*
X3102Y818D02*
X3125Y818D01*
X3146Y818D02*
X3169Y818D01*
X3202Y818D02*
X3225Y818D01*
X3246Y818D02*
X3269Y818D01*
X3302Y818D02*
X3325Y818D01*
X3346Y818D02*
X3369Y818D01*
X3002Y817D02*
X3026Y817D01*
X3045Y817D02*
X3069Y817D01*
X3102Y817D02*
X3126Y817D01*
X3145Y817D02*
X3169Y817D01*
X3202Y817D02*
X3226Y817D01*
X3245Y817D02*
X3269Y817D01*
X3302Y817D02*
X3326Y817D01*
X3345Y817D02*
X3369Y817D01*
X3002Y816D02*
X3027Y816D01*
X3044Y816D02*
X3069Y816D01*
X3102Y816D02*
X3127Y816D01*
X3144Y816D02*
X3169Y816D01*
X3202Y816D02*
X3227Y816D01*
X3244Y816D02*
X3269Y816D01*
X3302Y816D02*
X3327Y816D01*
X3344Y816D02*
X3369Y816D01*
X3002Y815D02*
X3029Y815D01*
X3042Y815D02*
X3069Y815D01*
X3102Y815D02*
X3129Y815D01*
X3142Y815D02*
X3169Y815D01*
X3202Y815D02*
X3229Y815D01*
X3242Y815D02*
X3269Y815D01*
X3302Y815D02*
X3329Y815D01*
X3342Y815D02*
X3369Y815D01*
X3002Y814D02*
X3032Y814D01*
X3039Y814D02*
X3069Y814D01*
X3102Y814D02*
X3132Y814D01*
X3139Y814D02*
X3169Y814D01*
X3202Y814D02*
X3232Y814D01*
X3239Y814D02*
X3269Y814D01*
X3302Y814D02*
X3332Y814D01*
X3339Y814D02*
X3369Y814D01*
X3002Y813D02*
X3069Y813D01*
X3102Y813D02*
X3169Y813D01*
X3202Y813D02*
X3269Y813D01*
X3302Y813D02*
X3369Y813D01*
X3002Y812D02*
X3069Y812D01*
X3102Y812D02*
X3169Y812D01*
X3202Y812D02*
X3269Y812D01*
X3302Y812D02*
X3369Y812D01*
X3002Y811D02*
X3069Y811D01*
X3102Y811D02*
X3169Y811D01*
X3202Y811D02*
X3269Y811D01*
X3302Y811D02*
X3369Y811D01*
X3002Y810D02*
X3069Y810D01*
X3102Y810D02*
X3169Y810D01*
X3202Y810D02*
X3269Y810D01*
X3302Y810D02*
X3369Y810D01*
X3002Y809D02*
X3069Y809D01*
X3102Y809D02*
X3169Y809D01*
X3202Y809D02*
X3269Y809D01*
X3302Y809D02*
X3369Y809D01*
X3002Y808D02*
X3069Y808D01*
X3102Y808D02*
X3169Y808D01*
X3202Y808D02*
X3269Y808D01*
X3302Y808D02*
X3369Y808D01*
X3002Y807D02*
X3069Y807D01*
X3102Y807D02*
X3169Y807D01*
X3202Y807D02*
X3269Y807D01*
X3302Y807D02*
X3369Y807D01*
X3002Y806D02*
X3069Y806D01*
X3102Y806D02*
X3169Y806D01*
X3202Y806D02*
X3269Y806D01*
X3302Y806D02*
X3369Y806D01*
X3002Y805D02*
X3069Y805D01*
X3102Y805D02*
X3169Y805D01*
X3202Y805D02*
X3269Y805D01*
X3302Y805D02*
X3369Y805D01*
X3002Y804D02*
X3069Y804D01*
X3102Y804D02*
X3169Y804D01*
X3202Y804D02*
X3269Y804D01*
X3302Y804D02*
X3369Y804D01*
X3002Y803D02*
X3069Y803D01*
X3102Y803D02*
X3169Y803D01*
X3202Y803D02*
X3269Y803D01*
X3302Y803D02*
X3369Y803D01*
X3002Y802D02*
X3069Y802D01*
X3102Y802D02*
X3169Y802D01*
X3202Y802D02*
X3269Y802D01*
X3302Y802D02*
X3369Y802D01*
X3002Y801D02*
X3069Y801D01*
X3102Y801D02*
X3169Y801D01*
X3202Y801D02*
X3269Y801D01*
X3302Y801D02*
X3369Y801D01*
X3002Y800D02*
X3069Y800D01*
X3102Y800D02*
X3169Y800D01*
X3202Y800D02*
X3269Y800D01*
X3302Y800D02*
X3369Y800D01*
X3002Y799D02*
X3069Y799D01*
X3102Y799D02*
X3169Y799D01*
X3202Y799D02*
X3269Y799D01*
X3302Y799D02*
X3369Y799D01*
X3002Y798D02*
X3069Y798D01*
X3102Y798D02*
X3169Y798D01*
X3202Y798D02*
X3269Y798D01*
X3302Y798D02*
X3369Y798D01*
X3002Y797D02*
X3069Y797D01*
X3102Y797D02*
X3169Y797D01*
X3202Y797D02*
X3269Y797D01*
X3302Y797D02*
X3369Y797D01*
X3002Y796D02*
X3069Y796D01*
X3102Y796D02*
X3169Y796D01*
X3202Y796D02*
X3269Y796D01*
X3302Y796D02*
X3369Y796D01*
X3002Y795D02*
X3069Y795D01*
X3102Y795D02*
X3169Y795D01*
X3202Y795D02*
X3269Y795D01*
X3302Y795D02*
X3369Y795D01*
X3002Y794D02*
X3069Y794D01*
X3102Y794D02*
X3169Y794D01*
X3202Y794D02*
X3269Y794D01*
X3302Y794D02*
X3369Y794D01*
X3002Y793D02*
X3068Y793D01*
X3102Y793D02*
X3168Y793D01*
X3202Y793D02*
X3268Y793D01*
X3302Y793D02*
X3368Y793D01*
X3002Y792D02*
X3068Y792D01*
X3102Y792D02*
X3168Y792D01*
X3202Y792D02*
X3268Y792D01*
X3302Y792D02*
X3368Y792D01*
X3003Y791D02*
X3068Y791D01*
X3103Y791D02*
X3168Y791D01*
X3203Y791D02*
X3268Y791D01*
X3303Y791D02*
X3368Y791D01*
X3003Y790D02*
X3068Y790D01*
X3103Y790D02*
X3168Y790D01*
X3203Y790D02*
X3268Y790D01*
X3303Y790D02*
X3368Y790D01*
X3003Y789D02*
X3067Y789D01*
X3103Y789D02*
X3167Y789D01*
X3203Y789D02*
X3267Y789D01*
X3303Y789D02*
X3367Y789D01*
X3004Y788D02*
X3067Y788D01*
X3104Y788D02*
X3167Y788D01*
X3204Y788D02*
X3267Y788D01*
X3304Y788D02*
X3367Y788D01*
X3004Y787D02*
X3067Y787D01*
X3104Y787D02*
X3167Y787D01*
X3204Y787D02*
X3267Y787D01*
X3304Y787D02*
X3367Y787D01*
X3004Y786D02*
X3066Y786D01*
X3104Y786D02*
X3166Y786D01*
X3204Y786D02*
X3266Y786D01*
X3304Y786D02*
X3366Y786D01*
X3005Y785D02*
X3066Y785D01*
X3105Y785D02*
X3166Y785D01*
X3205Y785D02*
X3266Y785D01*
X3305Y785D02*
X3366Y785D01*
X3005Y784D02*
X3065Y784D01*
X3105Y784D02*
X3165Y784D01*
X3205Y784D02*
X3265Y784D01*
X3305Y784D02*
X3365Y784D01*
X3006Y783D02*
X3065Y783D01*
X3106Y783D02*
X3165Y783D01*
X3206Y783D02*
X3265Y783D01*
X3306Y783D02*
X3365Y783D01*
X3006Y782D02*
X3064Y782D01*
X3106Y782D02*
X3164Y782D01*
X3206Y782D02*
X3264Y782D01*
X3306Y782D02*
X3364Y782D01*
X3007Y781D02*
X3064Y781D01*
X3107Y781D02*
X3164Y781D01*
X3207Y781D02*
X3264Y781D01*
X3307Y781D02*
X3364Y781D01*
X3007Y780D02*
X3063Y780D01*
X3107Y780D02*
X3163Y780D01*
X3207Y780D02*
X3263Y780D01*
X3307Y780D02*
X3363Y780D01*
X3008Y779D02*
X3063Y779D01*
X3108Y779D02*
X3163Y779D01*
X3208Y779D02*
X3263Y779D01*
X3308Y779D02*
X3363Y779D01*
X3009Y778D02*
X3062Y778D01*
X3109Y778D02*
X3162Y778D01*
X3209Y778D02*
X3262Y778D01*
X3309Y778D02*
X3362Y778D01*
X3010Y777D02*
X3061Y777D01*
X3110Y777D02*
X3161Y777D01*
X3210Y777D02*
X3261Y777D01*
X3310Y777D02*
X3361Y777D01*
X3010Y776D02*
X3060Y776D01*
X3110Y776D02*
X3160Y776D01*
X3210Y776D02*
X3260Y776D01*
X3310Y776D02*
X3360Y776D01*
X3011Y775D02*
X3059Y775D01*
X3111Y775D02*
X3159Y775D01*
X3211Y775D02*
X3259Y775D01*
X3311Y775D02*
X3359Y775D01*
X3012Y774D02*
X3058Y774D01*
X3112Y774D02*
X3158Y774D01*
X3212Y774D02*
X3258Y774D01*
X3312Y774D02*
X3358Y774D01*
X3014Y773D02*
X3057Y773D01*
X3114Y773D02*
X3157Y773D01*
X3214Y773D02*
X3257Y773D01*
X3314Y773D02*
X3357Y773D01*
X3015Y772D02*
X3056Y772D01*
X3115Y772D02*
X3156Y772D01*
X3215Y772D02*
X3256Y772D01*
X3315Y772D02*
X3356Y772D01*
X3016Y771D02*
X3055Y771D01*
X3116Y771D02*
X3155Y771D01*
X3216Y771D02*
X3255Y771D01*
X3316Y771D02*
X3355Y771D01*
X3018Y770D02*
X3053Y770D01*
X3118Y770D02*
X3153Y770D01*
X3218Y770D02*
X3253Y770D01*
X3318Y770D02*
X3353Y770D01*
X3019Y769D02*
X3051Y769D01*
X3119Y769D02*
X3151Y769D01*
X3219Y769D02*
X3251Y769D01*
X3319Y769D02*
X3351Y769D01*
X3021Y768D02*
X3049Y768D01*
X3121Y768D02*
X3149Y768D01*
X3221Y768D02*
X3249Y768D01*
X3321Y768D02*
X3349Y768D01*
X3024Y767D02*
X3047Y767D01*
X3124Y767D02*
X3147Y767D01*
X3224Y767D02*
X3247Y767D01*
X3324Y767D02*
X3347Y767D01*
X3027Y766D02*
X3044Y766D01*
X3127Y766D02*
X3144Y766D01*
X3227Y766D02*
X3244Y766D01*
X3327Y766D02*
X3344Y766D01*
X3031Y765D02*
X3039Y765D01*
X3131Y765D02*
X3139Y765D01*
X3231Y765D02*
X3239Y765D01*
X3331Y765D02*
X3339Y765D01*
X3335Y591D02*
X3335Y591D01*
X3028Y590D02*
X3043Y590D01*
X3128Y590D02*
X3143Y590D01*
X3228Y590D02*
X3243Y590D01*
X3328Y590D02*
X3343Y590D01*
X3025Y589D02*
X3046Y589D01*
X3125Y589D02*
X3146Y589D01*
X3225Y589D02*
X3246Y589D01*
X3325Y589D02*
X3346Y589D01*
X3022Y588D02*
X3049Y588D01*
X3122Y588D02*
X3149Y588D01*
X3222Y588D02*
X3249Y588D01*
X3322Y588D02*
X3349Y588D01*
X3020Y587D02*
X3051Y587D01*
X3120Y587D02*
X3151Y587D01*
X3220Y587D02*
X3251Y587D01*
X3320Y587D02*
X3351Y587D01*
X3018Y586D02*
X3052Y586D01*
X3118Y586D02*
X3152Y586D01*
X3218Y586D02*
X3252Y586D01*
X3318Y586D02*
X3352Y586D01*
X3017Y585D02*
X3054Y585D01*
X3117Y585D02*
X3154Y585D01*
X3217Y585D02*
X3254Y585D01*
X3317Y585D02*
X3354Y585D01*
X3015Y584D02*
X3055Y584D01*
X3115Y584D02*
X3155Y584D01*
X3215Y584D02*
X3255Y584D01*
X3315Y584D02*
X3355Y584D01*
X3014Y583D02*
X3057Y583D01*
X3114Y583D02*
X3157Y583D01*
X3214Y583D02*
X3257Y583D01*
X3314Y583D02*
X3357Y583D01*
X3013Y582D02*
X3058Y582D01*
X3113Y582D02*
X3158Y582D01*
X3213Y582D02*
X3258Y582D01*
X3313Y582D02*
X3358Y582D01*
X3012Y581D02*
X3059Y581D01*
X3112Y581D02*
X3159Y581D01*
X3212Y581D02*
X3259Y581D01*
X3312Y581D02*
X3359Y581D01*
X3011Y580D02*
X3060Y580D01*
X3111Y580D02*
X3160Y580D01*
X3211Y580D02*
X3260Y580D01*
X3311Y580D02*
X3360Y580D01*
X3010Y579D02*
X3061Y579D01*
X3110Y579D02*
X3161Y579D01*
X3210Y579D02*
X3261Y579D01*
X3310Y579D02*
X3361Y579D01*
X3009Y578D02*
X3062Y578D01*
X3109Y578D02*
X3162Y578D01*
X3209Y578D02*
X3262Y578D01*
X3309Y578D02*
X3362Y578D01*
X3008Y577D02*
X3062Y577D01*
X3108Y577D02*
X3162Y577D01*
X3208Y577D02*
X3262Y577D01*
X3308Y577D02*
X3362Y577D01*
X3008Y576D02*
X3063Y576D01*
X3108Y576D02*
X3163Y576D01*
X3208Y576D02*
X3263Y576D01*
X3308Y576D02*
X3363Y576D01*
X3007Y575D02*
X3064Y575D01*
X3107Y575D02*
X3164Y575D01*
X3207Y575D02*
X3264Y575D01*
X3307Y575D02*
X3364Y575D01*
X3006Y574D02*
X3064Y574D01*
X3106Y574D02*
X3164Y574D01*
X3206Y574D02*
X3264Y574D01*
X3306Y574D02*
X3364Y574D01*
X3006Y573D02*
X3065Y573D01*
X3106Y573D02*
X3165Y573D01*
X3206Y573D02*
X3265Y573D01*
X3306Y573D02*
X3365Y573D01*
X3005Y572D02*
X3065Y572D01*
X3105Y572D02*
X3165Y572D01*
X3205Y572D02*
X3265Y572D01*
X3305Y572D02*
X3365Y572D01*
X3005Y571D02*
X3066Y571D01*
X3105Y571D02*
X3166Y571D01*
X3205Y571D02*
X3266Y571D01*
X3305Y571D02*
X3366Y571D01*
X3004Y570D02*
X3066Y570D01*
X3104Y570D02*
X3166Y570D01*
X3204Y570D02*
X3266Y570D01*
X3304Y570D02*
X3366Y570D01*
X3004Y569D02*
X3067Y569D01*
X3104Y569D02*
X3167Y569D01*
X3204Y569D02*
X3267Y569D01*
X3304Y569D02*
X3367Y569D01*
X3004Y568D02*
X3067Y568D01*
X3104Y568D02*
X3167Y568D01*
X3204Y568D02*
X3267Y568D01*
X3304Y568D02*
X3367Y568D01*
X3003Y567D02*
X3067Y567D01*
X3103Y567D02*
X3167Y567D01*
X3203Y567D02*
X3267Y567D01*
X3303Y567D02*
X3367Y567D01*
X3003Y566D02*
X3068Y566D01*
X3103Y566D02*
X3168Y566D01*
X3203Y566D02*
X3268Y566D01*
X3303Y566D02*
X3368Y566D01*
X3003Y565D02*
X3068Y565D01*
X3103Y565D02*
X3168Y565D01*
X3203Y565D02*
X3268Y565D01*
X3303Y565D02*
X3368Y565D01*
X3003Y564D02*
X3068Y564D01*
X3103Y564D02*
X3168Y564D01*
X3203Y564D02*
X3268Y564D01*
X3303Y564D02*
X3368Y564D01*
X3002Y563D02*
X3068Y563D01*
X3102Y563D02*
X3168Y563D01*
X3202Y563D02*
X3268Y563D01*
X3302Y563D02*
X3368Y563D01*
X3002Y562D02*
X3068Y562D01*
X3102Y562D02*
X3168Y562D01*
X3202Y562D02*
X3268Y562D01*
X3302Y562D02*
X3368Y562D01*
X3002Y561D02*
X3069Y561D01*
X3102Y561D02*
X3169Y561D01*
X3202Y561D02*
X3269Y561D01*
X3302Y561D02*
X3369Y561D01*
X3002Y560D02*
X3069Y560D01*
X3102Y560D02*
X3169Y560D01*
X3202Y560D02*
X3269Y560D01*
X3302Y560D02*
X3369Y560D01*
X3002Y559D02*
X3069Y559D01*
X3102Y559D02*
X3169Y559D01*
X3202Y559D02*
X3269Y559D01*
X3302Y559D02*
X3369Y559D01*
X3002Y558D02*
X3069Y558D01*
X3102Y558D02*
X3169Y558D01*
X3202Y558D02*
X3269Y558D01*
X3302Y558D02*
X3369Y558D01*
X3002Y557D02*
X3069Y557D01*
X3102Y557D02*
X3169Y557D01*
X3202Y557D02*
X3269Y557D01*
X3302Y557D02*
X3369Y557D01*
X3002Y556D02*
X3069Y556D01*
X3102Y556D02*
X3169Y556D01*
X3202Y556D02*
X3269Y556D01*
X3302Y556D02*
X3369Y556D01*
X3002Y555D02*
X3069Y555D01*
X3102Y555D02*
X3169Y555D01*
X3202Y555D02*
X3269Y555D01*
X3302Y555D02*
X3369Y555D01*
X3002Y554D02*
X3069Y554D01*
X3102Y554D02*
X3169Y554D01*
X3202Y554D02*
X3269Y554D01*
X3302Y554D02*
X3369Y554D01*
X3002Y553D02*
X3069Y553D01*
X3102Y553D02*
X3169Y553D01*
X3202Y553D02*
X3269Y553D01*
X3302Y553D02*
X3369Y553D01*
X3002Y552D02*
X3069Y552D01*
X3102Y552D02*
X3169Y552D01*
X3202Y552D02*
X3269Y552D01*
X3302Y552D02*
X3369Y552D01*
X3002Y551D02*
X3069Y551D01*
X3102Y551D02*
X3169Y551D01*
X3202Y551D02*
X3269Y551D01*
X3302Y551D02*
X3369Y551D01*
X3002Y550D02*
X3069Y550D01*
X3102Y550D02*
X3169Y550D01*
X3202Y550D02*
X3269Y550D01*
X3302Y550D02*
X3369Y550D01*
X3002Y549D02*
X3069Y549D01*
X3102Y549D02*
X3169Y549D01*
X3202Y549D02*
X3269Y549D01*
X3302Y549D02*
X3369Y549D01*
X3002Y548D02*
X3069Y548D01*
X3102Y548D02*
X3169Y548D01*
X3202Y548D02*
X3269Y548D01*
X3302Y548D02*
X3369Y548D01*
X3002Y547D02*
X3069Y547D01*
X3102Y547D02*
X3169Y547D01*
X3202Y547D02*
X3269Y547D01*
X3302Y547D02*
X3369Y547D01*
X3002Y546D02*
X3069Y546D01*
X3102Y546D02*
X3169Y546D01*
X3202Y546D02*
X3269Y546D01*
X3302Y546D02*
X3369Y546D01*
X3002Y545D02*
X3069Y545D01*
X3102Y545D02*
X3169Y545D01*
X3202Y545D02*
X3269Y545D01*
X3302Y545D02*
X3369Y545D01*
X3002Y544D02*
X3069Y544D01*
X3102Y544D02*
X3169Y544D01*
X3202Y544D02*
X3269Y544D01*
X3302Y544D02*
X3369Y544D01*
X3002Y543D02*
X3069Y543D01*
X3102Y543D02*
X3169Y543D01*
X3202Y543D02*
X3269Y543D01*
X3302Y543D02*
X3369Y543D01*
X3002Y542D02*
X3069Y542D01*
X3102Y542D02*
X3169Y542D01*
X3202Y542D02*
X3269Y542D01*
X3302Y542D02*
X3369Y542D01*
X3002Y541D02*
X3030Y541D01*
X3041Y541D02*
X3069Y541D01*
X3102Y541D02*
X3130Y541D01*
X3141Y541D02*
X3169Y541D01*
X3202Y541D02*
X3230Y541D01*
X3241Y541D02*
X3269Y541D01*
X3302Y541D02*
X3330Y541D01*
X3341Y541D02*
X3369Y541D01*
X3002Y540D02*
X3028Y540D01*
X3043Y540D02*
X3069Y540D01*
X3102Y540D02*
X3128Y540D01*
X3143Y540D02*
X3169Y540D01*
X3202Y540D02*
X3228Y540D01*
X3243Y540D02*
X3269Y540D01*
X3302Y540D02*
X3328Y540D01*
X3343Y540D02*
X3369Y540D01*
X3002Y539D02*
X3026Y539D01*
X3044Y539D02*
X3069Y539D01*
X3102Y539D02*
X3126Y539D01*
X3144Y539D02*
X3169Y539D01*
X3202Y539D02*
X3226Y539D01*
X3244Y539D02*
X3269Y539D01*
X3302Y539D02*
X3326Y539D01*
X3344Y539D02*
X3369Y539D01*
X3002Y538D02*
X3025Y538D01*
X3046Y538D02*
X3069Y538D01*
X3102Y538D02*
X3125Y538D01*
X3146Y538D02*
X3169Y538D01*
X3202Y538D02*
X3225Y538D01*
X3246Y538D02*
X3269Y538D01*
X3302Y538D02*
X3325Y538D01*
X3346Y538D02*
X3369Y538D01*
X3002Y537D02*
X3024Y537D01*
X3046Y537D02*
X3069Y537D01*
X3102Y537D02*
X3124Y537D01*
X3146Y537D02*
X3169Y537D01*
X3202Y537D02*
X3224Y537D01*
X3246Y537D02*
X3269Y537D01*
X3302Y537D02*
X3324Y537D01*
X3346Y537D02*
X3369Y537D01*
X3002Y536D02*
X3023Y536D01*
X3047Y536D02*
X3069Y536D01*
X3102Y536D02*
X3123Y536D01*
X3147Y536D02*
X3169Y536D01*
X3202Y536D02*
X3223Y536D01*
X3247Y536D02*
X3269Y536D01*
X3302Y536D02*
X3323Y536D01*
X3347Y536D02*
X3369Y536D01*
X3002Y535D02*
X3023Y535D01*
X3048Y535D02*
X3069Y535D01*
X3102Y535D02*
X3123Y535D01*
X3148Y535D02*
X3169Y535D01*
X3202Y535D02*
X3223Y535D01*
X3248Y535D02*
X3269Y535D01*
X3302Y535D02*
X3323Y535D01*
X3348Y535D02*
X3369Y535D01*
X3002Y534D02*
X3022Y534D01*
X3049Y534D02*
X3069Y534D01*
X3102Y534D02*
X3122Y534D01*
X3149Y534D02*
X3169Y534D01*
X3202Y534D02*
X3222Y534D01*
X3249Y534D02*
X3269Y534D01*
X3302Y534D02*
X3322Y534D01*
X3349Y534D02*
X3369Y534D01*
X3002Y533D02*
X3022Y533D01*
X3049Y533D02*
X3069Y533D01*
X3102Y533D02*
X3122Y533D01*
X3149Y533D02*
X3169Y533D01*
X3202Y533D02*
X3222Y533D01*
X3249Y533D02*
X3269Y533D01*
X3302Y533D02*
X3322Y533D01*
X3349Y533D02*
X3369Y533D01*
X3002Y532D02*
X3021Y532D01*
X3049Y532D02*
X3069Y532D01*
X3102Y532D02*
X3121Y532D01*
X3149Y532D02*
X3169Y532D01*
X3202Y532D02*
X3221Y532D01*
X3249Y532D02*
X3269Y532D01*
X3302Y532D02*
X3321Y532D01*
X3349Y532D02*
X3369Y532D01*
X3002Y531D02*
X3021Y531D01*
X3050Y531D02*
X3069Y531D01*
X3102Y531D02*
X3121Y531D01*
X3150Y531D02*
X3169Y531D01*
X3202Y531D02*
X3221Y531D01*
X3250Y531D02*
X3269Y531D01*
X3302Y531D02*
X3321Y531D01*
X3350Y531D02*
X3369Y531D01*
X3002Y530D02*
X3021Y530D01*
X3050Y530D02*
X3069Y530D01*
X3102Y530D02*
X3121Y530D01*
X3150Y530D02*
X3169Y530D01*
X3202Y530D02*
X3221Y530D01*
X3250Y530D02*
X3269Y530D01*
X3302Y530D02*
X3321Y530D01*
X3350Y530D02*
X3369Y530D01*
X3002Y529D02*
X3021Y529D01*
X3050Y529D02*
X3069Y529D01*
X3102Y529D02*
X3121Y529D01*
X3150Y529D02*
X3169Y529D01*
X3202Y529D02*
X3221Y529D01*
X3250Y529D02*
X3269Y529D01*
X3302Y529D02*
X3321Y529D01*
X3350Y529D02*
X3369Y529D01*
X3002Y528D02*
X3021Y528D01*
X3050Y528D02*
X3069Y528D01*
X3102Y528D02*
X3121Y528D01*
X3150Y528D02*
X3169Y528D01*
X3202Y528D02*
X3221Y528D01*
X3250Y528D02*
X3269Y528D01*
X3302Y528D02*
X3321Y528D01*
X3350Y528D02*
X3369Y528D01*
X3002Y527D02*
X3021Y527D01*
X3050Y527D02*
X3069Y527D01*
X3102Y527D02*
X3121Y527D01*
X3150Y527D02*
X3169Y527D01*
X3202Y527D02*
X3221Y527D01*
X3250Y527D02*
X3269Y527D01*
X3302Y527D02*
X3321Y527D01*
X3350Y527D02*
X3369Y527D01*
X3002Y526D02*
X3021Y526D01*
X3050Y526D02*
X3069Y526D01*
X3102Y526D02*
X3121Y526D01*
X3150Y526D02*
X3169Y526D01*
X3202Y526D02*
X3221Y526D01*
X3250Y526D02*
X3269Y526D01*
X3302Y526D02*
X3321Y526D01*
X3350Y526D02*
X3369Y526D01*
X3002Y525D02*
X3021Y525D01*
X3050Y525D02*
X3069Y525D01*
X3102Y525D02*
X3121Y525D01*
X3150Y525D02*
X3169Y525D01*
X3202Y525D02*
X3221Y525D01*
X3250Y525D02*
X3269Y525D01*
X3302Y525D02*
X3321Y525D01*
X3350Y525D02*
X3369Y525D01*
X3002Y524D02*
X3021Y524D01*
X3049Y524D02*
X3069Y524D01*
X3102Y524D02*
X3121Y524D01*
X3149Y524D02*
X3169Y524D01*
X3202Y524D02*
X3221Y524D01*
X3249Y524D02*
X3269Y524D01*
X3302Y524D02*
X3321Y524D01*
X3349Y524D02*
X3369Y524D01*
X3002Y523D02*
X3022Y523D01*
X3049Y523D02*
X3069Y523D01*
X3102Y523D02*
X3122Y523D01*
X3149Y523D02*
X3169Y523D01*
X3202Y523D02*
X3222Y523D01*
X3249Y523D02*
X3269Y523D01*
X3302Y523D02*
X3322Y523D01*
X3349Y523D02*
X3369Y523D01*
X3002Y522D02*
X3022Y522D01*
X3049Y522D02*
X3069Y522D01*
X3102Y522D02*
X3122Y522D01*
X3149Y522D02*
X3169Y522D01*
X3202Y522D02*
X3222Y522D01*
X3249Y522D02*
X3269Y522D01*
X3302Y522D02*
X3322Y522D01*
X3349Y522D02*
X3369Y522D01*
X3002Y521D02*
X3023Y521D01*
X3048Y521D02*
X3069Y521D01*
X3102Y521D02*
X3123Y521D01*
X3148Y521D02*
X3169Y521D01*
X3202Y521D02*
X3223Y521D01*
X3248Y521D02*
X3269Y521D01*
X3302Y521D02*
X3323Y521D01*
X3348Y521D02*
X3369Y521D01*
X3002Y520D02*
X3023Y520D01*
X3048Y520D02*
X3069Y520D01*
X3102Y520D02*
X3123Y520D01*
X3148Y520D02*
X3169Y520D01*
X3202Y520D02*
X3223Y520D01*
X3248Y520D02*
X3269Y520D01*
X3302Y520D02*
X3323Y520D01*
X3348Y520D02*
X3369Y520D01*
X3002Y519D02*
X3024Y519D01*
X3047Y519D02*
X3069Y519D01*
X3102Y519D02*
X3124Y519D01*
X3147Y519D02*
X3169Y519D01*
X3202Y519D02*
X3224Y519D01*
X3247Y519D02*
X3269Y519D01*
X3302Y519D02*
X3324Y519D01*
X3347Y519D02*
X3369Y519D01*
X3002Y518D02*
X3025Y518D01*
X3046Y518D02*
X3069Y518D01*
X3102Y518D02*
X3125Y518D01*
X3146Y518D02*
X3169Y518D01*
X3202Y518D02*
X3225Y518D01*
X3246Y518D02*
X3269Y518D01*
X3302Y518D02*
X3325Y518D01*
X3346Y518D02*
X3369Y518D01*
X3002Y517D02*
X3026Y517D01*
X3045Y517D02*
X3069Y517D01*
X3102Y517D02*
X3126Y517D01*
X3145Y517D02*
X3169Y517D01*
X3202Y517D02*
X3226Y517D01*
X3245Y517D02*
X3269Y517D01*
X3302Y517D02*
X3326Y517D01*
X3345Y517D02*
X3369Y517D01*
X3002Y516D02*
X3027Y516D01*
X3044Y516D02*
X3069Y516D01*
X3102Y516D02*
X3127Y516D01*
X3144Y516D02*
X3169Y516D01*
X3202Y516D02*
X3227Y516D01*
X3244Y516D02*
X3269Y516D01*
X3302Y516D02*
X3327Y516D01*
X3344Y516D02*
X3369Y516D01*
X3002Y515D02*
X3029Y515D01*
X3042Y515D02*
X3069Y515D01*
X3102Y515D02*
X3129Y515D01*
X3142Y515D02*
X3169Y515D01*
X3202Y515D02*
X3229Y515D01*
X3242Y515D02*
X3269Y515D01*
X3302Y515D02*
X3329Y515D01*
X3342Y515D02*
X3369Y515D01*
X3002Y514D02*
X3032Y514D01*
X3039Y514D02*
X3069Y514D01*
X3102Y514D02*
X3132Y514D01*
X3139Y514D02*
X3169Y514D01*
X3202Y514D02*
X3232Y514D01*
X3239Y514D02*
X3269Y514D01*
X3302Y514D02*
X3332Y514D01*
X3339Y514D02*
X3369Y514D01*
X3002Y513D02*
X3069Y513D01*
X3102Y513D02*
X3169Y513D01*
X3202Y513D02*
X3269Y513D01*
X3302Y513D02*
X3369Y513D01*
X3002Y512D02*
X3069Y512D01*
X3102Y512D02*
X3169Y512D01*
X3202Y512D02*
X3269Y512D01*
X3302Y512D02*
X3369Y512D01*
X3002Y511D02*
X3069Y511D01*
X3102Y511D02*
X3169Y511D01*
X3202Y511D02*
X3269Y511D01*
X3302Y511D02*
X3369Y511D01*
X3002Y510D02*
X3069Y510D01*
X3102Y510D02*
X3169Y510D01*
X3202Y510D02*
X3269Y510D01*
X3302Y510D02*
X3369Y510D01*
X3002Y509D02*
X3069Y509D01*
X3102Y509D02*
X3169Y509D01*
X3202Y509D02*
X3269Y509D01*
X3302Y509D02*
X3369Y509D01*
X3002Y508D02*
X3069Y508D01*
X3102Y508D02*
X3169Y508D01*
X3202Y508D02*
X3269Y508D01*
X3302Y508D02*
X3369Y508D01*
X3002Y507D02*
X3069Y507D01*
X3102Y507D02*
X3169Y507D01*
X3202Y507D02*
X3269Y507D01*
X3302Y507D02*
X3369Y507D01*
X3002Y506D02*
X3069Y506D01*
X3102Y506D02*
X3169Y506D01*
X3202Y506D02*
X3269Y506D01*
X3302Y506D02*
X3369Y506D01*
X3002Y505D02*
X3069Y505D01*
X3102Y505D02*
X3169Y505D01*
X3202Y505D02*
X3269Y505D01*
X3302Y505D02*
X3369Y505D01*
X3002Y504D02*
X3069Y504D01*
X3102Y504D02*
X3169Y504D01*
X3202Y504D02*
X3269Y504D01*
X3302Y504D02*
X3369Y504D01*
X3002Y503D02*
X3069Y503D01*
X3102Y503D02*
X3169Y503D01*
X3202Y503D02*
X3269Y503D01*
X3302Y503D02*
X3369Y503D01*
X3002Y502D02*
X3069Y502D01*
X3102Y502D02*
X3169Y502D01*
X3202Y502D02*
X3269Y502D01*
X3302Y502D02*
X3369Y502D01*
X3002Y501D02*
X3069Y501D01*
X3102Y501D02*
X3169Y501D01*
X3202Y501D02*
X3269Y501D01*
X3302Y501D02*
X3369Y501D01*
X3002Y500D02*
X3069Y500D01*
X3102Y500D02*
X3169Y500D01*
X3202Y500D02*
X3269Y500D01*
X3302Y500D02*
X3369Y500D01*
X3002Y499D02*
X3069Y499D01*
X3102Y499D02*
X3169Y499D01*
X3202Y499D02*
X3269Y499D01*
X3302Y499D02*
X3369Y499D01*
X3002Y498D02*
X3069Y498D01*
X3102Y498D02*
X3169Y498D01*
X3202Y498D02*
X3269Y498D01*
X3302Y498D02*
X3369Y498D01*
X3002Y497D02*
X3069Y497D01*
X3102Y497D02*
X3169Y497D01*
X3202Y497D02*
X3269Y497D01*
X3302Y497D02*
X3369Y497D01*
X3002Y496D02*
X3069Y496D01*
X3102Y496D02*
X3169Y496D01*
X3202Y496D02*
X3269Y496D01*
X3302Y496D02*
X3369Y496D01*
X3002Y495D02*
X3069Y495D01*
X3102Y495D02*
X3169Y495D01*
X3202Y495D02*
X3269Y495D01*
X3302Y495D02*
X3369Y495D01*
X3002Y494D02*
X3069Y494D01*
X3102Y494D02*
X3169Y494D01*
X3202Y494D02*
X3269Y494D01*
X3302Y494D02*
X3369Y494D01*
X3002Y493D02*
X3068Y493D01*
X3102Y493D02*
X3168Y493D01*
X3202Y493D02*
X3268Y493D01*
X3302Y493D02*
X3368Y493D01*
X3002Y492D02*
X3068Y492D01*
X3102Y492D02*
X3168Y492D01*
X3202Y492D02*
X3268Y492D01*
X3302Y492D02*
X3368Y492D01*
X3003Y491D02*
X3068Y491D01*
X3103Y491D02*
X3168Y491D01*
X3203Y491D02*
X3268Y491D01*
X3303Y491D02*
X3368Y491D01*
X3003Y490D02*
X3068Y490D01*
X3103Y490D02*
X3168Y490D01*
X3203Y490D02*
X3268Y490D01*
X3303Y490D02*
X3368Y490D01*
X3003Y489D02*
X3067Y489D01*
X3103Y489D02*
X3167Y489D01*
X3203Y489D02*
X3267Y489D01*
X3303Y489D02*
X3367Y489D01*
X3004Y488D02*
X3067Y488D01*
X3104Y488D02*
X3167Y488D01*
X3204Y488D02*
X3267Y488D01*
X3304Y488D02*
X3367Y488D01*
X3004Y487D02*
X3067Y487D01*
X3104Y487D02*
X3167Y487D01*
X3204Y487D02*
X3267Y487D01*
X3304Y487D02*
X3367Y487D01*
X3004Y486D02*
X3066Y486D01*
X3104Y486D02*
X3166Y486D01*
X3204Y486D02*
X3266Y486D01*
X3304Y486D02*
X3366Y486D01*
X3005Y485D02*
X3066Y485D01*
X3105Y485D02*
X3166Y485D01*
X3205Y485D02*
X3266Y485D01*
X3305Y485D02*
X3366Y485D01*
X3005Y484D02*
X3065Y484D01*
X3105Y484D02*
X3165Y484D01*
X3205Y484D02*
X3265Y484D01*
X3305Y484D02*
X3365Y484D01*
X3006Y483D02*
X3065Y483D01*
X3106Y483D02*
X3165Y483D01*
X3206Y483D02*
X3265Y483D01*
X3306Y483D02*
X3365Y483D01*
X3006Y482D02*
X3064Y482D01*
X3106Y482D02*
X3164Y482D01*
X3206Y482D02*
X3264Y482D01*
X3306Y482D02*
X3364Y482D01*
X3007Y481D02*
X3064Y481D01*
X3107Y481D02*
X3164Y481D01*
X3207Y481D02*
X3264Y481D01*
X3307Y481D02*
X3364Y481D01*
X3007Y480D02*
X3063Y480D01*
X3107Y480D02*
X3163Y480D01*
X3207Y480D02*
X3263Y480D01*
X3307Y480D02*
X3363Y480D01*
X3008Y479D02*
X3063Y479D01*
X3108Y479D02*
X3163Y479D01*
X3208Y479D02*
X3263Y479D01*
X3308Y479D02*
X3363Y479D01*
X3009Y478D02*
X3062Y478D01*
X3109Y478D02*
X3162Y478D01*
X3209Y478D02*
X3262Y478D01*
X3309Y478D02*
X3362Y478D01*
X3010Y477D02*
X3061Y477D01*
X3110Y477D02*
X3161Y477D01*
X3210Y477D02*
X3261Y477D01*
X3310Y477D02*
X3361Y477D01*
X3010Y476D02*
X3060Y476D01*
X3110Y476D02*
X3160Y476D01*
X3210Y476D02*
X3260Y476D01*
X3310Y476D02*
X3360Y476D01*
X3011Y475D02*
X3059Y475D01*
X3111Y475D02*
X3159Y475D01*
X3211Y475D02*
X3259Y475D01*
X3311Y475D02*
X3359Y475D01*
X3012Y474D02*
X3058Y474D01*
X3112Y474D02*
X3158Y474D01*
X3212Y474D02*
X3258Y474D01*
X3312Y474D02*
X3358Y474D01*
X3014Y473D02*
X3057Y473D01*
X3114Y473D02*
X3157Y473D01*
X3214Y473D02*
X3257Y473D01*
X3314Y473D02*
X3357Y473D01*
X3015Y472D02*
X3056Y472D01*
X3115Y472D02*
X3156Y472D01*
X3215Y472D02*
X3256Y472D01*
X3315Y472D02*
X3356Y472D01*
X3016Y471D02*
X3055Y471D01*
X3116Y471D02*
X3155Y471D01*
X3216Y471D02*
X3255Y471D01*
X3316Y471D02*
X3355Y471D01*
X3018Y470D02*
X3053Y470D01*
X3118Y470D02*
X3153Y470D01*
X3218Y470D02*
X3253Y470D01*
X3318Y470D02*
X3353Y470D01*
X3019Y469D02*
X3051Y469D01*
X3119Y469D02*
X3151Y469D01*
X3219Y469D02*
X3251Y469D01*
X3319Y469D02*
X3351Y469D01*
X3021Y468D02*
X3049Y468D01*
X3121Y468D02*
X3149Y468D01*
X3221Y468D02*
X3249Y468D01*
X3321Y468D02*
X3349Y468D01*
X3024Y467D02*
X3047Y467D01*
X3124Y467D02*
X3147Y467D01*
X3224Y467D02*
X3247Y467D01*
X3324Y467D02*
X3347Y467D01*
X3027Y466D02*
X3044Y466D01*
X3127Y466D02*
X3144Y466D01*
X3227Y466D02*
X3244Y466D01*
X3327Y466D02*
X3344Y466D01*
X3031Y465D02*
X3039Y465D01*
X3131Y465D02*
X3139Y465D01*
X3231Y465D02*
X3239Y465D01*
X3331Y465D02*
X3339Y465D01*
D02*
G04 End of Mask1*
M02*