G04 MADE WITH FRITZING*
G04 WWW.FRITZING.ORG*
G04 DOUBLE SIDED*
G04 HOLES PLATED*
G04 CONTOUR ON CENTER OF CONTOUR VECTOR*
%ASAXBY*%
%FSLAX23Y23*%
%MOIN*%
%OFA0B0*%
%SFA1.0B1.0*%
%ADD10C,0.255905*%
%ADD11C,0.145669*%
%ADD12R,0.074803X0.062992*%
%ADD13R,0.055118X0.059055*%
%ADD14R,0.080000X0.026000*%
%ADD15R,0.062992X0.074803*%
%LNPASTEMASK1*%
G90*
G70*
G54D10*
X1965Y1971D03*
G54D11*
X2319Y2582D03*
X1492Y1597D03*
X2319Y613D03*
G54D12*
X3394Y981D03*
X3394Y1103D03*
X3256Y981D03*
X3256Y1103D03*
X3118Y981D03*
X3118Y1103D03*
X2980Y981D03*
X2980Y1103D03*
X3168Y1346D03*
X3168Y1468D03*
G54D13*
X841Y2290D03*
X760Y2290D03*
X3087Y1699D03*
X3168Y1699D03*
G54D14*
X670Y2167D03*
X670Y2117D03*
X670Y2067D03*
X670Y2017D03*
X670Y1967D03*
X670Y1917D03*
X670Y1867D03*
X670Y1817D03*
X912Y1817D03*
X912Y1867D03*
X912Y1917D03*
X912Y1967D03*
X912Y2017D03*
X912Y2067D03*
X912Y2117D03*
X912Y2167D03*
G54D15*
X3445Y2361D03*
X3567Y2361D03*
X473Y1573D03*
X351Y1573D03*
X3445Y2203D03*
X3567Y2203D03*
X473Y1731D03*
X351Y1731D03*
X3445Y2046D03*
X3567Y2046D03*
X473Y1888D03*
X351Y1888D03*
X473Y2046D03*
X351Y2046D03*
X3445Y1888D03*
X3567Y1888D03*
X3445Y1731D03*
X3567Y1731D03*
X473Y2203D03*
X351Y2203D03*
X3445Y1573D03*
X3567Y1573D03*
X473Y2361D03*
X351Y2361D03*
G54D14*
X3249Y1806D03*
X3249Y1856D03*
X3249Y1906D03*
X3249Y1956D03*
X3249Y2006D03*
X3249Y2056D03*
X3249Y2106D03*
X3249Y2156D03*
X3007Y2156D03*
X3007Y2106D03*
X3007Y2056D03*
X3007Y2006D03*
X3007Y1956D03*
X3007Y1906D03*
X3007Y1856D03*
X3007Y1806D03*
G54D13*
X3758Y2715D03*
X3839Y2715D03*
G54D15*
X1654Y3739D03*
X1532Y3739D03*
X2284Y3739D03*
X2406Y3739D03*
G04 End of PasteMask1*
M02*