; NON-PLATED HOLES START AT T1
; THROUGH (PLATED) HOLES START AT T100
M48
INCH
T100C0.043307
T101C0.157480
T102C0.038189
T103C0.015748
T104C0.035000
T105C0.019685
T106C0.216535
T107C0.036000
T108C0.031497
T109C0.129921
T110C0.027559
%
T100
X015151Y008288
X024147Y011399
X015151Y011399
X024147Y020548
X024147Y023580
X015151Y020548
X015151Y023580
X024147Y008367
T101
X037512Y037485
X001826Y037411
X037761Y001670
X001837Y001808
T102
X033358Y005273
X032358Y005273
X031358Y005273
X033358Y008273
X030358Y005273
X032358Y008273
X031358Y008273
X030358Y008273
T103
X011816Y027199
X032288Y030298
X011816Y031676
X015671Y032298
X033076Y030692
X005910Y029904
X018384Y030502
X019690Y033645
X011225Y031086
X011225Y026609
X029764Y013512
X018706Y034235
X016698Y033054
X022690Y031099
X034452Y012527
X026748Y031686
T104
X038406Y029117
X037406Y029117
T105
X021204Y036046
X021204Y037385
X018286Y036046
X018286Y037385
T106
X019649Y019714
T107
X013730Y029140
X024730Y035140
X023730Y035140
X017730Y035140
X025730Y029140
X020730Y035140
X016730Y035140
X019730Y029140
X014730Y035140
X022730Y029140
X018730Y029140
X013730Y035140
X021730Y029140
X015730Y029140
X025730Y035140
X012730Y029140
X019730Y035140
X022730Y035140
X018730Y035140
X026730Y029140
X021730Y035140
X024730Y029140
X015730Y035140
X023730Y029140
X017730Y029140
X012730Y035140
X020730Y029140
X016730Y029140
X026730Y035140
X014730Y029140
T108
X029172Y003225
X004237Y028482
X036039Y029019
X037632Y019595
X035187Y028527
X019690Y001736
X019690Y000752
X010273Y003262
X000873Y019672
X010804Y035102
X003394Y010173
X028698Y035094
X010765Y004114
X035226Y010617
X003384Y028974
X036079Y010125
X028680Y004078
X038616Y019595
X029190Y035946
X010312Y035954
X019745Y038529
X004247Y010665
X001857Y019672
X019745Y037545
T109
X014924Y015974
X023192Y025816
X023192Y006131
T110
X002690Y031168
X035690Y033168
X002690Y032168
X035690Y034168
X002690Y033168
X035690Y035168
X002690Y034168
X002690Y035168
X035690Y031168
X035690Y032168
T00
M30
