G04 MADE WITH FRITZING*
G04 WWW.FRITZING.ORG*
G04 DOUBLE SIDED*
G04 HOLES PLATED*
G04 CONTOUR ON CENTER OF CONTOUR VECTOR*
%ASAXBY*%
%FSLAX23Y23*%
%MOIN*%
%OFA0B0*%
%SFA1.0B1.0*%
%ADD10C,0.255905*%
%ADD11C,0.145669*%
%ADD12R,0.080000X0.026000*%
%ADD13R,0.055118X0.059055*%
%ADD14R,0.059055X0.055118*%
%LNPASTEMASK1*%
G90*
G70*
G54D10*
X1965Y1971D03*
G54D11*
X2319Y2582D03*
X1492Y1597D03*
X2319Y613D03*
G54D12*
X685Y2158D03*
X685Y2108D03*
X685Y2058D03*
X685Y2008D03*
X685Y1958D03*
X685Y1908D03*
X685Y1858D03*
X685Y1808D03*
X927Y1808D03*
X927Y1858D03*
X927Y1908D03*
X927Y1958D03*
X927Y2008D03*
X927Y2058D03*
X927Y2108D03*
X927Y2158D03*
G54D13*
X504Y1739D03*
X423Y1739D03*
X504Y1825D03*
X423Y1825D03*
X504Y2011D03*
X423Y2011D03*
G54D12*
X3316Y1800D03*
X3316Y1850D03*
X3316Y1900D03*
X3316Y1950D03*
X3316Y2000D03*
X3316Y2050D03*
X3316Y2100D03*
X3316Y2150D03*
X3074Y2150D03*
X3074Y2100D03*
X3074Y2050D03*
X3074Y2000D03*
X3074Y1950D03*
X3074Y1900D03*
X3074Y1850D03*
X3074Y1800D03*
G54D13*
X3453Y2193D03*
X3534Y2193D03*
X3453Y2104D03*
X3534Y2104D03*
X3453Y2015D03*
X3534Y2015D03*
X3453Y1929D03*
X3534Y1929D03*
X3453Y1847D03*
X3534Y1847D03*
X3453Y1760D03*
X3534Y1760D03*
G54D14*
X3449Y766D03*
X3449Y685D03*
X3362Y766D03*
X3362Y685D03*
X3272Y766D03*
X3272Y685D03*
X3177Y766D03*
X3177Y685D03*
X3137Y1065D03*
X3137Y985D03*
X3241Y1064D03*
X3241Y984D03*
X3340Y1066D03*
X3340Y986D03*
X3434Y1068D03*
X3434Y988D03*
X3872Y3116D03*
X3872Y3197D03*
X3775Y3119D03*
X3775Y3200D03*
G54D13*
X1743Y3741D03*
X1662Y3741D03*
X2188Y3737D03*
X2269Y3737D03*
G36*
X476Y1890D02*
X476Y1949D01*
X531Y1949D01*
X531Y1890D01*
X476Y1890D01*
G37*
D02*
G36*
X396Y1890D02*
X396Y1949D01*
X451Y1949D01*
X451Y1890D01*
X396Y1890D01*
G37*
D02*
G36*
X476Y2072D02*
X476Y2131D01*
X531Y2131D01*
X531Y2072D01*
X476Y2072D01*
G37*
D02*
G36*
X396Y2072D02*
X396Y2131D01*
X451Y2131D01*
X451Y2072D01*
X396Y2072D01*
G37*
D02*
G36*
X476Y2162D02*
X476Y2221D01*
X531Y2221D01*
X531Y2162D01*
X476Y2162D01*
G37*
D02*
G36*
X396Y2162D02*
X396Y2221D01*
X451Y2221D01*
X451Y2162D01*
X396Y2162D01*
G37*
D02*
G04 End of PasteMask1*
M02*