G04 MADE WITH FRITZING*
G04 WWW.FRITZING.ORG*
G04 DOUBLE SIDED*
G04 HOLES PLATED*
G04 CONTOUR ON CENTER OF CONTOUR VECTOR*
%ASAXBY*%
%FSLAX23Y23*%
%MOIN*%
%OFA0B0*%
%SFA1.0B1.0*%
%ADD10C,0.049370*%
%ADD11C,0.068189*%
%ADD12C,0.069055*%
%ADD13C,0.080000*%
%ADD14C,0.092677*%
%ADD15C,0.265905*%
%ADD16C,0.155669*%
%ADD17C,0.226535*%
%ADD18C,0.214724*%
%ADD19C,0.088000*%
%ADD20R,0.080000X0.079972*%
%ADD21R,0.090000X0.036000*%
%ADD22R,0.065118X0.069055*%
%ADD23R,0.069055X0.065118*%
%ADD24C,0.010000*%
%ADD25R,0.001000X0.001000*%
%LNMASK1*%
G90*
G70*
G54D10*
X3547Y878D03*
X1721Y3663D03*
X995Y2059D03*
X1236Y2148D03*
G54D11*
X3172Y236D03*
X3272Y236D03*
X3372Y236D03*
X3472Y236D03*
X3472Y536D03*
X3372Y536D03*
X3272Y536D03*
X3172Y536D03*
X3172Y236D03*
X3272Y236D03*
X3372Y236D03*
X3472Y236D03*
X3472Y536D03*
X3372Y536D03*
X3272Y536D03*
X3172Y536D03*
G54D10*
X1328Y3737D03*
G54D12*
X1873Y3745D03*
X1873Y3611D03*
X1873Y3745D03*
X1873Y3611D03*
X2058Y3741D03*
X2058Y3607D03*
X2058Y3741D03*
X2058Y3607D03*
G54D13*
X1273Y2914D03*
X1373Y2914D03*
X1473Y2914D03*
X1573Y2914D03*
X1673Y2914D03*
X1773Y2914D03*
X1873Y2914D03*
X1973Y2914D03*
X2073Y2914D03*
X2173Y2914D03*
X2273Y2914D03*
X2373Y2914D03*
X2473Y2914D03*
X2573Y2914D03*
X2673Y2914D03*
X1273Y3514D03*
X1373Y3514D03*
X1473Y3514D03*
X1573Y3514D03*
X1673Y3514D03*
X1773Y3514D03*
X1873Y3514D03*
X1973Y3514D03*
X2073Y3514D03*
X2173Y3514D03*
X2273Y3514D03*
X2373Y3514D03*
X2473Y3514D03*
X2573Y3514D03*
X2673Y3514D03*
G54D10*
X1870Y165D03*
X973Y450D03*
X351Y1153D03*
X358Y2792D03*
X377Y2666D03*
X688Y1708D03*
X223Y1982D03*
X1100Y2739D03*
X1147Y2672D03*
X1150Y3165D03*
X1100Y3110D03*
X2269Y3110D03*
X2675Y3169D03*
X3141Y1556D03*
X2370Y3008D03*
X3398Y2954D03*
X3569Y2794D03*
X3644Y1294D03*
X3685Y1949D03*
X3313Y1319D03*
X3292Y2989D03*
X3320Y2285D03*
X2832Y1934D03*
X1678Y3293D03*
X1975Y3345D03*
X1267Y3230D03*
X1873Y3392D03*
G54D14*
X2415Y2358D03*
X2415Y2055D03*
X1515Y2055D03*
X1515Y2358D03*
X1515Y829D03*
X1515Y1140D03*
X2415Y1140D03*
X2415Y837D03*
G54D15*
X1965Y1971D03*
G54D16*
X2319Y2582D03*
X1492Y1597D03*
X2319Y613D03*
G54D17*
X184Y181D03*
X3751Y3749D03*
X183Y3741D03*
X3776Y167D03*
G54D18*
X1969Y1971D03*
G54D19*
X252Y3106D03*
X252Y3206D03*
X252Y3306D03*
X252Y3406D03*
X252Y3506D03*
X3657Y3114D03*
X3657Y3214D03*
X3657Y3314D03*
X3657Y3414D03*
X3657Y3514D03*
G54D20*
X1273Y2914D03*
G54D21*
X685Y2158D03*
X685Y2108D03*
X685Y2058D03*
X685Y2008D03*
X685Y1958D03*
X685Y1908D03*
X685Y1858D03*
X685Y1808D03*
X927Y1808D03*
X927Y1858D03*
X927Y1908D03*
X927Y1958D03*
X927Y2008D03*
X927Y2058D03*
X927Y2108D03*
X927Y2158D03*
G54D22*
X504Y1739D03*
X423Y1739D03*
X504Y1825D03*
X423Y1825D03*
X504Y2011D03*
X423Y2011D03*
G54D21*
X3316Y1800D03*
X3316Y1850D03*
X3316Y1900D03*
X3316Y1950D03*
X3316Y2000D03*
X3316Y2050D03*
X3316Y2100D03*
X3316Y2150D03*
X3074Y2150D03*
X3074Y2100D03*
X3074Y2050D03*
X3074Y2000D03*
X3074Y1950D03*
X3074Y1900D03*
X3074Y1850D03*
X3074Y1800D03*
G54D22*
X3453Y2193D03*
X3534Y2193D03*
X3453Y2104D03*
X3534Y2104D03*
X3453Y2015D03*
X3534Y2015D03*
X3453Y1929D03*
X3534Y1929D03*
X3453Y1847D03*
X3534Y1847D03*
X3453Y1760D03*
X3534Y1760D03*
G54D23*
X3449Y766D03*
X3449Y685D03*
X3362Y766D03*
X3362Y685D03*
X3272Y766D03*
X3272Y685D03*
X3177Y766D03*
X3177Y685D03*
X3137Y1065D03*
X3137Y985D03*
X3241Y1064D03*
X3241Y984D03*
X3340Y1066D03*
X3340Y986D03*
X3434Y1068D03*
X3434Y988D03*
X3872Y3116D03*
X3872Y3197D03*
X3775Y3119D03*
X3775Y3200D03*
G54D22*
X1743Y3741D03*
X1662Y3741D03*
X2188Y3737D03*
X2269Y3737D03*
G54D24*
G36*
X476Y1890D02*
X476Y1949D01*
X531Y1949D01*
X531Y1890D01*
X476Y1890D01*
G37*
D02*
G36*
X396Y1890D02*
X396Y1949D01*
X451Y1949D01*
X451Y1890D01*
X396Y1890D01*
G37*
D02*
G36*
X476Y2072D02*
X476Y2131D01*
X531Y2131D01*
X531Y2072D01*
X476Y2072D01*
G37*
D02*
G36*
X396Y2072D02*
X396Y2131D01*
X451Y2131D01*
X451Y2072D01*
X396Y2072D01*
G37*
D02*
G36*
X476Y2162D02*
X476Y2221D01*
X531Y2221D01*
X531Y2162D01*
X476Y2162D01*
G37*
D02*
G36*
X396Y2162D02*
X396Y2221D01*
X451Y2221D01*
X451Y2162D01*
X396Y2162D01*
G37*
D02*
G54D25*
X3165Y599D02*
X3177Y599D01*
X3265Y599D02*
X3277Y599D01*
X3365Y599D02*
X3377Y599D01*
X3465Y599D02*
X3477Y599D01*
X3161Y598D02*
X3181Y598D01*
X3261Y598D02*
X3281Y598D01*
X3361Y598D02*
X3381Y598D01*
X3461Y598D02*
X3481Y598D01*
X3158Y597D02*
X3184Y597D01*
X3258Y597D02*
X3284Y597D01*
X3358Y597D02*
X3384Y597D01*
X3458Y597D02*
X3484Y597D01*
X3156Y596D02*
X3186Y596D01*
X3256Y596D02*
X3286Y596D01*
X3356Y596D02*
X3386Y596D01*
X3456Y596D02*
X3486Y596D01*
X3154Y595D02*
X3188Y595D01*
X3254Y595D02*
X3288Y595D01*
X3354Y595D02*
X3388Y595D01*
X3454Y595D02*
X3488Y595D01*
X3153Y594D02*
X3189Y594D01*
X3253Y594D02*
X3289Y594D01*
X3353Y594D02*
X3389Y594D01*
X3453Y594D02*
X3489Y594D01*
X3151Y593D02*
X3191Y593D01*
X3251Y593D02*
X3291Y593D01*
X3351Y593D02*
X3391Y593D01*
X3451Y593D02*
X3491Y593D01*
X3150Y592D02*
X3192Y592D01*
X3250Y592D02*
X3292Y592D01*
X3350Y592D02*
X3392Y592D01*
X3450Y592D02*
X3492Y592D01*
X3149Y591D02*
X3193Y591D01*
X3249Y591D02*
X3293Y591D01*
X3349Y591D02*
X3393Y591D01*
X3449Y591D02*
X3493Y591D01*
X3148Y590D02*
X3194Y590D01*
X3248Y590D02*
X3294Y590D01*
X3348Y590D02*
X3394Y590D01*
X3448Y590D02*
X3494Y590D01*
X3147Y589D02*
X3195Y589D01*
X3247Y589D02*
X3295Y589D01*
X3347Y589D02*
X3395Y589D01*
X3447Y589D02*
X3495Y589D01*
X3146Y588D02*
X3196Y588D01*
X3246Y588D02*
X3296Y588D01*
X3346Y588D02*
X3396Y588D01*
X3446Y588D02*
X3496Y588D01*
X3145Y587D02*
X3197Y587D01*
X3245Y587D02*
X3297Y587D01*
X3345Y587D02*
X3397Y587D01*
X3445Y587D02*
X3497Y587D01*
X3144Y586D02*
X3198Y586D01*
X3244Y586D02*
X3298Y586D01*
X3344Y586D02*
X3398Y586D01*
X3444Y586D02*
X3498Y586D01*
X3144Y585D02*
X3199Y585D01*
X3244Y585D02*
X3299Y585D01*
X3344Y585D02*
X3399Y585D01*
X3444Y585D02*
X3499Y585D01*
X3143Y584D02*
X3199Y584D01*
X3243Y584D02*
X3299Y584D01*
X3343Y584D02*
X3399Y584D01*
X3443Y584D02*
X3499Y584D01*
X3142Y583D02*
X3200Y583D01*
X3242Y583D02*
X3300Y583D01*
X3342Y583D02*
X3400Y583D01*
X3442Y583D02*
X3500Y583D01*
X3142Y582D02*
X3200Y582D01*
X3242Y582D02*
X3300Y582D01*
X3342Y582D02*
X3400Y582D01*
X3442Y582D02*
X3500Y582D01*
X3141Y581D02*
X3201Y581D01*
X3241Y581D02*
X3301Y581D01*
X3341Y581D02*
X3401Y581D01*
X3441Y581D02*
X3501Y581D01*
X3141Y580D02*
X3201Y580D01*
X3241Y580D02*
X3301Y580D01*
X3341Y580D02*
X3401Y580D01*
X3441Y580D02*
X3501Y580D01*
X3140Y579D02*
X3202Y579D01*
X3240Y579D02*
X3302Y579D01*
X3340Y579D02*
X3402Y579D01*
X3440Y579D02*
X3502Y579D01*
X3140Y578D02*
X3202Y578D01*
X3240Y578D02*
X3302Y578D01*
X3340Y578D02*
X3402Y578D01*
X3440Y578D02*
X3502Y578D01*
X3140Y577D02*
X3203Y577D01*
X3240Y577D02*
X3303Y577D01*
X3340Y577D02*
X3403Y577D01*
X3440Y577D02*
X3503Y577D01*
X3139Y576D02*
X3203Y576D01*
X3239Y576D02*
X3303Y576D01*
X3339Y576D02*
X3403Y576D01*
X3439Y576D02*
X3503Y576D01*
X3139Y575D02*
X3203Y575D01*
X3239Y575D02*
X3303Y575D01*
X3339Y575D02*
X3403Y575D01*
X3439Y575D02*
X3503Y575D01*
X3139Y574D02*
X3204Y574D01*
X3239Y574D02*
X3304Y574D01*
X3339Y574D02*
X3404Y574D01*
X3439Y574D02*
X3504Y574D01*
X3138Y573D02*
X3204Y573D01*
X3238Y573D02*
X3304Y573D01*
X3338Y573D02*
X3404Y573D01*
X3438Y573D02*
X3504Y573D01*
X3138Y572D02*
X3204Y572D01*
X3238Y572D02*
X3304Y572D01*
X3338Y572D02*
X3404Y572D01*
X3438Y572D02*
X3504Y572D01*
X3138Y571D02*
X3204Y571D01*
X3238Y571D02*
X3304Y571D01*
X3338Y571D02*
X3404Y571D01*
X3438Y571D02*
X3504Y571D01*
X3138Y570D02*
X3204Y570D01*
X3238Y570D02*
X3304Y570D01*
X3338Y570D02*
X3404Y570D01*
X3438Y570D02*
X3504Y570D01*
X3138Y569D02*
X3204Y569D01*
X3238Y569D02*
X3304Y569D01*
X3338Y569D02*
X3404Y569D01*
X3438Y569D02*
X3504Y569D01*
X3138Y568D02*
X3205Y568D01*
X3238Y568D02*
X3305Y568D01*
X3338Y568D02*
X3405Y568D01*
X3438Y568D02*
X3505Y568D01*
X3138Y567D02*
X3205Y567D01*
X3238Y567D02*
X3305Y567D01*
X3338Y567D02*
X3405Y567D01*
X3438Y567D02*
X3505Y567D01*
X3137Y566D02*
X3205Y566D01*
X3237Y566D02*
X3305Y566D01*
X3337Y566D02*
X3405Y566D01*
X3437Y566D02*
X3505Y566D01*
X3137Y565D02*
X3205Y565D01*
X3237Y565D02*
X3305Y565D01*
X3337Y565D02*
X3405Y565D01*
X3437Y565D02*
X3505Y565D01*
X3137Y564D02*
X3205Y564D01*
X3237Y564D02*
X3305Y564D01*
X3337Y564D02*
X3405Y564D01*
X3437Y564D02*
X3505Y564D01*
X3137Y563D02*
X3205Y563D01*
X3237Y563D02*
X3305Y563D01*
X3337Y563D02*
X3405Y563D01*
X3437Y563D02*
X3505Y563D01*
X3137Y562D02*
X3205Y562D01*
X3237Y562D02*
X3305Y562D01*
X3337Y562D02*
X3405Y562D01*
X3437Y562D02*
X3505Y562D01*
X3137Y561D02*
X3205Y561D01*
X3237Y561D02*
X3305Y561D01*
X3337Y561D02*
X3405Y561D01*
X3437Y561D02*
X3505Y561D01*
X3137Y560D02*
X3205Y560D01*
X3237Y560D02*
X3305Y560D01*
X3337Y560D02*
X3405Y560D01*
X3437Y560D02*
X3505Y560D01*
X3137Y559D02*
X3205Y559D01*
X3237Y559D02*
X3305Y559D01*
X3337Y559D02*
X3405Y559D01*
X3437Y559D02*
X3505Y559D01*
X3137Y558D02*
X3205Y558D01*
X3237Y558D02*
X3305Y558D01*
X3337Y558D02*
X3405Y558D01*
X3437Y558D02*
X3505Y558D01*
X3137Y557D02*
X3205Y557D01*
X3237Y557D02*
X3305Y557D01*
X3337Y557D02*
X3405Y557D01*
X3437Y557D02*
X3505Y557D01*
X3137Y556D02*
X3205Y556D01*
X3237Y556D02*
X3305Y556D01*
X3337Y556D02*
X3405Y556D01*
X3437Y556D02*
X3505Y556D01*
X3137Y555D02*
X3205Y555D01*
X3237Y555D02*
X3305Y555D01*
X3337Y555D02*
X3405Y555D01*
X3437Y555D02*
X3505Y555D01*
X3137Y554D02*
X3205Y554D01*
X3237Y554D02*
X3305Y554D01*
X3337Y554D02*
X3405Y554D01*
X3437Y554D02*
X3505Y554D01*
X3137Y553D02*
X3205Y553D01*
X3237Y553D02*
X3305Y553D01*
X3337Y553D02*
X3405Y553D01*
X3437Y553D02*
X3505Y553D01*
X3137Y552D02*
X3205Y552D01*
X3237Y552D02*
X3305Y552D01*
X3337Y552D02*
X3405Y552D01*
X3437Y552D02*
X3505Y552D01*
X3137Y551D02*
X3205Y551D01*
X3237Y551D02*
X3305Y551D01*
X3337Y551D02*
X3405Y551D01*
X3437Y551D02*
X3505Y551D01*
X3137Y550D02*
X3166Y550D01*
X3176Y550D02*
X3205Y550D01*
X3237Y550D02*
X3266Y550D01*
X3276Y550D02*
X3305Y550D01*
X3337Y550D02*
X3366Y550D01*
X3376Y550D02*
X3405Y550D01*
X3437Y550D02*
X3466Y550D01*
X3476Y550D02*
X3505Y550D01*
X3137Y549D02*
X3164Y549D01*
X3178Y549D02*
X3205Y549D01*
X3237Y549D02*
X3264Y549D01*
X3278Y549D02*
X3305Y549D01*
X3337Y549D02*
X3364Y549D01*
X3378Y549D02*
X3405Y549D01*
X3437Y549D02*
X3464Y549D01*
X3478Y549D02*
X3505Y549D01*
X3137Y548D02*
X3162Y548D01*
X3180Y548D02*
X3205Y548D01*
X3237Y548D02*
X3262Y548D01*
X3280Y548D02*
X3305Y548D01*
X3337Y548D02*
X3362Y548D01*
X3380Y548D02*
X3405Y548D01*
X3437Y548D02*
X3462Y548D01*
X3480Y548D02*
X3505Y548D01*
X3137Y547D02*
X3161Y547D01*
X3181Y547D02*
X3205Y547D01*
X3237Y547D02*
X3261Y547D01*
X3281Y547D02*
X3305Y547D01*
X3337Y547D02*
X3361Y547D01*
X3381Y547D02*
X3405Y547D01*
X3437Y547D02*
X3461Y547D01*
X3481Y547D02*
X3505Y547D01*
X3137Y546D02*
X3160Y546D01*
X3182Y546D02*
X3205Y546D01*
X3237Y546D02*
X3260Y546D01*
X3282Y546D02*
X3305Y546D01*
X3337Y546D02*
X3360Y546D01*
X3382Y546D02*
X3405Y546D01*
X3437Y546D02*
X3460Y546D01*
X3482Y546D02*
X3505Y546D01*
X3137Y545D02*
X3159Y545D01*
X3183Y545D02*
X3205Y545D01*
X3237Y545D02*
X3259Y545D01*
X3283Y545D02*
X3305Y545D01*
X3337Y545D02*
X3359Y545D01*
X3383Y545D02*
X3405Y545D01*
X3437Y545D02*
X3459Y545D01*
X3483Y545D02*
X3505Y545D01*
X3137Y544D02*
X3159Y544D01*
X3184Y544D02*
X3205Y544D01*
X3237Y544D02*
X3259Y544D01*
X3284Y544D02*
X3305Y544D01*
X3337Y544D02*
X3359Y544D01*
X3384Y544D02*
X3405Y544D01*
X3437Y544D02*
X3459Y544D01*
X3484Y544D02*
X3505Y544D01*
X3137Y543D02*
X3158Y543D01*
X3184Y543D02*
X3205Y543D01*
X3237Y543D02*
X3258Y543D01*
X3284Y543D02*
X3305Y543D01*
X3337Y543D02*
X3358Y543D01*
X3384Y543D02*
X3405Y543D01*
X3437Y543D02*
X3458Y543D01*
X3484Y543D02*
X3505Y543D01*
X3137Y542D02*
X3157Y542D01*
X3185Y542D02*
X3205Y542D01*
X3237Y542D02*
X3257Y542D01*
X3285Y542D02*
X3305Y542D01*
X3337Y542D02*
X3357Y542D01*
X3385Y542D02*
X3405Y542D01*
X3437Y542D02*
X3457Y542D01*
X3485Y542D02*
X3505Y542D01*
X3137Y541D02*
X3157Y541D01*
X3185Y541D02*
X3205Y541D01*
X3237Y541D02*
X3257Y541D01*
X3285Y541D02*
X3305Y541D01*
X3337Y541D02*
X3357Y541D01*
X3385Y541D02*
X3405Y541D01*
X3437Y541D02*
X3457Y541D01*
X3485Y541D02*
X3505Y541D01*
X3137Y540D02*
X3157Y540D01*
X3185Y540D02*
X3205Y540D01*
X3237Y540D02*
X3257Y540D01*
X3285Y540D02*
X3305Y540D01*
X3337Y540D02*
X3357Y540D01*
X3385Y540D02*
X3405Y540D01*
X3437Y540D02*
X3457Y540D01*
X3485Y540D02*
X3505Y540D01*
X3137Y539D02*
X3157Y539D01*
X3185Y539D02*
X3205Y539D01*
X3237Y539D02*
X3257Y539D01*
X3285Y539D02*
X3305Y539D01*
X3337Y539D02*
X3357Y539D01*
X3385Y539D02*
X3405Y539D01*
X3437Y539D02*
X3457Y539D01*
X3485Y539D02*
X3505Y539D01*
X3137Y538D02*
X3157Y538D01*
X3186Y538D02*
X3205Y538D01*
X3237Y538D02*
X3257Y538D01*
X3286Y538D02*
X3305Y538D01*
X3337Y538D02*
X3357Y538D01*
X3386Y538D02*
X3405Y538D01*
X3437Y538D02*
X3457Y538D01*
X3486Y538D02*
X3505Y538D01*
X3137Y537D02*
X3156Y537D01*
X3186Y537D02*
X3205Y537D01*
X3237Y537D02*
X3256Y537D01*
X3286Y537D02*
X3305Y537D01*
X3337Y537D02*
X3356Y537D01*
X3386Y537D02*
X3405Y537D01*
X3437Y537D02*
X3456Y537D01*
X3486Y537D02*
X3505Y537D01*
X3137Y536D02*
X3157Y536D01*
X3186Y536D02*
X3205Y536D01*
X3237Y536D02*
X3257Y536D01*
X3286Y536D02*
X3305Y536D01*
X3337Y536D02*
X3357Y536D01*
X3386Y536D02*
X3405Y536D01*
X3437Y536D02*
X3457Y536D01*
X3486Y536D02*
X3505Y536D01*
X3137Y535D02*
X3157Y535D01*
X3186Y535D02*
X3205Y535D01*
X3237Y535D02*
X3257Y535D01*
X3286Y535D02*
X3305Y535D01*
X3337Y535D02*
X3357Y535D01*
X3386Y535D02*
X3405Y535D01*
X3437Y535D02*
X3457Y535D01*
X3486Y535D02*
X3505Y535D01*
X3137Y534D02*
X3157Y534D01*
X3185Y534D02*
X3205Y534D01*
X3237Y534D02*
X3257Y534D01*
X3285Y534D02*
X3305Y534D01*
X3337Y534D02*
X3357Y534D01*
X3385Y534D02*
X3405Y534D01*
X3437Y534D02*
X3457Y534D01*
X3485Y534D02*
X3505Y534D01*
X3137Y533D02*
X3157Y533D01*
X3185Y533D02*
X3205Y533D01*
X3237Y533D02*
X3257Y533D01*
X3285Y533D02*
X3305Y533D01*
X3337Y533D02*
X3357Y533D01*
X3385Y533D02*
X3405Y533D01*
X3437Y533D02*
X3457Y533D01*
X3485Y533D02*
X3505Y533D01*
X3137Y532D02*
X3157Y532D01*
X3185Y532D02*
X3205Y532D01*
X3237Y532D02*
X3257Y532D01*
X3285Y532D02*
X3305Y532D01*
X3337Y532D02*
X3357Y532D01*
X3385Y532D02*
X3405Y532D01*
X3437Y532D02*
X3457Y532D01*
X3485Y532D02*
X3505Y532D01*
X3137Y531D02*
X3158Y531D01*
X3185Y531D02*
X3205Y531D01*
X3237Y531D02*
X3258Y531D01*
X3285Y531D02*
X3305Y531D01*
X3337Y531D02*
X3358Y531D01*
X3385Y531D02*
X3405Y531D01*
X3437Y531D02*
X3458Y531D01*
X3485Y531D02*
X3505Y531D01*
X3137Y530D02*
X3158Y530D01*
X3184Y530D02*
X3205Y530D01*
X3237Y530D02*
X3258Y530D01*
X3284Y530D02*
X3305Y530D01*
X3337Y530D02*
X3358Y530D01*
X3384Y530D02*
X3405Y530D01*
X3437Y530D02*
X3458Y530D01*
X3484Y530D02*
X3505Y530D01*
X3137Y529D02*
X3159Y529D01*
X3183Y529D02*
X3205Y529D01*
X3237Y529D02*
X3259Y529D01*
X3283Y529D02*
X3305Y529D01*
X3337Y529D02*
X3359Y529D01*
X3383Y529D02*
X3405Y529D01*
X3437Y529D02*
X3459Y529D01*
X3483Y529D02*
X3505Y529D01*
X3137Y528D02*
X3159Y528D01*
X3183Y528D02*
X3205Y528D01*
X3237Y528D02*
X3259Y528D01*
X3283Y528D02*
X3305Y528D01*
X3337Y528D02*
X3359Y528D01*
X3383Y528D02*
X3405Y528D01*
X3437Y528D02*
X3459Y528D01*
X3483Y528D02*
X3505Y528D01*
X3137Y527D02*
X3160Y527D01*
X3182Y527D02*
X3205Y527D01*
X3237Y527D02*
X3260Y527D01*
X3282Y527D02*
X3305Y527D01*
X3337Y527D02*
X3360Y527D01*
X3382Y527D02*
X3405Y527D01*
X3437Y527D02*
X3460Y527D01*
X3482Y527D02*
X3505Y527D01*
X3137Y526D02*
X3161Y526D01*
X3181Y526D02*
X3205Y526D01*
X3237Y526D02*
X3261Y526D01*
X3281Y526D02*
X3305Y526D01*
X3337Y526D02*
X3361Y526D01*
X3381Y526D02*
X3405Y526D01*
X3437Y526D02*
X3461Y526D01*
X3481Y526D02*
X3505Y526D01*
X3137Y525D02*
X3162Y525D01*
X3180Y525D02*
X3205Y525D01*
X3237Y525D02*
X3262Y525D01*
X3280Y525D02*
X3305Y525D01*
X3337Y525D02*
X3362Y525D01*
X3380Y525D02*
X3405Y525D01*
X3437Y525D02*
X3462Y525D01*
X3480Y525D02*
X3505Y525D01*
X3137Y524D02*
X3164Y524D01*
X3178Y524D02*
X3205Y524D01*
X3237Y524D02*
X3264Y524D01*
X3278Y524D02*
X3305Y524D01*
X3337Y524D02*
X3364Y524D01*
X3378Y524D02*
X3405Y524D01*
X3437Y524D02*
X3464Y524D01*
X3478Y524D02*
X3505Y524D01*
X3137Y523D02*
X3167Y523D01*
X3175Y523D02*
X3205Y523D01*
X3237Y523D02*
X3267Y523D01*
X3275Y523D02*
X3305Y523D01*
X3337Y523D02*
X3367Y523D01*
X3375Y523D02*
X3405Y523D01*
X3437Y523D02*
X3467Y523D01*
X3475Y523D02*
X3505Y523D01*
X3137Y522D02*
X3205Y522D01*
X3237Y522D02*
X3305Y522D01*
X3337Y522D02*
X3405Y522D01*
X3437Y522D02*
X3505Y522D01*
X3137Y521D02*
X3205Y521D01*
X3237Y521D02*
X3305Y521D01*
X3337Y521D02*
X3405Y521D01*
X3437Y521D02*
X3505Y521D01*
X3137Y520D02*
X3205Y520D01*
X3237Y520D02*
X3305Y520D01*
X3337Y520D02*
X3405Y520D01*
X3437Y520D02*
X3505Y520D01*
X3137Y519D02*
X3205Y519D01*
X3237Y519D02*
X3305Y519D01*
X3337Y519D02*
X3405Y519D01*
X3437Y519D02*
X3505Y519D01*
X3137Y518D02*
X3205Y518D01*
X3237Y518D02*
X3305Y518D01*
X3337Y518D02*
X3405Y518D01*
X3437Y518D02*
X3505Y518D01*
X3137Y517D02*
X3205Y517D01*
X3237Y517D02*
X3305Y517D01*
X3337Y517D02*
X3405Y517D01*
X3437Y517D02*
X3505Y517D01*
X3137Y516D02*
X3205Y516D01*
X3237Y516D02*
X3305Y516D01*
X3337Y516D02*
X3405Y516D01*
X3437Y516D02*
X3505Y516D01*
X3137Y515D02*
X3205Y515D01*
X3237Y515D02*
X3305Y515D01*
X3337Y515D02*
X3405Y515D01*
X3437Y515D02*
X3505Y515D01*
X3137Y514D02*
X3205Y514D01*
X3237Y514D02*
X3305Y514D01*
X3337Y514D02*
X3405Y514D01*
X3437Y514D02*
X3505Y514D01*
X3137Y513D02*
X3205Y513D01*
X3237Y513D02*
X3305Y513D01*
X3337Y513D02*
X3405Y513D01*
X3437Y513D02*
X3505Y513D01*
X3137Y512D02*
X3205Y512D01*
X3237Y512D02*
X3305Y512D01*
X3337Y512D02*
X3405Y512D01*
X3437Y512D02*
X3505Y512D01*
X3137Y511D02*
X3205Y511D01*
X3237Y511D02*
X3305Y511D01*
X3337Y511D02*
X3405Y511D01*
X3437Y511D02*
X3505Y511D01*
X3137Y510D02*
X3205Y510D01*
X3237Y510D02*
X3305Y510D01*
X3337Y510D02*
X3405Y510D01*
X3437Y510D02*
X3505Y510D01*
X3137Y509D02*
X3205Y509D01*
X3237Y509D02*
X3305Y509D01*
X3337Y509D02*
X3405Y509D01*
X3437Y509D02*
X3505Y509D01*
X3137Y508D02*
X3205Y508D01*
X3237Y508D02*
X3305Y508D01*
X3337Y508D02*
X3405Y508D01*
X3437Y508D02*
X3505Y508D01*
X3137Y507D02*
X3205Y507D01*
X3237Y507D02*
X3305Y507D01*
X3337Y507D02*
X3405Y507D01*
X3437Y507D02*
X3505Y507D01*
X3138Y506D02*
X3205Y506D01*
X3238Y506D02*
X3305Y506D01*
X3338Y506D02*
X3405Y506D01*
X3438Y506D02*
X3505Y506D01*
X3138Y505D02*
X3205Y505D01*
X3238Y505D02*
X3305Y505D01*
X3338Y505D02*
X3405Y505D01*
X3438Y505D02*
X3505Y505D01*
X3138Y504D02*
X3204Y504D01*
X3238Y504D02*
X3304Y504D01*
X3338Y504D02*
X3404Y504D01*
X3438Y504D02*
X3504Y504D01*
X3138Y503D02*
X3204Y503D01*
X3238Y503D02*
X3304Y503D01*
X3338Y503D02*
X3404Y503D01*
X3438Y503D02*
X3504Y503D01*
X3138Y502D02*
X3204Y502D01*
X3238Y502D02*
X3304Y502D01*
X3338Y502D02*
X3404Y502D01*
X3438Y502D02*
X3504Y502D01*
X3138Y501D02*
X3204Y501D01*
X3238Y501D02*
X3304Y501D01*
X3338Y501D02*
X3404Y501D01*
X3438Y501D02*
X3504Y501D01*
X3138Y500D02*
X3204Y500D01*
X3238Y500D02*
X3304Y500D01*
X3338Y500D02*
X3404Y500D01*
X3438Y500D02*
X3504Y500D01*
X3139Y499D02*
X3203Y499D01*
X3239Y499D02*
X3303Y499D01*
X3339Y499D02*
X3403Y499D01*
X3439Y499D02*
X3503Y499D01*
X3139Y498D02*
X3203Y498D01*
X3239Y498D02*
X3303Y498D01*
X3339Y498D02*
X3403Y498D01*
X3439Y498D02*
X3503Y498D01*
X3139Y497D02*
X3203Y497D01*
X3239Y497D02*
X3303Y497D01*
X3339Y497D02*
X3403Y497D01*
X3439Y497D02*
X3503Y497D01*
X3140Y496D02*
X3203Y496D01*
X3240Y496D02*
X3303Y496D01*
X3340Y496D02*
X3403Y496D01*
X3440Y496D02*
X3503Y496D01*
X3140Y495D02*
X3202Y495D01*
X3240Y495D02*
X3302Y495D01*
X3340Y495D02*
X3402Y495D01*
X3440Y495D02*
X3502Y495D01*
X3140Y494D02*
X3202Y494D01*
X3240Y494D02*
X3302Y494D01*
X3340Y494D02*
X3402Y494D01*
X3440Y494D02*
X3502Y494D01*
X3141Y493D02*
X3201Y493D01*
X3241Y493D02*
X3301Y493D01*
X3341Y493D02*
X3401Y493D01*
X3441Y493D02*
X3501Y493D01*
X3141Y492D02*
X3201Y492D01*
X3241Y492D02*
X3301Y492D01*
X3341Y492D02*
X3401Y492D01*
X3441Y492D02*
X3501Y492D01*
X3142Y491D02*
X3200Y491D01*
X3242Y491D02*
X3300Y491D01*
X3342Y491D02*
X3400Y491D01*
X3442Y491D02*
X3500Y491D01*
X3142Y490D02*
X3200Y490D01*
X3242Y490D02*
X3300Y490D01*
X3342Y490D02*
X3400Y490D01*
X3442Y490D02*
X3500Y490D01*
X3143Y489D02*
X3199Y489D01*
X3243Y489D02*
X3299Y489D01*
X3343Y489D02*
X3399Y489D01*
X3443Y489D02*
X3499Y489D01*
X3144Y488D02*
X3198Y488D01*
X3244Y488D02*
X3298Y488D01*
X3344Y488D02*
X3398Y488D01*
X3444Y488D02*
X3498Y488D01*
X3144Y487D02*
X3198Y487D01*
X3244Y487D02*
X3298Y487D01*
X3344Y487D02*
X3398Y487D01*
X3444Y487D02*
X3498Y487D01*
X3145Y486D02*
X3197Y486D01*
X3245Y486D02*
X3297Y486D01*
X3345Y486D02*
X3397Y486D01*
X3445Y486D02*
X3497Y486D01*
X3146Y485D02*
X3196Y485D01*
X3246Y485D02*
X3296Y485D01*
X3346Y485D02*
X3396Y485D01*
X3446Y485D02*
X3496Y485D01*
X3147Y484D02*
X3195Y484D01*
X3247Y484D02*
X3295Y484D01*
X3347Y484D02*
X3395Y484D01*
X3447Y484D02*
X3495Y484D01*
X3148Y483D02*
X3194Y483D01*
X3248Y483D02*
X3294Y483D01*
X3348Y483D02*
X3394Y483D01*
X3448Y483D02*
X3494Y483D01*
X3149Y482D02*
X3193Y482D01*
X3249Y482D02*
X3293Y482D01*
X3349Y482D02*
X3393Y482D01*
X3449Y482D02*
X3493Y482D01*
X3150Y481D02*
X3192Y481D01*
X3250Y481D02*
X3292Y481D01*
X3350Y481D02*
X3392Y481D01*
X3450Y481D02*
X3492Y481D01*
X3151Y480D02*
X3191Y480D01*
X3251Y480D02*
X3291Y480D01*
X3351Y480D02*
X3391Y480D01*
X3451Y480D02*
X3491Y480D01*
X3153Y479D02*
X3189Y479D01*
X3253Y479D02*
X3289Y479D01*
X3353Y479D02*
X3389Y479D01*
X3453Y479D02*
X3489Y479D01*
X3155Y478D02*
X3188Y478D01*
X3255Y478D02*
X3288Y478D01*
X3355Y478D02*
X3388Y478D01*
X3455Y478D02*
X3488Y478D01*
X3157Y477D02*
X3186Y477D01*
X3257Y477D02*
X3286Y477D01*
X3357Y477D02*
X3386Y477D01*
X3457Y477D02*
X3486Y477D01*
X3159Y476D02*
X3183Y476D01*
X3259Y476D02*
X3283Y476D01*
X3359Y476D02*
X3383Y476D01*
X3459Y476D02*
X3483Y476D01*
X3161Y475D02*
X3181Y475D01*
X3261Y475D02*
X3281Y475D01*
X3361Y475D02*
X3381Y475D01*
X3461Y475D02*
X3481Y475D01*
X3165Y474D02*
X3177Y474D01*
X3265Y474D02*
X3277Y474D01*
X3365Y474D02*
X3377Y474D01*
X3465Y474D02*
X3477Y474D01*
X3165Y299D02*
X3177Y299D01*
X3265Y299D02*
X3277Y299D01*
X3365Y299D02*
X3377Y299D01*
X3465Y299D02*
X3477Y299D01*
X3161Y298D02*
X3181Y298D01*
X3261Y298D02*
X3281Y298D01*
X3361Y298D02*
X3381Y298D01*
X3461Y298D02*
X3481Y298D01*
X3158Y297D02*
X3184Y297D01*
X3258Y297D02*
X3284Y297D01*
X3358Y297D02*
X3384Y297D01*
X3458Y297D02*
X3484Y297D01*
X3156Y296D02*
X3186Y296D01*
X3256Y296D02*
X3286Y296D01*
X3356Y296D02*
X3386Y296D01*
X3456Y296D02*
X3486Y296D01*
X3154Y295D02*
X3188Y295D01*
X3254Y295D02*
X3288Y295D01*
X3354Y295D02*
X3388Y295D01*
X3454Y295D02*
X3488Y295D01*
X3153Y294D02*
X3189Y294D01*
X3253Y294D02*
X3289Y294D01*
X3353Y294D02*
X3389Y294D01*
X3453Y294D02*
X3489Y294D01*
X3151Y293D02*
X3191Y293D01*
X3251Y293D02*
X3291Y293D01*
X3351Y293D02*
X3391Y293D01*
X3451Y293D02*
X3491Y293D01*
X3150Y292D02*
X3192Y292D01*
X3250Y292D02*
X3292Y292D01*
X3350Y292D02*
X3392Y292D01*
X3450Y292D02*
X3492Y292D01*
X3149Y291D02*
X3193Y291D01*
X3249Y291D02*
X3293Y291D01*
X3349Y291D02*
X3393Y291D01*
X3449Y291D02*
X3493Y291D01*
X3148Y290D02*
X3194Y290D01*
X3248Y290D02*
X3294Y290D01*
X3348Y290D02*
X3394Y290D01*
X3448Y290D02*
X3494Y290D01*
X3147Y289D02*
X3195Y289D01*
X3247Y289D02*
X3295Y289D01*
X3347Y289D02*
X3395Y289D01*
X3447Y289D02*
X3495Y289D01*
X3146Y288D02*
X3196Y288D01*
X3246Y288D02*
X3296Y288D01*
X3346Y288D02*
X3396Y288D01*
X3446Y288D02*
X3496Y288D01*
X3145Y287D02*
X3197Y287D01*
X3245Y287D02*
X3297Y287D01*
X3345Y287D02*
X3397Y287D01*
X3445Y287D02*
X3497Y287D01*
X3144Y286D02*
X3198Y286D01*
X3244Y286D02*
X3298Y286D01*
X3344Y286D02*
X3398Y286D01*
X3444Y286D02*
X3498Y286D01*
X3144Y285D02*
X3199Y285D01*
X3244Y285D02*
X3299Y285D01*
X3344Y285D02*
X3399Y285D01*
X3444Y285D02*
X3499Y285D01*
X3143Y284D02*
X3199Y284D01*
X3243Y284D02*
X3299Y284D01*
X3343Y284D02*
X3399Y284D01*
X3443Y284D02*
X3499Y284D01*
X3142Y283D02*
X3200Y283D01*
X3242Y283D02*
X3300Y283D01*
X3342Y283D02*
X3400Y283D01*
X3442Y283D02*
X3500Y283D01*
X3142Y282D02*
X3200Y282D01*
X3242Y282D02*
X3300Y282D01*
X3342Y282D02*
X3400Y282D01*
X3442Y282D02*
X3500Y282D01*
X3141Y281D02*
X3201Y281D01*
X3241Y281D02*
X3301Y281D01*
X3341Y281D02*
X3401Y281D01*
X3441Y281D02*
X3501Y281D01*
X3141Y280D02*
X3201Y280D01*
X3241Y280D02*
X3301Y280D01*
X3341Y280D02*
X3401Y280D01*
X3441Y280D02*
X3501Y280D01*
X3140Y279D02*
X3202Y279D01*
X3240Y279D02*
X3302Y279D01*
X3340Y279D02*
X3402Y279D01*
X3440Y279D02*
X3502Y279D01*
X3140Y278D02*
X3202Y278D01*
X3240Y278D02*
X3302Y278D01*
X3340Y278D02*
X3402Y278D01*
X3440Y278D02*
X3502Y278D01*
X3140Y277D02*
X3203Y277D01*
X3240Y277D02*
X3303Y277D01*
X3340Y277D02*
X3403Y277D01*
X3440Y277D02*
X3503Y277D01*
X3139Y276D02*
X3203Y276D01*
X3239Y276D02*
X3303Y276D01*
X3339Y276D02*
X3403Y276D01*
X3439Y276D02*
X3503Y276D01*
X3139Y275D02*
X3203Y275D01*
X3239Y275D02*
X3303Y275D01*
X3339Y275D02*
X3403Y275D01*
X3439Y275D02*
X3503Y275D01*
X3139Y274D02*
X3204Y274D01*
X3239Y274D02*
X3304Y274D01*
X3339Y274D02*
X3404Y274D01*
X3439Y274D02*
X3504Y274D01*
X3138Y273D02*
X3204Y273D01*
X3238Y273D02*
X3304Y273D01*
X3338Y273D02*
X3404Y273D01*
X3438Y273D02*
X3504Y273D01*
X3138Y272D02*
X3204Y272D01*
X3238Y272D02*
X3304Y272D01*
X3338Y272D02*
X3404Y272D01*
X3438Y272D02*
X3504Y272D01*
X3138Y271D02*
X3204Y271D01*
X3238Y271D02*
X3304Y271D01*
X3338Y271D02*
X3404Y271D01*
X3438Y271D02*
X3504Y271D01*
X3138Y270D02*
X3204Y270D01*
X3238Y270D02*
X3304Y270D01*
X3338Y270D02*
X3404Y270D01*
X3438Y270D02*
X3504Y270D01*
X3138Y269D02*
X3204Y269D01*
X3238Y269D02*
X3304Y269D01*
X3338Y269D02*
X3404Y269D01*
X3438Y269D02*
X3504Y269D01*
X3138Y268D02*
X3205Y268D01*
X3238Y268D02*
X3305Y268D01*
X3338Y268D02*
X3405Y268D01*
X3438Y268D02*
X3505Y268D01*
X3138Y267D02*
X3205Y267D01*
X3238Y267D02*
X3305Y267D01*
X3338Y267D02*
X3405Y267D01*
X3438Y267D02*
X3505Y267D01*
X3137Y266D02*
X3205Y266D01*
X3237Y266D02*
X3305Y266D01*
X3337Y266D02*
X3405Y266D01*
X3437Y266D02*
X3505Y266D01*
X3137Y265D02*
X3205Y265D01*
X3237Y265D02*
X3305Y265D01*
X3337Y265D02*
X3405Y265D01*
X3437Y265D02*
X3505Y265D01*
X3137Y264D02*
X3205Y264D01*
X3237Y264D02*
X3305Y264D01*
X3337Y264D02*
X3405Y264D01*
X3437Y264D02*
X3505Y264D01*
X3137Y263D02*
X3205Y263D01*
X3237Y263D02*
X3305Y263D01*
X3337Y263D02*
X3405Y263D01*
X3437Y263D02*
X3505Y263D01*
X3137Y262D02*
X3205Y262D01*
X3237Y262D02*
X3305Y262D01*
X3337Y262D02*
X3405Y262D01*
X3437Y262D02*
X3505Y262D01*
X3137Y261D02*
X3205Y261D01*
X3237Y261D02*
X3305Y261D01*
X3337Y261D02*
X3405Y261D01*
X3437Y261D02*
X3505Y261D01*
X3137Y260D02*
X3205Y260D01*
X3237Y260D02*
X3305Y260D01*
X3337Y260D02*
X3405Y260D01*
X3437Y260D02*
X3505Y260D01*
X3137Y259D02*
X3205Y259D01*
X3237Y259D02*
X3305Y259D01*
X3337Y259D02*
X3405Y259D01*
X3437Y259D02*
X3505Y259D01*
X3137Y258D02*
X3205Y258D01*
X3237Y258D02*
X3305Y258D01*
X3337Y258D02*
X3405Y258D01*
X3437Y258D02*
X3505Y258D01*
X3137Y257D02*
X3205Y257D01*
X3237Y257D02*
X3305Y257D01*
X3337Y257D02*
X3405Y257D01*
X3437Y257D02*
X3505Y257D01*
X3137Y256D02*
X3205Y256D01*
X3237Y256D02*
X3305Y256D01*
X3337Y256D02*
X3405Y256D01*
X3437Y256D02*
X3505Y256D01*
X3137Y255D02*
X3205Y255D01*
X3237Y255D02*
X3305Y255D01*
X3337Y255D02*
X3405Y255D01*
X3437Y255D02*
X3505Y255D01*
X3137Y254D02*
X3205Y254D01*
X3237Y254D02*
X3305Y254D01*
X3337Y254D02*
X3405Y254D01*
X3437Y254D02*
X3505Y254D01*
X3137Y253D02*
X3205Y253D01*
X3237Y253D02*
X3305Y253D01*
X3337Y253D02*
X3405Y253D01*
X3437Y253D02*
X3505Y253D01*
X3137Y252D02*
X3205Y252D01*
X3237Y252D02*
X3305Y252D01*
X3337Y252D02*
X3405Y252D01*
X3437Y252D02*
X3505Y252D01*
X3137Y251D02*
X3205Y251D01*
X3237Y251D02*
X3305Y251D01*
X3337Y251D02*
X3405Y251D01*
X3437Y251D02*
X3505Y251D01*
X3137Y250D02*
X3166Y250D01*
X3176Y250D02*
X3205Y250D01*
X3237Y250D02*
X3266Y250D01*
X3276Y250D02*
X3305Y250D01*
X3337Y250D02*
X3366Y250D01*
X3376Y250D02*
X3405Y250D01*
X3437Y250D02*
X3466Y250D01*
X3476Y250D02*
X3505Y250D01*
X3137Y249D02*
X3164Y249D01*
X3178Y249D02*
X3205Y249D01*
X3237Y249D02*
X3264Y249D01*
X3278Y249D02*
X3305Y249D01*
X3337Y249D02*
X3364Y249D01*
X3378Y249D02*
X3405Y249D01*
X3437Y249D02*
X3464Y249D01*
X3478Y249D02*
X3505Y249D01*
X3137Y248D02*
X3162Y248D01*
X3180Y248D02*
X3205Y248D01*
X3237Y248D02*
X3262Y248D01*
X3280Y248D02*
X3305Y248D01*
X3337Y248D02*
X3362Y248D01*
X3380Y248D02*
X3405Y248D01*
X3437Y248D02*
X3462Y248D01*
X3480Y248D02*
X3505Y248D01*
X3137Y247D02*
X3161Y247D01*
X3181Y247D02*
X3205Y247D01*
X3237Y247D02*
X3261Y247D01*
X3281Y247D02*
X3305Y247D01*
X3337Y247D02*
X3361Y247D01*
X3381Y247D02*
X3405Y247D01*
X3437Y247D02*
X3461Y247D01*
X3481Y247D02*
X3505Y247D01*
X3137Y246D02*
X3160Y246D01*
X3182Y246D02*
X3205Y246D01*
X3237Y246D02*
X3260Y246D01*
X3282Y246D02*
X3305Y246D01*
X3337Y246D02*
X3360Y246D01*
X3382Y246D02*
X3405Y246D01*
X3437Y246D02*
X3460Y246D01*
X3482Y246D02*
X3505Y246D01*
X3137Y245D02*
X3159Y245D01*
X3183Y245D02*
X3205Y245D01*
X3237Y245D02*
X3259Y245D01*
X3283Y245D02*
X3305Y245D01*
X3337Y245D02*
X3359Y245D01*
X3383Y245D02*
X3405Y245D01*
X3437Y245D02*
X3459Y245D01*
X3483Y245D02*
X3505Y245D01*
X3137Y244D02*
X3159Y244D01*
X3184Y244D02*
X3205Y244D01*
X3237Y244D02*
X3259Y244D01*
X3284Y244D02*
X3305Y244D01*
X3337Y244D02*
X3359Y244D01*
X3384Y244D02*
X3405Y244D01*
X3437Y244D02*
X3459Y244D01*
X3484Y244D02*
X3505Y244D01*
X3137Y243D02*
X3158Y243D01*
X3184Y243D02*
X3205Y243D01*
X3237Y243D02*
X3258Y243D01*
X3284Y243D02*
X3305Y243D01*
X3337Y243D02*
X3358Y243D01*
X3384Y243D02*
X3405Y243D01*
X3437Y243D02*
X3458Y243D01*
X3484Y243D02*
X3505Y243D01*
X3137Y242D02*
X3157Y242D01*
X3185Y242D02*
X3205Y242D01*
X3237Y242D02*
X3257Y242D01*
X3285Y242D02*
X3305Y242D01*
X3337Y242D02*
X3357Y242D01*
X3385Y242D02*
X3405Y242D01*
X3437Y242D02*
X3457Y242D01*
X3485Y242D02*
X3505Y242D01*
X3137Y241D02*
X3157Y241D01*
X3185Y241D02*
X3205Y241D01*
X3237Y241D02*
X3257Y241D01*
X3285Y241D02*
X3305Y241D01*
X3337Y241D02*
X3357Y241D01*
X3385Y241D02*
X3405Y241D01*
X3437Y241D02*
X3457Y241D01*
X3485Y241D02*
X3505Y241D01*
X3137Y240D02*
X3157Y240D01*
X3185Y240D02*
X3205Y240D01*
X3237Y240D02*
X3257Y240D01*
X3285Y240D02*
X3305Y240D01*
X3337Y240D02*
X3357Y240D01*
X3385Y240D02*
X3405Y240D01*
X3437Y240D02*
X3457Y240D01*
X3485Y240D02*
X3505Y240D01*
X3137Y239D02*
X3157Y239D01*
X3185Y239D02*
X3205Y239D01*
X3237Y239D02*
X3257Y239D01*
X3285Y239D02*
X3305Y239D01*
X3337Y239D02*
X3357Y239D01*
X3385Y239D02*
X3405Y239D01*
X3437Y239D02*
X3457Y239D01*
X3485Y239D02*
X3505Y239D01*
X3137Y238D02*
X3157Y238D01*
X3186Y238D02*
X3205Y238D01*
X3237Y238D02*
X3257Y238D01*
X3286Y238D02*
X3305Y238D01*
X3337Y238D02*
X3357Y238D01*
X3386Y238D02*
X3405Y238D01*
X3437Y238D02*
X3457Y238D01*
X3486Y238D02*
X3505Y238D01*
X3137Y237D02*
X3156Y237D01*
X3186Y237D02*
X3205Y237D01*
X3237Y237D02*
X3256Y237D01*
X3286Y237D02*
X3305Y237D01*
X3337Y237D02*
X3356Y237D01*
X3386Y237D02*
X3405Y237D01*
X3437Y237D02*
X3456Y237D01*
X3486Y237D02*
X3505Y237D01*
X3137Y236D02*
X3157Y236D01*
X3186Y236D02*
X3205Y236D01*
X3237Y236D02*
X3257Y236D01*
X3286Y236D02*
X3305Y236D01*
X3337Y236D02*
X3357Y236D01*
X3386Y236D02*
X3405Y236D01*
X3437Y236D02*
X3457Y236D01*
X3486Y236D02*
X3505Y236D01*
X3137Y235D02*
X3157Y235D01*
X3186Y235D02*
X3205Y235D01*
X3237Y235D02*
X3257Y235D01*
X3286Y235D02*
X3305Y235D01*
X3337Y235D02*
X3357Y235D01*
X3386Y235D02*
X3405Y235D01*
X3437Y235D02*
X3457Y235D01*
X3486Y235D02*
X3505Y235D01*
X3137Y234D02*
X3157Y234D01*
X3185Y234D02*
X3205Y234D01*
X3237Y234D02*
X3257Y234D01*
X3285Y234D02*
X3305Y234D01*
X3337Y234D02*
X3357Y234D01*
X3385Y234D02*
X3405Y234D01*
X3437Y234D02*
X3457Y234D01*
X3485Y234D02*
X3505Y234D01*
X3137Y233D02*
X3157Y233D01*
X3185Y233D02*
X3205Y233D01*
X3237Y233D02*
X3257Y233D01*
X3285Y233D02*
X3305Y233D01*
X3337Y233D02*
X3357Y233D01*
X3385Y233D02*
X3405Y233D01*
X3437Y233D02*
X3457Y233D01*
X3485Y233D02*
X3505Y233D01*
X3137Y232D02*
X3157Y232D01*
X3185Y232D02*
X3205Y232D01*
X3237Y232D02*
X3257Y232D01*
X3285Y232D02*
X3305Y232D01*
X3337Y232D02*
X3357Y232D01*
X3385Y232D02*
X3405Y232D01*
X3437Y232D02*
X3457Y232D01*
X3485Y232D02*
X3505Y232D01*
X3137Y231D02*
X3158Y231D01*
X3185Y231D02*
X3205Y231D01*
X3237Y231D02*
X3258Y231D01*
X3285Y231D02*
X3305Y231D01*
X3337Y231D02*
X3358Y231D01*
X3385Y231D02*
X3405Y231D01*
X3437Y231D02*
X3458Y231D01*
X3485Y231D02*
X3505Y231D01*
X3137Y230D02*
X3158Y230D01*
X3184Y230D02*
X3205Y230D01*
X3237Y230D02*
X3258Y230D01*
X3284Y230D02*
X3305Y230D01*
X3337Y230D02*
X3358Y230D01*
X3384Y230D02*
X3405Y230D01*
X3437Y230D02*
X3458Y230D01*
X3484Y230D02*
X3505Y230D01*
X3137Y229D02*
X3159Y229D01*
X3183Y229D02*
X3205Y229D01*
X3237Y229D02*
X3259Y229D01*
X3283Y229D02*
X3305Y229D01*
X3337Y229D02*
X3359Y229D01*
X3383Y229D02*
X3405Y229D01*
X3437Y229D02*
X3459Y229D01*
X3483Y229D02*
X3505Y229D01*
X3137Y228D02*
X3159Y228D01*
X3183Y228D02*
X3205Y228D01*
X3237Y228D02*
X3259Y228D01*
X3283Y228D02*
X3305Y228D01*
X3337Y228D02*
X3359Y228D01*
X3383Y228D02*
X3405Y228D01*
X3437Y228D02*
X3459Y228D01*
X3483Y228D02*
X3505Y228D01*
X3137Y227D02*
X3160Y227D01*
X3182Y227D02*
X3205Y227D01*
X3237Y227D02*
X3260Y227D01*
X3282Y227D02*
X3305Y227D01*
X3337Y227D02*
X3360Y227D01*
X3382Y227D02*
X3405Y227D01*
X3437Y227D02*
X3460Y227D01*
X3482Y227D02*
X3505Y227D01*
X3137Y226D02*
X3161Y226D01*
X3181Y226D02*
X3205Y226D01*
X3237Y226D02*
X3261Y226D01*
X3281Y226D02*
X3305Y226D01*
X3337Y226D02*
X3361Y226D01*
X3381Y226D02*
X3405Y226D01*
X3437Y226D02*
X3461Y226D01*
X3481Y226D02*
X3505Y226D01*
X3137Y225D02*
X3162Y225D01*
X3180Y225D02*
X3205Y225D01*
X3237Y225D02*
X3262Y225D01*
X3280Y225D02*
X3305Y225D01*
X3337Y225D02*
X3362Y225D01*
X3380Y225D02*
X3405Y225D01*
X3437Y225D02*
X3462Y225D01*
X3480Y225D02*
X3505Y225D01*
X3137Y224D02*
X3164Y224D01*
X3178Y224D02*
X3205Y224D01*
X3237Y224D02*
X3264Y224D01*
X3278Y224D02*
X3305Y224D01*
X3337Y224D02*
X3364Y224D01*
X3378Y224D02*
X3405Y224D01*
X3437Y224D02*
X3464Y224D01*
X3478Y224D02*
X3505Y224D01*
X3137Y223D02*
X3167Y223D01*
X3175Y223D02*
X3205Y223D01*
X3237Y223D02*
X3267Y223D01*
X3275Y223D02*
X3305Y223D01*
X3337Y223D02*
X3367Y223D01*
X3375Y223D02*
X3405Y223D01*
X3437Y223D02*
X3467Y223D01*
X3475Y223D02*
X3505Y223D01*
X3137Y222D02*
X3205Y222D01*
X3237Y222D02*
X3305Y222D01*
X3337Y222D02*
X3405Y222D01*
X3437Y222D02*
X3505Y222D01*
X3137Y221D02*
X3205Y221D01*
X3237Y221D02*
X3305Y221D01*
X3337Y221D02*
X3405Y221D01*
X3437Y221D02*
X3505Y221D01*
X3137Y220D02*
X3205Y220D01*
X3237Y220D02*
X3305Y220D01*
X3337Y220D02*
X3405Y220D01*
X3437Y220D02*
X3505Y220D01*
X3137Y219D02*
X3205Y219D01*
X3237Y219D02*
X3305Y219D01*
X3337Y219D02*
X3405Y219D01*
X3437Y219D02*
X3505Y219D01*
X3137Y218D02*
X3205Y218D01*
X3237Y218D02*
X3305Y218D01*
X3337Y218D02*
X3405Y218D01*
X3437Y218D02*
X3505Y218D01*
X3137Y217D02*
X3205Y217D01*
X3237Y217D02*
X3305Y217D01*
X3337Y217D02*
X3405Y217D01*
X3437Y217D02*
X3505Y217D01*
X3137Y216D02*
X3205Y216D01*
X3237Y216D02*
X3305Y216D01*
X3337Y216D02*
X3405Y216D01*
X3437Y216D02*
X3505Y216D01*
X3137Y215D02*
X3205Y215D01*
X3237Y215D02*
X3305Y215D01*
X3337Y215D02*
X3405Y215D01*
X3437Y215D02*
X3505Y215D01*
X3137Y214D02*
X3205Y214D01*
X3237Y214D02*
X3305Y214D01*
X3337Y214D02*
X3405Y214D01*
X3437Y214D02*
X3505Y214D01*
X3137Y213D02*
X3205Y213D01*
X3237Y213D02*
X3305Y213D01*
X3337Y213D02*
X3405Y213D01*
X3437Y213D02*
X3505Y213D01*
X3137Y212D02*
X3205Y212D01*
X3237Y212D02*
X3305Y212D01*
X3337Y212D02*
X3405Y212D01*
X3437Y212D02*
X3505Y212D01*
X3137Y211D02*
X3205Y211D01*
X3237Y211D02*
X3305Y211D01*
X3337Y211D02*
X3405Y211D01*
X3437Y211D02*
X3505Y211D01*
X3137Y210D02*
X3205Y210D01*
X3237Y210D02*
X3305Y210D01*
X3337Y210D02*
X3405Y210D01*
X3437Y210D02*
X3505Y210D01*
X3137Y209D02*
X3205Y209D01*
X3237Y209D02*
X3305Y209D01*
X3337Y209D02*
X3405Y209D01*
X3437Y209D02*
X3505Y209D01*
X3137Y208D02*
X3205Y208D01*
X3237Y208D02*
X3305Y208D01*
X3337Y208D02*
X3405Y208D01*
X3437Y208D02*
X3505Y208D01*
X3137Y207D02*
X3205Y207D01*
X3237Y207D02*
X3305Y207D01*
X3337Y207D02*
X3405Y207D01*
X3437Y207D02*
X3505Y207D01*
X3138Y206D02*
X3205Y206D01*
X3238Y206D02*
X3305Y206D01*
X3338Y206D02*
X3405Y206D01*
X3438Y206D02*
X3505Y206D01*
X3138Y205D02*
X3205Y205D01*
X3238Y205D02*
X3305Y205D01*
X3338Y205D02*
X3405Y205D01*
X3438Y205D02*
X3505Y205D01*
X3138Y204D02*
X3204Y204D01*
X3238Y204D02*
X3304Y204D01*
X3338Y204D02*
X3404Y204D01*
X3438Y204D02*
X3504Y204D01*
X3138Y203D02*
X3204Y203D01*
X3238Y203D02*
X3304Y203D01*
X3338Y203D02*
X3404Y203D01*
X3438Y203D02*
X3504Y203D01*
X3138Y202D02*
X3204Y202D01*
X3238Y202D02*
X3304Y202D01*
X3338Y202D02*
X3404Y202D01*
X3438Y202D02*
X3504Y202D01*
X3138Y201D02*
X3204Y201D01*
X3238Y201D02*
X3304Y201D01*
X3338Y201D02*
X3404Y201D01*
X3438Y201D02*
X3504Y201D01*
X3138Y200D02*
X3204Y200D01*
X3238Y200D02*
X3304Y200D01*
X3338Y200D02*
X3404Y200D01*
X3438Y200D02*
X3504Y200D01*
X3139Y199D02*
X3203Y199D01*
X3239Y199D02*
X3303Y199D01*
X3339Y199D02*
X3403Y199D01*
X3439Y199D02*
X3503Y199D01*
X3139Y198D02*
X3203Y198D01*
X3239Y198D02*
X3303Y198D01*
X3339Y198D02*
X3403Y198D01*
X3439Y198D02*
X3503Y198D01*
X3139Y197D02*
X3203Y197D01*
X3239Y197D02*
X3303Y197D01*
X3339Y197D02*
X3403Y197D01*
X3439Y197D02*
X3503Y197D01*
X3140Y196D02*
X3203Y196D01*
X3240Y196D02*
X3303Y196D01*
X3340Y196D02*
X3403Y196D01*
X3440Y196D02*
X3503Y196D01*
X3140Y195D02*
X3202Y195D01*
X3240Y195D02*
X3302Y195D01*
X3340Y195D02*
X3402Y195D01*
X3440Y195D02*
X3502Y195D01*
X3140Y194D02*
X3202Y194D01*
X3240Y194D02*
X3302Y194D01*
X3340Y194D02*
X3402Y194D01*
X3440Y194D02*
X3502Y194D01*
X3141Y193D02*
X3201Y193D01*
X3241Y193D02*
X3301Y193D01*
X3341Y193D02*
X3401Y193D01*
X3441Y193D02*
X3501Y193D01*
X3141Y192D02*
X3201Y192D01*
X3241Y192D02*
X3301Y192D01*
X3341Y192D02*
X3401Y192D01*
X3441Y192D02*
X3501Y192D01*
X3142Y191D02*
X3200Y191D01*
X3242Y191D02*
X3300Y191D01*
X3342Y191D02*
X3400Y191D01*
X3442Y191D02*
X3500Y191D01*
X3142Y190D02*
X3200Y190D01*
X3242Y190D02*
X3300Y190D01*
X3342Y190D02*
X3400Y190D01*
X3442Y190D02*
X3500Y190D01*
X3143Y189D02*
X3199Y189D01*
X3243Y189D02*
X3299Y189D01*
X3343Y189D02*
X3399Y189D01*
X3443Y189D02*
X3499Y189D01*
X3144Y188D02*
X3198Y188D01*
X3244Y188D02*
X3298Y188D01*
X3344Y188D02*
X3398Y188D01*
X3444Y188D02*
X3498Y188D01*
X3144Y187D02*
X3198Y187D01*
X3244Y187D02*
X3298Y187D01*
X3344Y187D02*
X3398Y187D01*
X3444Y187D02*
X3498Y187D01*
X3145Y186D02*
X3197Y186D01*
X3245Y186D02*
X3297Y186D01*
X3345Y186D02*
X3397Y186D01*
X3445Y186D02*
X3497Y186D01*
X3146Y185D02*
X3196Y185D01*
X3246Y185D02*
X3296Y185D01*
X3346Y185D02*
X3396Y185D01*
X3446Y185D02*
X3496Y185D01*
X3147Y184D02*
X3195Y184D01*
X3247Y184D02*
X3295Y184D01*
X3347Y184D02*
X3395Y184D01*
X3447Y184D02*
X3495Y184D01*
X3148Y183D02*
X3194Y183D01*
X3248Y183D02*
X3294Y183D01*
X3348Y183D02*
X3394Y183D01*
X3448Y183D02*
X3494Y183D01*
X3149Y182D02*
X3193Y182D01*
X3249Y182D02*
X3293Y182D01*
X3349Y182D02*
X3393Y182D01*
X3449Y182D02*
X3493Y182D01*
X3150Y181D02*
X3192Y181D01*
X3250Y181D02*
X3292Y181D01*
X3350Y181D02*
X3392Y181D01*
X3450Y181D02*
X3492Y181D01*
X3151Y180D02*
X3191Y180D01*
X3251Y180D02*
X3291Y180D01*
X3351Y180D02*
X3391Y180D01*
X3451Y180D02*
X3491Y180D01*
X3153Y179D02*
X3189Y179D01*
X3253Y179D02*
X3289Y179D01*
X3353Y179D02*
X3389Y179D01*
X3453Y179D02*
X3489Y179D01*
X3155Y178D02*
X3188Y178D01*
X3255Y178D02*
X3288Y178D01*
X3355Y178D02*
X3388Y178D01*
X3455Y178D02*
X3488Y178D01*
X3157Y177D02*
X3186Y177D01*
X3257Y177D02*
X3286Y177D01*
X3357Y177D02*
X3386Y177D01*
X3457Y177D02*
X3486Y177D01*
X3159Y176D02*
X3183Y176D01*
X3259Y176D02*
X3283Y176D01*
X3359Y176D02*
X3383Y176D01*
X3459Y176D02*
X3483Y176D01*
X3161Y175D02*
X3181Y175D01*
X3261Y175D02*
X3281Y175D01*
X3361Y175D02*
X3381Y175D01*
X3461Y175D02*
X3481Y175D01*
X3165Y174D02*
X3177Y174D01*
X3265Y174D02*
X3277Y174D01*
X3365Y174D02*
X3377Y174D01*
X3465Y174D02*
X3477Y174D01*
D02*
G04 End of Mask1*
M02*