; NON-PLATED HOLES START AT T1
; THROUGH (PLATED) HOLES START AT T100
M48
INCH
T1C0.204724
T100C0.129921
T101C0.038000
T102C0.015748
T103C0.043307
T104C0.036000
T105C0.216535
T106C0.019685
T107C0.157480
T108C0.038189
%
T1
X019687Y019708
T100
X014924Y015974
X023192Y025816
X023192Y006131
T101
X002523Y035057
X036565Y035138
X002523Y031057
X036565Y031138
X002523Y032057
X036565Y032138
X002523Y033057
X036565Y033138
X002523Y034057
X036565Y034138
T102
X010995Y031099
X022690Y031099
X017208Y036631
X013282Y037372
X036438Y012942
X016782Y032928
X019745Y033446
X011495Y031649
X009949Y020594
X012671Y032298
X033130Y013188
X003579Y027918
X002227Y019816
X026748Y031686
X009727Y004502
X033201Y022853
X006875Y017076
X003514Y011529
X031412Y015557
X036845Y019490
X023701Y030076
X018727Y033918
X033979Y029535
X018700Y001647
X028319Y019335
X011468Y026724
X010995Y027390
X012356Y021483
X035690Y027935
X003773Y026659
X035472Y008777
X032919Y029889
T103
X015151Y023580
X024147Y008367
X015151Y008288
X024147Y011399
X015151Y011399
X024147Y020548
X024147Y023580
X015151Y020548
T104
X015730Y035140
X023730Y029140
X017730Y029140
X012730Y035140
X020730Y029140
X016730Y029140
X026730Y035140
X014730Y029140
X013730Y029140
X024730Y035140
X023730Y035140
X017730Y035140
X025730Y029140
X020730Y035140
X016730Y035140
X019730Y029140
X014730Y035140
X022730Y029140
X018730Y029140
X013730Y035140
X021730Y029140
X015730Y029140
X025730Y035140
X012730Y029140
X019730Y035140
X022730Y035140
X018730Y035140
X026730Y029140
X021730Y035140
X024730Y029140
T105
X019649Y019714
T106
X018727Y037447
X020579Y037410
X020579Y036071
X018727Y036108
T107
X001826Y037411
X037761Y001670
X001837Y001808
X037512Y037485
T108
X031715Y002360
X034715Y005360
X032715Y002360
X033715Y002360
X031715Y005360
X034715Y002360
X032715Y005360
X033715Y005360
T00
M30
