G04 MADE WITH FRITZING*
G04 WWW.FRITZING.ORG*
G04 DOUBLE SIDED*
G04 HOLES PLATED*
G04 CONTOUR ON CENTER OF CONTOUR VECTOR*
%ASAXBY*%
%FSLAX23Y23*%
%MOIN*%
%OFA0B0*%
%SFA1.0B1.0*%
%ADD10C,0.255905*%
%ADD11C,0.145669*%
%ADD12R,0.040000X0.015000*%
%ADD13R,0.059055X0.055118*%
%ADD14R,0.055118X0.059055*%
%ADD15C,0.008000*%
%LNPASTEMASK0*%
G90*
G70*
G54D10*
X1965Y1971D03*
G54D11*
X2319Y2582D03*
X1492Y1597D03*
X2319Y613D03*
G54D12*
X3472Y379D03*
X3472Y354D03*
X3472Y329D03*
X3372Y379D03*
X3372Y354D03*
X3372Y329D03*
X3272Y379D03*
X3272Y354D03*
X3272Y329D03*
X3172Y379D03*
X3172Y354D03*
X3172Y329D03*
G54D13*
X1966Y3866D03*
X1966Y3785D03*
G54D14*
X71Y1969D03*
X151Y1969D03*
X3852Y1970D03*
X3771Y1970D03*
G54D13*
X1969Y79D03*
X1969Y160D03*
G54D15*
X3442Y461D02*
X3442Y311D01*
D02*
X3442Y461D02*
X3502Y461D01*
D02*
X3502Y311D02*
X3502Y461D01*
D02*
X3502Y311D02*
X3442Y311D01*
D02*
X3342Y461D02*
X3342Y311D01*
D02*
X3342Y461D02*
X3402Y461D01*
D02*
X3402Y311D02*
X3402Y461D01*
D02*
X3402Y311D02*
X3342Y311D01*
D02*
X3242Y461D02*
X3242Y311D01*
D02*
X3242Y461D02*
X3302Y461D01*
D02*
X3302Y311D02*
X3302Y461D01*
D02*
X3302Y311D02*
X3242Y311D01*
D02*
X3142Y461D02*
X3142Y311D01*
D02*
X3142Y461D02*
X3202Y461D01*
D02*
X3202Y311D02*
X3202Y461D01*
D02*
X3202Y311D02*
X3142Y311D01*
G36*
X293Y2899D02*
X322Y2950D01*
X370Y2923D01*
X341Y2872D01*
X293Y2899D01*
G37*
D02*
G36*
X363Y2859D02*
X392Y2910D01*
X440Y2883D01*
X411Y2831D01*
X363Y2859D01*
G37*
D02*
G36*
X2903Y3648D02*
X2954Y3619D01*
X2927Y3571D01*
X2876Y3600D01*
X2903Y3648D01*
G37*
D02*
G36*
X2863Y3578D02*
X2914Y3549D01*
X2886Y3501D01*
X2835Y3530D01*
X2863Y3578D01*
G37*
D02*
G36*
X3608Y2944D02*
X3637Y2893D01*
X3589Y2865D01*
X3560Y2917D01*
X3608Y2944D01*
G37*
D02*
G36*
X3538Y2904D02*
X3567Y2853D01*
X3519Y2825D01*
X3490Y2876D01*
X3538Y2904D01*
G37*
D02*
G36*
X315Y982D02*
X285Y1033D01*
X333Y1060D01*
X363Y1009D01*
X315Y982D01*
G37*
D02*
G36*
X385Y1022D02*
X355Y1073D01*
X403Y1101D01*
X433Y1050D01*
X385Y1022D01*
G37*
D02*
G36*
X1026Y286D02*
X975Y316D01*
X1002Y364D01*
X1053Y334D01*
X1026Y286D01*
G37*
D02*
G36*
X1066Y356D02*
X1015Y386D01*
X1043Y434D01*
X1094Y404D01*
X1066Y356D01*
G37*
D02*
G36*
X2944Y312D02*
X2893Y283D01*
X2865Y331D01*
X2917Y360D01*
X2944Y312D01*
G37*
D02*
G36*
X2904Y382D02*
X2853Y353D01*
X2825Y400D01*
X2876Y430D01*
X2904Y382D01*
G37*
D02*
G36*
X979Y3608D02*
X1030Y3638D01*
X1057Y3590D01*
X1006Y3561D01*
X979Y3608D01*
G37*
D02*
G36*
X1019Y3538D02*
X1070Y3568D01*
X1098Y3520D01*
X1046Y3491D01*
X1019Y3538D01*
G37*
D02*
G36*
X3639Y1028D02*
X3609Y977D01*
X3562Y1004D01*
X3591Y1056D01*
X3639Y1028D01*
G37*
D02*
G36*
X3569Y1068D02*
X3539Y1017D01*
X3492Y1045D01*
X3521Y1096D01*
X3569Y1068D01*
G37*
D02*
G04 End of PasteMask0*
M02*