G04 MADE WITH FRITZING*
G04 WWW.FRITZING.ORG*
G04 DOUBLE SIDED*
G04 HOLES PLATED*
G04 CONTOUR ON CENTER OF CONTOUR VECTOR*
%ASAXBY*%
%FSLAX23Y23*%
%MOIN*%
%OFA0B0*%
%SFA1.0B1.0*%
%ADD10C,0.082677*%
%ADD11C,0.255905*%
%ADD12C,0.145669*%
%ADD13C,0.039370*%
%ADD14C,0.070000*%
%ADD15C,0.078000*%
%ADD16C,0.216535*%
%ADD17R,0.055118X0.059055*%
%ADD18R,0.069972X0.070000*%
%ADD19R,0.059055X0.055118*%
%ADD20C,0.016000*%
%ADD21C,0.024000*%
%LNCOPPER0*%
G90*
G70*
G54D10*
X1336Y2021D03*
X1336Y1717D03*
X436Y1717D03*
X436Y2021D03*
X436Y491D03*
X436Y803D03*
X1336Y803D03*
X1336Y499D03*
G54D11*
X886Y1634D03*
G54D12*
X1240Y2244D03*
X413Y1260D03*
X1240Y276D03*
G54D13*
X626Y1799D03*
X315Y2032D03*
X773Y1863D03*
X568Y2299D03*
X507Y1641D03*
X129Y1679D03*
X765Y1427D03*
X493Y1010D03*
X887Y1324D03*
X1218Y968D03*
X1032Y1274D03*
X1276Y1404D03*
X1508Y1221D03*
X846Y890D03*
G54D14*
X1854Y1844D03*
X1854Y1744D03*
X1854Y1644D03*
X1854Y1544D03*
X1854Y1444D03*
X1854Y1344D03*
X1854Y1244D03*
X1854Y1144D03*
X1854Y1044D03*
X1854Y944D03*
X1854Y844D03*
X1854Y744D03*
X1854Y644D03*
X1854Y544D03*
X1854Y444D03*
X2454Y1844D03*
X2454Y1744D03*
X2454Y1644D03*
X2454Y1544D03*
X2454Y1444D03*
X2454Y1344D03*
X2454Y1244D03*
X2454Y1144D03*
X2454Y1044D03*
X2454Y944D03*
X2454Y844D03*
X2454Y744D03*
X2454Y644D03*
X2454Y544D03*
X2454Y444D03*
G54D15*
X2591Y2359D03*
X2491Y2359D03*
X2391Y2359D03*
X2291Y2359D03*
X2591Y2359D03*
X2491Y2359D03*
X2391Y2359D03*
X2291Y2359D03*
X2291Y2259D03*
X2391Y2259D03*
X2491Y2259D03*
X2591Y2259D03*
G54D16*
X156Y162D03*
X2557Y2563D03*
X155Y2563D03*
X2556Y163D03*
G54D15*
X1685Y2549D03*
X1785Y2549D03*
X1885Y2549D03*
X1985Y2549D03*
X2085Y2549D03*
G54D17*
X1705Y2418D03*
X1786Y2418D03*
X1706Y2323D03*
X1787Y2323D03*
X843Y2462D03*
X924Y2462D03*
G54D18*
X1854Y1844D03*
G54D19*
X58Y1594D03*
X58Y1675D03*
G54D17*
X2271Y1139D03*
X2352Y1139D03*
X2271Y1441D03*
X2352Y1441D03*
G54D19*
X1717Y1680D03*
X1717Y1600D03*
G54D17*
X923Y804D03*
X842Y804D03*
X2271Y1240D03*
X2352Y1240D03*
X2271Y1340D03*
X2352Y1340D03*
X2271Y1037D03*
X2352Y1037D03*
X2271Y937D03*
X2352Y937D03*
X2271Y837D03*
X2352Y837D03*
X2271Y737D03*
X2352Y737D03*
G54D20*
X170Y1265D02*
X464Y1429D01*
D02*
X82Y1677D02*
X115Y1679D01*
D02*
X524Y2351D02*
X559Y2309D01*
D02*
X215Y2072D02*
X302Y2037D01*
D02*
X2038Y1441D02*
X2249Y1441D01*
D02*
X2038Y304D02*
X2038Y1441D01*
D02*
X1581Y304D02*
X2038Y304D01*
D02*
X1584Y1161D02*
X1581Y304D01*
G54D21*
D02*
X1786Y2394D02*
X1787Y2347D01*
D02*
X1786Y2442D02*
X1785Y2519D01*
D02*
X1701Y2442D02*
X1689Y2519D01*
D02*
X1705Y2394D02*
X1706Y2347D01*
G54D20*
D02*
X1418Y2366D02*
X1416Y2278D01*
D02*
X1312Y2437D02*
X1418Y2366D01*
D02*
X1486Y2196D02*
X1565Y2103D01*
D02*
X1416Y2278D02*
X1486Y2196D01*
D02*
X1285Y2389D02*
X1312Y2437D01*
D02*
X986Y2529D02*
X845Y2541D01*
D02*
X1020Y2444D02*
X986Y2529D01*
D02*
X845Y2541D02*
X844Y2486D01*
D02*
X1120Y2426D02*
X1020Y2444D01*
D02*
X1252Y2376D02*
X1120Y2426D01*
D02*
X179Y1749D02*
X176Y1596D01*
D02*
X70Y1757D02*
X179Y1749D01*
D02*
X62Y1260D02*
X129Y1135D01*
D02*
X107Y1341D02*
X62Y1260D01*
D02*
X176Y1596D02*
X82Y1595D01*
D02*
X129Y1135D02*
X170Y1168D01*
D02*
X90Y1885D02*
X70Y1757D01*
D02*
X90Y2063D02*
X134Y2027D01*
D02*
X73Y1449D02*
X107Y1341D01*
D02*
X60Y1572D02*
X73Y1449D01*
D02*
X143Y1991D02*
X90Y1885D01*
D02*
X334Y2255D02*
X240Y2154D01*
D02*
X240Y2154D02*
X157Y2160D01*
D02*
X157Y2160D02*
X90Y2063D01*
D02*
X421Y2316D02*
X334Y2255D01*
D02*
X1693Y1824D02*
X1713Y1702D01*
D02*
X1657Y1941D02*
X1693Y1824D01*
D02*
X1705Y2004D02*
X1657Y1941D01*
D02*
X1638Y2126D02*
X1705Y2004D01*
D02*
X1599Y2099D02*
X1638Y2126D01*
D02*
X1537Y1129D02*
X1629Y1110D01*
D02*
X1490Y1066D02*
X1537Y1129D01*
D02*
X1629Y1110D02*
X1687Y1216D01*
D02*
X1704Y2099D02*
X1842Y1864D01*
D02*
X1164Y2552D02*
X1390Y2466D01*
D02*
X890Y2600D02*
X1164Y2552D01*
D02*
X631Y2526D02*
X890Y2600D01*
D02*
X401Y2400D02*
X631Y2526D01*
D02*
X428Y2350D02*
X401Y2400D01*
D02*
X1564Y2296D02*
X1704Y2099D01*
D02*
X1390Y2466D02*
X1564Y2296D01*
D02*
X1687Y1216D02*
X1645Y1243D01*
D02*
X742Y818D02*
X525Y883D01*
D02*
X1101Y955D02*
X1262Y1048D01*
D02*
X1262Y1048D02*
X1323Y955D01*
D02*
X1354Y950D02*
X1490Y1066D01*
D02*
X1120Y841D02*
X1101Y955D01*
D02*
X945Y808D02*
X1120Y841D01*
D02*
X771Y937D02*
X742Y818D01*
D02*
X927Y929D02*
X771Y937D01*
D02*
X924Y828D02*
X927Y929D01*
D02*
X338Y444D02*
X512Y122D01*
D02*
X338Y796D02*
X338Y444D01*
D02*
X512Y122D02*
X2193Y117D01*
D02*
X2193Y117D02*
X2193Y1139D01*
D02*
X2193Y1139D02*
X2249Y1139D01*
D02*
X419Y910D02*
X338Y796D01*
D02*
X1832Y1335D02*
X1651Y1266D01*
D02*
X1832Y1734D02*
X1741Y1692D01*
D02*
X846Y171D02*
X2139Y171D01*
D02*
X2139Y171D02*
X2139Y1240D01*
D02*
X2139Y1240D02*
X2249Y1240D01*
D02*
X843Y780D02*
X846Y171D01*
G54D21*
D02*
X845Y871D02*
X843Y828D01*
G54D20*
D02*
X1208Y1296D02*
X1123Y1226D01*
D02*
X1257Y1366D02*
X1208Y1296D01*
D02*
X1270Y1392D02*
X1257Y1366D01*
D02*
X997Y1174D02*
X887Y1160D01*
D02*
X1123Y1226D02*
X997Y1174D01*
D02*
X757Y1181D02*
X649Y1229D01*
D02*
X887Y1160D02*
X757Y1181D01*
D02*
X545Y1300D02*
X475Y1400D01*
D02*
X649Y1229D02*
X545Y1300D01*
D02*
X431Y1522D02*
X420Y1637D01*
D02*
X464Y1429D02*
X431Y1522D01*
D02*
X475Y1400D02*
X464Y1429D01*
D02*
X371Y1670D02*
X364Y1741D01*
D02*
X364Y1741D02*
X394Y1792D01*
D02*
X394Y1792D02*
X445Y1800D01*
D02*
X420Y1637D02*
X371Y1670D01*
D02*
X445Y1800D02*
X471Y1866D01*
D02*
X545Y1970D02*
X649Y2041D01*
D02*
X471Y1866D02*
X545Y1970D01*
D02*
X768Y2092D02*
X920Y2110D01*
D02*
X649Y2041D02*
X768Y2092D01*
D02*
X920Y2110D02*
X924Y2438D01*
D02*
X1563Y1196D02*
X1521Y1215D01*
D02*
X1179Y478D02*
X1453Y218D01*
D02*
X1453Y218D02*
X2090Y218D01*
D02*
X2090Y218D02*
X2090Y1340D01*
D02*
X2090Y1340D02*
X2249Y1340D01*
D02*
X1179Y855D02*
X1179Y478D01*
D02*
X1247Y886D02*
X1179Y855D01*
D02*
X1225Y957D02*
X1253Y915D01*
D02*
X960Y1252D02*
X1019Y1270D01*
D02*
X890Y1244D02*
X960Y1252D01*
D02*
X782Y1252D02*
X890Y1244D01*
D02*
X682Y1296D02*
X782Y1252D01*
D02*
X608Y1355D02*
X682Y1296D01*
D02*
X545Y1433D02*
X608Y1355D01*
D02*
X501Y1537D02*
X545Y1433D01*
D02*
X506Y1627D02*
X501Y1537D01*
D02*
X512Y1766D02*
X507Y1654D01*
D02*
X549Y1822D02*
X512Y1766D01*
D02*
X616Y1918D02*
X549Y1822D01*
D02*
X690Y1970D02*
X616Y1918D01*
D02*
X779Y2015D02*
X690Y1970D01*
D02*
X884Y2029D02*
X779Y2015D01*
D02*
X1001Y2015D02*
X884Y2029D01*
D02*
X1098Y1963D02*
X1001Y2015D01*
D02*
X1195Y2132D02*
X1098Y1963D01*
D02*
X1287Y2149D02*
X1195Y2132D01*
D02*
X1340Y2210D02*
X1287Y2149D01*
D02*
X1342Y2301D02*
X1340Y2210D01*
D02*
X804Y1329D02*
X874Y1325D01*
D02*
X729Y1363D02*
X804Y1329D01*
D02*
X659Y1424D02*
X729Y1363D01*
D02*
X612Y1479D02*
X659Y1424D01*
D02*
X579Y1557D02*
X612Y1479D01*
D02*
X573Y1632D02*
X579Y1557D01*
D02*
X584Y1724D02*
X573Y1632D01*
D02*
X619Y1787D02*
X584Y1724D01*
D02*
X668Y1863D02*
X633Y1810D01*
D02*
X737Y1918D02*
X668Y1863D01*
D02*
X884Y1954D02*
X737Y1918D01*
D02*
X968Y1941D02*
X884Y1954D01*
D02*
X1045Y1911D02*
X968Y1941D01*
D02*
X1116Y1859D02*
X1045Y1911D01*
D02*
X1164Y1792D02*
X1116Y1859D01*
D02*
X1598Y2005D02*
X1164Y1792D01*
D02*
X756Y1437D02*
X682Y1518D01*
D02*
X682Y1518D02*
X654Y1635D01*
D02*
X654Y1635D02*
X684Y1754D01*
D02*
X684Y1754D02*
X765Y1852D01*
D02*
X787Y1864D02*
X887Y1877D01*
D02*
X887Y1877D02*
X1007Y1841D01*
D02*
X1007Y1841D02*
X1093Y1757D01*
D02*
X1093Y1757D02*
X1120Y1641D01*
D02*
X1120Y1641D02*
X1693Y1601D01*
D02*
X447Y949D02*
X485Y999D01*
G54D21*
D02*
X1786Y2415D02*
X1785Y2519D01*
D02*
X2431Y1863D02*
X1786Y2415D01*
D02*
X2374Y1140D02*
X2424Y1142D01*
D02*
X2374Y1241D02*
X2424Y1243D01*
D02*
X2374Y1341D02*
X2424Y1343D01*
D02*
X2374Y1442D02*
X2424Y1443D01*
D02*
X2374Y1038D02*
X2424Y1042D01*
D02*
X2374Y938D02*
X2424Y942D01*
D02*
X2374Y838D02*
X2424Y842D01*
D02*
X2374Y738D02*
X2424Y742D01*
D02*
X2271Y355D02*
X2555Y355D01*
D02*
X2555Y355D02*
X2545Y1781D01*
D02*
X2545Y1781D02*
X2478Y1827D01*
D02*
X2271Y713D02*
X2271Y355D01*
D02*
X2271Y761D02*
X2271Y813D01*
D02*
X2271Y861D02*
X2271Y913D01*
D02*
X2271Y961D02*
X2271Y1013D01*
G36*
X164Y1972D02*
X113Y2002D01*
X141Y2050D01*
X192Y2020D01*
X164Y1972D01*
G37*
D02*
G36*
X205Y2042D02*
X153Y2072D01*
X181Y2120D01*
X232Y2090D01*
X205Y2042D01*
G37*
D02*
G36*
X1235Y2357D02*
X1264Y2408D01*
X1312Y2380D01*
X1282Y2329D01*
X1235Y2357D01*
G37*
D02*
G36*
X1305Y2316D02*
X1334Y2367D01*
X1382Y2340D01*
X1352Y2289D01*
X1305Y2316D01*
G37*
D02*
G36*
X1540Y2095D02*
X1591Y2124D01*
X1618Y2077D01*
X1567Y2047D01*
X1540Y2095D01*
G37*
D02*
G36*
X1580Y2025D02*
X1631Y2055D01*
X1659Y2007D01*
X1608Y1977D01*
X1580Y2025D01*
G37*
D02*
G36*
X228Y1175D02*
X177Y1145D01*
X150Y1193D01*
X201Y1222D01*
X228Y1175D01*
G37*
D02*
G36*
X188Y1244D02*
X137Y1215D01*
X109Y1263D01*
X160Y1292D01*
X188Y1244D01*
G37*
D02*
G36*
X542Y901D02*
X512Y850D01*
X464Y878D01*
X494Y929D01*
X542Y901D01*
G37*
D02*
G36*
X472Y942D02*
X442Y890D01*
X394Y918D01*
X424Y969D01*
X472Y942D01*
G37*
D02*
G36*
X1346Y975D02*
X1375Y924D01*
X1328Y896D01*
X1298Y947D01*
X1346Y975D01*
G37*
D02*
G36*
X1276Y934D02*
X1305Y883D01*
X1258Y856D01*
X1228Y907D01*
X1276Y934D01*
G37*
D02*
G36*
X430Y2290D02*
X400Y2341D01*
X448Y2368D01*
X477Y2317D01*
X430Y2290D01*
G37*
D02*
G36*
X500Y2330D02*
X470Y2381D01*
X518Y2409D01*
X547Y2357D01*
X500Y2330D01*
G37*
D02*
G36*
X1613Y1295D02*
X1664Y1265D01*
X1637Y1217D01*
X1586Y1247D01*
X1613Y1295D01*
G37*
D02*
G36*
X1573Y1225D02*
X1624Y1195D01*
X1596Y1148D01*
X1545Y1177D01*
X1573Y1225D01*
G37*
D02*
G04 End of Copper0*
M02*