G04 MADE WITH FRITZING*
G04 WWW.FRITZING.ORG*
G04 DOUBLE SIDED*
G04 HOLES PLATED*
G04 CONTOUR ON CENTER OF CONTOUR VECTOR*
%ASAXBY*%
%FSLAX23Y23*%
%MOIN*%
%OFA0B0*%
%SFA1.0B1.0*%
%ADD10C,0.092677*%
%ADD11C,0.265905*%
%ADD12C,0.155669*%
%ADD13C,0.049370*%
%ADD14C,0.080000*%
%ADD15C,0.088000*%
%ADD16C,0.128110*%
%ADD17C,0.226535*%
%ADD18C,0.214724*%
%ADD19R,0.065118X0.069055*%
%ADD20R,0.079972X0.080000*%
%ADD21R,0.069055X0.065118*%
%ADD22C,0.010000*%
%LNMASK0*%
G90*
G70*
G54D10*
X1336Y2021D03*
X1336Y1717D03*
X436Y1717D03*
X436Y2021D03*
X436Y491D03*
X436Y803D03*
X1336Y803D03*
X1336Y499D03*
G54D11*
X886Y1634D03*
G54D12*
X1240Y2244D03*
X413Y1260D03*
X1240Y276D03*
G54D13*
X626Y1799D03*
X315Y2032D03*
X773Y1863D03*
X568Y2299D03*
X507Y1641D03*
X129Y1679D03*
X765Y1427D03*
X493Y1010D03*
X887Y1324D03*
X1218Y968D03*
X1032Y1274D03*
X1276Y1404D03*
X1508Y1221D03*
X846Y890D03*
G54D14*
X1854Y1844D03*
X1854Y1744D03*
X1854Y1644D03*
X1854Y1544D03*
X1854Y1444D03*
X1854Y1344D03*
X1854Y1244D03*
X1854Y1144D03*
X1854Y1044D03*
X1854Y944D03*
X1854Y844D03*
X1854Y744D03*
X1854Y644D03*
X1854Y544D03*
X1854Y444D03*
X2454Y1844D03*
X2454Y1744D03*
X2454Y1644D03*
X2454Y1544D03*
X2454Y1444D03*
X2454Y1344D03*
X2454Y1244D03*
X2454Y1144D03*
X2454Y1044D03*
X2454Y944D03*
X2454Y844D03*
X2454Y744D03*
X2454Y644D03*
X2454Y544D03*
X2454Y444D03*
G54D15*
X2591Y2359D03*
X2491Y2359D03*
X2391Y2359D03*
X2291Y2359D03*
X2591Y2359D03*
X2491Y2359D03*
X2391Y2359D03*
X2291Y2359D03*
X2291Y2259D03*
X2391Y2259D03*
X2491Y2259D03*
X2591Y2259D03*
G54D16*
X415Y1263D03*
X1238Y2247D03*
X1243Y275D03*
G54D17*
X156Y162D03*
X2557Y2563D03*
X155Y2563D03*
X2556Y163D03*
G54D18*
X885Y1635D03*
G54D15*
X1685Y2549D03*
X1785Y2549D03*
X1885Y2549D03*
X1985Y2549D03*
X2085Y2549D03*
G54D19*
X1705Y2418D03*
X1786Y2418D03*
X1706Y2323D03*
X1787Y2323D03*
X843Y2462D03*
X924Y2462D03*
G54D20*
X1854Y1844D03*
G54D21*
X58Y1594D03*
X58Y1675D03*
G54D19*
X2271Y1139D03*
X2352Y1139D03*
X2271Y1441D03*
X2352Y1441D03*
G54D21*
X1717Y1680D03*
X1717Y1600D03*
G54D19*
X923Y804D03*
X842Y804D03*
X2271Y1240D03*
X2352Y1240D03*
X2271Y1340D03*
X2352Y1340D03*
X2271Y1037D03*
X2352Y1037D03*
X2271Y937D03*
X2352Y937D03*
X2271Y837D03*
X2352Y837D03*
X2271Y737D03*
X2352Y737D03*
G54D22*
G36*
X164Y1972D02*
X113Y2002D01*
X141Y2050D01*
X192Y2020D01*
X164Y1972D01*
G37*
D02*
G36*
X205Y2042D02*
X153Y2072D01*
X181Y2120D01*
X232Y2090D01*
X205Y2042D01*
G37*
D02*
G36*
X1235Y2357D02*
X1264Y2408D01*
X1312Y2380D01*
X1282Y2329D01*
X1235Y2357D01*
G37*
D02*
G36*
X1305Y2316D02*
X1334Y2367D01*
X1382Y2340D01*
X1352Y2289D01*
X1305Y2316D01*
G37*
D02*
G36*
X1540Y2095D02*
X1591Y2124D01*
X1618Y2077D01*
X1567Y2047D01*
X1540Y2095D01*
G37*
D02*
G36*
X1580Y2025D02*
X1631Y2055D01*
X1659Y2007D01*
X1608Y1977D01*
X1580Y2025D01*
G37*
D02*
G36*
X228Y1175D02*
X177Y1145D01*
X150Y1193D01*
X201Y1222D01*
X228Y1175D01*
G37*
D02*
G36*
X188Y1244D02*
X137Y1215D01*
X109Y1263D01*
X160Y1292D01*
X188Y1244D01*
G37*
D02*
G36*
X542Y901D02*
X512Y850D01*
X464Y878D01*
X494Y929D01*
X542Y901D01*
G37*
D02*
G36*
X472Y942D02*
X442Y890D01*
X394Y918D01*
X424Y969D01*
X472Y942D01*
G37*
D02*
G36*
X1346Y975D02*
X1375Y924D01*
X1328Y896D01*
X1298Y947D01*
X1346Y975D01*
G37*
D02*
G36*
X1276Y934D02*
X1305Y883D01*
X1258Y856D01*
X1228Y907D01*
X1276Y934D01*
G37*
D02*
G36*
X430Y2290D02*
X400Y2341D01*
X448Y2368D01*
X477Y2317D01*
X430Y2290D01*
G37*
D02*
G36*
X500Y2330D02*
X470Y2381D01*
X518Y2409D01*
X547Y2357D01*
X500Y2330D01*
G37*
D02*
G36*
X1613Y1295D02*
X1664Y1265D01*
X1637Y1217D01*
X1586Y1247D01*
X1613Y1295D01*
G37*
D02*
G36*
X1573Y1225D02*
X1624Y1195D01*
X1596Y1148D01*
X1545Y1177D01*
X1573Y1225D01*
G37*
D02*
G04 End of Mask0*
M02*