; NON-PLATED HOLES START AT T1
; THROUGH (PLATED) HOLES START AT T100
M48
INCH
T1C0.118110
T2C0.204724
T100C0.157480
T101C0.129921
T102C0.038000
T103C0.015748
T104C0.043307
T105C0.036000
T106C0.216535
%
T1
X004152Y012625
X012429Y002750
X012383Y022471
T2
X008851Y016348
T100
X001564Y001619
X025562Y001630
X025573Y025629
X001553Y025629
T101
X004133Y012599
X012401Y022442
X012401Y002757
T102
X025912Y023592
X022912Y022592
X016848Y025486
X022912Y023592
X017848Y025486
X023912Y022592
X024912Y022592
X020848Y025486
X023912Y023592
X018848Y025486
X024912Y023592
X019848Y025486
X025912Y022592
T103
X005065Y016405
X007648Y014266
X001287Y016794
X007732Y018627
X012176Y009683
X012760Y014044
X003148Y020322
X015084Y012208
X008455Y008899
X010315Y012738
X004926Y010100
X005676Y022988
X006259Y017988
X008871Y013238
T104
X004359Y020206
X004359Y017174
X004359Y008025
X013355Y020206
X013355Y004993
X004359Y004914
X013355Y017174
X013355Y008025
T105
X024535Y018436
X018535Y014436
X018535Y007436
X024535Y015436
X024535Y008436
X018535Y011436
X018535Y004436
X024535Y012436
X024535Y005436
X018535Y016436
X018535Y009436
X024535Y017436
X018535Y013436
X018535Y006436
X024535Y014436
X024535Y007436
X018535Y010436
X024535Y011436
X024535Y004436
X018535Y018436
X018535Y015436
X018535Y008436
X024535Y016436
X024535Y009436
X018535Y012436
X018535Y005436
X024535Y013436
X024535Y006436
X024535Y010436
X018535Y017436
T106
X008857Y016340
T00
M30
