<?xml version="1.0" encoding="UTF-8" standalone="no"?>
<!-- Generator: Adobe Illustrator 15.1.0, SVG Export Plug-In . SVG Version: 6.00 Build 0)  -->

<svg
   xmlns:dc="http://purl.org/dc/elements/1.1/"
   xmlns:cc="http://creativecommons.org/ns#"
   xmlns:rdf="http://www.w3.org/1999/02/22-rdf-syntax-ns#"
   xmlns:svg="http://www.w3.org/2000/svg"
   xmlns="http://www.w3.org/2000/svg"
   xmlns:sodipodi="http://sodipodi.sourceforge.net/DTD/sodipodi-0.dtd"
   xmlns:inkscape="http://www.inkscape.org/namespaces/inkscape"
   version="1.1"
   x="0px"
   id="Ebene_1"
   y="0px"
   width="12.3mm"
   xml:space="preserve"
   viewBox="0 0 34.866142 29.268"
   height="10.325094mm"
   enable-background="new 0 0 62.352 28.699"
   gorn="0"
   inkscape:version="0.91 r13725"
   sodipodi:docname="allan_dipswitch-04_icon.svg"><metadata
     id="metadata7595"><rdf:RDF><cc:Work
         rdf:about=""><dc:format>image/svg+xml</dc:format><dc:type
           rdf:resource="http://purl.org/dc/dcmitype/StillImage" /><dc:title></dc:title></cc:Work></rdf:RDF></metadata><defs
     id="defs7593" /><sodipodi:namedview
     pagecolor="#ffffff"
     bordercolor="#666666"
     borderopacity="1"
     objecttolerance="10"
     gridtolerance="10"
     guidetolerance="10"
     inkscape:pageopacity="0"
     inkscape:pageshadow="2"
     inkscape:window-width="1405"
     inkscape:window-height="796"
     id="namedview7591"
     showgrid="false"
     fit-margin-top="0"
     fit-margin-left="0"
     fit-margin-right="0"
     fit-margin-bottom="0"
     units="mm"
     inkscape:zoom="4.4393123"
     inkscape:cx="39.62495"
     inkscape:cy="18.648115"
     inkscape:window-x="0"
     inkscape:window-y="0"
     inkscape:window-maximized="0"
     inkscape:current-layer="Ebene_1" /><desc
     id="desc7064"><referenceFile>sparkfun-electromechanical_dipswitch-08_breadboard.svg</referenceFile></desc><g
     id="g8755"><circle
       style="fill:none"
       gorn="0.0.0.0"
       cy="27.533001"
       cx="6.5719604"
       id="connector0pin"
       r="1.735" /><circle
       style="fill:none"
       gorn="0.0.0.1"
       cy="27.533001"
       cx="13.77196"
       id="connector1pin"
       r="1.735" /><circle
       style="fill:none"
       gorn="0.0.0.4"
       cy="27.533001"
       cx="20.97196"
       id="connector2pin"
       r="1.735" /><circle
       style="fill:none"
       gorn="0.0.0.5"
       cy="27.533001"
       cx="28.171961"
       id="connector3pin"
       r="1.735" /><circle
       style="fill:none"
       gorn="0.0.0.12"
       cy="5.9320002"
       cx="28.171961"
       id="connector12pin"
       r="1.735" /><circle
       style="fill:none"
       gorn="0.0.0.13"
       cy="5.9320002"
       cx="20.97196"
       id="connector13pin"
       r="1.735" /><circle
       style="fill:none"
       gorn="0.0.0.14"
       cy="5.9320002"
       cx="13.77196"
       id="connector14pin"
       r="1.735" /><circle
       style="fill:none"
       gorn="0.0.0.15"
       cy="5.9320002"
       cx="6.5719604"
       id="connector15pin"
       r="1.735" /><g
       transform="translate(0.52396052,0)"
       id="g7129"><path
         d="m 28.476,24.438 -1.656,0 0,3.625 c 0,0 0.5,0.639 0.827,0.639 0.328,0 0.829,-0.639 0.829,-0.639 l 0,-3.625 0,0 z"
         id="path7131"
         inkscape:connector-curvature="0"
         style="fill:#999999" /><path
         d="m 27.646,28.699 c 0.328,0 0.829,-0.637 0.829,-0.637 l 0,-3.625"
         id="path7133"
         inkscape:connector-curvature="0"
         style="fill:#808080" /><path
         d="m 27.994,24.438 -0.69,0 0,3.625 c 0,0 0.208,0.639 0.345,0.639 0.137,0 0.346,-0.639 0.346,-0.639 l -0.001,-3.625 0,0 z"
         id="path7135"
         inkscape:connector-curvature="0"
         style="fill:#b3b3b3" /></g><g
       transform="translate(0.52396052,0)"
       id="g7139"><path
         d="m 21.275,24.438 -1.655,0 0,3.625 c 0,0 0.5,0.639 0.827,0.639 0.328,0 0.829,-0.639 0.829,-0.639 l -0.001,-3.625 0,0 z"
         id="path7141"
         inkscape:connector-curvature="0"
         style="fill:#999999" /><path
         d="m 20.446,28.699 c 0.328,0 0.829,-0.637 0.829,-0.637 l 0,-3.625"
         id="path7143"
         inkscape:connector-curvature="0"
         style="fill:#808080" /><path
         d="m 20.793,24.438 -0.69,0 0,3.625 c 0,0 0.208,0.639 0.345,0.639 0.137,0 0.346,-0.639 0.346,-0.639 l -0.001,-3.625 0,0 z"
         id="path7145"
         inkscape:connector-curvature="0"
         style="fill:#b3b3b3" /></g><g
       transform="translate(0.52396052,0)"
       id="g7149"><path
         d="m 14.075,24.438 -1.656,0 0,3.625 c 0,0 0.5,0.639 0.827,0.639 0.328,0 0.829,-0.639 0.829,-0.639 l 0,-3.625 0,0 z"
         id="path7151"
         inkscape:connector-curvature="0"
         style="fill:#999999" /><path
         d="m 13.246,28.699 c 0.328,0 0.829,-0.637 0.829,-0.637 l 0,-3.625"
         id="path7153"
         inkscape:connector-curvature="0"
         style="fill:#808080" /><path
         d="m 13.593,24.438 -0.69,0 0,3.625 c 0,0 0.208,0.639 0.345,0.639 0.137,0 0.346,-0.639 0.346,-0.639 l -10e-4,-3.625 0,0 z"
         id="path7155"
         inkscape:connector-curvature="0"
         style="fill:#b3b3b3" /></g><g
       transform="translate(0.52396052,0)"
       id="g7159"><path
         d="m 6.875,24.438 -1.656,0 0,3.625 c 0,0 0.5,0.639 0.827,0.639 0.328,0 0.829,-0.639 0.829,-0.639 l 0,-3.625 0,0 z"
         id="path7161"
         inkscape:connector-curvature="0"
         style="fill:#999999" /><path
         d="m 6.046,28.699 c 0.328,0 0.829,-0.637 0.829,-0.637 l 0,-3.625"
         id="path7163"
         inkscape:connector-curvature="0"
         style="fill:#808080" /><path
         d="m 6.393,24.438 -0.69,0 0,3.625 c 0,0 0.208,0.639 0.345,0.639 0.137,0 0.346,-0.639 0.346,-0.639 l -0.001,-3.625 0,0 z"
         id="path7165"
         inkscape:connector-curvature="0"
         style="fill:#b3b3b3" /></g><rect
       y="0"
       width="34.599937"
       height="21.795"
       id="rect7167"
       x="-1.7654906e-05"
       style="fill:#0071bc" /><rect
       y="21.795"
       width="34.599937"
       height="5.0630002"
       id="rect7169"
       x="-1.8310557e-05"
       style="fill:#07466f" /><rect
       y="6.4120002"
       width="1.728"
       height="9.3610001"
       id="rect7171"
       x="0.52396053"
       style="fill:#07466f" /><rect
       y="9.8649998"
       width="1.728"
       height="5.9089999"
       id="rect7173"
       x="0.52396053"
       style="fill:#333333" /><rect
       x="32.346924"
       y="6.4120002"
       width="1.729"
       height="9.3610001"
       id="rect7175"
       style="fill:#07466f" /><rect
       x="32.346924"
       y="9.8649998"
       width="1.729"
       height="5.9089999"
       id="rect7177"
       style="fill:#333333" /><text
       y="4.7419"
       x="5.7422605"
       style="font-size:5.2111001px;font-family:OCRA;fill:#ffffff"
       id="text7181"
       font-size="5.2111">ON</text>
<text
       y="4.7419"
       x="20.811441"
       style="font-size:5.2111001px;font-family:OCRA;fill:#ffffff"
       id="text7185"
       font-size="5.2111">DIP</text>
<g
       transform="translate(26.504461,20.616)"
       id="g7215"><text
         font-size="5.2111"
         id="text7217"
         style="font-size:5.2111001px;font-family:OCRA;fill:#ffffff">4</text>
</g><g
       transform="translate(19.304261,20.616)"
       id="g7221"><text
         font-size="5.2111"
         id="text7223"
         style="font-size:5.2111001px;font-family:OCRA;fill:#ffffff">3</text>
</g><g
       transform="translate(12.104061,20.616)"
       id="g7227"><text
         font-size="5.2111"
         id="text7229"
         style="font-size:5.2111001px;font-family:OCRA;fill:#ffffff">2</text>
</g><g
       transform="translate(4.9038605,20.616)"
       id="g7233"><text
         font-size="5.2111"
         id="text7235"
         style="font-size:5.2111001px;font-family:OCRA;fill:#ffffff">1</text>
</g><text
       y="20.615999"
       x="8.4785604"
       style="font-size:5.2111001px;font-family:OCRA;fill:#ffffff"
       id="text7239"
       font-size="5.2111" />
<rect
       y="15.774"
       width="0.28799999"
       height="6.0209999"
       enable-background="new    "
       id="rect7241"
       x="0.52396053"
       style="opacity:0.2;fill:#ffffff" /><rect
       y="21.795"
       width="0.28799999"
       height="5.0409999"
       enable-background="new    "
       id="rect7243"
       x="0.52396053"
       style="opacity:0.2;fill:#ffffff" /><rect
       x="33.786919"
       y="6.4120002"
       width="0.289"
       height="3.4519999"
       enable-background="new    "
       id="rect7247"
       style="opacity:0.2" /><rect
       x="2.1855245"
       y="26.570999"
       width="31.786852"
       height="0.287"
       enable-background="new    "
       id="rect7251"
       style="opacity:0.2" /><rect
       x="33.786926"
       y="16.733"
       width="0.289"
       height="5.0630002"
       enable-background="new    "
       id="rect7253"
       style="opacity:0.2" /><rect
       x="1.0539834"
       y="21.506001"
       width="32.78093"
       height="0.289"
       enable-background="new    "
       id="rect7255"
       style="opacity:0.2" /><rect
       y="0.001"
       width="0.28799999"
       height="5.0630002"
       enable-background="new    "
       id="rect7257"
       x="0.52396053"
       style="opacity:0.2;fill:#ffffff" /><rect
       x="0.81196052"
       y="0.001"
       width="54"
       height="0.28799999"
       enable-background="new    "
       id="rect7259"
       style="opacity:0.2;fill:#ffffff" /><rect
       x="0.53696054"
       y="6.4120002"
       width="0.28799999"
       height="3.4519999"
       enable-background="new    "
       id="rect7261"
       style="opacity:0.2" /><rect
       x="26.01296"
       y="5.4980001"
       width="4.3200002"
       height="10.802"
       id="rect7429"
       style="fill:#e6e6e6" /><rect
       x="27.094959"
       y="6.7950001"
       width="2.1600001"
       height="8.7510004"
       id="rect7431"
       style="fill:#cccccc" /><rect
       x="26.920959"
       y="6.7950001"
       width="0.17399999"
       height="8.7510004"
       enable-background="new    "
       id="rect7433"
       style="opacity:0.2;fill:#ffffff" /><rect
       x="27.094959"
       y="6.7950001"
       width="2.1600001"
       height="0.221"
       id="rect7435"
       style="fill:#b3b3b3" /><rect
       x="26.014959"
       y="5.4980001"
       width="4.3200002"
       height="0.71399999"
       id="rect7437"
       style="fill:#07466f" /><rect
       x="25.81496"
       y="5.4980001"
       width="0.198"
       height="10.802"
       enable-background="new    "
       id="rect7439"
       style="opacity:0.2;fill:#ffffff" /><g
       transform="translate(0.52396052,0)"
       id="g7441"><rect
         x="26.209"
         y="5.6069999"
         width="2.8800001"
         height="4.7290001"
         id="rect7443"
         style="fill:#b3b3b3" /><rect
         x="26.209"
         y="5.6069999"
         width="2.8800001"
         height="1.128"
         id="rect7445"
         style="fill:#f2f2f2" /><rect
         x="26.209"
         y="7.0100002"
         width="2.8800001"
         height="1.523"
         id="rect7447"
         style="fill:#f2f2f2" /><rect
         x="28.895"
         y="8.7399998"
         width="0.19400001"
         height="1.596"
         enable-background="new    "
         id="rect7449"
         style="opacity:0.2" /><rect
         x="27.301001"
         y="10.14"
         width="1.594"
         height="0.193"
         enable-background="new    "
         id="rect7451"
         style="opacity:0.2" /><rect
         x="28.895"
         y="7.204"
         width="0.19400001"
         height="1.331"
         enable-background="new    "
         id="rect7453"
         style="opacity:0.11000001" /><rect
         x="27.301001"
         y="8.3400002"
         width="1.594"
         height="0.19400001"
         enable-background="new    "
         id="rect7455"
         style="opacity:0.11000001" /><rect
         x="26.202"
         y="7.0100002"
         width="0.193"
         height="1.329"
         id="rect7457"
         style="fill:#ffffff" /><rect
         x="26.396999"
         y="7.0100002"
         width="1.594"
         height="0.193"
         id="rect7459"
         style="fill:#ffffff" /><rect
         x="28.895"
         y="5.5939999"
         width="0.19400001"
         height="1.142"
         enable-background="new    "
         id="rect7461"
         style="opacity:0.11000001" /><rect
         x="27.301001"
         y="6.54"
         width="1.594"
         height="0.193"
         enable-background="new    "
         id="rect7463"
         style="opacity:0.11000001" /><rect
         x="26.202"
         y="5.6069999"
         width="0.193"
         height="1.105"
         id="rect7465"
         style="fill:#ffffff" /><rect
         x="26.396999"
         y="5.6560001"
         width="1.594"
         height="0.193"
         id="rect7467"
         style="fill:#ffffff" /></g><rect
       x="18.81296"
       y="5.4980001"
       width="4.3200002"
       height="10.802"
       id="rect7471"
       style="fill:#e6e6e6" /><rect
       x="19.89496"
       y="6.7950001"
       width="2.1600001"
       height="8.7510004"
       id="rect7473"
       style="fill:#cccccc" /><rect
       x="19.720961"
       y="6.7950001"
       width="0.17399999"
       height="8.7510004"
       enable-background="new    "
       id="rect7475"
       style="opacity:0.2;fill:#ffffff" /><rect
       x="19.89496"
       y="6.7950001"
       width="2.1600001"
       height="0.221"
       id="rect7477"
       style="fill:#b3b3b3" /><rect
       x="19.532961"
       y="10.85"
       width="2.8800001"
       height="4.7290001"
       id="rect7479"
       style="fill:#b3b3b3" /><rect
       x="19.532961"
       y="10.85"
       width="2.8800001"
       height="1.128"
       id="rect7481"
       style="fill:#f2f2f2" /><rect
       x="19.532961"
       y="12.254"
       width="2.8800001"
       height="1.524"
       id="rect7483"
       style="fill:#f2f2f2" /><rect
       x="18.81496"
       y="5.4980001"
       width="4.3200002"
       height="0.71399999"
       id="rect7485"
       style="fill:#07466f" /><rect
       x="18.61396"
       y="5.4980001"
       width="0.198"
       height="10.802"
       enable-background="new    "
       id="rect7487"
       style="opacity:0.2;fill:#ffffff" /><rect
       x="22.21896"
       y="13.983"
       width="0.19400001"
       height="1.596"
       enable-background="new    "
       id="rect7489"
       style="opacity:0.2" /><rect
       x="20.62496"
       y="15.384"
       width="1.594"
       height="0.19400001"
       enable-background="new    "
       id="rect7491"
       style="opacity:0.2" /><rect
       x="22.21896"
       y="12.447"
       width="0.19400001"
       height="1.331"
       enable-background="new    "
       id="rect7493"
       style="opacity:0.11000001" /><rect
       x="20.62496"
       y="13.583"
       width="1.594"
       height="0.19400001"
       enable-background="new    "
       id="rect7495"
       style="opacity:0.11000001" /><rect
       x="19.52496"
       y="12.254"
       width="0.193"
       height="1.33"
       id="rect7497"
       style="fill:#ffffff" /><rect
       x="19.720961"
       y="12.253"
       width="1.594"
       height="0.19400001"
       id="rect7499"
       style="fill:#ffffff" /><rect
       x="22.21896"
       y="10.837"
       width="0.19400001"
       height="1.143"
       enable-background="new    "
       id="rect7501"
       style="opacity:0.11000001" /><rect
       x="20.62496"
       y="11.783"
       width="1.594"
       height="0.193"
       enable-background="new    "
       id="rect7503"
       style="opacity:0.11000001" /><rect
       x="19.52496"
       y="10.85"
       width="0.193"
       height="1.105"
       id="rect7505"
       style="fill:#ffffff" /><rect
       x="19.720961"
       y="10.899"
       width="1.594"
       height="0.192"
       id="rect7507"
       style="fill:#ffffff" /><rect
       x="11.61196"
       y="5.4980001"
       width="4.3200002"
       height="10.802"
       id="rect7511"
       style="fill:#e6e6e6" /><rect
       x="12.69396"
       y="6.7950001"
       width="2.1600001"
       height="8.7510004"
       id="rect7513"
       style="fill:#cccccc" /><rect
       x="12.52096"
       y="6.7950001"
       width="0.17399999"
       height="8.7510004"
       enable-background="new    "
       id="rect7515"
       style="opacity:0.2;fill:#ffffff" /><rect
       x="12.69396"
       y="6.7950001"
       width="2.1600001"
       height="0.221"
       id="rect7517"
       style="fill:#b3b3b3" /><rect
       x="11.61396"
       y="5.4980001"
       width="4.3200002"
       height="0.71399999"
       id="rect7519"
       style="fill:#07466f" /><rect
       x="11.41396"
       y="5.4980001"
       width="0.198"
       height="10.802"
       enable-background="new    "
       id="rect7521"
       style="opacity:0.2;fill:#ffffff" /><g
       transform="translate(0.52396052,0)"
       id="g7523"><rect
         x="11.809"
         y="5.5999999"
         width="2.8800001"
         height="4.7290001"
         id="rect7525"
         style="fill:#b3b3b3" /><rect
         x="11.809"
         y="5.5999999"
         width="2.8800001"
         height="1.128"
         id="rect7527"
         style="fill:#f2f2f2" /><rect
         x="11.809"
         y="7.0040002"
         width="2.8800001"
         height="1.524"
         id="rect7529"
         style="fill:#f2f2f2" /><rect
         x="14.495"
         y="8.7329998"
         width="0.19400001"
         height="1.596"
         enable-background="new    "
         id="rect7531"
         style="opacity:0.2" /><rect
         x="12.901"
         y="10.134"
         width="1.594"
         height="0.19400001"
         enable-background="new    "
         id="rect7533"
         style="opacity:0.2" /><rect
         x="14.495"
         y="7.197"
         width="0.19400001"
         height="1.331"
         enable-background="new    "
         id="rect7535"
         style="opacity:0.11000001" /><rect
         x="12.901"
         y="8.3330002"
         width="1.594"
         height="0.19400001"
         enable-background="new    "
         id="rect7537"
         style="opacity:0.11000001" /><rect
         x="11.801"
         y="7.0040002"
         width="0.193"
         height="1.33"
         id="rect7539"
         style="fill:#ffffff" /><rect
         x="11.997"
         y="7.0029998"
         width="1.594"
         height="0.19400001"
         id="rect7541"
         style="fill:#ffffff" /><rect
         x="14.495"
         y="5.5869999"
         width="0.19400001"
         height="1.143"
         enable-background="new    "
         id="rect7543"
         style="opacity:0.11000001" /><rect
         x="12.901"
         y="6.533"
         width="1.594"
         height="0.193"
         enable-background="new    "
         id="rect7545"
         style="opacity:0.11000001" /><rect
         x="11.801"
         y="5.5999999"
         width="0.193"
         height="1.105"
         id="rect7547"
         style="fill:#ffffff" /><rect
         x="11.997"
         y="5.6490002"
         width="1.594"
         height="0.192"
         id="rect7549"
         style="fill:#ffffff" /></g><rect
       x="4.4119606"
       y="5.4980001"
       width="4.3200002"
       height="10.802"
       id="rect7553"
       style="fill:#e6e6e6" /><rect
       x="5.4939604"
       y="6.7950001"
       width="2.1600001"
       height="8.7510004"
       id="rect7555"
       style="fill:#cccccc" /><rect
       x="5.3199606"
       y="6.7950001"
       width="0.17399999"
       height="8.7510004"
       enable-background="new    "
       id="rect7557"
       style="opacity:0.2;fill:#ffffff" /><rect
       x="5.4939604"
       y="6.7950001"
       width="2.1600001"
       height="0.221"
       id="rect7559"
       style="fill:#b3b3b3" /><rect
       x="5.1329608"
       y="10.85"
       width="2.8800001"
       height="4.7290001"
       id="rect7561"
       style="fill:#b3b3b3" /><rect
       x="5.1329608"
       y="10.85"
       width="2.8800001"
       height="1.128"
       id="rect7563"
       style="fill:#f2f2f2" /><rect
       x="5.1329608"
       y="12.254"
       width="2.8800001"
       height="1.524"
       id="rect7565"
       style="fill:#f2f2f2" /><rect
       x="4.4139605"
       y="5.4980001"
       width="4.3200002"
       height="0.71399999"
       id="rect7567"
       style="fill:#07466f" /><rect
       x="4.2139606"
       y="5.4980001"
       width="0.198"
       height="10.802"
       enable-background="new    "
       id="rect7569"
       style="opacity:0.2;fill:#ffffff" /><rect
       x="7.8179607"
       y="13.983"
       width="0.19400001"
       height="1.596"
       enable-background="new    "
       id="rect7571"
       style="opacity:0.2" /><rect
       x="6.2249608"
       y="15.384"
       width="1.594"
       height="0.19400001"
       enable-background="new    "
       id="rect7573"
       style="opacity:0.2" /><rect
       x="7.8179607"
       y="12.447"
       width="0.19400001"
       height="1.331"
       enable-background="new    "
       id="rect7575"
       style="opacity:0.11000001" /><rect
       x="6.2249608"
       y="13.583"
       width="1.594"
       height="0.19400001"
       enable-background="new    "
       id="rect7577"
       style="opacity:0.11000001" /><rect
       x="5.1249604"
       y="12.254"
       width="0.193"
       height="1.33"
       id="rect7579"
       style="fill:#ffffff" /><rect
       x="5.3199606"
       y="12.253"
       width="1.594"
       height="0.19400001"
       id="rect7581"
       style="fill:#ffffff" /><rect
       x="7.8179607"
       y="10.837"
       width="0.19400001"
       height="1.143"
       enable-background="new    "
       id="rect7583"
       style="opacity:0.11000001" /><rect
       x="6.2249608"
       y="11.783"
       width="1.594"
       height="0.193"
       enable-background="new    "
       id="rect7585"
       style="opacity:0.11000001" /><rect
       x="5.1249604"
       y="10.85"
       width="0.193"
       height="1.105"
       id="rect7587"
       style="fill:#ffffff" /><rect
       x="5.3199606"
       y="10.899"
       width="1.594"
       height="0.192"
       id="rect7589"
       style="fill:#ffffff" /></g></svg>