G04 MADE WITH FRITZING*
G04 WWW.FRITZING.ORG*
G04 DOUBLE SIDED*
G04 HOLES PLATED*
G04 CONTOUR ON CENTER OF CONTOUR VECTOR*
%ASAXBY*%
%FSLAX23Y23*%
%MOIN*%
%OFA0B0*%
%SFA1.0B1.0*%
%ADD10C,0.255905*%
%ADD11C,0.145669*%
%ADD12R,0.062992X0.137795*%
%ADD13R,0.074803X0.062992*%
%ADD14R,0.062992X0.074803*%
%ADD15R,0.055118X0.059055*%
%ADD16R,0.080000X0.026000*%
%ADD17R,0.059055X0.055118*%
%LNPASTEMASK1*%
G90*
G70*
G54D10*
X1965Y1971D03*
G54D11*
X2319Y2582D03*
X1492Y1597D03*
X2319Y613D03*
G54D12*
X3069Y2829D03*
X3069Y2617D03*
G54D13*
X3357Y1170D03*
X3357Y1292D03*
X3219Y1170D03*
X3219Y1292D03*
X3081Y1170D03*
X3081Y1292D03*
X2943Y1170D03*
X2943Y1292D03*
G54D14*
X3044Y1542D03*
X3166Y1542D03*
G54D15*
X850Y2267D03*
X769Y2267D03*
X3088Y1717D03*
X3169Y1717D03*
G54D16*
X670Y2167D03*
X670Y2117D03*
X670Y2067D03*
X670Y2017D03*
X670Y1967D03*
X670Y1917D03*
X670Y1867D03*
X670Y1817D03*
X912Y1817D03*
X912Y1867D03*
X912Y1917D03*
X912Y1967D03*
X912Y2017D03*
X912Y2067D03*
X912Y2117D03*
X912Y2167D03*
G54D14*
X3445Y2361D03*
X3567Y2361D03*
X473Y1573D03*
X351Y1573D03*
X3445Y2203D03*
X3567Y2203D03*
X473Y1731D03*
X351Y1731D03*
X3445Y2046D03*
X3567Y2046D03*
X473Y1888D03*
X351Y1888D03*
X473Y2046D03*
X351Y2046D03*
X3445Y1888D03*
X3567Y1888D03*
X3445Y1731D03*
X3567Y1731D03*
X473Y2203D03*
X351Y2203D03*
X3445Y1573D03*
X3567Y1573D03*
X473Y2361D03*
X351Y2361D03*
G54D16*
X3249Y1806D03*
X3249Y1856D03*
X3249Y1906D03*
X3249Y1956D03*
X3249Y2006D03*
X3249Y2056D03*
X3249Y2106D03*
X3249Y2156D03*
X3007Y2156D03*
X3007Y2106D03*
X3007Y2056D03*
X3007Y2006D03*
X3007Y1956D03*
X3007Y1906D03*
X3007Y1856D03*
X3007Y1806D03*
G54D17*
X656Y3036D03*
X656Y3116D03*
X3272Y3036D03*
X3272Y3117D03*
G54D13*
X2167Y3637D03*
X2167Y3759D03*
X1757Y287D03*
X1757Y165D03*
G04 End of PasteMask1*
M02*