; NON-PLATED HOLES START AT T1
; THROUGH (PLATED) HOLES START AT T100
M48
INCH
T1C0.165354
T100C0.039370
T101C0.015748
T102C0.043307
T103C0.036000
T104C0.216535
T105C0.011811
T106C0.038189
T107C0.129921
%
T1
X037402Y037299
X001968Y001959
X001995Y037306
X037412Y001980
T100
X004965Y032160
X004965Y033160
X034329Y030168
X004965Y034160
X034329Y031168
X034329Y032168
X034329Y033168
X004965Y030160
X034329Y034168
X004965Y031160
T101
X015690Y032668
X003579Y011474
X016171Y031224
X011023Y004696
X029440Y008918
X035856Y011724
X022690Y031668
X033440Y028668
X021727Y038668
X013701Y037524
X027690Y015418
X035884Y027752
X002551Y020029
X017542Y000705
X005440Y028418
X029440Y015418
X018690Y034168
X011690Y032168
X011190Y031668
X019690Y033668
X026690Y032168
X003579Y027974
X015829Y001927
X010393Y017224
X034440Y028668
X017134Y033168
X011690Y027168
X011190Y026668
X010468Y031187
X027690Y030668
X019190Y031168
X036690Y019168
T102
X015151Y020548
X024147Y008367
X015151Y023580
X015151Y008288
X024147Y011399
X015151Y011399
X024147Y020548
X024147Y023580
T103
X015730Y035140
X018730Y029140
X013730Y035140
X021730Y029140
X017730Y029140
X012730Y035140
X020730Y029140
X014730Y029140
X024730Y035140
X018730Y035140
X026730Y029140
X021730Y035140
X017730Y035140
X025730Y029140
X020730Y035140
X023730Y029140
X019730Y029140
X014730Y035140
X022730Y029140
X016730Y029140
X015730Y029140
X026730Y035140
X025730Y035140
X013730Y029140
X012730Y029140
X023730Y035140
X019730Y035140
X022730Y035140
X016730Y035140
X024730Y029140
T104
X019649Y019714
T105
X019222Y036548
X020206Y036548
X020123Y002553
X019139Y002553
T106
X032940Y010418
X031940Y010418
X032940Y007418
X030940Y010418
X031940Y007418
X029940Y010418
X030940Y007418
X029940Y007418
T107
X014924Y015974
X023192Y025816
X023192Y006131
T00
M30
